%FSTAX23Y23*%
%MOIN*%
%SFA1B1*%

%IPPOS*%
%ADD10C,0.010000*%
%ADD11C,0.003937*%
%ADD12C,0.007874*%
%ADD13C,0.023622*%
%ADD14C,0.009843*%
%ADD15C,0.005905*%
%ADD16C,0.006000*%
%ADD17C,0.011811*%
%ADD18C,0.003000*%
%LNservo_pwr-1*%
%LPD*%
G36*
X00255Y03129D02*
X00236Y03149D01*
X00216Y03208*
Y03257*
X00226Y03287*
X00246Y03316*
X00255Y03336*
X00255Y03129*
G37*
G36*
X00355Y03608D02*
X00352Y0362D01*
X00358*
X0037Y03608*
Y036*
X00355Y03608*
G37*
G36*
X00429Y03157D02*
X00442D01*
Y03151*
X00429*
Y03137*
X00423*
Y03151*
X00409*
Y03157*
X00423*
Y0317*
X00429*
Y03157*
G37*
G54D10*
X00996Y00374D02*
D01*
X00996Y00377*
X00996Y00381*
X00995Y00385*
X00994Y00389*
X00993Y00393*
X00991Y00396*
X0099Y004*
X00988Y00403*
X00985Y00406*
X00983Y00409*
X0098Y00412*
X00978Y00415*
X00975Y00417*
X00972Y0042*
X00968Y00422*
X00965Y00424*
X00961Y00425*
X00958Y00426*
X00954Y00428*
X0095Y00428*
X00946Y00429*
X00942Y00429*
X00939*
X00935Y00429*
X00931Y00428*
X00927Y00428*
X00923Y00426*
X0092Y00425*
X00916Y00424*
X00913Y00422*
X00909Y0042*
X00906Y00417*
X00903Y00415*
X009Y00412*
X00898Y00409*
X00895Y00406*
X00893Y00403*
X00891Y004*
X0089Y00396*
X00888Y00393*
X00887Y00389*
X00886Y00385*
X00885Y00381*
X00885Y00377*
X00885Y00374*
X00885Y0037*
X00885Y00366*
X00886Y00362*
X00887Y00358*
X00888Y00354*
X0089Y00351*
X00891Y00347*
X00893Y00344*
X00895Y00341*
X00898Y00338*
X009Y00335*
X00903Y00332*
X00906Y0033*
X00909Y00327*
X00913Y00325*
X00916Y00323*
X0092Y00322*
X00923Y00321*
X00927Y00319*
X00931Y00319*
X00935Y00318*
X00939Y00318*
X00942*
X00946Y00318*
X0095Y00319*
X00954Y00319*
X00958Y00321*
X00961Y00322*
X00965Y00323*
X00968Y00325*
X00972Y00327*
X00975Y0033*
X00978Y00332*
X0098Y00335*
X00983Y00338*
X00985Y00341*
X00988Y00344*
X0099Y00347*
X00991Y00351*
X00993Y00354*
X00994Y00358*
X00995Y00362*
X00996Y00366*
X00996Y0037*
X00996Y00374*
X0098Y06188D02*
D01*
X0098Y06192*
X00979Y06196*
X00979Y062*
X00978Y06204*
X00976Y06207*
X00975Y06211*
X00973Y06214*
X00971Y06218*
X00969Y06221*
X00967Y06224*
X00964Y06227*
X00962Y06229*
X00959Y06232*
X00956Y06234*
X00952Y06236*
X00949Y06238*
X00945Y0624*
X00942Y06241*
X00938Y06242*
X00934Y06243*
X0093Y06243*
X00927Y06244*
X00923*
X00919Y06243*
X00915Y06243*
X00911Y06242*
X00908Y06241*
X00904Y0624*
X00901Y06238*
X00897Y06236*
X00894Y06234*
X00891Y06232*
X00888Y06229*
X00885Y06227*
X00882Y06224*
X0088Y06221*
X00878Y06218*
X00876Y06214*
X00874Y06211*
X00873Y06207*
X00872Y06204*
X00871Y062*
X0087Y06196*
X0087Y06192*
X0087Y06188*
X0087Y06185*
X0087Y06181*
X00871Y06177*
X00872Y06173*
X00873Y0617*
X00874Y06166*
X00876Y06163*
X00878Y06159*
X0088Y06156*
X00882Y06153*
X00885Y0615*
X00888Y06148*
X00891Y06145*
X00894Y06143*
X00897Y06141*
X00901Y06139*
X00904Y06137*
X00908Y06136*
X00911Y06135*
X00915Y06134*
X00919Y06134*
X00923Y06133*
X00927*
X0093Y06134*
X00934Y06134*
X00938Y06135*
X00942Y06136*
X00945Y06137*
X00949Y06139*
X00952Y06141*
X00956Y06143*
X00959Y06145*
X00962Y06148*
X00964Y0615*
X00967Y06153*
X00969Y06156*
X00971Y06159*
X00973Y06163*
X00975Y06166*
X00976Y0617*
X00978Y06173*
X00979Y06177*
X00979Y06181*
X0098Y06185*
X0098Y06188*
X02343Y0474D02*
D01*
X02343Y04742*
X02343Y04745*
X02342Y04747*
X02341Y0475*
X02341Y04752*
X0234Y04754*
X02339Y04757*
X02337Y04759*
X02336Y04761*
X02334Y04763*
X02333Y04765*
X02331Y04767*
X02329Y04768*
X02327Y0477*
X02325Y04771*
X02322Y04772*
X0232Y04773*
X02318Y04774*
X02315Y04775*
X02313Y04775*
X0231Y04776*
X02308Y04776*
X02305*
X02303Y04776*
X023Y04775*
X02298Y04775*
X02295Y04774*
X02293Y04773*
X02291Y04772*
X02288Y04771*
X02286Y0477*
X02284Y04768*
X02282Y04767*
X0228Y04765*
X02279Y04763*
X02277Y04761*
X02276Y04759*
X02275Y04757*
X02273Y04754*
X02272Y04752*
X02272Y0475*
X02271Y04747*
X02271Y04745*
X0227Y04742*
X0227Y0474*
X0227Y04737*
X02271Y04735*
X02271Y04732*
X02272Y0473*
X02272Y04727*
X02273Y04725*
X02275Y04723*
X02276Y0472*
X02277Y04718*
X02279Y04716*
X0228Y04714*
X02282Y04713*
X02284Y04711*
X02286Y0471*
X02288Y04708*
X02291Y04707*
X02293Y04706*
X02295Y04705*
X02298Y04704*
X023Y04704*
X02303Y04704*
X02305Y04703*
X02308*
X0231Y04704*
X02313Y04704*
X02315Y04704*
X02318Y04705*
X0232Y04706*
X02322Y04707*
X02325Y04708*
X02327Y0471*
X02329Y04711*
X02331Y04713*
X02333Y04714*
X02334Y04716*
X02336Y04718*
X02337Y0472*
X02339Y04723*
X0234Y04725*
X02341Y04727*
X02341Y0473*
X02342Y04732*
X02343Y04735*
X02343Y04737*
X02343Y0474*
X02115Y04996D02*
D01*
X02114Y04998*
X02114Y05001*
X02114Y05003*
X02113Y05006*
X02112Y05008*
X02111Y0501*
X0211Y05013*
X02109Y05015*
X02108Y05017*
X02106Y05019*
X02104Y05021*
X02103Y05023*
X02101Y05024*
X02099Y05026*
X02096Y05027*
X02094Y05028*
X02092Y05029*
X02089Y0503*
X02087Y05031*
X02085Y05031*
X02082Y05032*
X0208Y05032*
X02077*
X02074Y05032*
X02072Y05031*
X02069Y05031*
X02067Y0503*
X02065Y05029*
X02062Y05028*
X0206Y05027*
X02058Y05026*
X02056Y05024*
X02054Y05023*
X02052Y05021*
X0205Y05019*
X02049Y05017*
X02047Y05015*
X02046Y05013*
X02045Y0501*
X02044Y05008*
X02043Y05006*
X02043Y05003*
X02042Y05001*
X02042Y04998*
X02042Y04996*
X02042Y04993*
X02042Y04991*
X02043Y04988*
X02043Y04986*
X02044Y04983*
X02045Y04981*
X02046Y04979*
X02047Y04976*
X02049Y04974*
X0205Y04972*
X02052Y0497*
X02054Y04969*
X02056Y04967*
X02058Y04965*
X0206Y04964*
X02062Y04963*
X02065Y04962*
X02067Y04961*
X02069Y0496*
X02072Y0496*
X02074Y04959*
X02077Y04959*
X0208*
X02082Y04959*
X02085Y0496*
X02087Y0496*
X02089Y04961*
X02092Y04962*
X02094Y04963*
X02096Y04964*
X02099Y04965*
X02101Y04967*
X02103Y04969*
X02104Y0497*
X02106Y04972*
X02108Y04974*
X02109Y04976*
X0211Y04979*
X02111Y04981*
X02112Y04983*
X02113Y04986*
X02114Y04988*
X02114Y04991*
X02114Y04993*
X02115Y04996*
X02162Y00933D02*
D01*
X02162Y00935*
X02161Y00938*
X02161Y0094*
X0216Y00943*
X0216Y00945*
X02159Y00947*
X02158Y0095*
X02156Y00952*
X02155Y00954*
X02153Y00956*
X02152Y00958*
X0215Y0096*
X02148Y00961*
X02146Y00963*
X02144Y00964*
X02141Y00965*
X02139Y00966*
X02137Y00967*
X02134Y00968*
X02132Y00968*
X02129Y00969*
X02127Y00969*
X02124*
X02122Y00969*
X02119Y00968*
X02117Y00968*
X02114Y00967*
X02112Y00966*
X0211Y00965*
X02107Y00964*
X02105Y00963*
X02103Y00961*
X02101Y0096*
X02099Y00958*
X02098Y00956*
X02096Y00954*
X02095Y00952*
X02093Y0095*
X02092Y00947*
X02091Y00945*
X02091Y00943*
X0209Y0094*
X0209Y00938*
X02089Y00935*
X02089Y00933*
X02089Y0093*
X0209Y00928*
X0209Y00925*
X02091Y00923*
X02091Y0092*
X02092Y00918*
X02093Y00916*
X02095Y00913*
X02096Y00911*
X02098Y00909*
X02099Y00907*
X02101Y00906*
X02103Y00904*
X02105Y00902*
X02107Y00901*
X0211Y009*
X02112Y00899*
X02114Y00898*
X02117Y00897*
X02119Y00897*
X02122Y00896*
X02124Y00896*
X02127*
X02129Y00896*
X02132Y00897*
X02134Y00897*
X02137Y00898*
X02139Y00899*
X02141Y009*
X02144Y00901*
X02146Y00902*
X02148Y00904*
X0215Y00906*
X02152Y00907*
X02153Y00909*
X02155Y00911*
X02156Y00913*
X02158Y00916*
X02159Y00918*
X0216Y0092*
X0216Y00923*
X02161Y00925*
X02161Y00928*
X02162Y0093*
X02162Y00933*
X00399Y04553D02*
D01*
X00399Y04555*
X00399Y04558*
X00398Y0456*
X00398Y04563*
X00397Y04565*
X00396Y04567*
X00395Y0457*
X00393Y04572*
X00392Y04574*
X0039Y04576*
X00389Y04578*
X00387Y0458*
X00385Y04581*
X00383Y04583*
X00381Y04584*
X00379Y04585*
X00376Y04586*
X00374Y04587*
X00371Y04588*
X00369Y04588*
X00366Y04589*
X00364Y04589*
X00361*
X00359Y04589*
X00356Y04588*
X00354Y04588*
X00351Y04587*
X00349Y04586*
X00347Y04585*
X00345Y04584*
X00342Y04583*
X0034Y04581*
X00338Y0458*
X00337Y04578*
X00335Y04576*
X00333Y04574*
X00332Y04572*
X00331Y0457*
X0033Y04567*
X00329Y04565*
X00328Y04563*
X00327Y0456*
X00327Y04558*
X00326Y04555*
X00326Y04553*
X00326Y0455*
X00327Y04548*
X00327Y04545*
X00328Y04543*
X00329Y0454*
X0033Y04538*
X00331Y04536*
X00332Y04533*
X00333Y04531*
X00335Y04529*
X00337Y04527*
X00338Y04526*
X0034Y04524*
X00342Y04523*
X00345Y04521*
X00347Y0452*
X00349Y04519*
X00351Y04518*
X00354Y04517*
X00356Y04517*
X00359Y04517*
X00361Y04516*
X00364*
X00366Y04517*
X00369Y04517*
X00371Y04517*
X00374Y04518*
X00376Y04519*
X00379Y0452*
X00381Y04521*
X00383Y04523*
X00385Y04524*
X00387Y04526*
X00389Y04527*
X0039Y04529*
X00392Y04531*
X00393Y04533*
X00395Y04536*
X00396Y04538*
X00397Y0454*
X00398Y04543*
X00398Y04545*
X00399Y04548*
X00399Y0455*
X00399Y04553*
X0015Y03511D02*
D01*
X0015Y03514*
X0015Y03516*
X00149Y03519*
X00149Y03521*
X00148Y03524*
X00147Y03526*
X00146Y03528*
X00144Y03531*
X00143Y03533*
X00141Y03535*
X0014Y03537*
X00138Y03538*
X00136Y0354*
X00134Y03541*
X00132Y03543*
X0013Y03544*
X00127Y03545*
X00125Y03546*
X00122Y03547*
X0012Y03547*
X00117Y03547*
X00115Y03548*
X00112*
X0011Y03547*
X00107Y03547*
X00105Y03547*
X00102Y03546*
X001Y03545*
X00098Y03544*
X00096Y03543*
X00093Y03541*
X00091Y0354*
X00089Y03538*
X00088Y03537*
X00086Y03535*
X00084Y03533*
X00083Y03531*
X00082Y03528*
X00081Y03526*
X0008Y03524*
X00079Y03521*
X00078Y03519*
X00078Y03516*
X00077Y03514*
X00077Y03511*
X00077Y03509*
X00078Y03506*
X00078Y03504*
X00079Y03501*
X0008Y03499*
X00081Y03497*
X00082Y03494*
X00083Y03492*
X00084Y0349*
X00086Y03488*
X00088Y03486*
X00089Y03484*
X00091Y03483*
X00093Y03481*
X00096Y0348*
X00098Y03479*
X001Y03478*
X00102Y03477*
X00105Y03476*
X00107Y03476*
X0011Y03475*
X00112Y03475*
X00115*
X00117Y03475*
X0012Y03476*
X00122Y03476*
X00125Y03477*
X00127Y03478*
X0013Y03479*
X00132Y0348*
X00134Y03481*
X00136Y03483*
X00138Y03484*
X0014Y03486*
X00141Y03488*
X00143Y0349*
X00144Y03492*
X00146Y03494*
X00147Y03497*
X00148Y03499*
X00149Y03501*
X00149Y03504*
X0015Y03506*
X0015Y03509*
X0015Y03511*
X00564Y03928D02*
D01*
X00564Y0393*
X00564Y03933*
X00564Y03935*
X00563Y03938*
X00562Y0394*
X00561Y03942*
X0056Y03945*
X00559Y03947*
X00557Y03949*
X00556Y03951*
X00554Y03953*
X00552Y03955*
X0055Y03956*
X00548Y03958*
X00546Y03959*
X00544Y0396*
X00542Y03961*
X00539Y03962*
X00537Y03963*
X00534Y03963*
X00532Y03964*
X00529Y03964*
X00527*
X00524Y03964*
X00522Y03963*
X00519Y03963*
X00517Y03962*
X00514Y03961*
X00512Y0396*
X0051Y03959*
X00508Y03958*
X00506Y03956*
X00504Y03955*
X00502Y03953*
X005Y03951*
X00499Y03949*
X00497Y03947*
X00496Y03945*
X00495Y03942*
X00494Y0394*
X00493Y03938*
X00493Y03935*
X00492Y03933*
X00492Y0393*
X00492Y03928*
X00492Y03925*
X00492Y03923*
X00493Y0392*
X00493Y03918*
X00494Y03915*
X00495Y03913*
X00496Y03911*
X00497Y03908*
X00499Y03906*
X005Y03904*
X00502Y03902*
X00504Y03901*
X00506Y03899*
X00508Y03898*
X0051Y03896*
X00512Y03895*
X00514Y03894*
X00517Y03893*
X00519Y03892*
X00522Y03892*
X00524Y03892*
X00527Y03891*
X00529*
X00532Y03892*
X00534Y03892*
X00537Y03892*
X00539Y03893*
X00542Y03894*
X00544Y03895*
X00546Y03896*
X00548Y03898*
X0055Y03899*
X00552Y03901*
X00554Y03902*
X00556Y03904*
X00557Y03906*
X00559Y03908*
X0056Y03911*
X00561Y03913*
X00562Y03915*
X00563Y03918*
X00564Y0392*
X00564Y03923*
X00564Y03925*
X00564Y03928*
X02469Y0487D02*
D01*
X02469Y04872*
X02469Y04875*
X02468Y04877*
X02467Y0488*
X02467Y04882*
X02466Y04884*
X02465Y04887*
X02463Y04889*
X02462Y04891*
X0246Y04893*
X02459Y04895*
X02457Y04897*
X02455Y04898*
X02453Y049*
X02451Y04901*
X02448Y04902*
X02446Y04903*
X02444Y04904*
X02441Y04905*
X02439Y04905*
X02436Y04906*
X02434Y04906*
X02431*
X02429Y04906*
X02426Y04905*
X02424Y04905*
X02421Y04904*
X02419Y04903*
X02417Y04902*
X02414Y04901*
X02412Y049*
X0241Y04898*
X02408Y04897*
X02406Y04895*
X02405Y04893*
X02403Y04891*
X02402Y04889*
X02401Y04887*
X02399Y04884*
X02398Y04882*
X02398Y0488*
X02397Y04877*
X02397Y04875*
X02396Y04872*
X02396Y0487*
X02396Y04867*
X02397Y04865*
X02397Y04862*
X02398Y0486*
X02398Y04857*
X02399Y04855*
X02401Y04853*
X02402Y0485*
X02403Y04848*
X02405Y04846*
X02406Y04844*
X02408Y04843*
X0241Y04841*
X02412Y04839*
X02414Y04838*
X02417Y04837*
X02419Y04836*
X02421Y04835*
X02424Y04834*
X02426Y04834*
X02429Y04833*
X02431Y04833*
X02434*
X02436Y04833*
X02439Y04834*
X02441Y04834*
X02444Y04835*
X02446Y04836*
X02448Y04837*
X02451Y04838*
X02453Y04839*
X02455Y04841*
X02457Y04843*
X02459Y04844*
X0246Y04846*
X02462Y04848*
X02463Y0485*
X02465Y04853*
X02466Y04855*
X02467Y04857*
X02467Y0486*
X02468Y04862*
X02469Y04865*
X02469Y04867*
X02469Y0487*
X01725Y03574D02*
D01*
X01725Y03577*
X01724Y03579*
X01724Y03582*
X01723Y03584*
X01723Y03587*
X01722Y03589*
X01721Y03591*
X01719Y03594*
X01718Y03596*
X01716Y03598*
X01715Y036*
X01713Y03601*
X01711Y03603*
X01709Y03604*
X01707Y03606*
X01704Y03607*
X01702Y03608*
X017Y03609*
X01697Y0361*
X01695Y0361*
X01692Y0361*
X0169Y03611*
X01687*
X01685Y0361*
X01682Y0361*
X0168Y0361*
X01677Y03609*
X01675Y03608*
X01673Y03607*
X0167Y03606*
X01668Y03604*
X01666Y03603*
X01664Y03601*
X01662Y036*
X01661Y03598*
X01659Y03596*
X01658Y03594*
X01656Y03591*
X01655Y03589*
X01654Y03587*
X01654Y03584*
X01653Y03582*
X01653Y03579*
X01652Y03577*
X01652Y03574*
X01652Y03572*
X01653Y03569*
X01653Y03567*
X01654Y03564*
X01654Y03562*
X01655Y0356*
X01656Y03557*
X01658Y03555*
X01659Y03553*
X01661Y03551*
X01662Y03549*
X01664Y03547*
X01666Y03546*
X01668Y03544*
X0167Y03543*
X01673Y03542*
X01675Y03541*
X01677Y0354*
X0168Y03539*
X01682Y03539*
X01685Y03538*
X01687Y03538*
X0169*
X01692Y03538*
X01695Y03539*
X01697Y03539*
X017Y0354*
X01702Y03541*
X01704Y03542*
X01707Y03543*
X01709Y03544*
X01711Y03546*
X01713Y03547*
X01715Y03549*
X01716Y03551*
X01718Y03553*
X01719Y03555*
X01721Y03557*
X01722Y0356*
X01723Y03562*
X01723Y03564*
X01724Y03567*
X01724Y03569*
X01725Y03572*
X01725Y03574*
X01599D02*
D01*
X01599Y03577*
X01598Y03579*
X01598Y03582*
X01597Y03584*
X01597Y03587*
X01596Y03589*
X01595Y03591*
X01593Y03594*
X01592Y03596*
X0159Y03598*
X01589Y036*
X01587Y03601*
X01585Y03603*
X01583Y03604*
X01581Y03606*
X01578Y03607*
X01576Y03608*
X01574Y03609*
X01571Y0361*
X01569Y0361*
X01566Y0361*
X01564Y03611*
X01561*
X01559Y0361*
X01556Y0361*
X01554Y0361*
X01551Y03609*
X01549Y03608*
X01547Y03607*
X01544Y03606*
X01542Y03604*
X0154Y03603*
X01538Y03601*
X01536Y036*
X01535Y03598*
X01533Y03596*
X01532Y03594*
X0153Y03591*
X01529Y03589*
X01528Y03587*
X01528Y03584*
X01527Y03582*
X01527Y03579*
X01526Y03577*
X01526Y03574*
X01526Y03572*
X01527Y03569*
X01527Y03567*
X01528Y03564*
X01528Y03562*
X01529Y0356*
X0153Y03557*
X01532Y03555*
X01533Y03553*
X01535Y03551*
X01536Y03549*
X01538Y03547*
X0154Y03546*
X01542Y03544*
X01544Y03543*
X01547Y03542*
X01549Y03541*
X01551Y0354*
X01554Y03539*
X01556Y03539*
X01559Y03538*
X01561Y03538*
X01564*
X01566Y03538*
X01569Y03539*
X01571Y03539*
X01574Y0354*
X01576Y03541*
X01578Y03542*
X01581Y03543*
X01583Y03544*
X01585Y03546*
X01587Y03547*
X01589Y03549*
X0159Y03551*
X01592Y03553*
X01593Y03555*
X01595Y03557*
X01596Y0356*
X01597Y03562*
X01597Y03564*
X01598Y03567*
X01598Y03569*
X01599Y03572*
X01599Y03574*
X01496Y03555D02*
D01*
X01496Y03557*
X01496Y0356*
X01496Y03562*
X01495Y03565*
X01494Y03567*
X01493Y03569*
X01492Y03572*
X01491Y03574*
X01489Y03576*
X01488Y03578*
X01486Y0358*
X01484Y03582*
X01482Y03583*
X0148Y03585*
X01478Y03586*
X01476Y03587*
X01474Y03588*
X01471Y03589*
X01469Y0359*
X01466Y0359*
X01464Y03591*
X01461Y03591*
X01459*
X01456Y03591*
X01454Y0359*
X01451Y0359*
X01449Y03589*
X01447Y03588*
X01444Y03587*
X01442Y03586*
X0144Y03585*
X01438Y03583*
X01436Y03582*
X01434Y0358*
X01432Y03578*
X01431Y03576*
X01429Y03574*
X01428Y03572*
X01427Y03569*
X01426Y03567*
X01425Y03565*
X01425Y03562*
X01424Y0356*
X01424Y03557*
X01424Y03555*
X01424Y03552*
X01424Y0355*
X01425Y03547*
X01425Y03545*
X01426Y03542*
X01427Y0354*
X01428Y03538*
X01429Y03535*
X01431Y03533*
X01432Y03531*
X01434Y03529*
X01436Y03528*
X01438Y03526*
X0144Y03525*
X01442Y03523*
X01444Y03522*
X01447Y03521*
X01449Y0352*
X01451Y03519*
X01454Y03519*
X01456Y03519*
X01459Y03518*
X01461*
X01464Y03519*
X01466Y03519*
X01469Y03519*
X01471Y0352*
X01474Y03521*
X01476Y03522*
X01478Y03523*
X0148Y03525*
X01482Y03526*
X01484Y03528*
X01486Y03529*
X01488Y03531*
X01489Y03533*
X01491Y03535*
X01492Y03538*
X01493Y0354*
X01494Y03542*
X01495Y03545*
X01496Y03547*
X01496Y0355*
X01496Y03552*
X01496Y03555*
X02402Y02594D02*
D01*
X02402Y02597*
X02402Y02599*
X02401Y02602*
X02401Y02604*
X024Y02606*
X02399Y02609*
X02398Y02611*
X02396Y02613*
X02395Y02615*
X02393Y02617*
X02392Y02619*
X0239Y02621*
X02388Y02623*
X02386Y02624*
X02384Y02625*
X02382Y02627*
X02379Y02628*
X02377Y02629*
X02374Y02629*
X02372Y0263*
X02369Y0263*
X02367Y0263*
X02364*
X02362Y0263*
X02359Y0263*
X02357Y02629*
X02354Y02629*
X02352Y02628*
X0235Y02627*
X02347Y02625*
X02345Y02624*
X02343Y02623*
X02341Y02621*
X0234Y02619*
X02338Y02617*
X02336Y02615*
X02335Y02613*
X02334Y02611*
X02332Y02609*
X02332Y02606*
X02331Y02604*
X0233Y02602*
X0233Y02599*
X02329Y02597*
X02329Y02594*
X02329Y02591*
X0233Y02589*
X0233Y02586*
X02331Y02584*
X02332Y02582*
X02332Y02579*
X02334Y02577*
X02335Y02575*
X02336Y02573*
X02338Y02571*
X0234Y02569*
X02341Y02567*
X02343Y02565*
X02345Y02564*
X02347Y02563*
X0235Y02561*
X02352Y0256*
X02354Y02559*
X02357Y02559*
X02359Y02558*
X02362Y02558*
X02364Y02558*
X02367*
X02369Y02558*
X02372Y02558*
X02374Y02559*
X02377Y02559*
X02379Y0256*
X02382Y02561*
X02384Y02563*
X02386Y02564*
X02388Y02565*
X0239Y02567*
X02392Y02569*
X02393Y02571*
X02395Y02573*
X02396Y02575*
X02398Y02577*
X02399Y02579*
X024Y02582*
X02401Y02584*
X02401Y02586*
X02402Y02589*
X02402Y02591*
X02402Y02594*
X00567Y02933D02*
D01*
X00567Y02935*
X00567Y02938*
X00567Y0294*
X00566Y02943*
X00565Y02945*
X00564Y02947*
X00563Y0295*
X00562Y02952*
X0056Y02954*
X00559Y02956*
X00557Y02958*
X00555Y0296*
X00553Y02961*
X00551Y02963*
X00549Y02964*
X00547Y02965*
X00545Y02966*
X00542Y02967*
X0054Y02968*
X00537Y02968*
X00535Y02969*
X00532Y02969*
X0053*
X00527Y02969*
X00525Y02968*
X00522Y02968*
X0052Y02967*
X00517Y02966*
X00515Y02965*
X00513Y02964*
X00511Y02963*
X00509Y02961*
X00507Y0296*
X00505Y02958*
X00503Y02956*
X00502Y02954*
X005Y02952*
X00499Y0295*
X00498Y02947*
X00497Y02945*
X00496Y02943*
X00495Y0294*
X00495Y02938*
X00495Y02935*
X00495Y02933*
X00495Y0293*
X00495Y02928*
X00495Y02925*
X00496Y02923*
X00497Y0292*
X00498Y02918*
X00499Y02916*
X005Y02913*
X00502Y02911*
X00503Y02909*
X00505Y02907*
X00507Y02906*
X00509Y02904*
X00511Y02902*
X00513Y02901*
X00515Y029*
X00517Y02899*
X0052Y02898*
X00522Y02897*
X00525Y02897*
X00527Y02896*
X0053Y02896*
X00532*
X00535Y02896*
X00537Y02897*
X0054Y02897*
X00542Y02898*
X00545Y02899*
X00547Y029*
X00549Y02901*
X00551Y02902*
X00553Y02904*
X00555Y02906*
X00557Y02907*
X00559Y02909*
X0056Y02911*
X00562Y02913*
X00563Y02916*
X00564Y02918*
X00565Y0292*
X00566Y02923*
X00567Y02925*
X00567Y02928*
X00567Y0293*
X00567Y02933*
X01067Y03125D02*
D01*
X01067Y03128*
X01067Y03131*
X01067Y03133*
X01066Y03135*
X01065Y03138*
X01064Y0314*
X01063Y03143*
X01062Y03145*
X0106Y03147*
X01059Y03149*
X01057Y03151*
X01055Y03152*
X01053Y03154*
X01051Y03156*
X01049Y03157*
X01047Y03158*
X01045Y03159*
X01042Y0316*
X0104Y03161*
X01037Y03161*
X01035Y03162*
X01032Y03162*
X0103*
X01027Y03162*
X01025Y03161*
X01022Y03161*
X0102Y0316*
X01017Y03159*
X01015Y03158*
X01013Y03157*
X01011Y03156*
X01009Y03154*
X01007Y03152*
X01005Y03151*
X01003Y03149*
X01002Y03147*
X01Y03145*
X00999Y03143*
X00998Y0314*
X00997Y03138*
X00996Y03135*
X00995Y03133*
X00995Y03131*
X00995Y03128*
X00995Y03125*
X00995Y03123*
X00995Y0312*
X00995Y03118*
X00996Y03115*
X00997Y03113*
X00998Y03111*
X00999Y03108*
X01Y03106*
X01002Y03104*
X01003Y03102*
X01005Y031*
X01007Y03099*
X01009Y03097*
X01011Y03095*
X01013Y03094*
X01015Y03093*
X01017Y03092*
X0102Y03091*
X01022Y0309*
X01025Y0309*
X01027Y03089*
X0103Y03089*
X01032*
X01035Y03089*
X01037Y0309*
X0104Y0309*
X01042Y03091*
X01045Y03092*
X01047Y03093*
X01049Y03094*
X01051Y03095*
X01053Y03097*
X01055Y03099*
X01057Y031*
X01059Y03102*
X0106Y03104*
X01062Y03106*
X01063Y03108*
X01064Y03111*
X01065Y03113*
X01066Y03115*
X01067Y03118*
X01067Y0312*
X01067Y03123*
X01067Y03125*
X00922Y03513D02*
D01*
X00922Y03516*
X00921Y03518*
X00921Y03521*
X0092Y03523*
X00919Y03526*
X00918Y03528*
X00917Y0353*
X00916Y03533*
X00915Y03535*
X00913Y03537*
X00911Y03538*
X0091Y0354*
X00908Y03542*
X00906Y03543*
X00903Y03545*
X00901Y03546*
X00899Y03547*
X00897Y03548*
X00894Y03548*
X00892Y03549*
X00889Y03549*
X00887Y0355*
X00884*
X00882Y03549*
X00879Y03549*
X00877Y03548*
X00874Y03548*
X00872Y03547*
X00869Y03546*
X00867Y03545*
X00865Y03543*
X00863Y03542*
X00861Y0354*
X00859Y03538*
X00858Y03537*
X00856Y03535*
X00855Y03533*
X00853Y0353*
X00852Y03528*
X00851Y03526*
X0085Y03523*
X0085Y03521*
X00849Y03518*
X00849Y03516*
X00849Y03513*
X00849Y03511*
X00849Y03508*
X0085Y03506*
X0085Y03503*
X00851Y03501*
X00852Y03499*
X00853Y03496*
X00855Y03494*
X00856Y03492*
X00858Y0349*
X00859Y03488*
X00861Y03486*
X00863Y03485*
X00865Y03483*
X00867Y03482*
X00869Y03481*
X00872Y0348*
X00874Y03479*
X00877Y03478*
X00879Y03478*
X00882Y03477*
X00884Y03477*
X00887*
X00889Y03477*
X00892Y03478*
X00894Y03478*
X00897Y03479*
X00899Y0348*
X00901Y03481*
X00903Y03482*
X00906Y03483*
X00908Y03485*
X0091Y03486*
X00911Y03488*
X00913Y0349*
X00915Y03492*
X00916Y03494*
X00917Y03496*
X00918Y03499*
X00919Y03501*
X0092Y03503*
X00921Y03506*
X00921Y03508*
X00922Y03511*
X00922Y03513*
X02689Y04216D02*
D01*
X02689Y04217*
X02689Y04218*
X02689Y0422*
X02689Y04221*
X02688Y04222*
X02688Y04223*
X02687Y04224*
X02687Y04225*
X02686Y04226*
X02686Y04227*
X02685Y04228*
X02684Y04228*
X02683Y04229*
X02682Y0423*
X02681Y04231*
X0268Y04231*
X02679Y04232*
X02678Y04232*
X02677Y04232*
X02676Y04232*
X02674Y04233*
X02673Y04233*
X02672*
X02671Y04233*
X0267Y04232*
X02669Y04232*
X02668Y04232*
X02666Y04232*
X02665Y04231*
X02664Y04231*
X02663Y0423*
X02662Y04229*
X02662Y04228*
X02661Y04228*
X0266Y04227*
X02659Y04226*
X02659Y04225*
X02658Y04224*
X02657Y04223*
X02657Y04222*
X02657Y04221*
X02656Y0422*
X02656Y04218*
X02656Y04217*
X02656Y04216*
X02656Y04215*
X02656Y04214*
X02656Y04213*
X02657Y04211*
X02657Y0421*
X02657Y04209*
X02658Y04208*
X02659Y04207*
X02659Y04206*
X0266Y04205*
X02661Y04204*
X02662Y04204*
X02662Y04203*
X02663Y04202*
X02664Y04202*
X02665Y04201*
X02666Y04201*
X02668Y042*
X02669Y042*
X0267Y042*
X02671Y04199*
X02672Y04199*
X02673*
X02674Y04199*
X02676Y042*
X02677Y042*
X02678Y042*
X02679Y04201*
X0268Y04201*
X02681Y04202*
X02682Y04202*
X02683Y04203*
X02684Y04204*
X02685Y04204*
X02686Y04205*
X02686Y04206*
X02687Y04207*
X02687Y04208*
X02688Y04209*
X02688Y0421*
X02689Y04211*
X02689Y04213*
X02689Y04214*
X02689Y04215*
X02689Y04216*
X00577Y05322D02*
D01*
X00577Y05323*
X00577Y05324*
X00576Y05325*
X00576Y05326*
X00576Y05327*
X00575Y05328*
X00575Y05329*
X00575Y0533*
X00574Y05331*
X00573Y05331*
X00573Y05332*
X00572Y05333*
X00571Y05334*
X0057Y05334*
X0057Y05335*
X00569Y05335*
X00568Y05335*
X00567Y05336*
X00566Y05336*
X00565Y05336*
X00564Y05336*
X00563Y05337*
X00562*
X00561Y05336*
X0056Y05336*
X00559Y05336*
X00558Y05336*
X00557Y05335*
X00556Y05335*
X00555Y05335*
X00555Y05334*
X00554Y05334*
X00553Y05333*
X00552Y05332*
X00552Y05331*
X00551Y05331*
X0055Y0533*
X0055Y05329*
X0055Y05328*
X00549Y05327*
X00549Y05326*
X00549Y05325*
X00548Y05324*
X00548Y05323*
X00548Y05322*
X00548Y05321*
X00548Y0532*
X00549Y05319*
X00549Y05318*
X00549Y05317*
X0055Y05317*
X0055Y05316*
X0055Y05315*
X00551Y05314*
X00552Y05313*
X00552Y05312*
X00553Y05312*
X00554Y05311*
X00555Y05311*
X00555Y0531*
X00556Y0531*
X00557Y05309*
X00558Y05309*
X00559Y05309*
X0056Y05308*
X00561Y05308*
X00562Y05308*
X00563*
X00564Y05308*
X00565Y05308*
X00566Y05309*
X00567Y05309*
X00568Y05309*
X00569Y0531*
X0057Y0531*
X0057Y05311*
X00571Y05311*
X00572Y05312*
X00573Y05312*
X00573Y05313*
X00574Y05314*
X00575Y05315*
X00575Y05316*
X00575Y05317*
X00576Y05317*
X00576Y05318*
X00576Y05319*
X00577Y0532*
X00577Y05321*
X00577Y05322*
X03244Y00039D02*
D01*
X03243Y00048*
X03242Y00058*
X03241Y00067*
X03238Y00076*
X03236Y00085*
X03232Y00093*
X03228Y00102*
X03223Y0011*
X03218Y00118*
X03212Y00125*
X03206Y00132*
X03199Y00138*
X03192Y00144*
X03185Y0015*
X03177Y00155*
X03168Y00159*
X0316Y00163*
X03151Y00166*
X03142Y00169*
X03133Y00171*
X03124Y00172*
X03114Y00173*
X03105*
X03096Y00172*
X03086Y00171*
X03077Y00169*
X03068Y00166*
X0306Y00163*
X03051Y00159*
X03043Y00155*
X03035Y0015*
X03027Y00144*
X0302Y00138*
X03013Y00132*
X03007Y00125*
X03001Y00118*
X02996Y0011*
X02991Y00102*
X02987Y00093*
X02984Y00085*
X02981Y00076*
X02979Y00067*
X02977Y00058*
X02976Y00048*
X02976Y00039*
X02976Y0003*
X02977Y0002*
X02979Y00011*
X02981Y00002*
X02984Y-00006*
X02987Y-00015*
X02991Y-00023*
X02996Y-00031*
X03001Y-00039*
X03007Y-00046*
X03013Y-00053*
X0302Y-0006*
X03027Y-00066*
X03035Y-00071*
X03043Y-00076*
X03051Y-0008*
X0306Y-00084*
X03068Y-00087*
X03077Y-0009*
X03086Y-00092*
X03096Y-00093*
X03105Y-00094*
X03114*
X03124Y-00093*
X03133Y-00092*
X03142Y-0009*
X03151Y-00087*
X0316Y-00084*
X03168Y-0008*
X03177Y-00076*
X03185Y-00071*
X03192Y-00066*
X03199Y-0006*
X03206Y-00053*
X03212Y-00046*
X03218Y-00039*
X03223Y-00031*
X03228Y-00023*
X03232Y-00015*
X03236Y-00006*
X03238Y00002*
X03241Y00011*
X03242Y0002*
X03243Y0003*
X03244Y00039*
X032Y08267D02*
D01*
X032Y08274*
X03199Y0828*
X03198Y08286*
X03197Y08292*
X03195Y08298*
X03192Y08304*
X0319Y0831*
X03187Y08315*
X03183Y0832*
X03179Y08325*
X03175Y0833*
X0317Y08335*
X03165Y08339*
X0316Y08342*
X03155Y08346*
X03149Y08349*
X03144Y08351*
X03138Y08353*
X03132Y08355*
X03125Y08356*
X03119Y08357*
X03113Y08358*
X03107*
X031Y08357*
X03094Y08356*
X03088Y08355*
X03082Y08353*
X03076Y08351*
X0307Y08349*
X03064Y08346*
X03059Y08342*
X03054Y08339*
X03049Y08335*
X03045Y0833*
X0304Y08325*
X03036Y0832*
X03033Y08315*
X0303Y0831*
X03027Y08304*
X03025Y08298*
X03023Y08292*
X03021Y08286*
X0302Y0828*
X03019Y08274*
X03019Y08267*
X03019Y08261*
X0302Y08255*
X03021Y08248*
X03023Y08242*
X03025Y08236*
X03027Y0823*
X0303Y08225*
X03033Y08219*
X03036Y08214*
X0304Y08209*
X03045Y08204*
X03049Y082*
X03054Y08196*
X03059Y08192*
X03064Y08189*
X0307Y08186*
X03076Y08183*
X03082Y08181*
X03088Y08179*
X03094Y08178*
X031Y08177*
X03107Y08177*
X03113*
X03119Y08177*
X03125Y08178*
X03132Y08179*
X03138Y08181*
X03144Y08183*
X03149Y08186*
X03155Y08189*
X0316Y08192*
X03165Y08196*
X0317Y082*
X03175Y08204*
X03179Y08209*
X03183Y08214*
X03187Y08219*
X0319Y08225*
X03192Y0823*
X03195Y08236*
X03197Y08242*
X03198Y08248*
X03199Y08255*
X032Y08261*
X032Y08267*
X-00185D02*
D01*
X-00185Y08274*
X-00185Y0828*
X-00187Y08286*
X-00188Y08292*
X-0019Y08298*
X-00192Y08304*
X-00195Y0831*
X-00198Y08315*
X-00202Y0832*
X-00206Y08325*
X-0021Y0833*
X-00214Y08335*
X-00219Y08339*
X-00224Y08342*
X-0023Y08346*
X-00235Y08349*
X-00241Y08351*
X-00247Y08353*
X-00253Y08355*
X-00259Y08356*
X-00266Y08357*
X-00272Y08358*
X-00278*
X-00285Y08357*
X-00291Y08356*
X-00297Y08355*
X-00303Y08353*
X-00309Y08351*
X-00315Y08349*
X-0032Y08346*
X-00326Y08342*
X-00331Y08339*
X-00336Y08335*
X-0034Y0833*
X-00344Y08325*
X-00348Y0832*
X-00352Y08315*
X-00355Y0831*
X-00358Y08304*
X-0036Y08298*
X-00362Y08292*
X-00364Y08286*
X-00365Y0828*
X-00365Y08274*
X-00366Y08267*
X-00365Y08261*
X-00365Y08255*
X-00364Y08248*
X-00362Y08242*
X-0036Y08236*
X-00358Y0823*
X-00355Y08225*
X-00352Y08219*
X-00348Y08214*
X-00344Y08209*
X-0034Y08204*
X-00336Y082*
X-00331Y08196*
X-00326Y08192*
X-0032Y08189*
X-00315Y08186*
X-00309Y08183*
X-00303Y08181*
X-00297Y08179*
X-00291Y08178*
X-00285Y08177*
X-00278Y08177*
X-00272*
X-00266Y08177*
X-00259Y08178*
X-00253Y08179*
X-00247Y08181*
X-00241Y08183*
X-00235Y08186*
X-0023Y08189*
X-00224Y08192*
X-00219Y08196*
X-00214Y082*
X-0021Y08204*
X-00206Y08209*
X-00202Y08214*
X-00198Y08219*
X-00195Y08225*
X-00192Y0823*
X-0019Y08236*
X-00188Y08242*
X-00187Y08248*
X-00185Y08255*
X-00185Y08261*
X-00185Y08267*
Y00039D02*
D01*
X-00185Y00045*
X-00185Y00051*
X-00187Y00058*
X-00188Y00064*
X-0019Y0007*
X-00192Y00076*
X-00195Y00081*
X-00198Y00087*
X-00202Y00092*
X-00206Y00097*
X-0021Y00102*
X-00214Y00106*
X-00219Y0011*
X-00224Y00114*
X-0023Y00117*
X-00235Y0012*
X-00241Y00123*
X-00247Y00125*
X-00253Y00127*
X-00259Y00128*
X-00266Y00129*
X-00272Y00129*
X-00278*
X-00285Y00129*
X-00291Y00128*
X-00297Y00127*
X-00303Y00125*
X-00309Y00123*
X-00315Y0012*
X-0032Y00117*
X-00326Y00114*
X-00331Y0011*
X-00336Y00106*
X-0034Y00102*
X-00344Y00097*
X-00348Y00092*
X-00352Y00087*
X-00355Y00081*
X-00358Y00076*
X-0036Y0007*
X-00362Y00064*
X-00364Y00058*
X-00365Y00051*
X-00365Y00045*
X-00366Y00039*
X-00365Y00033*
X-00365Y00026*
X-00364Y0002*
X-00362Y00014*
X-0036Y00008*
X-00358Y00002*
X-00355Y-00003*
X-00352Y-00008*
X-00348Y-00013*
X-00344Y-00018*
X-0034Y-00023*
X-00336Y-00027*
X-00331Y-00031*
X-00326Y-00035*
X-0032Y-00039*
X-00315Y-00042*
X-00309Y-00044*
X-00303Y-00046*
X-00297Y-00048*
X-00291Y-00049*
X-00285Y-0005*
X-00278Y-00051*
X-00272*
X-00266Y-0005*
X-00259Y-00049*
X-00253Y-00048*
X-00247Y-00046*
X-00241Y-00044*
X-00235Y-00042*
X-0023Y-00039*
X-00224Y-00035*
X-00219Y-00031*
X-00214Y-00027*
X-0021Y-00023*
X-00206Y-00018*
X-00202Y-00013*
X-00198Y-00008*
X-00195Y-00003*
X-00192Y00002*
X-0019Y00008*
X-00188Y00014*
X-00187Y0002*
X-00185Y00026*
X-00185Y00033*
X-00185Y00039*
X01476Y05295D02*
D01*
X01476Y05304*
X01475Y05313*
X01473Y05323*
X01471Y05332*
X01468Y05341*
X01464Y05349*
X0146Y05358*
X01456Y05366*
X0145Y05373*
X01445Y05381*
X01438Y05388*
X01432Y05394*
X01424Y054*
X01417Y05406*
X01409Y05411*
X01401Y05415*
X01392Y05419*
X01383Y05422*
X01374Y05425*
X01365Y05427*
X01356Y05428*
X01347Y05429*
X01337*
X01328Y05428*
X01319Y05427*
X0131Y05425*
X01301Y05422*
X01292Y05419*
X01283Y05415*
X01275Y05411*
X01267Y05406*
X0126Y054*
X01252Y05394*
X01246Y05388*
X01239Y05381*
X01234Y05373*
X01228Y05366*
X01224Y05358*
X0122Y05349*
X01216Y05341*
X01213Y05332*
X01211Y05323*
X01209Y05313*
X01208Y05304*
X01208Y05295*
X01208Y05285*
X01209Y05276*
X01211Y05267*
X01213Y05258*
X01216Y05249*
X0122Y0524*
X01224Y05232*
X01228Y05224*
X01234Y05216*
X01239Y05209*
X01246Y05202*
X01252Y05195*
X0126Y05189*
X01267Y05184*
X01275Y05179*
X01283Y05174*
X01292Y05171*
X01301Y05167*
X0131Y05165*
X01319Y05163*
X01328Y05162*
X01337Y05161*
X01347*
X01356Y05162*
X01365Y05163*
X01374Y05165*
X01383Y05167*
X01392Y05171*
X01401Y05174*
X01409Y05179*
X01417Y05184*
X01424Y05189*
X01432Y05195*
X01438Y05202*
X01445Y05209*
X0145Y05216*
X01456Y05224*
X0146Y05232*
X01464Y0524*
X01468Y05249*
X01471Y05258*
X01473Y05267*
X01475Y05276*
X01476Y05285*
X01476Y05295*
X02465Y03362D02*
D01*
X02465Y03364*
X02465Y03367*
X02464Y03369*
X02464Y03372*
X02463Y03374*
X02462Y03376*
X02461Y03379*
X02459Y03381*
X02458Y03383*
X02456Y03385*
X02455Y03387*
X02453Y03389*
X02451Y0339*
X02449Y03392*
X02447Y03393*
X02445Y03394*
X02442Y03395*
X0244Y03396*
X02437Y03397*
X02435Y03397*
X02432Y03398*
X0243Y03398*
X02427*
X02425Y03398*
X02422Y03397*
X0242Y03397*
X02417Y03396*
X02415Y03395*
X02413Y03394*
X0241Y03393*
X02408Y03392*
X02406Y0339*
X02404Y03389*
X02403Y03387*
X02401Y03385*
X02399Y03383*
X02398Y03381*
X02397Y03379*
X02395Y03376*
X02395Y03374*
X02394Y03372*
X02393Y03369*
X02393Y03367*
X02392Y03364*
X02392Y03362*
X02392Y03359*
X02393Y03357*
X02393Y03354*
X02394Y03352*
X02395Y03349*
X02395Y03347*
X02397Y03345*
X02398Y03342*
X02399Y0334*
X02401Y03338*
X02403Y03336*
X02404Y03335*
X02406Y03333*
X02408Y03332*
X0241Y0333*
X02413Y03329*
X02415Y03328*
X02417Y03327*
X0242Y03326*
X02422Y03326*
X02425Y03326*
X02427Y03325*
X0243*
X02432Y03326*
X02435Y03326*
X02437Y03326*
X0244Y03327*
X02442Y03328*
X02445Y03329*
X02447Y0333*
X02449Y03332*
X02451Y03333*
X02453Y03335*
X02455Y03336*
X02456Y03338*
X02458Y0334*
X02459Y03342*
X02461Y03345*
X02462Y03347*
X02463Y03349*
X02464Y03352*
X02464Y03354*
X02465Y03357*
X02465Y03359*
X02465Y03362*
X02343Y03543D02*
D01*
X02343Y03545*
X02343Y03548*
X02342Y0355*
X02341Y03553*
X02341Y03555*
X0234Y03558*
X02339Y0356*
X02337Y03562*
X02336Y03564*
X02334Y03566*
X02333Y03568*
X02331Y0357*
X02329Y03571*
X02327Y03573*
X02325Y03574*
X02322Y03575*
X0232Y03576*
X02318Y03577*
X02315Y03578*
X02313Y03579*
X0231Y03579*
X02308Y03579*
X02305*
X02303Y03579*
X023Y03579*
X02298Y03578*
X02295Y03577*
X02293Y03576*
X02291Y03575*
X02288Y03574*
X02286Y03573*
X02284Y03571*
X02282Y0357*
X0228Y03568*
X02279Y03566*
X02277Y03564*
X02276Y03562*
X02275Y0356*
X02273Y03558*
X02272Y03555*
X02272Y03553*
X02271Y0355*
X02271Y03548*
X0227Y03545*
X0227Y03543*
X0227Y0354*
X02271Y03538*
X02271Y03535*
X02272Y03533*
X02272Y0353*
X02273Y03528*
X02275Y03526*
X02276Y03524*
X02277Y03521*
X02279Y03519*
X0228Y03518*
X02282Y03516*
X02284Y03514*
X02286Y03513*
X02288Y03511*
X02291Y0351*
X02293Y03509*
X02295Y03508*
X02298Y03508*
X023Y03507*
X02303Y03507*
X02305Y03507*
X02308*
X0231Y03507*
X02313Y03507*
X02315Y03508*
X02318Y03508*
X0232Y03509*
X02322Y0351*
X02325Y03511*
X02327Y03513*
X02329Y03514*
X02331Y03516*
X02333Y03518*
X02334Y03519*
X02336Y03521*
X02337Y03524*
X02339Y03526*
X0234Y03528*
X02341Y0353*
X02341Y03533*
X02342Y03535*
X02343Y03538*
X02343Y0354*
X02343Y03543*
X02557Y03452D02*
D01*
X02557Y03455*
X02557Y03457*
X02556Y0346*
X02556Y03462*
X02555Y03465*
X02554Y03467*
X02553Y03469*
X02551Y03471*
X0255Y03474*
X02548Y03476*
X02547Y03477*
X02545Y03479*
X02543Y03481*
X02541Y03482*
X02539Y03484*
X02537Y03485*
X02534Y03486*
X02532Y03487*
X02529Y03487*
X02527Y03488*
X02524Y03488*
X02522Y03489*
X02519*
X02517Y03488*
X02514Y03488*
X02512Y03487*
X02509Y03487*
X02507Y03486*
X02505Y03485*
X02503Y03484*
X025Y03482*
X02498Y03481*
X02496Y03479*
X02495Y03477*
X02493Y03476*
X02491Y03474*
X0249Y03471*
X02489Y03469*
X02488Y03467*
X02487Y03465*
X02486Y03462*
X02485Y0346*
X02485Y03457*
X02484Y03455*
X02484Y03452*
X02484Y0345*
X02485Y03447*
X02485Y03445*
X02486Y03442*
X02487Y0344*
X02488Y03437*
X02489Y03435*
X0249Y03433*
X02491Y03431*
X02493Y03429*
X02495Y03427*
X02496Y03425*
X02498Y03424*
X025Y03422*
X02503Y03421*
X02505Y0342*
X02507Y03419*
X02509Y03418*
X02512Y03417*
X02514Y03417*
X02517Y03416*
X02519Y03416*
X02522*
X02524Y03416*
X02527Y03417*
X02529Y03417*
X02532Y03418*
X02534Y03419*
X02537Y0342*
X02539Y03421*
X02541Y03422*
X02543Y03424*
X02545Y03425*
X02547Y03427*
X02548Y03429*
X0255Y03431*
X02551Y03433*
X02553Y03435*
X02554Y03437*
X02555Y0344*
X02556Y03442*
X02556Y03445*
X02557Y03447*
X02557Y0345*
X02557Y03452*
X02666Y03566D02*
D01*
X02666Y03569*
X02665Y03571*
X02665Y03574*
X02664Y03576*
X02664Y03579*
X02663Y03581*
X02661Y03583*
X0266Y03586*
X02659Y03588*
X02657Y0359*
X02656Y03592*
X02654Y03593*
X02652Y03595*
X0265Y03597*
X02648Y03598*
X02645Y03599*
X02643Y036*
X02641Y03601*
X02638Y03602*
X02636Y03602*
X02633Y03603*
X02631Y03603*
X02628*
X02626Y03603*
X02623Y03602*
X02621Y03602*
X02618Y03601*
X02616Y036*
X02614Y03599*
X02611Y03598*
X02609Y03597*
X02607Y03595*
X02605Y03593*
X02603Y03592*
X02602Y0359*
X026Y03588*
X02599Y03586*
X02597Y03583*
X02596Y03581*
X02595Y03579*
X02595Y03576*
X02594Y03574*
X02593Y03571*
X02593Y03569*
X02593Y03566*
X02593Y03564*
X02593Y03561*
X02594Y03559*
X02595Y03556*
X02595Y03554*
X02596Y03552*
X02597Y03549*
X02599Y03547*
X026Y03545*
X02602Y03543*
X02603Y03541*
X02605Y03539*
X02607Y03538*
X02609Y03536*
X02611Y03535*
X02614Y03534*
X02616Y03533*
X02618Y03532*
X02621Y03531*
X02623Y03531*
X02626Y0353*
X02628Y0353*
X02631*
X02633Y0353*
X02636Y03531*
X02638Y03531*
X02641Y03532*
X02643Y03533*
X02645Y03534*
X02648Y03535*
X0265Y03536*
X02652Y03538*
X02654Y03539*
X02656Y03541*
X02657Y03543*
X02659Y03545*
X0266Y03547*
X02661Y03549*
X02663Y03552*
X02664Y03554*
X02664Y03556*
X02665Y03559*
X02665Y03561*
X02666Y03564*
X02666Y03566*
X01236Y04801D02*
X01321D01*
X01323Y04799*
Y04705D02*
Y04799D01*
X01236Y04705D02*
X0222D01*
Y04898*
X01236D02*
X0222D01*
X01236Y04705D02*
Y04898D01*
X00039Y07444D02*
X00539D01*
Y06295D02*
Y07444D01*
X00039Y06295D02*
Y07444D01*
Y06295D02*
X00539D01*
X02728Y07732D02*
Y07933D01*
X02708Y07952D02*
X02728Y07933D01*
X01783D02*
X01803Y07952D01*
X01783Y07736D02*
Y07933D01*
Y07736D02*
X01803Y07716D01*
X02712*
X02728Y07732*
X01803Y07952D02*
X02708D01*
X0262Y08238D02*
Y08444D01*
X01773D02*
X0262D01*
X01783Y08223D02*
Y08272D01*
X0262Y08051D02*
Y08238D01*
X01773Y08316D02*
Y08444D01*
Y08085D02*
Y08134D01*
Y08316D02*
X01783Y08272D01*
X01773Y08051D02*
Y08085D01*
Y08051D02*
X0262D01*
X01773Y08179D02*
X01783Y08223D01*
X01773Y08134D02*
Y08179D01*
X01505Y08238D02*
Y08444D01*
X00659D02*
X01505D01*
X00669Y08223D02*
Y08272D01*
X01505Y08051D02*
Y08238D01*
X00659Y08316D02*
Y08444D01*
Y08085D02*
Y08134D01*
Y08316D02*
X00669Y08272D01*
X00659Y08051D02*
Y08085D01*
Y08051D02*
X01505D01*
X00659Y08179D02*
X00669Y08223D01*
X00659Y08134D02*
Y08179D01*
X01505Y00124D02*
Y00168D01*
X01496Y00079D02*
X01505Y00124D01*
X00659Y00251D02*
X01505D01*
Y00217D02*
Y00251D01*
X01496Y0003D02*
X01505Y-00013D01*
Y00168D02*
Y00217D01*
Y-00141D02*
Y-00013D01*
X00659Y00064D02*
Y00251D01*
X01496Y0003D02*
Y00079D01*
X00659Y-00141D02*
X01505D01*
X00659D02*
Y00064D01*
X02399Y00124D02*
Y00168D01*
X02389Y00079D02*
X02399Y00124D01*
X01553Y00251D02*
X02399D01*
Y00217D02*
Y00251D01*
X02389Y0003D02*
X02399Y-00013D01*
Y00168D02*
Y00217D01*
Y-00141D02*
Y-00013D01*
X01553Y00064D02*
Y00251D01*
X02389Y0003D02*
Y00079D01*
X01553Y-00141D02*
X02399D01*
X01553D02*
Y00064D01*
X02814Y05236D02*
Y05444D01*
Y05236D02*
X03102D01*
X03106Y0524*
X02814Y05444D02*
X03106D01*
Y0524D02*
Y05444D01*
X03019D02*
Y05464D01*
X03015Y05468D02*
X03019Y05464D01*
X02925Y05468D02*
X03015D01*
X02921Y05464D02*
X02925Y05468D01*
X02921Y05444D02*
Y05464D01*
X00787Y06259D02*
Y06574D01*
X00826*
X00787Y06614D02*
X00826Y06574D01*
X00787Y06614D02*
D01*
X00748Y06574D02*
X00787Y06614D01*
X00748Y06574D02*
X00787D01*
X00748Y06614D02*
X00826D01*
X00787D02*
Y06889D01*
X01115Y04833D02*
X01095D01*
X01105*
Y04783*
X01095Y04773*
X01085*
X01076Y04783*
X01175Y04833D02*
X01135D01*
Y04803*
X01155Y04813*
X01165*
X01175Y04803*
Y04783*
X01165Y04773*
X01145*
X01135Y04783*
X02908Y05D02*
X02898Y0501D01*
X02878*
X02868Y05*
Y0496*
X02878Y0495*
X02898*
X02908Y0496*
X02958Y0495D02*
Y0501D01*
X02928Y0498*
X02968*
X02988Y0501D02*
X03028D01*
Y05*
X02988Y0496*
Y0495*
X-00071Y06201D02*
X-00081Y06211D01*
X-00101*
X-00111Y06201*
Y06161*
X-00101Y06151*
X-00081*
X-00071Y06161*
X-00021Y06151D02*
Y06211D01*
X-00051Y06181*
X-00011*
X00048Y06211D02*
X00028Y06201D01*
X00008Y06181*
Y06161*
X00018Y06151*
X00038*
X00048Y06161*
Y06171*
X00038Y06181*
X00008*
X02214Y00364D02*
Y00424D01*
X02244*
X02254Y00414*
Y00394*
X02244Y00384*
X02214*
X02314Y00424D02*
X02274D01*
Y00364*
X02314*
X02274Y00394D02*
X02294D01*
X01939Y00424D02*
Y00364D01*
X01959Y00384*
X01979Y00364*
Y00424*
X01663D02*
Y00384D01*
X01683Y00364*
X01703Y00384*
Y00424*
X01348D02*
Y00374D01*
X01358Y00364*
X01378*
X01388Y00374*
Y00424*
X01072D02*
Y00364D01*
X01102*
X01112Y00374*
Y00384*
X01102Y00394*
X01072*
X01102*
X01112Y00404*
Y00414*
X01102Y00424*
X01072*
X00679Y00394D02*
X00719D01*
X00699Y00414D02*
Y00374D01*
X00739Y00424D02*
Y00364D01*
X00769*
X00779Y00374*
Y00414*
X00769Y00424*
X00739*
X00839Y00414D02*
X00829Y00424D01*
X00809*
X00799Y00414*
Y00374*
X00809Y00364*
X00829*
X00839Y00374*
X0245Y07986D02*
Y08046D01*
X0248*
X0249Y08036*
Y08016*
X0248Y08006*
X0245*
X0255Y08046D02*
X0251D01*
Y07986*
X0255*
X0251Y08016D02*
X0253D01*
X02179Y08042D02*
Y07982D01*
X02219*
X01876D02*
Y08042D01*
X01916Y07982*
Y08042*
X01332Y07978D02*
Y08038D01*
X01362*
X01372Y08028*
Y08008*
X01362Y07998*
X01332*
X01392Y08028D02*
X01402Y08038D01*
X01422*
X01432Y08028*
Y07988*
X01422Y07978*
X01402*
X01392Y07988*
Y08028*
X01041Y07982D02*
Y08042D01*
X01071*
X01081Y08032*
Y08012*
X01071Y08002*
X01041*
X01101Y07982D02*
X01121D01*
X01111*
Y08042*
X01101Y08032*
X00754Y08013D02*
X00794D01*
X02191Y07869D02*
X02151D01*
Y07839*
X02171*
X02151*
Y07809*
X02211D02*
X02231D01*
X02221*
Y07869*
X02211Y07859*
X02261D02*
X02271Y07869D01*
X02291*
X02301Y07859*
Y07819*
X02291Y07809*
X02271*
X02261Y07819*
Y07859*
X02321Y07809D02*
Y07849D01*
X02341Y07869*
X02361Y07849*
Y07809*
Y07839*
X02321*
X01232Y02243D02*
X01292D01*
X01232Y02203*
X01292*
X01686Y02263D02*
X01626D01*
X01646Y02243*
X01626Y02223*
X01686*
X01882Y02263D02*
X01842D01*
X01822Y02243*
X01842Y02223*
X01882*
X02089Y02263D02*
X02039D01*
X02029Y02253*
Y02233*
X02039Y02223*
X02089*
X02226Y02253D02*
X02286D01*
Y02223*
X02276Y02213*
X02256*
X02246Y02223*
Y02253*
X02384Y02342D02*
X02344D01*
X02384Y02382*
Y02392*
X02374Y02402*
X02354*
X02344Y02392*
X02444Y02402D02*
X02424Y02392D01*
X02404Y02372*
Y02352*
X02414Y02342*
X02434*
X02444Y02352*
Y02362*
X02434Y02372*
X02404*
X00908Y02332D02*
X00868D01*
X00908Y02372*
Y02382*
X00898Y02392*
X00878*
X00868Y02382*
X00928D02*
X00938Y02392D01*
X00958*
X00968Y02382*
Y02342*
X00958Y02332*
X00938*
X00928Y02342*
Y02382*
X0088Y03297D02*
X009D01*
X0089*
Y03357*
X0088Y03347*
X0093Y03307D02*
X0094Y03297D01*
X0096*
X0097Y03307*
Y03347*
X0096Y03357*
X0094*
X0093Y03347*
Y03337*
X0094Y03327*
X0097*
X02193Y03297D02*
X02213D01*
X02203*
Y03357*
X02193Y03347*
X02426Y02569D02*
X02486D01*
Y02539*
X02476Y02529*
X02456*
X02446Y02539*
Y02569*
Y02549D02*
X02426Y02529D01*
X02476Y02509D02*
X02486Y02499D01*
Y02479*
X02476Y02469*
X02466*
X02456Y02479*
X02446Y02469*
X02436*
X02426Y02479*
Y02499*
X02436Y02509*
X02446*
X02456Y02499*
X02466Y02509*
X02476*
X02456Y02499D02*
Y02479D01*
X0286Y05191D02*
X0282D01*
Y05161*
X0284*
X0282*
Y05131*
X0288D02*
Y05171D01*
X029Y05191*
X0292Y05171*
Y05131*
Y05161*
X0288*
X0294Y05131D02*
Y05191D01*
X0298Y05131*
Y05191*
X0046Y05475D02*
X0045Y05465D01*
Y05445*
X0046Y05435*
X005*
X0051Y05445*
Y05465*
X005Y05475*
X0046Y05495D02*
X0045Y05505D01*
Y05525*
X0046Y05535*
X0047*
X0048Y05525*
Y05515*
Y05525*
X0049Y05535*
X005*
X0051Y05525*
Y05505*
X005Y05495*
X0045Y05555D02*
Y05595D01*
X0046*
X005Y05555*
X0051*
X02519Y03901D02*
X02509Y03911D01*
X02489*
X02479Y03901*
Y03861*
X02489Y03851*
X02509*
X02519Y03861*
X02539Y03901D02*
X02549Y03911D01*
X02569*
X02579Y03901*
Y03891*
X02569Y03881*
X02559*
X02569*
X02579Y03871*
Y03861*
X02569Y03851*
X02549*
X02539Y03861*
X02599Y03901D02*
X02609Y03911D01*
X02629*
X02639Y03901*
Y03861*
X02629Y03851*
X02609*
X02599Y03861*
Y03901*
X00759Y03223D02*
X00749Y03213D01*
Y03193*
X00759Y03183*
X00799*
X00809Y03193*
Y03213*
X00799Y03223*
X00809Y03283D02*
Y03243D01*
X00769Y03283*
X00759*
X00749Y03273*
Y03253*
X00759Y03243*
X00749Y03343D02*
Y03303D01*
X00779*
X00769Y03323*
Y03333*
X00779Y03343*
X00799*
X00809Y03333*
Y03313*
X00799Y03303*
X02428Y04405D02*
X02418Y04415D01*
X02398*
X02388Y04405*
Y04365*
X02398Y04355*
X02418*
X02428Y04365*
X02488Y04355D02*
X02448D01*
X02488Y04395*
Y04405*
X02478Y04415*
X02458*
X02448Y04405*
X02508D02*
X02518Y04415D01*
X02538*
X02548Y04405*
Y04395*
X02538Y04385*
X02528*
X02538*
X02548Y04375*
Y04365*
X02538Y04355*
X02518*
X02508Y04365*
X01256Y02968D02*
X01246Y02978D01*
X01226*
X01216Y02968*
Y02928*
X01226Y02918*
X01246*
X01256Y02928*
X01276Y02918D02*
X01296D01*
X01286*
Y02978*
X01276Y02968*
X01326Y02928D02*
X01336Y02918D01*
X01356*
X01366Y02928*
Y02968*
X01356Y02978*
X01336*
X01326Y02968*
Y02958*
X01336Y02948*
X01366*
X01335Y03201D02*
X01325Y03211D01*
X01305*
X01295Y03201*
Y03161*
X01305Y03151*
X01325*
X01335Y03161*
X01355Y03151D02*
X01375D01*
X01365*
Y03211*
X01355Y03201*
X01445Y03211D02*
X01405D01*
Y03181*
X01425Y03191*
X01435*
X01445Y03181*
Y03161*
X01435Y03151*
X01415*
X01405Y03161*
X00637Y03224D02*
X00627Y03214D01*
Y03194*
X00637Y03184*
X00677*
X00687Y03194*
Y03214*
X00677Y03224*
X00687Y03244D02*
Y03264D01*
Y03254*
X00627*
X00637Y03244*
X00687Y03324D02*
X00627D01*
X00657Y03294*
Y03334*
X00732Y04389D02*
X00722Y04399D01*
X00702*
X00692Y04389*
Y04349*
X00702Y04339*
X00722*
X00732Y04349*
X00752Y04339D02*
X00772D01*
X00762*
Y04399*
X00752Y04389*
X00619Y05495D02*
X00669D01*
X00679Y05505*
Y05525*
X00669Y05535*
X00619*
X00679Y05555D02*
Y05575D01*
Y05565*
X00619*
X00629Y05555*
X00619Y05645D02*
X00629Y05625D01*
X00649Y05605*
X00669*
X00679Y05615*
Y05635*
X00669Y05645*
X00659*
X00649Y05635*
Y05605*
X02186Y03958D02*
X02236D01*
X02246Y03968*
Y03988*
X02236Y03998*
X02186*
X02246Y04018D02*
Y04038D01*
Y04028*
X02186*
X02196Y04018*
X02186Y04108D02*
Y04068D01*
X02216*
X02206Y04088*
Y04098*
X02216Y04108*
X02236*
X02246Y04098*
Y04078*
X02236Y04068*
X02773Y0259D02*
X02823D01*
X02833Y026*
Y0262*
X02823Y0263*
X02773*
X02833Y0265D02*
Y0267D01*
Y0266*
X02773*
X02783Y0265*
X02833Y0273D02*
X02773D01*
X02803Y027*
Y0274*
X02004Y03959D02*
X02054D01*
X02064Y03969*
Y03989*
X02054Y03999*
X02004*
X02064Y04019D02*
Y04039D01*
Y04029*
X02004*
X02014Y04019*
Y04069D02*
X02004Y04079D01*
Y04099*
X02014Y04109*
X02024*
X02034Y04099*
Y04089*
Y04099*
X02044Y04109*
X02054*
X02064Y04099*
Y04079*
X02054Y04069*
X01665Y01092D02*
Y01042D01*
X01675Y01032*
X01695*
X01705Y01042*
Y01092*
X01725Y01032D02*
X01745D01*
X01735*
Y01092*
X01725Y01082*
X01815Y01032D02*
X01775D01*
X01815Y01072*
Y01082*
X01805Y01092*
X01785*
X01775Y01082*
X02568Y0397D02*
X02618D01*
X02628Y0398*
Y04*
X02618Y0401*
X02568*
X02628Y0403D02*
Y0405D01*
Y0404*
X02568*
X02578Y0403*
X02628Y0408D02*
Y041D01*
Y0409*
X02568*
X02578Y0408*
X02Y01854D02*
Y01804D01*
X0201Y01794*
X0203*
X0204Y01804*
Y01854*
X0206Y01794D02*
X0208D01*
X0207*
Y01854*
X0206Y01844*
X0211D02*
X0212Y01854D01*
X0214*
X0215Y01844*
Y01804*
X0214Y01794*
X0212*
X0211Y01804*
Y01844*
X02371Y03985D02*
X02421D01*
X02431Y03995*
Y04015*
X02421Y04025*
X02371*
X02421Y04045D02*
X02431Y04055D01*
Y04075*
X02421Y04085*
X02381*
X02371Y04075*
Y04055*
X02381Y04045*
X02391*
X02401Y04055*
Y04085*
X01608Y03979D02*
X01658D01*
X01668Y03989*
Y04009*
X01658Y04019*
X01608*
X01618Y04039D02*
X01608Y04049D01*
Y04069*
X01618Y04079*
X01628*
X01638Y04069*
X01648Y04079*
X01658*
X01668Y04069*
Y04049*
X01658Y04039*
X01648*
X01638Y04049*
X01628Y04039*
X01618*
X01638Y04049D02*
Y04069D01*
X00862Y03999D02*
X00912D01*
X00922Y04009*
Y04029*
X00912Y04039*
X00862*
Y04059D02*
Y04099D01*
X00872*
X00912Y04059*
X00922*
X01102Y04095D02*
X01052D01*
X01042Y04085*
Y04065*
X01052Y04055*
X01102*
Y03995D02*
X01092Y04015D01*
X01072Y04035*
X01052*
X01042Y04025*
Y04005*
X01052Y03995*
X01062*
X01072Y04005*
Y04035*
X01228Y03983D02*
X01278D01*
X01288Y03993*
Y04013*
X01278Y04023*
X01228*
Y04083D02*
Y04043D01*
X01258*
X01248Y04063*
Y04073*
X01258Y04083*
X01278*
X01288Y04073*
Y04053*
X01278Y04043*
X01426Y03985D02*
X01476D01*
X01486Y03995*
Y04015*
X01476Y04025*
X01426*
X01486Y04075D02*
X01426D01*
X01456Y04045*
Y04085*
X018Y03995D02*
X0185D01*
X0186Y04005*
Y04025*
X0185Y04035*
X018*
X0181Y04055D02*
X018Y04065D01*
Y04085*
X0181Y04095*
X0182*
X0183Y04085*
Y04075*
Y04085*
X0184Y04095*
X0185*
X0186Y04085*
Y04065*
X0185Y04055*
X00158Y0437D02*
Y0442D01*
X00148Y0443*
X00128*
X00118Y0442*
Y0437*
X00058Y0443D02*
X00098D01*
X00058Y0439*
Y0438*
X00068Y0437*
X00088*
X00098Y0438*
X00672Y04009D02*
X00722D01*
X00732Y04019*
Y04039*
X00722Y04049*
X00672*
X00732Y04069D02*
Y04089D01*
Y04079*
X00672*
X00682Y04069*
X02438Y03281D02*
X02428Y03291D01*
X02408*
X02398Y03281*
Y03241*
X02408Y03231*
X02428*
X02438Y03241*
X02458Y03291D02*
Y03231D01*
Y03251*
X02498Y03291*
X02468Y03261*
X02498Y03231*
X02598Y03495D02*
Y03435D01*
X02628*
X02638Y03445*
Y03485*
X02628Y03495*
X02598*
X02658D02*
X02678D01*
X02668*
Y03435*
X02658*
X02678*
X02315Y03462D02*
X02305Y03472D01*
X02285*
X02275Y03462*
Y03422*
X02285Y03412*
X02305*
X02315Y03422*
X02375Y03462D02*
X02365Y03472D01*
X02345*
X02335Y03462*
Y03452*
X02345Y03442*
X02365*
X02375Y03432*
Y03422*
X02365Y03412*
X02345*
X02335Y03422*
X0214Y02628D02*
X0218D01*
X0216*
Y02568*
X022D02*
Y02628D01*
X0222Y02608*
X0224Y02628*
Y02568*
X0226D02*
Y02628D01*
X0229*
X023Y02618*
Y02598*
X0229Y02588*
X0226*
X02147Y05029D02*
X02167D01*
X02157*
Y0497*
X02147*
X02167*
X02197Y05029D02*
Y0499D01*
X02217Y0497*
X02237Y0499*
Y05029*
X02179Y0096D02*
X02189Y0097D01*
X02209*
X02219Y0096*
Y0095*
X02209Y0094*
X02199*
X02209*
X02219Y0093*
Y0092*
X02209Y0091*
X02189*
X02179Y0092*
X02239Y0097D02*
Y0093D01*
X02259Y0091*
X02279Y0093*
Y0097*
X02299Y0096D02*
X02309Y0097D01*
X02329*
X02339Y0096*
Y0095*
X02329Y0094*
X02319*
X02329*
X02339Y0093*
Y0092*
X02329Y0091*
X02309*
X02299Y0092*
X02372Y04785D02*
X02392D01*
X02382*
Y04725*
X02372*
X02392*
X02422Y04785D02*
Y04735D01*
X02432Y04725*
X02452*
X02462Y04735*
Y04785*
X02535Y04893D02*
X02525Y04903D01*
X02505*
X02495Y04893*
Y04853*
X02505Y04843*
X02525*
X02535Y04853*
Y04873*
X02515*
X0249Y03381D02*
Y03321D01*
X0252*
X0253Y03331*
Y03371*
X0252Y03381*
X0249*
X0258D02*
X0256D01*
X0255Y03371*
Y03331*
X0256Y03321*
X0258*
X0259Y03331*
Y03371*
X0258Y03381*
X00487Y04041D02*
X00447D01*
Y04011*
X00467Y04021*
X00477*
X00487Y04011*
Y03991*
X00477Y03981*
X00457*
X00447Y03991*
X00507Y04041D02*
Y04001D01*
X00527Y03981*
X00547Y04001*
Y04041*
X00567D02*
Y03981D01*
Y04011*
X00607*
Y04041*
Y03981*
X00444Y02878D02*
X00434Y02888D01*
X00414*
X00404Y02878*
Y02838*
X00414Y02828*
X00434*
X00444Y02838*
Y02858*
X00424*
X00464Y02828D02*
Y02868D01*
X00494*
X00504Y02858*
Y02828*
X00564Y02888D02*
Y02828D01*
X00534*
X00524Y02838*
Y02858*
X00534Y02868*
X00564*
X01125Y03163D02*
X01105D01*
X01095Y03153*
Y03113*
X01105Y03103*
X01125*
X01135Y03113*
Y03153*
X01125Y03163*
X01195Y03153D02*
X01185Y03163D01*
X01165*
X01155Y03153*
Y03113*
X01165Y03103*
X01185*
X01195Y03113*
X-00182Y03481D02*
X-00162D01*
X-00172*
Y03541*
X-00182Y03531*
X-00092Y03541D02*
X-00132D01*
Y03511*
X-00112Y03521*
X-00102*
X-00092Y03511*
Y03491*
X-00102Y03481*
X-00122*
X-00132Y03491*
X-00072Y03541D02*
Y03501D01*
X-00052Y03481*
X-00032Y03501*
Y03541*
X-00012D02*
Y03481D01*
Y03511*
X00027*
Y03541*
Y03481*
X01304Y03537D02*
Y03477D01*
Y03507*
X01344*
Y03537*
Y03477*
X01364Y03537D02*
Y03477D01*
X01384Y03497*
X01404Y03477*
Y03537*
X01505Y03522D02*
Y03462D01*
Y03492*
X01545*
Y03522*
Y03462*
X01565Y03522D02*
Y03482D01*
X01585Y03462*
X01605Y03482*
Y03522*
X01745Y03589D02*
Y03529D01*
Y03559*
X01785*
Y03589*
Y03529*
X01805Y03589D02*
Y03539D01*
X01815Y03529*
X01835*
X01845Y03539*
Y03589*
X0099Y03537D02*
X0095D01*
Y03507*
X0097*
X0095*
Y03477*
X01039Y03537D02*
X01019D01*
X01009Y03527*
Y03487*
X01019Y03477*
X01039*
X01049Y03487*
Y03527*
X01039Y03537*
X00242Y04579D02*
X00202D01*
Y04549*
X00222Y04559*
X00232*
X00242Y04549*
Y04529*
X00232Y04519*
X00212*
X00202Y04529*
X00262Y04579D02*
Y04539D01*
X00282Y04519*
X00302Y04539*
Y04579*
X02805Y07095D02*
X02745D01*
Y07125*
X02755Y07135*
X02775*
X02785Y07125*
Y07095*
Y07115D02*
X02805Y07135D01*
X02745Y07155D02*
X02785D01*
X02805Y07175*
X02785Y07195*
X02745*
X02805Y07215D02*
Y07235D01*
Y07225*
X02745*
X02755Y07215*
X00213Y06922D02*
Y06982D01*
X00243*
X00253Y06972*
Y06952*
X00243Y06942*
X00213*
X00233D02*
X00253Y06922D01*
X00273Y06982D02*
Y06922D01*
X00313*
X00333D02*
X00353D01*
X00343*
Y06982*
X00333Y06972*
X0079Y05588D02*
Y05648D01*
X0082*
X0083Y05638*
Y05618*
X0082Y05608*
X0079*
X0081D02*
X0083Y05588D01*
X0089D02*
X0085D01*
X0089Y05628*
Y05638*
X0088Y05648*
X0086*
X0085Y05638*
X0095Y05648D02*
X0093Y05638D01*
X0091Y05618*
Y05598*
X0092Y05588*
X0094*
X0095Y05598*
Y05608*
X0094Y05618*
X0091*
X00561Y0595D02*
Y0601D01*
X00591*
X00601Y06*
Y0598*
X00591Y0597*
X00561*
X00581D02*
X00601Y0595D01*
X00661D02*
X00621D01*
X00661Y0599*
Y06*
X00651Y0601*
X00631*
X00621Y06*
X00721Y0601D02*
X00681D01*
Y0598*
X00701Y0599*
X00711*
X00721Y0598*
Y0596*
X00711Y0595*
X00691*
X00681Y0596*
X00801Y05155D02*
Y05215D01*
X00831*
X00841Y05205*
Y05185*
X00831Y05175*
X00801*
X00821D02*
X00841Y05155D01*
X00901D02*
X00861D01*
X00901Y05195*
Y05205*
X00891Y05215*
X00871*
X00861Y05205*
X00961Y05155D02*
X00921D01*
X00961Y05195*
Y05205*
X00951Y05215*
X00931*
X00921Y05205*
X02356Y04453D02*
X02296D01*
Y04483*
X02306Y04493*
X02326*
X02336Y04483*
Y04453*
Y04473D02*
X02356Y04493D01*
Y04553D02*
Y04513D01*
X02316Y04553*
X02306*
X02296Y04543*
Y04523*
X02306Y04513*
X02356Y04573D02*
Y04593D01*
Y04583*
X02296*
X02306Y04573*
X02187Y04254D02*
X02127D01*
Y04284*
X02137Y04294*
X02157*
X02167Y04284*
Y04254*
Y04274D02*
X02187Y04294D01*
Y04354D02*
Y04314D01*
X02147Y04354*
X02137*
X02127Y04344*
Y04324*
X02137Y04314*
Y04374D02*
X02127Y04384D01*
Y04404*
X02137Y04414*
X02177*
X02187Y04404*
Y04384*
X02177Y04374*
X02137*
X02759Y02359D02*
Y02419D01*
X02789*
X02799Y02409*
Y02389*
X02789Y02379*
X02759*
X02779D02*
X02799Y02359D01*
X02819D02*
X02839D01*
X02829*
Y02419*
X02819Y02409*
X02869Y02369D02*
X02879Y02359D01*
X02899*
X02909Y02369*
Y02409*
X02899Y02419*
X02879*
X02869Y02409*
Y02399*
X02879Y02389*
X02909*
X00452Y01812D02*
Y01872D01*
X00482*
X00492Y01862*
Y01842*
X00482Y01832*
X00452*
X00472D02*
X00492Y01812D01*
X00512D02*
X00532D01*
X00522*
Y01872*
X00512Y01862*
X00592Y01812D02*
Y01872D01*
X00562Y01842*
X00602*
X02743Y0428D02*
X02683D01*
Y0431*
X02693Y0432*
X02713*
X02723Y0431*
Y0428*
Y043D02*
X02743Y0432D01*
Y0434D02*
Y0436D01*
Y0435*
X02683*
X02693Y0434*
Y0439D02*
X02683Y044D01*
Y0442*
X02693Y0443*
X02703*
X02713Y0442*
Y0441*
Y0442*
X02723Y0443*
X02733*
X02743Y0442*
Y044*
X02733Y0439*
X00645Y01812D02*
Y01872D01*
X00675*
X00685Y01862*
Y01842*
X00675Y01832*
X00645*
X00665D02*
X00685Y01812D01*
X00705D02*
X00725D01*
X00715*
Y01872*
X00705Y01862*
X00795Y01812D02*
X00755D01*
X00795Y01852*
Y01862*
X00785Y01872*
X00765*
X00755Y01862*
X00852Y01812D02*
Y01872D01*
X00882*
X00892Y01862*
Y01842*
X00882Y01832*
X00852*
X00872D02*
X00892Y01812D01*
X00912D02*
X00932D01*
X00922*
Y01872*
X00912Y01862*
X00962Y01812D02*
X00982D01*
X00972*
Y01872*
X00962Y01862*
X02336Y0366D02*
Y0372D01*
X02366*
X02376Y0371*
Y0369*
X02366Y0368*
X02336*
X02356D02*
X02376Y0366D01*
X02396D02*
X02416D01*
X02406*
Y0372*
X02396Y0371*
X02446D02*
X02456Y0372D01*
X02476*
X02486Y0371*
Y0367*
X02476Y0366*
X02456*
X02446Y0367*
Y0371*
X00821Y02737D02*
X00761D01*
Y02767*
X00771Y02777*
X00791*
X00801Y02767*
Y02737*
Y02757D02*
X00821Y02777D01*
X00811Y02797D02*
X00821Y02807D01*
Y02827*
X00811Y02837*
X00771*
X00761Y02827*
Y02807*
X00771Y02797*
X00781*
X00791Y02807*
Y02837*
X00737Y03652D02*
X00797D01*
Y03622*
X00787Y03612*
X00767*
X00757Y03622*
Y03652*
Y03632D02*
X00737Y03612D01*
X00797Y03592D02*
Y03552D01*
X00787*
X00747Y03592*
X00737*
X01994Y0428D02*
X01934D01*
Y0431*
X01944Y0432*
X01964*
X01974Y0431*
Y0428*
Y043D02*
X01994Y0432D01*
X01934Y0438D02*
X01944Y0436D01*
X01964Y0434*
X01984*
X01994Y0435*
Y0437*
X01984Y0438*
X01974*
X01964Y0437*
Y0434*
X01435Y04272D02*
X01375D01*
Y04302*
X01385Y04312*
X01405*
X01415Y04302*
Y04272*
Y04292D02*
X01435Y04312D01*
X01375Y04372D02*
Y04332D01*
X01405*
X01395Y04352*
Y04362*
X01405Y04372*
X01425*
X01435Y04362*
Y04342*
X01425Y04332*
X0162Y04276D02*
X0156D01*
Y04306*
X0157Y04316*
X0159*
X016Y04306*
Y04276*
Y04296D02*
X0162Y04316D01*
Y04366D02*
X0156D01*
X0159Y04336*
Y04376*
X01805Y04276D02*
X01745D01*
Y04306*
X01755Y04316*
X01775*
X01785Y04306*
Y04276*
Y04296D02*
X01805Y04316D01*
X01755Y04336D02*
X01745Y04346D01*
Y04366*
X01755Y04376*
X01765*
X01775Y04366*
Y04356*
Y04366*
X01785Y04376*
X01795*
X01805Y04366*
Y04346*
X01795Y04336*
X01053Y04268D02*
X00993D01*
Y04298*
X01003Y04308*
X01023*
X01033Y04298*
Y04268*
Y04288D02*
X01053Y04308D01*
Y04368D02*
Y04328D01*
X01013Y04368*
X01003*
X00993Y04358*
Y04338*
X01003Y04328*
X01234Y04274D02*
X01174D01*
Y04304*
X01184Y04314*
X01204*
X01214Y04304*
Y04274*
Y04294D02*
X01234Y04314D01*
Y04334D02*
Y04354D01*
Y04344*
X01174*
X01184Y04334*
X00934Y08159D02*
X00914D01*
X00924*
Y08109*
X00914Y08099*
X00904*
X00894Y08109*
X00984Y08099D02*
Y08159D01*
X00954Y08129*
X00994*
X02029Y08159D02*
X02009D01*
X02019*
Y08109*
X02009Y08099*
X01999*
X01989Y08109*
X02049Y08149D02*
X02059Y08159D01*
X02079*
X02089Y08149*
Y08139*
X02079Y08129*
X02069*
X02079*
X02089Y08119*
Y08109*
X02079Y08099*
X02059*
X02049Y08109*
X01808Y00203D02*
X01788D01*
X01798*
Y00153*
X01788Y00143*
X01778*
X01768Y00153*
X01868Y00143D02*
X01828D01*
X01868Y00183*
Y00193*
X01858Y00203*
X01838*
X01828Y00193*
X00949Y00203D02*
X00929D01*
X00939*
Y00153*
X00929Y00143*
X00919*
X00909Y00153*
X00969Y00143D02*
X00989D01*
X00979*
Y00203*
X00969Y00193*
X01398Y02549D02*
X01418D01*
X01408*
Y02489*
X01398*
X01418*
X01448D02*
Y02549D01*
X01468Y02529*
X01488Y02549*
Y02489*
X01508Y02539D02*
X01518Y02549D01*
X01538*
X01548Y02539*
Y02529*
X01538Y02519*
X01528*
X01538*
X01548Y02509*
Y02499*
X01538Y02489*
X01518*
X01508Y02499*
X01608Y02489D02*
X01568D01*
X01608Y02529*
Y02539*
X01598Y02549*
X01578*
X01568Y02539*
X01628D02*
X01638Y02549D01*
X01658*
X01668Y02539*
Y02529*
X01658Y02519*
X01648*
X01658*
X01668Y02509*
Y02499*
X01658Y02489*
X01638*
X01628Y02499*
X01688Y02549D02*
Y02489D01*
X01728*
X01788Y02549D02*
X01768Y02539D01*
X01748Y02519*
Y02499*
X01758Y02489*
X01778*
X01788Y02499*
Y02509*
X01778Y02519*
X01748*
X01848Y02539D02*
X01838Y02549D01*
X01818*
X01808Y02539*
Y02499*
X01818Y02489*
X01838*
X01848Y02499*
Y02519*
X01828*
X01908Y02489D02*
X01868D01*
X01908Y02529*
Y02539*
X01898Y02549*
X01878*
X01868Y02539*
X00342Y03931D02*
X00362D01*
X00352*
Y03871*
X00342*
X00362*
X00432Y03921D02*
X00422Y03931D01*
X00402*
X00392Y03921*
Y03881*
X00402Y03871*
X00422*
X00432Y03881*
X00452Y03871D02*
X00472D01*
X00462*
Y03931*
X00452Y03921*
X01692Y07864D02*
X01652D01*
Y07834*
X01672*
X01652*
Y07804*
X01712D02*
X01732D01*
X01722*
Y07864*
X01712Y07854*
X00744Y0711D02*
Y0705D01*
X00774*
X00784Y0706*
Y071*
X00774Y0711*
X00744*
X00804Y0705D02*
X00824D01*
X00814*
Y0711*
X00804Y071*
X01511Y05823D02*
X01521Y05833D01*
Y05853*
X01511Y05863*
X01471*
X01461Y05853*
Y05833*
X01471Y05823*
X01461Y05773D02*
X01521D01*
X01491Y05803*
Y05763*
X01521Y05703D02*
Y05743D01*
X01491*
X01501Y05723*
Y05713*
X01491Y05703*
X01471*
X01461Y05713*
Y05733*
X01471Y05743*
X01205Y05803D02*
X01215Y05813D01*
Y05833*
X01205Y05843*
X01165*
X01155Y05833*
Y05813*
X01165Y05803*
X01155Y05753D02*
X01215D01*
X01185Y05783*
Y05743*
X01155Y05693D02*
X01215D01*
X01185Y05723*
Y05683*
X01731Y01988D02*
X01721Y01998D01*
X01701*
X01691Y01988*
Y01948*
X01701Y01938*
X01721*
X01731Y01948*
X01781Y01938D02*
Y01998D01*
X01751Y01968*
X01791*
X01811Y01988D02*
X01821Y01998D01*
X01841*
X01851Y01988*
Y01978*
X01841Y01968*
X01831*
X01841*
X01851Y01958*
Y01948*
X01841Y01938*
X01821*
X01811Y01948*
X02912Y06543D02*
X02902Y06553D01*
X02882*
X02872Y06543*
Y06503*
X02882Y06493*
X02902*
X02912Y06503*
X02962Y06493D02*
Y06553D01*
X02932Y06523*
X02972*
X03032Y06493D02*
X02992D01*
X03032Y06533*
Y06543*
X03022Y06553*
X03002*
X02992Y06543*
X02922Y06267D02*
X02912Y06277D01*
X02892*
X02882Y06267*
Y06227*
X02892Y06217*
X02912*
X02922Y06227*
X02972Y06217D02*
Y06277D01*
X02942Y06247*
X02982*
X03002Y06217D02*
X03022D01*
X03012*
Y06277*
X03002Y06267*
X01692Y06476D02*
X01682Y06486D01*
X01662*
X01652Y06476*
Y06436*
X01662Y06426*
X01682*
X01692Y06436*
X01712Y06476D02*
X01722Y06486D01*
X01742*
X01752Y06476*
Y06466*
X01742Y06456*
X01732*
X01742*
X01752Y06446*
Y06436*
X01742Y06426*
X01722*
X01712Y06436*
X01772Y06476D02*
X01782Y06486D01*
X01802*
X01812Y06476*
Y06466*
X01802Y06456*
X01812Y06446*
Y06436*
X01802Y06426*
X01782*
X01772Y06436*
Y06446*
X01782Y06456*
X01772Y06466*
Y06476*
X01782Y06456D02*
X01802D01*
X02444Y03023D02*
X02434Y03013D01*
Y02993*
X02444Y02983*
X02484*
X02494Y02993*
Y03013*
X02484Y03023*
X02444Y03043D02*
X02434Y03052D01*
Y03072*
X02444Y03082*
X02454*
X02464Y03072*
Y03062*
Y03072*
X02474Y03082*
X02484*
X02494Y03072*
Y03052*
X02484Y03043*
X02434Y03142D02*
Y03102D01*
X02464*
X02454Y03122*
Y03132*
X02464Y03142*
X02484*
X02494Y03132*
Y03112*
X02484Y03102*
X01972Y00877D02*
X01962Y00867D01*
Y00847*
X01972Y00837*
X02012*
X02022Y00847*
Y00867*
X02012Y00877*
X01972Y00897D02*
X01962Y00907D01*
Y00927*
X01972Y00937*
X01982*
X01992Y00927*
Y00917*
Y00927*
X02002Y00937*
X02012*
X02022Y00927*
Y00907*
X02012Y00897*
X01972Y00957D02*
X01962Y00967D01*
Y00987*
X01972Y00997*
X01982*
X01992Y00987*
Y00977*
Y00987*
X02002Y00997*
X02012*
X02022Y00987*
Y00967*
X02012Y00957*
X02161Y007D02*
X02151Y0069D01*
Y0067*
X02161Y0066*
X02201*
X02211Y0067*
Y0069*
X02201Y007*
X02161Y0072D02*
X02151Y0073D01*
Y0075*
X02161Y0076*
X02171*
X02181Y0075*
Y0074*
Y0075*
X02191Y0076*
X02201*
X02211Y0075*
Y0073*
X02201Y0072*
X02211Y0082D02*
Y0078D01*
X02171Y0082*
X02161*
X02151Y0081*
Y0079*
X02161Y0078*
X02781Y02299D02*
X02771Y02309D01*
X02751*
X02741Y02299*
Y02259*
X02751Y02249*
X02771*
X02781Y02259*
X02801Y02299D02*
X02811Y02309D01*
X02831*
X02841Y02299*
Y02289*
X02831Y02279*
X02821*
X02831*
X02841Y02269*
Y02259*
X02831Y02249*
X02811*
X02801Y02259*
X02861Y02249D02*
X02881D01*
X02871*
Y02309*
X02861Y02299*
X02314Y01341D02*
X02304Y01331D01*
Y01311*
X02314Y01301*
X02354*
X02364Y01311*
Y01331*
X02354Y01341*
X02364Y01401D02*
Y01361D01*
X02324Y01401*
X02314*
X02304Y01391*
Y01371*
X02314Y01361*
X02354Y01421D02*
X02364Y01431D01*
Y01451*
X02354Y01461*
X02314*
X02304Y01451*
Y01431*
X02314Y01421*
X02324*
X02334Y01431*
Y01461*
X02495Y01507D02*
X02485Y01497D01*
Y01477*
X02495Y01467*
X02535*
X02545Y01477*
Y01497*
X02535Y01507*
X02545Y01567D02*
Y01527D01*
X02505Y01567*
X02495*
X02485Y01557*
Y01537*
X02495Y01527*
Y01587D02*
X02485Y01597D01*
Y01617*
X02495Y01627*
X02505*
X02515Y01617*
X02525Y01627*
X02535*
X02545Y01617*
Y01597*
X02535Y01587*
X02525*
X02515Y01597*
X02505Y01587*
X02495*
X02515Y01597D02*
Y01617D01*
X0283Y01689D02*
X0282Y01699D01*
X028*
X0279Y01689*
Y01649*
X028Y01639*
X0282*
X0283Y01649*
X0289Y01639D02*
X0285D01*
X0289Y01679*
Y01689*
X0288Y01699*
X0286*
X0285Y01689*
X0291Y01699D02*
X0295D01*
Y01689*
X0291Y01649*
Y01639*
X03086Y02244D02*
X03076Y02254D01*
X03056*
X03046Y02244*
Y02204*
X03056Y02194*
X03076*
X03086Y02204*
X03146Y02194D02*
X03106D01*
X03146Y02234*
Y02244*
X03136Y02254*
X03116*
X03106Y02244*
X03206Y02254D02*
X03186Y02244D01*
X03166Y02224*
Y02204*
X03176Y02194*
X03196*
X03206Y02204*
Y02214*
X03196Y02224*
X03166*
X0068Y02727D02*
X0067Y02717D01*
Y02697*
X0068Y02687*
X0072*
X0073Y02697*
Y02717*
X0072Y02727*
X0073Y02787D02*
Y02747D01*
X0069Y02787*
X0068*
X0067Y02777*
Y02757*
X0068Y02747*
X0073Y02837D02*
X0067D01*
X007Y02807*
Y02847*
X00257Y03474D02*
X00247Y03484D01*
X00227*
X00217Y03474*
Y03434*
X00227Y03424*
X00247*
X00257Y03434*
X00277Y03424D02*
X00297D01*
X00287*
Y03484*
X00277Y03474*
X00327D02*
X00337Y03484D01*
X00357*
X00367Y03474*
Y03434*
X00357Y03424*
X00337*
X00327Y03434*
Y03474*
X00549Y03047D02*
X00539Y03057D01*
X00519*
X00509Y03047*
Y03007*
X00519Y02997*
X00539*
X00549Y03007*
X00569D02*
X00579Y02997D01*
X00599*
X00609Y03007*
Y03047*
X00599Y03057*
X00579*
X00569Y03047*
Y03037*
X00579Y03027*
X00609*
X00427Y04215D02*
X00417Y04205D01*
Y04185*
X00427Y04175*
X00467*
X00477Y04185*
Y04205*
X00467Y04215*
X00477Y04275D02*
Y04235D01*
X00437Y04275*
X00427*
X00417Y04265*
Y04245*
X00427Y04235*
G54D11*
X02629Y06956D02*
D01*
X02629Y06956*
X02629Y06956*
X02629Y06956*
X02629Y06956*
X02629Y06956*
X02629Y06956*
X02628Y06956*
X02628Y06956*
X02628Y06956*
X02628Y06956*
X02628Y06956*
X02628Y06956*
X02628Y06955*
X02628Y06955*
X02628Y06955*
X02628Y06955*
X02628Y06955*
X02628Y06955*
X02628Y06955*
X02627Y06955*
X02627Y06954*
X02627Y06954*
Y06954*
X02627Y06954*
X02627Y06954*
X02628Y06954*
X02628Y06954*
X02628Y06953*
X02628Y06953*
X02628Y06953*
X02628Y06953*
X02628Y06953*
X02628Y06953*
X02628Y06953*
X02628Y06953*
X02628Y06953*
X02628Y06953*
X02628Y06952*
X02629Y06952*
X02629Y06952*
X02629Y06952*
X02629Y06952*
X02629Y06952*
X02629Y06952*
X02629Y06952*
D01*
X0263Y06952*
X0263Y06952*
X0263Y06952*
X0263Y06952*
X0263Y06952*
X0263Y06952*
X0263Y06952*
X0263Y06953*
X02631Y06953*
X02631Y06953*
X02631Y06953*
X02631Y06953*
X02631Y06953*
X02631Y06953*
X02631Y06953*
X02631Y06953*
X02631Y06953*
X02631Y06954*
X02631Y06954*
X02631Y06954*
X02631Y06954*
X02631Y06954*
Y06954*
X02631Y06954*
X02631Y06955*
X02631Y06955*
X02631Y06955*
X02631Y06955*
X02631Y06955*
X02631Y06955*
X02631Y06955*
X02631Y06955*
X02631Y06956*
X02631Y06956*
X02631Y06956*
X02631Y06956*
X0263Y06956*
X0263Y06956*
X0263Y06956*
X0263Y06956*
X0263Y06956*
X0263Y06956*
X0263Y06956*
X0263Y06956*
X02629Y06956*
X02125Y06417D02*
D01*
X02125Y06417*
X02126Y06417*
X02126Y06416*
X02126Y06416*
X02126Y06416*
X02126Y06416*
X02126Y06416*
X02126Y06416*
X02126Y06416*
X02126Y06416*
X02126Y06415*
X02126Y06415*
X02126Y06415*
X02126Y06415*
X02126Y06415*
X02127Y06415*
X02127Y06415*
X02127Y06415*
X02127Y06415*
X02127Y06415*
X02127Y06415*
X02127Y06415*
X02128*
X02128Y06415*
X02128Y06415*
X02128Y06415*
X02128Y06415*
X02128Y06415*
X02128Y06415*
X02128Y06415*
X02129Y06415*
X02129Y06415*
X02129Y06415*
X02129Y06415*
X02129Y06416*
X02129Y06416*
X02129Y06416*
X02129Y06416*
X02129Y06416*
X02129Y06416*
X02129Y06416*
X02129Y06416*
X02129Y06417*
X02129Y06417*
X02129Y06417*
D01*
X02129Y06417*
X02129Y06417*
X02129Y06417*
X02129Y06417*
X02129Y06417*
X02129Y06418*
X02129Y06418*
X02129Y06418*
X02129Y06418*
X02129Y06418*
X02129Y06418*
X02129Y06418*
X02129Y06418*
X02129Y06418*
X02128Y06419*
X02128Y06419*
X02128Y06419*
X02128Y06419*
X02128Y06419*
X02128Y06419*
X02128Y06419*
X02128Y06419*
X02127*
X02127Y06419*
X02127Y06419*
X02127Y06419*
X02127Y06419*
X02127Y06419*
X02127Y06419*
X02126Y06419*
X02126Y06418*
X02126Y06418*
X02126Y06418*
X02126Y06418*
X02126Y06418*
X02126Y06418*
X02126Y06418*
X02126Y06418*
X02126Y06418*
X02126Y06417*
X02126Y06417*
X02126Y06417*
X02126Y06417*
X02125Y06417*
X02125Y06417*
X01086Y06019D02*
X01283D01*
X01086Y05507D02*
Y06019D01*
Y05507D02*
X01283D01*
Y06019*
X02696Y06142D02*
Y06339D01*
Y06142D02*
X03208D01*
Y06339*
X02696D02*
X03208D01*
Y06425D02*
Y06621D01*
X02696D02*
X03208D01*
X02696Y06425D02*
Y06621D01*
Y06425D02*
X03208D01*
X01385Y05527D02*
X01582D01*
Y06039*
X01385D02*
X01582D01*
X01385Y05527D02*
Y06039D01*
G54D12*
X02879Y07476D02*
D01*
X02879Y07484*
X02878Y07492*
X02877Y075*
X02875Y07507*
X02873Y07515*
X0287Y07522*
X02866Y07529*
X02862Y07536*
X02858Y07543*
X02853Y07549*
X02847Y07555*
X02842Y07561*
X02836Y07566*
X02829Y07571*
X02822Y07575*
X02815Y07578*
X02808Y07582*
X02801Y07584*
X02793Y07587*
X02785Y07588*
X02777Y07589*
X02769Y0759*
X02761*
X02753Y07589*
X02745Y07588*
X02738Y07587*
X0273Y07584*
X02722Y07582*
X02715Y07578*
X02708Y07575*
X02701Y07571*
X02695Y07566*
X02689Y07561*
X02683Y07555*
X02678Y07549*
X02673Y07543*
X02668Y07536*
X02664Y07529*
X02661Y07522*
X02658Y07515*
X02655Y07507*
X02654Y075*
X02652Y07492*
X02651Y07484*
X02651Y07476*
Y06822D02*
D01*
X02651Y06814*
X02652Y06806*
X02654Y06799*
X02655Y06791*
X02658Y06783*
X02661Y06776*
X02664Y06769*
X02668Y06762*
X02673Y06755*
X02678Y06749*
X02683Y06743*
X02689Y06737*
X02695Y06732*
X02701Y06728*
X02708Y06723*
X02715Y0672*
X02722Y06716*
X0273Y06714*
X02738Y06712*
X02745Y0671*
X02753Y06709*
X02761Y06708*
X02769*
X02777Y06709*
X02785Y0671*
X02793Y06712*
X02801Y06714*
X02808Y06716*
X02815Y0672*
X02822Y06723*
X02829Y06728*
X02836Y06732*
X02842Y06737*
X02847Y06743*
X02853Y06749*
X02858Y06755*
X02862Y06762*
X02866Y06769*
X0287Y06776*
X02873Y06783*
X02875Y06791*
X02877Y06799*
X02878Y06806*
X02879Y06814*
X02879Y06822*
X01187Y06043D02*
D01*
X01187Y06043*
X01186Y06043*
X01186Y06043*
X01186Y06043*
X01186Y06043*
X01186Y06044*
X01186Y06044*
X01186Y06044*
X01186Y06044*
X01186Y06044*
X01186Y06044*
X01186Y06044*
X01186Y06044*
X01186Y06044*
X01186Y06045*
X01185Y06045*
X01185Y06045*
X01185Y06045*
X01185Y06045*
X01185Y06045*
X01185Y06045*
X01185Y06045*
X01184*
X01184Y06045*
X01184Y06045*
X01184Y06045*
X01184Y06045*
X01184Y06045*
X01184Y06045*
X01184Y06045*
X01183Y06044*
X01183Y06044*
X01183Y06044*
X01183Y06044*
X01183Y06044*
X01183Y06044*
X01183Y06044*
X01183Y06044*
X01183Y06044*
X01183Y06043*
X01183Y06043*
X01183Y06043*
X01183Y06043*
X01183Y06043*
X01183Y06043*
X01183Y06043*
X01183Y06043*
X01183Y06042*
X01183Y06042*
X01183Y06042*
X01183Y06042*
X01183Y06042*
X01183Y06042*
X01183Y06042*
X01183Y06042*
X01183Y06041*
X01183Y06041*
X01183Y06041*
X01183Y06041*
X01184Y06041*
X01184Y06041*
X01184Y06041*
X01184Y06041*
X01184Y06041*
X01184Y06041*
X01184Y06041*
X01184Y06041*
X01185*
X01185Y06041*
X01185Y06041*
X01185Y06041*
X01185Y06041*
X01185Y06041*
X01185Y06041*
X01186Y06041*
X01186Y06041*
X01186Y06041*
X01186Y06041*
X01186Y06041*
X01186Y06042*
X01186Y06042*
X01186Y06042*
X01186Y06042*
X01186Y06042*
X01186Y06042*
X01186Y06042*
X01186Y06042*
X01186Y06043*
X01187Y06043*
X01187Y06043*
X02675Y0624D02*
D01*
X02675Y06241*
X02675Y06241*
X02675Y06241*
X02675Y06241*
X02675Y06241*
X02675Y06241*
X02674Y06241*
X02674Y06242*
X02674Y06242*
X02674Y06242*
X02674Y06242*
X02674Y06242*
X02674Y06242*
X02674Y06242*
X02674Y06242*
X02674Y06242*
X02673Y06242*
X02673Y06242*
X02673Y06242*
X02673Y06242*
X02673Y06242*
X02673Y06242*
X02673*
X02673Y06242*
X02672Y06242*
X02672Y06242*
X02672Y06242*
X02672Y06242*
X02672Y06242*
X02672Y06242*
X02672Y06242*
X02672Y06242*
X02671Y06242*
X02671Y06242*
X02671Y06242*
X02671Y06242*
X02671Y06242*
X02671Y06241*
X02671Y06241*
X02671Y06241*
X02671Y06241*
X02671Y06241*
X02671Y06241*
X02671Y06241*
X02671Y0624*
X02671Y0624*
X02671Y0624*
X02671Y0624*
X02671Y0624*
X02671Y0624*
X02671Y0624*
X02671Y0624*
X02671Y06239*
X02671Y06239*
X02671Y06239*
X02671Y06239*
X02671Y06239*
X02672Y06239*
X02672Y06239*
X02672Y06239*
X02672Y06239*
X02672Y06239*
X02672Y06239*
X02672Y06239*
X02672Y06239*
X02673Y06239*
X02673Y06238*
X02673*
X02673Y06239*
X02673Y06239*
X02673Y06239*
X02673Y06239*
X02673Y06239*
X02674Y06239*
X02674Y06239*
X02674Y06239*
X02674Y06239*
X02674Y06239*
X02674Y06239*
X02674Y06239*
X02674Y06239*
X02674Y06239*
X02674Y0624*
X02675Y0624*
X02675Y0624*
X02675Y0624*
X02675Y0624*
X02675Y0624*
X02675Y0624*
X02675Y0624*
X03234Y06523D02*
D01*
X03234Y06523*
X03234Y06523*
X03234Y06523*
X03234Y06524*
X03234Y06524*
X03234Y06524*
X03234Y06524*
X03233Y06524*
X03233Y06524*
X03233Y06524*
X03233Y06524*
X03233Y06524*
X03233Y06525*
X03233Y06525*
X03233Y06525*
X03233Y06525*
X03233Y06525*
X03232Y06525*
X03232Y06525*
X03232Y06525*
X03232Y06525*
X03232Y06525*
X03232*
X03232Y06525*
X03231Y06525*
X03231Y06525*
X03231Y06525*
X03231Y06525*
X03231Y06525*
X03231Y06525*
X03231Y06525*
X03231Y06525*
X0323Y06524*
X0323Y06524*
X0323Y06524*
X0323Y06524*
X0323Y06524*
X0323Y06524*
X0323Y06524*
X0323Y06524*
X0323Y06524*
X0323Y06523*
X0323Y06523*
X0323Y06523*
X0323Y06523*
X0323Y06523*
X0323Y06523*
X0323Y06523*
X0323Y06522*
X0323Y06522*
X0323Y06522*
X0323Y06522*
X0323Y06522*
X0323Y06522*
X0323Y06522*
X0323Y06522*
X0323Y06522*
X03231Y06521*
X03231Y06521*
X03231Y06521*
X03231Y06521*
X03231Y06521*
X03231Y06521*
X03231Y06521*
X03231Y06521*
X03232Y06521*
X03232Y06521*
X03232*
X03232Y06521*
X03232Y06521*
X03232Y06521*
X03232Y06521*
X03233Y06521*
X03233Y06521*
X03233Y06521*
X03233Y06521*
X03233Y06521*
X03233Y06522*
X03233Y06522*
X03233Y06522*
X03233Y06522*
X03233Y06522*
X03234Y06522*
X03234Y06522*
X03234Y06522*
X03234Y06522*
X03234Y06523*
X03234Y06523*
X03234Y06523*
X03234Y06523*
X01486Y05503D02*
D01*
X01486Y05504*
X01486Y05504*
X01486Y05504*
X01486Y05504*
X01486Y05504*
X01486Y05504*
X01485Y05504*
X01485Y05504*
X01485Y05505*
X01485Y05505*
X01485Y05505*
X01485Y05505*
X01485Y05505*
X01485Y05505*
X01485Y05505*
X01485Y05505*
X01484Y05505*
X01484Y05505*
X01484Y05505*
X01484Y05505*
X01484Y05505*
X01484Y05505*
X01484*
X01484Y05505*
X01483Y05505*
X01483Y05505*
X01483Y05505*
X01483Y05505*
X01483Y05505*
X01483Y05505*
X01483Y05505*
X01483Y05505*
X01482Y05505*
X01482Y05505*
X01482Y05505*
X01482Y05505*
X01482Y05504*
X01482Y05504*
X01482Y05504*
X01482Y05504*
X01482Y05504*
X01482Y05504*
X01482Y05504*
X01482Y05504*
X01482Y05503*
X01482Y05503*
X01482Y05503*
X01482Y05503*
X01482Y05503*
X01482Y05503*
X01482Y05503*
X01482Y05503*
X01482Y05502*
X01482Y05502*
X01482Y05502*
X01482Y05502*
X01482Y05502*
X01483Y05502*
X01483Y05502*
X01483Y05502*
X01483Y05502*
X01483Y05502*
X01483Y05502*
X01483Y05502*
X01483Y05501*
X01484Y05501*
X01484Y05501*
X01484*
X01484Y05501*
X01484Y05501*
X01484Y05502*
X01484Y05502*
X01484Y05502*
X01485Y05502*
X01485Y05502*
X01485Y05502*
X01485Y05502*
X01485Y05502*
X01485Y05502*
X01485Y05502*
X01485Y05502*
X01485Y05502*
X01485Y05503*
X01486Y05503*
X01486Y05503*
X01486Y05503*
X01486Y05503*
X01486Y05503*
X01486Y05503*
X01486Y05503*
X0037Y03602D02*
D01*
X0037Y03603*
X00369Y03604*
X00369Y03606*
X00369Y03607*
X00369Y03608*
X00368Y03609*
X00368Y0361*
X00367Y03611*
X00366Y03612*
X00365Y03613*
X00365Y03614*
X00364Y03615*
X00363Y03616*
X00362Y03617*
X00361Y03617*
X0036Y03618*
X00358Y03618*
X00357Y03619*
X00356Y03619*
X00355Y03619*
X00354Y03619*
X00352Y0362*
X00352Y0362*
X00531Y03228D02*
D01*
X00531Y03239*
X00529Y0325*
X00528Y03261*
X00525Y03271*
X00521Y03282*
X00517Y03292*
X00513Y03302*
X00507Y03311*
X00501Y0332*
X00494Y03329*
X00487Y03337*
X00479Y03345*
X0047Y03352*
X00462Y03358*
X00452Y03364*
X00443Y03369*
X00433Y03374*
X00422Y03378*
X00412Y03381*
X00401Y03383*
X0039Y03384*
X00379Y03385*
X00368*
X00357Y03384*
X00346Y03383*
X00335Y03381*
X00325Y03378*
X00315Y03374*
X00304Y03369*
X00295Y03364*
X00285Y03358*
X00277Y03352*
X00268Y03345*
X0026Y03337*
X00253Y03329*
X00246Y0332*
X0024Y03311*
X00234Y03302*
X0023Y03292*
X00226Y03282*
X00222Y03271*
X00219Y03261*
X00218Y0325*
X00216Y03239*
X00216Y03228*
X00216Y03217*
X00218Y03206*
X00219Y03195*
X00222Y03184*
X00226Y03174*
X0023Y03164*
X00234Y03154*
X0024Y03144*
X00246Y03135*
X00253Y03127*
X0026Y03118*
X00268Y03111*
X00277Y03104*
X00285Y03097*
X00295Y03091*
X00304Y03086*
X00315Y03082*
X00325Y03078*
X00335Y03075*
X00346Y03073*
X00357Y03071*
X00368Y0307*
X00379*
X0039Y03071*
X00401Y03073*
X00412Y03075*
X00422Y03078*
X00433Y03082*
X00443Y03086*
X00452Y03091*
X00462Y03097*
X0047Y03104*
X00479Y03111*
X00487Y03118*
X00494Y03127*
X00501Y03135*
X00507Y03144*
X00513Y03154*
X00517Y03164*
X00521Y03174*
X00525Y03184*
X00528Y03195*
X00529Y03206*
X00531Y03217*
X00531Y03228*
X03169Y0187D02*
Y01901D01*
X02893Y0187D02*
Y01901D01*
X03Y03795D02*
Y03826D01*
X02724Y03795D02*
Y03826D01*
X02651Y06822D02*
Y07476D01*
X02879Y06822D02*
Y07476D01*
X02637Y02346D02*
Y02433D01*
X02728Y02421D02*
Y02433D01*
X02547D02*
X02728D01*
X02547Y02421D02*
Y02433D01*
Y02346D02*
Y02358D01*
Y02346D02*
X02728D01*
Y02358*
X00832Y0207D02*
X00994D01*
X00962Y01901D02*
X00994D01*
Y0224*
X00962D02*
X00994D01*
X00832D02*
X00864D01*
X00832Y01901D02*
Y0224D01*
Y01901D02*
X00864D01*
X00635Y0207D02*
X00797D01*
X00765Y01901D02*
X00797D01*
Y0224*
X00765D02*
X00797D01*
X00635D02*
X00667D01*
X00635Y01901D02*
Y0224D01*
Y01901D02*
X00667D01*
X00438Y02067D02*
X006D01*
X00568Y01898D02*
X006D01*
Y02237*
X00568D02*
X006D01*
X00438D02*
X0047D01*
X00438Y01898D02*
Y02237D01*
Y01898D02*
X0047D01*
X01736Y00763D02*
X01862D01*
X01736Y0096D02*
X01862D01*
Y00763D02*
Y0096D01*
X01736Y00763D02*
Y0096D01*
X0207Y01525D02*
X02196D01*
X0207Y01722D02*
X02196D01*
Y01525D02*
Y01722D01*
X0207Y01525D02*
Y01722D01*
X01397Y062D02*
X02106D01*
X01397D02*
Y06633D01*
X02106*
Y062D02*
Y06633D01*
X00352Y03609D02*
Y03746D01*
Y03609D02*
X00361Y036D01*
X00616*
X0037D02*
Y03602D01*
X00616Y036D02*
Y03746D01*
X00352D02*
X00616D01*
G54D13*
X01787Y00921D02*
D01*
X01787Y00922*
X01787Y00922*
X01787Y00923*
X01786Y00924*
X01786Y00925*
X01786Y00926*
X01786Y00926*
X01785Y00927*
X01785Y00928*
X01784Y00928*
X01784Y00929*
X01783Y0093*
X01782Y0093*
X01782Y00931*
X01781Y00931*
X0178Y00931*
X0178Y00932*
X01779Y00932*
X01778Y00932*
X01777Y00932*
X01776Y00933*
X01776Y00933*
X01775*
X01774Y00933*
X01773Y00932*
X01772Y00932*
X01771Y00932*
X01771Y00932*
X0177Y00931*
X01769Y00931*
X01768Y00931*
X01768Y0093*
X01767Y0093*
X01767Y00929*
X01766Y00928*
X01766Y00928*
X01765Y00927*
X01765Y00926*
X01764Y00926*
X01764Y00925*
X01764Y00924*
X01764Y00923*
X01763Y00922*
X01763Y00922*
X01763Y00921*
X01763Y0092*
X01763Y00919*
X01764Y00918*
X01764Y00918*
X01764Y00917*
X01764Y00916*
X01765Y00915*
X01765Y00915*
X01766Y00914*
X01766Y00913*
X01767Y00913*
X01767Y00912*
X01768Y00911*
X01768Y00911*
X01769Y00911*
X0177Y0091*
X01771Y0091*
X01771Y0091*
X01772Y00909*
X01773Y00909*
X01774Y00909*
X01775Y00909*
X01776*
X01776Y00909*
X01777Y00909*
X01778Y00909*
X01779Y0091*
X0178Y0091*
X0178Y0091*
X01781Y00911*
X01782Y00911*
X01782Y00911*
X01783Y00912*
X01784Y00913*
X01784Y00913*
X01785Y00914*
X01785Y00915*
X01786Y00915*
X01786Y00916*
X01786Y00917*
X01786Y00918*
X01787Y00918*
X01787Y00919*
X01787Y0092*
X01787Y00921*
X02122Y01682D02*
D01*
X02122Y01683*
X02121Y01684*
X02121Y01685*
X02121Y01686*
X02121Y01686*
X02121Y01687*
X0212Y01688*
X0212Y01689*
X02119Y01689*
X02119Y0169*
X02118Y0169*
X02118Y01691*
X02117Y01692*
X02116Y01692*
X02116Y01693*
X02115Y01693*
X02114Y01693*
X02113Y01694*
X02113Y01694*
X02112Y01694*
X02111Y01694*
X0211Y01694*
X02109*
X02109Y01694*
X02108Y01694*
X02107Y01694*
X02106Y01694*
X02105Y01693*
X02105Y01693*
X02104Y01693*
X02103Y01692*
X02102Y01692*
X02102Y01691*
X02101Y0169*
X02101Y0169*
X021Y01689*
X021Y01689*
X02099Y01688*
X02099Y01687*
X02099Y01686*
X02098Y01686*
X02098Y01685*
X02098Y01684*
X02098Y01683*
X02098Y01682*
X02098Y01681*
X02098Y01681*
X02098Y0168*
X02098Y01679*
X02099Y01678*
X02099Y01677*
X02099Y01677*
X021Y01676*
X021Y01675*
X02101Y01675*
X02101Y01674*
X02102Y01674*
X02102Y01673*
X02103Y01672*
X02104Y01672*
X02105Y01672*
X02105Y01671*
X02106Y01671*
X02107Y01671*
X02108Y01671*
X02109Y01671*
X02109Y0167*
X0211*
X02111Y01671*
X02112Y01671*
X02113Y01671*
X02113Y01671*
X02114Y01671*
X02115Y01672*
X02116Y01672*
X02116Y01672*
X02117Y01673*
X02118Y01674*
X02118Y01674*
X02119Y01675*
X02119Y01675*
X0212Y01676*
X0212Y01677*
X02121Y01677*
X02121Y01678*
X02121Y01679*
X02121Y0168*
X02121Y01681*
X02122Y01681*
X02122Y01682*
X01448Y07549D02*
Y07451D01*
X01498*
X01514Y07467*
Y07533*
X01498Y07549*
X01448*
X01547Y07451D02*
Y07516D01*
X0158Y07549*
X01612Y07516*
Y07451*
Y075*
X01547*
X01645Y07451D02*
Y07549D01*
X01711Y07451*
Y07549*
X01809Y07533D02*
X01793Y07549D01*
X0176*
X01744Y07533*
Y07467*
X0176Y07451*
X01793*
X01809Y07467*
Y075*
X01776*
X01908Y07549D02*
X01842D01*
Y07451*
X01908*
X01842Y075D02*
X01875D01*
X0194Y07451D02*
Y07549D01*
X0199*
X02006Y07533*
Y075*
X0199Y07484*
X0194*
X01973D02*
X02006Y07451D01*
X02039Y07484D02*
Y07566D01*
Y07467D02*
Y07451D01*
X01571Y07374D02*
Y07276D01*
Y07325*
X01637*
Y07374*
Y07276*
X0167D02*
X01703D01*
X01686*
Y07342*
X0167*
X01785Y07243D02*
X01801D01*
X01817Y0726*
Y07342*
X01768*
X01752Y07325*
Y07292*
X01768Y07276*
X01817*
X0185Y07374D02*
Y07276D01*
Y07325*
X01867Y07342*
X01899*
X01916Y07325*
Y07276*
X01416Y0715D02*
Y07085D01*
X01448Y07052*
X01481Y07085*
Y0715*
X0153Y07052D02*
X01563D01*
X0158Y07068*
Y07101*
X01563Y07118*
X0153*
X01514Y07101*
Y07068*
X0153Y07052*
X01612D02*
X01645D01*
X01629*
Y0715*
X01612*
X01711Y07134D02*
Y07118D01*
X01694*
X01727*
X01711*
Y07068*
X01727Y07052*
X01793Y07118D02*
X01826D01*
X01842Y07101*
Y07052*
X01793*
X01776Y07068*
X01793Y07085*
X01842*
X01908Y07019D02*
X01924D01*
X0194Y07036*
Y07118*
X01891*
X01875Y07101*
Y07068*
X01891Y07052*
X0194*
X02022D02*
X0199D01*
X01973Y07068*
Y07101*
X0199Y07118*
X02022*
X02039Y07101*
Y07085*
X01973*
X02072D02*
Y07167D01*
Y07068D02*
Y07052D01*
X01465Y06943D02*
Y06844D01*
X01514*
X0153Y06861*
Y06926*
X01514Y06943*
X01465*
X01612D02*
X0158D01*
X01563Y06926*
Y06861*
X0158Y06844*
X01612*
X01629Y06861*
Y06926*
X01612Y06943*
X0176Y06844D02*
Y06943D01*
X01826Y06844*
Y06943*
X01908D02*
X01875D01*
X01858Y06926*
Y06861*
X01875Y06844*
X01908*
X01924Y06861*
Y06926*
X01908Y06943*
X01957D02*
X02022D01*
X0199*
Y06844*
X01514Y06768D02*
X0158D01*
X01547*
Y0667*
X01662Y06768D02*
X01629D01*
X01612Y06752*
Y06686*
X01629Y0667*
X01662*
X01678Y06686*
Y06752*
X01662Y06768*
X01711D02*
Y06686D01*
X01727Y0667*
X0176*
X01776Y06686*
Y06768*
X01875Y06752D02*
X01858Y06768D01*
X01826*
X01809Y06752*
Y06686*
X01826Y0667*
X01858*
X01875Y06686*
X01908Y06768D02*
Y0667D01*
Y06719*
X01973*
Y06768*
Y0667*
X-0035Y01727D02*
Y01629D01*
X-00301*
X-00284Y01645*
Y01711*
X-00301Y01727*
X-0035*
X-00252Y01629D02*
Y01694D01*
X-00219Y01727*
X-00186Y01694*
Y01629*
Y01678*
X-00252*
X-00153Y01629D02*
Y01727D01*
X-00088Y01629*
Y01727*
X0001Y01711D02*
X-00006Y01727D01*
X-00038*
X-00055Y01711*
Y01645*
X-00038Y01629*
X-00006*
X0001Y01645*
Y01678*
X-00022*
X00108Y01727D02*
X00043D01*
Y01629*
X00108*
X00043Y01678D02*
X00075D01*
X00141Y01629D02*
Y01727D01*
X0019*
X00207Y01711*
Y01678*
X0019Y01661*
X00141*
X00174D02*
X00207Y01629D01*
X00239Y01661D02*
Y01743D01*
Y01645D02*
Y01629D01*
X-0035Y01536D02*
Y01438D01*
Y01487*
X-00284*
Y01536*
Y01438*
X-00252D02*
X-00219D01*
X-00235*
Y01503*
X-00252*
X-00137Y01405D02*
X-0012D01*
X-00104Y01421*
Y01503*
X-00153*
X-0017Y01487*
Y01454*
X-00153Y01438*
X-00104*
X-00071Y01536D02*
Y01438D01*
Y01487*
X-00055Y01503*
X-00022*
X-00006Y01487*
Y01438*
X00125Y01536D02*
Y0147D01*
X00157Y01438*
X0019Y0147*
Y01536*
X00239Y01438D02*
X00272D01*
X00289Y01454*
Y01487*
X00272Y01503*
X00239*
X00223Y01487*
Y01454*
X00239Y01438*
X00321D02*
X00354D01*
X00338*
Y01536*
X00321*
X0042Y0152D02*
Y01503D01*
X00403*
X00436*
X0042*
Y01454*
X00436Y01438*
X00502Y01503D02*
X00535D01*
X00551Y01487*
Y01438*
X00502*
X00485Y01454*
X00502Y0147*
X00551*
X00617Y01405D02*
X00633D01*
X00649Y01421*
Y01503*
X006*
X00584Y01487*
Y01454*
X006Y01438*
X00649*
X00731D02*
X00699D01*
X00682Y01454*
Y01487*
X00699Y01503*
X00731*
X00748Y01487*
Y0147*
X00682*
X00781D02*
Y01552D01*
Y01454D02*
Y01438D01*
X-0035Y01328D02*
Y01246D01*
X-00333Y0123*
X-00301*
X-00284Y01246*
Y01328*
X-00252Y01197D02*
Y01296D01*
X-00202*
X-00186Y01279*
Y01246*
X-00202Y0123*
X-00252*
X-00038Y01312D02*
Y01296D01*
X-00055*
X-00022*
X-00038*
Y01246*
X-00022Y0123*
X00043D02*
X00075D01*
X00092Y01246*
Y01279*
X00075Y01296*
X00043*
X00026Y01279*
Y01246*
X00043Y0123*
X00289Y01328D02*
X00223D01*
Y01279*
X00256Y01296*
X00272*
X00289Y01279*
Y01246*
X00272Y0123*
X00239*
X00223Y01246*
X-0035Y01022D02*
Y01088D01*
X-00333*
X-00317Y01072*
Y01022*
Y01072*
X-00301Y01088*
X-00284Y01072*
Y01022*
X-00252D02*
X-00219D01*
X-00235*
Y01088*
X-00252*
X-0017Y01022D02*
Y01088D01*
X-0012*
X-00104Y01072*
Y01022*
X-00071Y01088D02*
Y01039D01*
X-00055Y01022*
X-00006*
Y01088*
X00043Y01104D02*
Y01088D01*
X00026*
X00059*
X00043*
Y01039*
X00059Y01022*
X00157D02*
X00125D01*
X00108Y01039*
Y01072*
X00125Y01088*
X00157*
X00174Y01072*
Y01055*
X00108*
X00207Y01022D02*
X00256D01*
X00272Y01039*
X00256Y01055*
X00223*
X00207Y01072*
X00223Y01088*
X00272*
X-00333Y00913D02*
X-00301D01*
X-00284Y00897*
Y00848*
X-00333*
X-0035Y00864*
X-00333Y0088*
X-00284*
X-00235Y00848D02*
Y0093D01*
Y00897*
X-00252*
X-00219*
X-00235*
Y0093*
X-00219Y00946*
X-00153Y0093D02*
Y00913D01*
X-0017*
X-00137*
X-00153*
Y00864*
X-00137Y00848*
X-00038D02*
X-00071D01*
X-00088Y00864*
Y00897*
X-00071Y00913*
X-00038*
X-00022Y00897*
Y0088*
X-00088*
X0001Y00913D02*
Y00848D01*
Y0088*
X00026Y00897*
X00043Y00913*
X00059*
X-00284Y00771D02*
Y00673D01*
X-00333*
X-0035Y00689*
Y00722*
X-00333Y00738*
X-00284*
X-00252Y00673D02*
X-00219D01*
X-00235*
Y00738*
X-00252*
X-0017Y00673D02*
X-0012D01*
X-00104Y00689*
X-0012Y00706*
X-00153*
X-0017Y00722*
X-00153Y00738*
X-00104*
X-00006D02*
X-00055D01*
X-00071Y00722*
Y00689*
X-00055Y00673*
X-00006*
X00043D02*
X00075D01*
X00092Y00689*
Y00722*
X00075Y00738*
X00043*
X00026Y00722*
Y00689*
X00043Y00673*
X00125D02*
Y00738D01*
X00174*
X0019Y00722*
Y00673*
X00223D02*
Y00738D01*
X00272*
X00289Y00722*
Y00673*
X00371D02*
X00338D01*
X00321Y00689*
Y00722*
X00338Y00738*
X00371*
X00387Y00722*
Y00706*
X00321*
X00485Y00738D02*
X00436D01*
X0042Y00722*
Y00689*
X00436Y00673*
X00485*
X00535Y00755D02*
Y00738D01*
X00518*
X00551*
X00535*
Y00689*
X00551Y00673*
X006D02*
X00633D01*
X00617*
Y00738*
X006*
X00699Y00673D02*
X00731D01*
X00748Y00689*
Y00722*
X00731Y00738*
X00699*
X00682Y00722*
Y00689*
X00699Y00673*
X00781D02*
Y00738D01*
X0083*
X00846Y00722*
Y00673*
G54D14*
X01697Y00975D02*
D01*
X01697Y00975*
X01697Y00976*
X01697Y00976*
X01697Y00976*
X01697Y00977*
X01697Y00977*
X01697Y00977*
X01697Y00978*
X01696Y00978*
X01696Y00978*
X01696Y00979*
X01696Y00979*
X01695Y00979*
X01695Y00979*
X01695Y00979*
X01695Y0098*
X01694Y0098*
X01694Y0098*
X01694Y0098*
X01693Y0098*
X01693Y0098*
X01693Y0098*
X01692*
X01692Y0098*
X01692Y0098*
X01691Y0098*
X01691Y0098*
X01691Y0098*
X0169Y0098*
X0169Y00979*
X0169Y00979*
X01689Y00979*
X01689Y00979*
X01689Y00979*
X01689Y00978*
X01688Y00978*
X01688Y00978*
X01688Y00977*
X01688Y00977*
X01688Y00977*
X01688Y00976*
X01688Y00976*
X01688Y00976*
X01688Y00975*
X01687Y00975*
X01688Y00975*
X01688Y00974*
X01688Y00974*
X01688Y00974*
X01688Y00973*
X01688Y00973*
X01688Y00973*
X01688Y00972*
X01688Y00972*
X01689Y00972*
X01689Y00972*
X01689Y00971*
X01689Y00971*
X0169Y00971*
X0169Y00971*
X0169Y00971*
X01691Y00971*
X01691Y0097*
X01691Y0097*
X01692Y0097*
X01692Y0097*
X01692Y0097*
X01693*
X01693Y0097*
X01693Y0097*
X01694Y0097*
X01694Y0097*
X01694Y00971*
X01695Y00971*
X01695Y00971*
X01695Y00971*
X01695Y00971*
X01696Y00971*
X01696Y00972*
X01696Y00972*
X01696Y00972*
X01697Y00972*
X01697Y00973*
X01697Y00973*
X01697Y00973*
X01697Y00974*
X01697Y00974*
X01697Y00974*
X01697Y00975*
X01697Y00975*
X02032Y01737D02*
D01*
X02032Y01737*
X02032Y01737*
X02032Y01738*
X02032Y01738*
X02032Y01738*
X02032Y01739*
X02031Y01739*
X02031Y01739*
X02031Y0174*
X02031Y0174*
X02031Y0174*
X0203Y0174*
X0203Y0174*
X0203Y01741*
X0203Y01741*
X02029Y01741*
X02029Y01741*
X02029Y01741*
X02028Y01741*
X02028Y01741*
X02028Y01742*
X02027Y01742*
X02027*
X02027Y01742*
X02026Y01741*
X02026Y01741*
X02026Y01741*
X02025Y01741*
X02025Y01741*
X02025Y01741*
X02024Y01741*
X02024Y0174*
X02024Y0174*
X02024Y0174*
X02023Y0174*
X02023Y0174*
X02023Y01739*
X02023Y01739*
X02023Y01739*
X02022Y01738*
X02022Y01738*
X02022Y01738*
X02022Y01737*
X02022Y01737*
X02022Y01737*
X02022Y01736*
X02022Y01736*
X02022Y01736*
X02022Y01735*
X02022Y01735*
X02023Y01735*
X02023Y01734*
X02023Y01734*
X02023Y01734*
X02023Y01733*
X02024Y01733*
X02024Y01733*
X02024Y01733*
X02024Y01733*
X02025Y01732*
X02025Y01732*
X02025Y01732*
X02026Y01732*
X02026Y01732*
X02026Y01732*
X02027Y01732*
X02027Y01732*
X02027*
X02028Y01732*
X02028Y01732*
X02028Y01732*
X02029Y01732*
X02029Y01732*
X02029Y01732*
X0203Y01732*
X0203Y01733*
X0203Y01733*
X0203Y01733*
X02031Y01733*
X02031Y01733*
X02031Y01734*
X02031Y01734*
X02031Y01734*
X02032Y01735*
X02032Y01735*
X02032Y01735*
X02032Y01736*
X02032Y01736*
X02032Y01736*
X02032Y01737*
X00347Y03549D02*
D01*
X00347Y03549*
X00347Y03549*
X00347Y0355*
X00347Y0355*
X00347Y0355*
X00347Y03551*
X00346Y03551*
X00346Y03551*
X00346Y03552*
X00346Y03552*
X00346Y03552*
X00345Y03552*
X00345Y03553*
X00345Y03553*
X00344Y03553*
X00344Y03553*
X00344Y03553*
X00344Y03553*
X00343Y03553*
X00343Y03554*
X00343Y03554*
X00342Y03554*
X00342*
X00342Y03554*
X00341Y03554*
X00341Y03553*
X0034Y03553*
X0034Y03553*
X0034Y03553*
X0034Y03553*
X00339Y03553*
X00339Y03553*
X00339Y03552*
X00338Y03552*
X00338Y03552*
X00338Y03552*
X00338Y03551*
X00338Y03551*
X00338Y03551*
X00337Y0355*
X00337Y0355*
X00337Y0355*
X00337Y03549*
X00337Y03549*
X00337Y03549*
X00337Y03548*
X00337Y03548*
X00337Y03548*
X00337Y03547*
X00337Y03547*
X00338Y03547*
X00338Y03546*
X00338Y03546*
X00338Y03546*
X00338Y03546*
X00338Y03545*
X00339Y03545*
X00339Y03545*
X00339Y03545*
X0034Y03544*
X0034Y03544*
X0034Y03544*
X0034Y03544*
X00341Y03544*
X00341Y03544*
X00342Y03544*
X00342Y03544*
X00342*
X00343Y03544*
X00343Y03544*
X00343Y03544*
X00344Y03544*
X00344Y03544*
X00344Y03544*
X00344Y03544*
X00345Y03545*
X00345Y03545*
X00345Y03545*
X00346Y03545*
X00346Y03546*
X00346Y03546*
X00346Y03546*
X00346Y03546*
X00347Y03547*
X00347Y03547*
X00347Y03547*
X00347Y03548*
X00347Y03548*
X00347Y03548*
X00347Y03549*
G54D15*
X00492Y02976D02*
Y02992D01*
X00358Y02976D02*
X00492D01*
X00358D02*
Y02992D01*
Y03031D02*
Y03047D01*
X00492*
Y03031D02*
Y03047D01*
X00425Y02976D02*
Y03047D01*
X01429Y03066D02*
Y03082D01*
X01295Y03066D02*
X01429D01*
X01295D02*
Y03082D01*
Y03122D02*
Y03137D01*
X01429*
Y03122D02*
Y03137D01*
X01362Y03066D02*
Y03137D01*
X0124Y02996D02*
Y03011D01*
X01106Y02996D02*
X0124D01*
X01106D02*
Y03011D01*
Y03051D02*
Y03066D01*
X0124*
Y03051D02*
Y03066D01*
X01173Y02996D02*
Y03066D01*
X00377Y04291D02*
X00393D01*
Y04157D02*
Y04291D01*
X00377Y04157D02*
X00393D01*
X00322D02*
X00338D01*
X00322D02*
Y04291D01*
X00338*
X00322Y04224D02*
X00393D01*
X02595Y04339D02*
X02666D01*
X02595Y04272D02*
X02603D01*
X02595D02*
Y04406D01*
X02603*
X02658Y04272D02*
X02666D01*
Y04406*
X02658D02*
X02666D01*
X00905Y04314D02*
X00976D01*
X00905Y04248D02*
X00913D01*
X00905D02*
Y04381D01*
X00913*
X00968Y04248D02*
X00976D01*
Y04381*
X00968D02*
X00976D01*
X0109Y04314D02*
X01161D01*
X0109Y04248D02*
X01098D01*
X0109D02*
Y04381D01*
X01098*
X01153Y04248D02*
X01161D01*
Y04381*
X01153D02*
X01161D01*
X01283Y04322D02*
X01354D01*
X01283Y04255D02*
X01291D01*
X01283D02*
Y04389D01*
X01291*
X01346Y04255D02*
X01354D01*
Y04389*
X01346D02*
X01354D01*
X01472Y04326D02*
X01543D01*
X01472Y04259D02*
X0148D01*
X01472D02*
Y04393D01*
X0148*
X01535Y04259D02*
X01543D01*
Y04393*
X01535D02*
X01543D01*
X01657Y04326D02*
X01728D01*
X01657Y04259D02*
X01665D01*
X01657D02*
Y04393D01*
X01665*
X0172Y04259D02*
X01728D01*
Y04393*
X0172D02*
X01728D01*
X0185Y0433D02*
X01921D01*
X0185Y04263D02*
X01858D01*
X0185D02*
Y04397D01*
X01858*
X01913Y04263D02*
X01921D01*
Y04397*
X01913D02*
X01921D01*
X02232Y04334D02*
X02303D01*
X02232Y04267D02*
X0224D01*
X02232D02*
Y04401D01*
X0224*
X02295Y04267D02*
X02303D01*
Y04401*
X02295D02*
X02303D01*
X02035Y04334D02*
X02106D01*
X02035Y04267D02*
X02043D01*
X02035D02*
Y04401D01*
X02043*
X02098Y04267D02*
X02106D01*
Y04401*
X02098D02*
X02106D01*
X02425Y02814D02*
X0244D01*
X02425D02*
Y02948D01*
X0244*
X0248D02*
X02496D01*
Y02814D02*
Y02948D01*
X0248Y02814D02*
X02496D01*
X02425Y02881D02*
X02496D01*
X02566Y02303D02*
Y02318D01*
X027*
Y02303D02*
Y02318D01*
Y02248D02*
Y02263D01*
X02566Y02248D02*
X027D01*
X02566D02*
Y02263D01*
X02633Y02248D02*
Y02318D01*
X02425Y0272D02*
X02496D01*
X02488Y02787D02*
X02496D01*
Y02653D02*
Y02787D01*
X02488Y02653D02*
X02496D01*
X02425Y02787D02*
X02433D01*
X02425Y02653D02*
Y02787D01*
Y02653D02*
X02433D01*
X00677Y03503D02*
X00692D01*
Y0337D02*
Y03503D01*
X00677Y0337D02*
X00692D01*
X00622D02*
X00637D01*
X00622D02*
Y03503D01*
X00637*
X00622Y03437D02*
X00692D01*
X00799Y03503D02*
X00814D01*
Y0337D02*
Y03503D01*
X00799Y0337D02*
X00814D01*
X00744D02*
X00759D01*
X00744D02*
Y03503D01*
X00759*
X00744Y03437D02*
X00814D01*
X02401Y03744D02*
Y03814D01*
X02468Y03744D02*
Y03751D01*
X02334Y03744D02*
X02468D01*
X02334D02*
Y03751D01*
X02468Y03807D02*
Y03814D01*
X02334D02*
X02468D01*
X02334Y03807D02*
Y03814D01*
X00753Y02944D02*
X00824D01*
X00753Y02877D02*
X00761D01*
X00753D02*
Y03011D01*
X00761*
X00816Y02877D02*
X00824D01*
Y03011*
X00816D02*
X00824D01*
X0072Y03009D02*
X00736D01*
Y02875D02*
Y03009D01*
X0072Y02875D02*
X00736D01*
X00665D02*
X00681D01*
X00665D02*
Y03009D01*
X00681*
X00665Y02942D02*
X00736D01*
X00732Y0374D02*
X00803D01*
X00732Y03673D02*
X0074D01*
X00732D02*
Y03807D01*
X0074*
X00795Y03673D02*
X00803D01*
Y03807*
X00795D02*
X00803D01*
X00673Y05858D02*
Y05929D01*
X0074Y05858D02*
Y05866D01*
X00606Y05858D02*
X0074D01*
X00606D02*
Y05866D01*
X0074Y05921D02*
Y05929D01*
X00606D02*
X0074D01*
X00606Y05921D02*
Y05929D01*
X0083Y05736D02*
X00901D01*
X00893Y05803D02*
X00901D01*
Y05669D02*
Y05803D01*
X00893Y05669D02*
X00901D01*
X0083Y05803D02*
X00838D01*
X0083Y05669D02*
Y05803D01*
Y05669D02*
X00838D01*
X005Y0575D02*
X00516D01*
Y05617D02*
Y0575D01*
X005Y05617D02*
X00516D01*
X00445D02*
X00461D01*
X00445D02*
Y0575D01*
X00461*
X00445Y05684D02*
X00516D01*
X00842Y05228D02*
Y05299D01*
X00775Y05291D02*
Y05299D01*
X00909*
Y05291D02*
Y05299D01*
X00775Y05228D02*
Y05236D01*
Y05228D02*
X00909D01*
Y05236*
X03106Y0209D02*
Y02161D01*
X03039Y0209D02*
Y02106D01*
Y0209D02*
X03173D01*
Y02106*
Y02145D02*
Y02161D01*
X03039D02*
X03173D01*
X03039Y02145D02*
Y02161D01*
G54D16*
X02727Y02579D02*
Y02743D01*
X02524Y02579D02*
Y02743D01*
X-00018Y04364D02*
X0029D01*
Y03584D02*
Y04364D01*
X-00018Y03584D02*
X0029D01*
X-00018D02*
Y04364D01*
G54D17*
X-00067Y07763D02*
Y07741D01*
Y07752*
X-00134*
Y07763*
Y07741*
Y07708D02*
X-00089D01*
Y07674*
X-001Y07663*
X-00134*
X-00089Y07641D02*
X-00134Y07618D01*
X-00089Y07596*
X-00134Y0754D02*
Y07563D01*
X-00123Y07574*
X-001*
X-00089Y07563*
Y0754*
X-001Y07529*
X-00112*
Y07574*
X-00089Y07507D02*
X-00134D01*
X-00112*
X-001Y07496*
X-00089Y07485*
Y07473*
X-00078Y07429D02*
X-00089D01*
Y0744*
Y07418*
Y07429*
X-00123*
X-00134Y07418*
Y07351D02*
Y07373D01*
X-00123Y07384*
X-001*
X-00089Y07373*
Y07351*
X-001Y0734*
X-00112*
Y07384*
X-00089Y07317D02*
X-00134D01*
X-00112*
X-001Y07306*
X-00089Y07295*
Y07284*
X-00134Y07183D02*
X-00067D01*
Y0715*
X-00078Y07139*
X-001*
X-00112Y0715*
Y07183*
X-00078Y07072D02*
X-00067Y07083D01*
Y07105*
X-00078Y07117*
X-00123*
X-00134Y07105*
Y07083*
X-00123Y07072*
X-00067Y0705D02*
X-00134D01*
Y07016*
X-00123Y07005*
X-00112*
X-001Y07016*
Y0705*
Y07016*
X-00089Y07005*
X-00078*
X-00067Y07016*
Y0705*
X-00089Y06916D02*
X-00134D01*
X-00112*
X-001Y06905*
X-00089Y06893*
Y06882*
X-00134Y06815D02*
Y06838D01*
X-00123Y06849*
X-001*
X-00089Y06838*
Y06815*
X-001Y06804*
X-00112*
Y06849*
X-00089Y06782D02*
X-00134Y0676D01*
X-00089Y06737*
X-00134Y0667D02*
Y06715D01*
X-00089Y0667*
X-00078*
X-00067Y06682*
Y06704*
X-00078Y06715*
X-00176Y07763D02*
X-00243D01*
X-0022Y07741*
X-00243Y07719*
X-00176*
X-00243Y07696D02*
X-00231D01*
Y07685*
X-00243*
Y07696*
X-00176Y07641D02*
X-00243D01*
Y07607*
X-00231Y07596*
X-0022*
X-00209Y07607*
Y07641*
Y07607*
X-00198Y07596*
X-00187*
X-00176Y07607*
Y07641*
X-00198Y07574D02*
X-00231D01*
X-00243Y07563*
Y07529*
X-00198*
Y07507D02*
X-00243D01*
X-0022*
X-00209Y07496*
X-00198Y07485*
Y07473*
X-00176Y07395D02*
X-00243D01*
Y07429*
X-00231Y0744*
X-00209*
X-00198Y07429*
Y07395*
X-00243Y0734D02*
Y07362D01*
X-00231Y07373*
X-00209*
X-00198Y07362*
Y0734*
X-00209Y07328*
X-0022*
Y07373*
X-00198Y07261D02*
Y07295D01*
X-00209Y07306*
X-00231*
X-00243Y07295*
Y07261*
Y07239D02*
X-00176D01*
X-0022D02*
X-00198Y07206D01*
X-0022Y07239D02*
X-00243Y07206D01*
Y07172D02*
Y0715D01*
Y07161*
X-00198*
Y07172*
X-00243Y07005D02*
Y0705D01*
X-00198Y07005*
X-00187*
X-00176Y07016*
Y07038*
X-00187Y0705*
Y06983D02*
X-00176Y06972D01*
Y06949*
X-00187Y06938*
X-00231*
X-00243Y06949*
Y06972*
X-00231Y06983*
X-00187*
X-00243Y06871D02*
Y06916D01*
X-00198Y06871*
X-00187*
X-00176Y06882*
Y06905*
X-00187Y06916*
Y06849D02*
X-00176Y06838D01*
Y06815*
X-00187Y06804*
X-00198*
X-00209Y06815*
Y06827*
Y06815*
X-0022Y06804*
X-00231*
X-00243Y06815*
Y06838*
X-00231Y06849*
X-00374Y07741D02*
Y0773D01*
X-00362Y07719*
X-00307*
Y07752*
X-00318Y07763*
X-0034*
X-00351Y07752*
Y07719*
Y07696D02*
Y07674D01*
Y07685*
X-00307*
Y07696*
X-00295Y07629D02*
X-00307D01*
Y07641*
Y07618*
Y07629*
X-0034*
X-00351Y07618*
X-00284Y07585D02*
X-00351D01*
X-00318*
X-00307Y07574*
Y07551*
X-00318Y0754*
X-00351*
X-00307Y07518D02*
X-0034D01*
X-00351Y07507*
Y07473*
X-00307*
X-00284Y07451D02*
X-00351D01*
Y07418*
X-0034Y07406*
X-00329*
X-00318*
X-00307Y07418*
Y07451*
X-00351Y07384D02*
X-0034D01*
Y07373*
X-00351*
Y07384*
X-00307Y07284D02*
Y07317D01*
X-00318Y07328*
X-0034*
X-00351Y07317*
Y07284*
Y0725D02*
Y07228D01*
X-0034Y07217*
X-00318*
X-00307Y07228*
Y0725*
X-00318Y07261*
X-0034*
X-00351Y0725*
Y07195D02*
X-00307D01*
Y07183*
X-00318Y07172*
X-00351*
X-00318*
X-00307Y07161*
X-00318Y0715*
X-00351*
Y07128D02*
X-00307Y07083D01*
Y07061D02*
X-0034D01*
X-00351Y0705*
X-0034Y07038*
X-00351Y07027*
X-0034Y07016*
X-00307*
X-00351Y06994D02*
Y06972D01*
Y06983*
X-00307*
Y06994*
Y06893D02*
Y06927D01*
X-00318Y06938*
X-0034*
X-00351Y06927*
Y06893*
Y06871D02*
Y06849D01*
Y0686*
X-00307*
Y06871*
Y06815D02*
X-0034D01*
X-00351Y06804*
Y06771*
X-00307*
X-00351Y06749D02*
Y06726D01*
Y06737*
X-00284*
X-00295Y06749*
X-00284Y06648D02*
Y06693D01*
X-00318*
X-00307Y0667*
Y06659*
X-00318Y06648*
X-0034*
X-00351Y06659*
Y06682*
X-0034Y06693*
G54D18*
X02492Y02545D02*
X02525Y02579D01*
Y02545D02*
X02492Y02579D01*
X02509Y02545D02*
Y02579D01*
X02525Y02562D02*
X02492D01*
X00243Y04411D02*
X00209Y04378D01*
Y04411D02*
X00243Y04378D01*
X00226Y04411D02*
Y04378D01*
X00209Y04394D02*
X00243D01*
M02*