%FSTAX23Y23*%
%MOIN*%
%SFA1B1*%

%IPPOS*%
%AMD102*
4,1,8,0.029500,-0.034400,0.029500,0.034400,0.014800,0.049200,-0.014800,0.049200,-0.029500,0.034400,-0.029500,-0.034400,-0.014800,-0.049200,0.014800,-0.049200,0.029500,-0.034400,0.0*
1,1,0.029528,0.014800,-0.034400*
1,1,0.029528,0.014800,0.034400*
1,1,0.029528,-0.014800,0.034400*
1,1,0.029528,-0.014800,-0.034400*
%
%AMD103*
4,1,8,0.023600,-0.027600,0.023600,0.027600,0.011800,0.039400,-0.011800,0.039400,-0.023600,0.027600,-0.023600,-0.027600,-0.011800,-0.039400,0.011800,-0.039400,0.023600,-0.027600,0.0*
1,1,0.023622,0.011800,-0.027600*
1,1,0.023622,0.011800,0.027600*
1,1,0.023622,-0.011800,0.027600*
1,1,0.023622,-0.011800,-0.027600*
%
%AMD107*
4,1,8,0.025600,-0.026600,0.025600,0.026600,0.012800,0.039400,-0.012800,0.039400,-0.025600,0.026600,-0.025600,-0.026600,-0.012800,-0.039400,0.012800,-0.039400,0.025600,-0.026600,0.0*
1,1,0.025591,0.012800,-0.026600*
1,1,0.025591,0.012800,0.026600*
1,1,0.025591,-0.012800,0.026600*
1,1,0.025591,-0.012800,-0.026600*
%
%ADD13C,0.023622*%
%ADD15C,0.005905*%
%ADD17C,0.011811*%
%ADD27R,0.021968X0.077559*%
%ADD54C,0.050000*%
%ADD55R,0.050000X0.050000*%
%ADD66R,0.039370X0.055118*%
%ADD67R,0.275590X0.019685*%
%ADD68R,0.055118X0.039370*%
%ADD69C,0.047244*%
%ADD70R,0.051181X0.055118*%
%ADD71R,0.055118X0.051181*%
%ADD72R,0.053150X0.045275*%
%ADD73R,0.047244X0.064960*%
%ADD74R,0.143701X0.062992*%
%ADD75R,0.045275X0.053150*%
%ADD76R,0.031496X0.059055*%
%ADD77R,0.031496X0.074803*%
%ADD78R,0.062992X0.033465*%
%ADD79R,0.062992X0.049212*%
%ADD80R,0.062992X0.047244*%
%ADD81R,0.149606X0.078740*%
%ADD82R,0.059055X0.078740*%
%ADD83C,0.019685*%
%ADD84C,0.039370*%
%ADD85C,0.118110*%
%ADD86C,0.078740*%
%ADD87C,0.015748*%
%ADD88C,0.059055*%
%ADD89C,0.066929*%
%ADD90R,0.059055X0.059055*%
%ADD91C,0.059055*%
%ADD92C,0.078740*%
%ADD93C,0.070866*%
%ADD94R,0.070866X0.070866*%
%ADD95C,0.248031*%
%ADD96R,0.094488X0.094488*%
%ADD97R,0.098425X0.098425*%
%ADD98C,0.051181*%
%ADD99R,0.051181X0.051181*%
%ADD100O,0.086614X0.157480*%
%ADD101C,0.275590*%
G04~CAMADD=102~8~0.0~0.0~984.3~590.6~147.6~0.0~15~0.0~0.0~0.0~0.0~0~0.0~0.0~0.0~0.0~0~0.0~0.0~0.0~270.0~590.0~984.0*
%ADD102D102*%
G04~CAMADD=103~8~0.0~0.0~787.4~472.4~118.1~0.0~15~0.0~0.0~0.0~0.0~0~0.0~0.0~0.0~0.0~0~0.0~0.0~0.0~270.0~474.0~788.0*
%ADD103D103*%
%ADD104R,0.051181X0.051181*%
%ADD105C,0.056102*%
%ADD106C,0.137795*%
G04~CAMADD=107~8~0.0~0.0~787.4~511.8~128.0~0.0~15~0.0~0.0~0.0~0.0~0~0.0~0.0~0.0~0.0~0~0.0~0.0~0.0~270.0~513.0~788.0*
%ADD107D107*%
%ADD108O,0.153543X0.102362*%
%ADD109C,0.236220*%
%ADD110C,0.314960*%
%ADD111C,0.157480*%
%ADD112O,0.059055X0.078740*%
%ADD113C,0.098425*%
%ADD114C,0.023622*%
%ADD115C,0.039370*%
%LNservo_pwr-1*%
%LPD*%
G36*
X03003Y03854D02*
X0296D01*
X02956Y03866*
X02944Y03877*
X0294Y03885*
X02929Y03893*
X02917Y03901*
X02901Y03909*
X02889Y03913*
X02874Y03917*
X0285*
X02834Y03913*
X02822Y03909*
X02807Y03901*
X02795Y03893*
X02783Y03885*
X02779Y03877*
X02767Y03866*
X02763Y03854*
X0272*
Y03952*
X03003*
Y03854*
G37*
G36*
Y03669D02*
X0272D01*
Y03767*
X02763*
X02767Y03755*
X02779Y03744*
X02783Y03736*
X02795Y03728*
X02807Y0372*
X02822Y03712*
X02834Y03708*
X0285Y03704*
X02874*
X02889Y03708*
X02901Y03712*
X02917Y0372*
X02929Y03728*
X0294Y03736*
X02944Y03744*
X02956Y03755*
X0296Y03767*
X03003*
Y03669*
G37*
G36*
X00562Y03858D02*
Y03853D01*
Y0385*
X00555Y03841*
X00552*
X00486*
Y03799*
X00564*
Y03833*
Y03838*
Y03841*
X00571Y0385*
X00574*
X00641*
Y03736*
Y03625*
X00334*
Y03956*
X00562*
Y03858*
G37*
G36*
X03173Y01929D02*
X03129D01*
X03125Y0194*
X03114Y01952*
X0311Y0196*
X03098Y01968*
X03086Y01976*
X0307Y01984*
X03059Y01988*
X03043Y01992*
X03019*
X03003Y01988*
X02992Y01984*
X02976Y01976*
X02964Y01968*
X02952Y0196*
X02948Y01952*
X02937Y0194*
X02933Y01929*
X02889*
Y02027*
X03173*
Y01929*
G37*
G36*
Y01744D02*
X02889D01*
Y01842*
X02933*
X02937Y0183*
X02948Y01818*
X02952Y01811*
X02964Y01803*
X02976Y01795*
X02992Y01787*
X03003Y01783*
X03019Y01779*
X03043*
X03059Y01783*
X0307Y01787*
X03086Y01795*
X03098Y01803*
X0311Y01811*
X03114Y01818*
X03125Y0183*
X03129Y01842*
X03173*
Y01744*
G37*
%LNservo_pwr-2*%
%LPC*%
G36*
X00481Y03841D02*
X00404D01*
Y03799*
X00481*
Y03841*
G37*
G36*
X00564Y03794D02*
X00486D01*
Y03752*
X00564*
Y03794*
G37*
G36*
X00481D02*
X00404D01*
Y03752*
X00481*
Y03794*
G37*
%LNservo_pwr-3*%
%LPD*%
G54D13*
X0208Y03555D02*
D01*
X02072Y03554*
X02063Y03553*
X02059Y03553*
X00173Y06074D02*
X00312Y06214D01*
X00173Y04926D02*
Y06074D01*
X00312Y06214D02*
Y06387D01*
X03Y05062D02*
X03005Y05068D01*
Y05348*
X03011Y05354*
X02905Y05062D02*
X02909Y05066D01*
Y0535*
X02913Y05354*
X0265Y02568D02*
Y02627D01*
X02637Y02641D02*
X0265Y02627D01*
X0248Y02641D02*
X02637D01*
X03074Y02185D02*
X03165Y02275D01*
X03074Y02124D02*
Y02185D01*
X03165Y02275D02*
Y04497D01*
X01578Y04751D02*
X01579Y04752D01*
X02539Y04791D02*
X02755Y04574D01*
X03047*
X02433Y0487D02*
X02531D01*
X02369D02*
X02433D01*
X03098Y00826D02*
Y01665D01*
X01834Y02844D02*
Y02935D01*
Y03029D02*
D01*
Y02935D02*
Y03029D01*
X02251Y04944D02*
X02539D01*
X02791Y04692D02*
X03094D01*
X02539Y04944D02*
X02791Y04692D01*
X01917Y04972D02*
X02019Y05074D01*
X02122D02*
X02251Y04944D01*
X02019Y05074D02*
X02122D01*
X01527Y0509D02*
X01645Y04972D01*
X01409Y0509D02*
X01527D01*
X01645Y04972D02*
X01917D01*
X0311Y04531D02*
X03126Y04514D01*
X03148*
X03165Y04497*
X03031Y02009D02*
Y0208D01*
X03074Y02124*
X01393Y03027D02*
Y03102D01*
X01366Y03D02*
X01393Y03027D01*
X01279Y03D02*
X01366D01*
X01204Y03029D02*
Y03031D01*
Y03029D02*
X01218Y03015D01*
X01263*
X01279Y03*
X03051Y00838D02*
Y01622D01*
X02775Y00562D02*
X03051Y00838D01*
X03003Y01673D02*
Y01728D01*
Y01665D02*
Y01673D01*
X02996Y01681D02*
X03003Y01673D01*
X02988Y01681D02*
X02996D01*
X0297Y01698D02*
X02988Y01681D01*
X0224Y01698D02*
X0297D01*
X02927Y01761D02*
X03009D01*
X02925Y01759D02*
X02927Y01761D01*
X02492Y01566D02*
X02976D01*
X02437Y01511D02*
X02492Y01566D01*
X03011Y00854D02*
Y01657D01*
X02759Y00602D02*
X03011Y00854D01*
X03003Y01665D02*
X03011Y01657D01*
X02429Y01511D02*
X02437D01*
X00511Y03824D02*
X0058D01*
X00484Y03797D02*
X00511Y03824D01*
X00649Y03893D02*
Y03907D01*
X0058Y03824D02*
X00649Y03893D01*
X02448Y0423D02*
Y04303D01*
Y0423D02*
X02453Y04225D01*
X02352Y04301D02*
X02354Y04303D01*
X02352Y04165D02*
Y04301D01*
X0235Y04163D02*
X02352Y04165D01*
X02354Y04303D02*
X02358Y04307D01*
Y04374*
X00653Y04275D02*
X00657Y04271D01*
X00598Y04275D02*
X00653D01*
X00449Y03018D02*
X00456Y03011D01*
X00449Y03018D02*
Y03221D01*
X00442Y03228D02*
X00449Y03221D01*
X01204Y03031D02*
Y03086D01*
X01232Y03114D02*
Y03287D01*
X01204Y03086D02*
X01232Y03114D01*
X01393Y03102D02*
Y03104D01*
X01458Y03169*
X01401Y03275D02*
X01413Y03287D01*
X01401Y03216D02*
Y03275D01*
X0133Y03102D02*
X01344Y03116D01*
Y03159*
X01401Y03216*
X02079Y04843D02*
Y04995D01*
X02078Y04996D02*
X02079Y04995D01*
X01121Y05019D02*
X01527D01*
X01631Y04804D02*
X01679Y04852D01*
X0159Y0448D02*
X01631Y04521D01*
X01125Y04349D02*
Y04437D01*
X01173Y04484*
X00944Y04349D02*
X0113Y04534D01*
X0172Y04531D02*
X01733Y04544D01*
Y04806D02*
X01779Y04852D01*
X0094Y04349D02*
X00944D01*
X02228Y00771D02*
X02437Y00562D01*
X02157Y00771D02*
X02228D01*
X02437Y00562D02*
X02775D01*
X02094Y00696D02*
X02248D01*
X02417Y00527D02*
X02799D01*
X02248Y00696D02*
X02417Y00527D01*
X02114Y00944D02*
X02456Y00602D01*
X02759*
X02018Y00944D02*
X02114D01*
X02799Y00527D02*
X03098Y00826D01*
X02179Y04752D02*
X02184Y04748D01*
X02527*
X02759Y04515D02*
X03011D01*
X02527Y04748D02*
X02759Y04515D01*
X02429Y01606D02*
X02964D01*
X02423D02*
X02429D01*
X02415Y01614D02*
X02423Y01606D01*
X02415Y01614D02*
Y01645D01*
X0225Y015D02*
X0233D01*
Y01507D02*
X02332Y01509D01*
X02427*
X02429Y01511*
X01992Y007D02*
X01994Y00698D01*
X02092*
X02094Y00696*
X01937Y007D02*
X01992D01*
X01905Y00732D02*
X01937Y007D01*
X01905Y00732D02*
Y00787D01*
Y00837D02*
X01978D01*
X01986Y00795D02*
X01992D01*
X01978Y00803D02*
X01986Y00795D01*
X01978Y00803D02*
Y00837D01*
X02382Y04806D02*
X02397Y04791D01*
X02539*
X02079Y04843D02*
X02116Y04806D01*
X02094Y00791D02*
X02102Y00783D01*
X02145*
X02157Y00771*
X02094Y00791D02*
Y00858D01*
X02065Y00887D02*
X02094Y00858D01*
X01905Y00887D02*
X02065D01*
X01905Y00937D02*
X0201D01*
X02018Y00944*
X02179Y04852D02*
X02351D01*
X02369Y0487*
X02763Y04637D02*
X02898D01*
X02531Y0487D02*
X02763Y04637D01*
X03147Y04643D02*
X032Y0459D01*
X02898Y04637D02*
X0302D01*
X03026Y04643*
X03147*
X032Y02112D02*
Y0459D01*
Y01688D02*
Y02112D01*
X03137Y02125D02*
X03186D01*
X032Y02112*
X03177Y01665D02*
X032Y01688D01*
X03098Y01665D02*
X03177D01*
X03003Y01728D02*
X03007Y01732D01*
Y01759*
X03009Y01761*
X03031*
X02515Y02389D02*
X02582D01*
X02503Y02401D02*
X02515Y02389D01*
X026Y02486D02*
Y02568D01*
X02582Y02468D02*
X026Y02486D01*
X02582Y02389D02*
Y02468D01*
X027Y02567D02*
X027Y02568D01*
X027Y02397D02*
Y02567D01*
X02692Y02389D02*
X027Y02397D01*
X0224Y01648D02*
X02243Y01645D01*
X02415*
X0224Y01548D02*
X02245D01*
X0225Y01543*
Y015D02*
Y01543D01*
X0224Y01598D02*
X02242Y01596D01*
X02328*
X0233Y01594*
X00876Y05259D02*
Y05263D01*
Y05259D02*
X00887Y05249D01*
X00891*
X01121Y05019*
X00808Y05263D02*
Y05267D01*
X00797Y05278D02*
X00808Y05267D01*
X00793Y05278D02*
X00797D01*
X00792Y05279D02*
X00793Y05278D01*
X00683Y05279D02*
X00792D01*
X00598Y05364D02*
Y05385D01*
Y05364D02*
X00683Y05279D01*
X01082D02*
D01*
X0109Y05271D01*
X00976Y05385D02*
X01082Y05279D01*
X007Y05385D02*
X00976D01*
X00101Y04899D02*
Y06333D01*
Y04899D02*
X00306Y04694D01*
X00137Y0637D02*
Y06377D01*
X00101Y06333D02*
X00137Y0637D01*
X00637Y05892D02*
X00638Y05893D01*
X00637Y05833D02*
Y05892D01*
X00649Y05748D02*
Y05821D01*
X00637Y05833D02*
X00649Y05821D01*
X007Y05748D02*
X00704Y05751D01*
X00733*
X00783Y05701*
X00866*
X00173Y04926D02*
X0031Y04789D01*
X00139Y04908D02*
Y06123D01*
Y04908D02*
X00304Y04744D01*
X00139Y06123D02*
X00265Y06249D01*
X00384Y05715D02*
X00481D01*
X00385Y05651D02*
X0048D01*
X00481Y05652*
X00436Y04194D02*
Y04744D01*
X00265Y06398D02*
X0027Y06403D01*
X00265Y06249D02*
Y06398D01*
X00312Y06387D02*
X00436Y0651D01*
X00366Y04279D02*
Y04615D01*
X00226Y04275D02*
X00361D01*
X00304Y04177D02*
X00418D01*
X00226Y0418D02*
X003D01*
X00306Y04694D02*
X00386D01*
X-00032Y04525D02*
X00006Y04564D01*
X0027Y06403D02*
Y06479D01*
X00372Y0658*
X0031Y04789D02*
X00805D01*
X00304Y04744D02*
X00436D01*
X00114Y03511D02*
Y03733D01*
X-00032Y03879D02*
X00114Y03733D01*
X-00032Y03879D02*
Y04525D01*
X00481Y05652D02*
X00544D01*
X007Y05695D02*
Y05748D01*
X00686Y05682D02*
X007Y05695D01*
X00573Y05682D02*
X00686D01*
X00544Y05652D02*
X00573Y05682D01*
X00596Y05746D02*
X00598Y05748D01*
X00564Y05746D02*
X00596D01*
X00481Y05715D02*
X00534D01*
X00564Y05746*
X02637Y04153D02*
Y04293D01*
X02648Y04304*
X02649*
X02263Y04163D02*
X02265Y04165D01*
Y04298*
X02267Y043*
X02072Y04164D02*
X02073Y04163D01*
X02072Y04164D02*
Y04298D01*
X0207Y043D02*
X02072Y04298D01*
X01883Y04163D02*
X01884Y04164D01*
Y04295*
X01885Y04296*
X01693Y04163D02*
X01693Y04163D01*
X01693Y04163D02*
Y04291D01*
X01692Y04292D02*
X01693Y04291D01*
X01503Y04163D02*
X01505Y04165D01*
Y0429*
X01507Y04292*
X00837Y04266D02*
X00838Y04265D01*
X00832Y04271D02*
X00837Y04266D01*
X00838Y04167D02*
Y04265D01*
X02452Y04163D02*
Y04224D01*
X02453Y04225*
X02539Y04153D02*
X0254Y04154D01*
Y04229*
X00751Y04271D02*
X00832D01*
X01123Y04163D02*
X01124Y04164D01*
Y04279*
X01125Y0428*
X00937Y04167D02*
X00938Y04169D01*
Y04278*
X0094Y0428*
X00436Y04744D02*
X00674D01*
X003Y0418D02*
X00304Y04177D01*
X00418D02*
X00436Y04194D01*
X00361Y04275D02*
X00366Y04279D01*
Y04615D02*
X00389Y04638D01*
X01195Y04639D02*
X01338D01*
X00657Y04551D02*
X01033Y04927D01*
X00657Y04271D02*
Y04551D01*
X00751Y04271D02*
Y0454D01*
X01063Y04852*
X00657Y04188D02*
Y04271D01*
X01379Y04681D02*
Y04752D01*
X01338Y04639D02*
X01379Y04681D01*
X00436Y0651D02*
Y06528D01*
X00674Y04744D02*
X00718Y04699D01*
X00986Y0497D02*
X01452D01*
X00805Y04789D02*
X00986Y0497D01*
X01479Y04852D02*
Y04943D01*
X01452Y0497D02*
X01479Y04943D01*
X01033Y04927D02*
X01366D01*
X01379Y04852D02*
Y04913D01*
X01366Y04927D02*
X01379Y04913D01*
X01122Y04752D02*
X01279D01*
X01115Y04745D02*
X01122Y04752D01*
X01063Y04852D02*
X01279D01*
X00649Y04181D02*
X00657Y04188D01*
X00649Y04167D02*
Y04181D01*
X0207Y03779D02*
X02071Y03778D01*
Y03708D02*
Y03778D01*
X01875D02*
X01875Y03779D01*
X01875Y03705D02*
Y03778D01*
X01688Y03779D02*
X01689Y03778D01*
Y03708D02*
Y03778D01*
X01494Y03777D02*
X01496Y03779D01*
X01494Y03708D02*
Y03777D01*
X01312Y03779D02*
X01314Y0378D01*
X01312Y03711D02*
Y03779D01*
X01122Y03708D02*
Y03775D01*
X00975Y03712D02*
X00981D01*
X00954Y03779D02*
X00956Y03777D01*
Y03731D02*
Y03777D01*
Y03731D02*
X00975Y03712D01*
X02263Y03707D02*
Y03779D01*
Y03707D02*
D01*
X02169Y03636D02*
Y03779D01*
X02167Y03634D02*
X02169Y03636D01*
X01976Y0364D02*
Y03779D01*
X01971Y03635D02*
X01976Y0364D01*
X01594Y03669D02*
Y03779D01*
X01564Y03639D02*
X01594Y03669D01*
X0122Y03678D02*
Y03779D01*
X01239Y0364D02*
Y03659D01*
X0122Y03678D02*
X01239Y03659D01*
X02535Y03635D02*
Y03893D01*
X02448Y03897D02*
Y03903D01*
Y03897D02*
X02452Y03893D01*
X02535*
X0235Y038D02*
Y03903D01*
Y038D02*
X02367Y03783D01*
Y03779D02*
Y03783D01*
X02263Y03779D02*
Y03903D01*
Y03779D02*
D01*
X02165Y03783D02*
Y03899D01*
X02161Y03903D02*
X02165Y03899D01*
Y03783D02*
X02169Y03779D01*
X02212Y03903D02*
X02216Y03899D01*
Y03874D02*
Y03899D01*
Y03874D02*
X02219Y03871D01*
Y03643D02*
Y03871D01*
Y03643D02*
X02233Y03629D01*
X02379*
X02429Y03362D02*
X02529D01*
X02407D02*
X02429D01*
X02449Y03452D02*
X02592D01*
X02436Y03466D02*
Y03779D01*
Y03466D02*
X02449Y03452D01*
X02592D02*
X02606Y03438D01*
Y02929D02*
Y03438D01*
X02393Y03376D02*
Y03616D01*
X02543Y02933D02*
Y03348D01*
X02393Y03376D02*
X02407Y03362D01*
X02529D02*
X02543Y03348D01*
X02322Y03177D02*
Y03541D01*
X02104Y03555D02*
X02308D01*
X02322Y03541*
X02022Y03567D02*
Y03903D01*
X02036Y03553D02*
X02059D01*
X02022Y03567D02*
X02036Y03553D01*
X02322Y03177D02*
X02405Y03094D01*
X0208Y03555D02*
X02104D01*
X02379Y03629D02*
X02393Y03616D01*
X02543Y02933D02*
X026Y02875D01*
Y02754D02*
Y02875D01*
X02606Y02929D02*
X0265Y02884D01*
Y02754D02*
Y02884D01*
X02608Y0359D02*
X02629D01*
X02586Y03612D02*
Y03893D01*
Y03612D02*
X02608Y0359D01*
X02629D02*
X02649Y0357D01*
Y02948D02*
Y0357D01*
X027Y02754D02*
Y02897D01*
X02649Y02948D02*
X027Y02897D01*
X0246Y0285D02*
X02472Y02862D01*
X02543*
X02702Y03661D02*
X02712D01*
X02702Y02958D02*
X0274Y02921D01*
X02702Y02958D02*
Y03661D01*
X02738Y03687D02*
X02862D01*
X02712Y03661D02*
X02738Y03687D01*
X02633Y03889D02*
X02649Y03874D01*
Y03708D02*
Y03874D01*
X02797Y03935D02*
X02862D01*
X02783Y03921D02*
X02797Y03935D01*
X02637Y03893D02*
X02689D01*
X02717Y03921*
X02783*
X0207Y03779D02*
Y039D01*
X01976Y03779D02*
Y03884D01*
X01971Y03889D02*
X01976Y03884D01*
X01971Y03889D02*
Y03903D01*
X02322Y02641D02*
X02405Y02724D01*
Y03094*
X02299Y02543D02*
Y02627D01*
X02313Y02641*
X02322*
X02338Y02503D02*
X02381D01*
X02299Y02543D02*
X02338Y02503D01*
X02381D02*
X02417Y02539D01*
X02448*
X0255Y02542D02*
Y02568D01*
X0255Y02541D02*
X0255Y02542D01*
X0245Y02541D02*
X0255D01*
X02448Y02539D02*
X0245Y02541D01*
X02665Y02283D02*
Y02353D01*
X02692Y0238*
Y02389*
X02582D02*
X02594Y02377D01*
Y02354D02*
Y02377D01*
Y02354D02*
X02602Y02346D01*
Y02283D02*
Y02346D01*
X0246Y02913D02*
Y02968D01*
Y02754D02*
Y0285D01*
X02366Y02594D02*
X02433D01*
X02462Y02624*
X0248Y02641*
X02462Y02624D02*
Y02684D01*
X027Y02568D02*
Y02614D01*
X0246Y02754D02*
X0255D01*
Y02755*
X0246Y02686D02*
X02462Y02684D01*
X0255Y02754D02*
Y02755D01*
X0255Y02755D02*
X0255Y02755D01*
X02633Y03889D02*
X02637Y03893D01*
X0172Y03196D02*
Y03395D01*
X01572Y03049D02*
X0172Y03196D01*
Y03395D02*
X0173Y03405D01*
X01572Y03037D02*
Y03049D01*
X01564Y03029D02*
X01572Y03037D01*
X01564Y02938D02*
Y03029D01*
X01659Y02938D02*
Y03029D01*
X01667Y03037D02*
Y03055D01*
X01659Y02848D02*
Y02938D01*
X01781Y03169D02*
Y03281D01*
X01667Y03055D02*
X01781Y03169D01*
X01659Y03029D02*
X01667Y03037D01*
X01899Y03218D02*
Y03393D01*
X01889Y03208D02*
X01899Y03218D01*
Y03393D02*
X01911Y03405D01*
X01834Y03037D02*
X01889Y03092D01*
Y03208*
X01564Y02848D02*
Y02938D01*
X01775Y03287D02*
X01781Y03281D01*
X01834Y03029D02*
Y03037D01*
X01956Y03287D02*
X01958Y03285D01*
Y03198D02*
Y03285D01*
X01929Y03029D02*
Y03169D01*
X01958Y03198*
X01929Y02935D02*
Y03029D01*
Y02844D02*
Y02935D01*
Y03029D02*
D01*
X02076Y0322D02*
X0209Y03206D01*
Y0312D02*
Y03206D01*
X02076Y0322D02*
Y03374D01*
X02092Y03389*
Y03405*
X0209Y03041D02*
Y0312D01*
X02185Y03198D02*
Y03263D01*
X02137Y03287D02*
X02147Y03277D01*
X02171*
X02185Y03263*
Y0312D02*
Y03198D01*
Y03041D02*
Y0312D01*
G54D15*
X03031Y01778D02*
D01*
X03038Y01778*
X03046Y01779*
X03053Y0178*
X03061Y01782*
X03068Y01784*
X03075Y01787*
X03081Y0179*
X03088Y01794*
X03094Y01798*
X031Y01803*
X03106Y01808*
X03111Y01813*
X03116Y01819*
X0312Y01825*
X03124Y01832*
X03128Y01838*
X03129Y01842*
X02933D02*
D01*
X02936Y01835*
X0294Y01829*
X02944Y01823*
X02948Y01817*
X02953Y01811*
X02959Y01806*
X02964Y01801*
X0297Y01796*
X02977Y01792*
X02983Y01789*
X0299Y01786*
X02997Y01783*
X03005Y01781*
X03012Y0178*
X03019Y01778*
X03027Y01778*
X03031Y01778*
X03129Y01929D02*
D01*
X03126Y01935*
X03122Y01942*
X03118Y01948*
X03114Y01954*
X03109Y0196*
X03103Y01965*
X03098Y0197*
X03092Y01974*
X03085Y01978*
X03079Y01982*
X03072Y01985*
X03065Y01987*
X03057Y0199*
X0305Y01991*
X03043Y01992*
X03035Y01993*
X03031Y01993*
D01*
X03023Y01993*
X03016Y01992*
X03009Y01991*
X03001Y01989*
X02994Y01986*
X02987Y01984*
X02981Y0198*
X02974Y01977*
X02968Y01972*
X02962Y01968*
X02956Y01963*
X02951Y01957*
X02946Y01952*
X02942Y01945*
X02938Y01939*
X02934Y01932*
X02933Y01929*
X02862Y03918D02*
D01*
X02854Y03918*
X02847Y03917*
X02839Y03916*
X02832Y03914*
X02825Y03912*
X02818Y03909*
X02811Y03905*
X02805Y03902*
X02798Y03898*
X02793Y03893*
X02787Y03888*
X02782Y03882*
X02777Y03877*
X02773Y03871*
X02769Y03864*
X02765Y03858*
X02763Y03854*
X0296D02*
D01*
X02957Y03861*
X02953Y03867*
X02949Y03873*
X02944Y03879*
X02939Y03885*
X02934Y0389*
X02928Y03895*
X02922Y03899*
X02916Y03903*
X02909Y03907*
X02902Y0391*
X02895Y03913*
X02888Y03915*
X02881Y03916*
X02873Y03917*
X02866Y03918*
X02862Y03918*
X02763Y03767D02*
D01*
X02767Y0376*
X0277Y03754*
X02774Y03748*
X02779Y03742*
X02784Y03736*
X02789Y03731*
X02795Y03726*
X02801Y03722*
X02808Y03718*
X02814Y03714*
X02821Y03711*
X02828Y03708*
X02835Y03706*
X02843Y03705*
X0285Y03704*
X02857Y03703*
X02862Y03703*
D01*
X02869Y03703*
X02877Y03704*
X02884Y03705*
X02891Y03707*
X02898Y03709*
X02905Y03712*
X02912Y03716*
X02919Y03719*
X02925Y03724*
X02931Y03728*
X02936Y03733*
X02942Y03739*
X02946Y03744*
X02951Y0375*
X02955Y03757*
X02958Y03763*
X0296Y03767*
X02891Y01842D02*
X02933D01*
X03129D02*
X03171D01*
X02891Y01929D02*
X02933D01*
X03129D02*
X03171D01*
X0296Y03767D02*
X03001D01*
X02722D02*
X02763D01*
X02722Y03854D02*
X02763D01*
X0296D02*
X03001D01*
G54D17*
X00751Y04167D02*
Y04271D01*
D01*
G54D27*
X0255Y02568D03*
X026D03*
X0265D03*
X027D03*
Y02754D03*
X0265D03*
X026D03*
X0255D03*
G54D54*
X00226Y03764D03*
Y03964D03*
Y04164D03*
G54D55*
X00226Y04264D03*
G54D66*
X02905Y05062D03*
X03D03*
X00098Y06185D03*
X00192D03*
X02448Y04303D03*
X02354D03*
X03098Y01665D03*
X03003D03*
X02539Y03783D03*
X02633D03*
X0209Y03198D03*
X02185D03*
X0209Y0312D03*
X02185D03*
X0209Y03041D03*
X02185D03*
X01834Y03029D03*
X01929D03*
X01834Y02935D03*
X01929D03*
X01834Y02844D03*
X01929D03*
X01564Y03029D03*
X01659D03*
X01564Y02938D03*
X01659D03*
X01564Y02848D03*
X01659D03*
X0207Y03779D03*
X01976D03*
X00954D03*
X0086D03*
X01122Y03775D03*
X01027D03*
X0122Y03779D03*
X01314D03*
X02169D03*
X02263D03*
X01496D03*
X01401D03*
X01688D03*
X01594D03*
X00751Y04271D03*
X00657D03*
X01781Y03779D03*
X01875D03*
G54D67*
X03031Y02009D03*
Y01761D03*
X02862Y03935D03*
Y03687D03*
G54D68*
X02094Y00696D03*
Y00791D03*
X01992Y007D03*
Y00795D03*
X0233Y01507D03*
Y01602D03*
X02429Y01511D03*
Y01606D03*
G54D69*
X02307Y0474D03*
X02078Y04996D03*
X02125Y00933D03*
X00363Y04553D03*
X00114Y03511D03*
X00528Y03928D03*
X02433Y0487D03*
X01688Y03574D03*
X01562D03*
X0146Y03555D03*
X02366Y02594D03*
X00531Y02933D03*
X01031Y03125D03*
X00885Y03513D03*
X02429Y03362D03*
X02307Y03543D03*
X02521Y03452D03*
X02629Y03566D03*
G54D70*
X00456Y03011D03*
X00393D03*
X01393Y03102D03*
X0133D03*
X01204Y03031D03*
X01141D03*
X02602Y02283D03*
X02665D03*
X03137Y02125D03*
X03074D03*
G54D71*
X00358Y04255D03*
Y04192D03*
X0246Y0285D03*
Y02913D03*
X00657Y03468D03*
Y03405D03*
X00779Y03468D03*
Y03405D03*
X007Y02974D03*
Y02911D03*
X00481Y05715D03*
Y05652D03*
G54D72*
X0263Y04305D03*
Y04374D03*
X0094Y0428D03*
Y04349D03*
X01125Y0428D03*
Y04349D03*
X01318Y04288D03*
Y04357D03*
X01507Y04292D03*
Y04361D03*
X01692Y04292D03*
Y04361D03*
X01885Y04296D03*
Y04365D03*
X02267Y043D03*
Y04369D03*
X0207Y043D03*
Y04369D03*
X0246Y02754D03*
Y02686D03*
X00789Y0291D03*
Y02979D03*
X00767Y03705D03*
Y03774D03*
X00866Y0577D03*
Y05701D03*
G54D73*
X02582Y02389D03*
X02692D03*
G54D74*
X00913Y02195D03*
Y01945D03*
X00716Y02195D03*
Y01945D03*
X00519Y02192D03*
Y01942D03*
G54D75*
X02436Y03779D03*
X02367D03*
X00707Y05893D03*
X00638D03*
X00808Y05263D03*
X00876D03*
G54D76*
X02263Y04163D03*
X02165D03*
X02161Y03903D03*
X02212D03*
X02263D03*
X02073Y04163D03*
X01975D03*
X01971Y03903D03*
X02022D03*
X02073D03*
X0235D03*
X02448D03*
X02452Y04163D03*
X02401D03*
X0235D03*
X01693D03*
X01595D03*
X01591Y03903D03*
X01642D03*
X01693D03*
X00937Y04167D03*
X00838D03*
X00834Y03907D03*
X00885D03*
X00937D03*
X01123Y04163D03*
X01025D03*
X01021Y03903D03*
X01072D03*
X01123D03*
X01313Y04163D03*
X01215D03*
X01211Y03903D03*
X01262D03*
X01313D03*
X01503Y04163D03*
X01405D03*
X01401Y03903D03*
X01452D03*
X01503D03*
X01883Y04163D03*
X01785D03*
X01781Y03903D03*
X01832D03*
X01883D03*
X00649Y03907D03*
X00748D03*
X00751Y04167D03*
X007D03*
X00649D03*
X02637Y04153D03*
X02539D03*
X02535Y03893D03*
X02586D03*
X02637D03*
G54D77*
X00598Y05748D03*
X00649D03*
X007D03*
Y05385D03*
X00598D03*
G54D78*
X01905Y00787D03*
Y00837D03*
Y00887D03*
Y00937D03*
X01694Y00787D03*
Y00937D03*
X0224Y01548D03*
Y01598D03*
Y01648D03*
Y01698D03*
X02028Y01548D03*
Y01698D03*
G54D79*
X01694Y00827D03*
X02028Y01588D03*
G54D80*
X01694Y00897D03*
X02028Y01658D03*
G54D81*
X00484Y03797D03*
G54D82*
X00574Y03549D03*
X00484D03*
X00393D03*
G54D83*
X01029Y03634D02*
Y03773D01*
X01027Y03775D02*
X01029Y03773D01*
X01832Y03722D02*
Y03903D01*
X01734Y03624D02*
X01832Y03722D01*
X01452Y03563D02*
Y03903D01*
X01262Y03702D02*
X01368Y03596D01*
Y03405D02*
Y03596D01*
X01262Y03702D02*
Y03903D01*
X01024Y03574D02*
X01149D01*
X00905Y03693D02*
Y03826D01*
Y03693D02*
X01024Y03574D01*
X01781Y03723D02*
Y03779D01*
X01696Y03638D02*
X01781Y03723D01*
X01576Y036D02*
Y036D01*
X01594Y03618D02*
X01594D01*
X01576Y036D02*
X01594Y03618D01*
X01551Y03574D02*
X01576Y036D01*
X01594Y03618D02*
X01611Y03635D01*
X01594Y03618D02*
Y03618D01*
X01611Y03635D02*
X01612D01*
X01401Y03779D02*
D01*
Y03637D02*
Y03779D01*
X0111Y03622D02*
X01192D01*
X01322Y03492*
X01268Y03414D02*
X01277Y03405D01*
X01268Y03414D02*
Y03455D01*
X01149Y03574D02*
X01268Y03455D01*
X00887Y03515D02*
X01118D01*
X01178Y03414D02*
Y03455D01*
Y03414D02*
X01187Y03405D01*
X01118Y03515D02*
X01178Y03455D01*
X01551Y03407D02*
Y03574D01*
X01612Y03635D02*
X01642Y03666D01*
Y03903*
X01716Y03605D02*
Y03606D01*
X01716D02*
X01734Y03623D01*
X01716Y03606D02*
X01716D01*
X01594Y03484D02*
X01698Y03588D01*
X01699*
X01734Y03623D02*
Y03624D01*
X01699Y03588D02*
X01716Y03605D01*
X00748Y03907D02*
D01*
Y0385D02*
Y03907D01*
X00767Y03774D02*
Y0383D01*
X00748Y0385D02*
X00767Y0383D01*
Y03631D02*
X00885Y03513D01*
X00767Y03631D02*
Y03705D01*
X00885Y03513D02*
X00887Y03515D01*
X01879Y03899D02*
X01883Y03903D01*
X01879Y03783D02*
Y03899D01*
X01875Y03779D02*
X01879Y03783D01*
X01781Y03903D02*
X01781Y03903D01*
Y03779D02*
Y03903D01*
Y03779D02*
X01781Y03779D01*
X01549Y03405D02*
X01551Y03407D01*
X01691Y03901D02*
X01693Y03903D01*
X01691Y03781D02*
Y03901D01*
X01688Y03779D02*
X01691Y03781D01*
X01591Y03903D02*
X01592Y03901D01*
Y03781D02*
Y03901D01*
Y03781D02*
X01594Y03779D01*
X01452Y03563D02*
X01503Y03511D01*
X01499Y03899D02*
X01503Y03903D01*
X01499Y03783D02*
Y03899D01*
X01496Y03779D02*
X01499Y03783D01*
X01401Y03903D02*
X01401Y03903D01*
Y03779D02*
Y03903D01*
Y03779D02*
X01401Y03779D01*
X01313Y03903D02*
X01314Y03902D01*
Y0378D02*
Y03902D01*
X01211Y03903D02*
X01215Y03898D01*
Y03784D02*
Y03898D01*
Y03784D02*
X0122Y03779D01*
X01072Y0366D02*
Y03903D01*
Y0366D02*
X0111Y03622D01*
X01123Y03903D02*
X01125Y03901D01*
Y03781D02*
Y03901D01*
X01021Y03799D02*
Y03903D01*
Y03799D02*
X01033Y03787D01*
Y03779D02*
Y03787D01*
X00885Y03846D02*
Y03907D01*
Y03846D02*
X00905Y03826D01*
X00937Y0387D02*
Y03907D01*
Y0387D02*
X00954Y03852D01*
Y03779D02*
Y03852D01*
X0085Y03789D02*
X0086Y03779D01*
X0085Y03789D02*
Y03832D01*
X00834Y03848D02*
X0085Y03832D01*
X00834Y03848D02*
Y03907D01*
G54D84*
X0086Y03639D02*
Y03779D01*
Y03639D02*
X00866Y03633D01*
X00779Y03397D02*
X01092D01*
X00657D02*
X00779D01*
X00381Y03011D02*
Y03141D01*
X00417Y03397D02*
X00657D01*
X02783Y02696D02*
Y03562D01*
X00862Y0577D02*
X00866D01*
X00859Y05773D02*
X00862Y0577D01*
X00859Y05773D02*
Y05912D01*
X00846Y05925D02*
X00859Y05912D01*
X00707Y05893D02*
X00814D01*
X00846Y05925*
X01313Y04163D02*
Y04285D01*
X01316Y04288*
X01318*
X01404Y04163D02*
X01405Y04163D01*
X01404Y04163D02*
Y0422D01*
X01595Y04163D02*
X01597Y04165D01*
Y04219*
X01784Y04164D02*
X01785Y04163D01*
X01784Y04164D02*
Y0422D01*
X01973Y04165D02*
X01975Y04163D01*
X01973Y04165D02*
Y04221D01*
X02164Y04164D02*
X02165Y04163D01*
X02164Y04164D02*
Y04221D01*
X01215Y04163D02*
X01215Y04163D01*
Y0422*
X01025Y04163D02*
X01025Y04163D01*
Y04221*
X02767Y03578D02*
X02783Y03562D01*
X027Y02614D02*
X02783Y02696D01*
X00574Y03468D02*
X00657D01*
X00677Y0357D02*
X00779Y03468D01*
X00515Y03657D02*
X00614D01*
X00484Y03688D02*
X00515Y03657D01*
X00614D02*
X00677Y03594D01*
Y0357D02*
Y03594D01*
X02257Y02332D02*
X02266D01*
X02248Y02342D02*
X02257Y02332D01*
X02248Y02342D02*
Y02362D01*
X02283Y01968D02*
X02309Y01994D01*
X0083Y03074D02*
Y03141D01*
X00976Y03287*
X01051*
X01088Y03181D02*
X01118D01*
X01141Y03204D02*
Y03287D01*
X01118Y03181D02*
X01141Y03204D01*
X01031Y03125D02*
X01033D01*
X01088Y03181*
X00789Y02979D02*
X00884D01*
X01031Y03125*
X007Y02974D02*
X0078D01*
X00785Y02979*
X00789*
X00555Y02911D02*
X007D01*
X00533Y02933D02*
X00555Y02911D01*
X00531Y02933D02*
X00533D01*
X00786Y0291D02*
X00789D01*
X00783Y02907D02*
X00786Y0291D01*
X00783Y02838D02*
Y02907D01*
X01141Y03287D02*
D01*
X00381Y02937D02*
Y03011D01*
Y01977D02*
Y02937D01*
X00385Y02933D02*
X00531D01*
X00381Y02937D02*
X00385Y02933D01*
X00305Y03228D02*
Y03243D01*
Y03218D02*
Y03228D01*
Y03218D02*
X00381Y03141D01*
X00404Y01954D02*
X00507D01*
X00381Y01977D02*
X00404Y01954D01*
X00507D02*
X00519Y01942D01*
Y02192D02*
Y02574D01*
X00783Y02838*
X00305Y03243D02*
X00364Y03302D01*
Y03392*
X00393Y03421*
X01092Y03397D02*
X01096Y03401D01*
X00393Y03421D02*
Y03549D01*
Y03421D02*
X00417Y03397D01*
G54D85*
X00787Y06181D02*
X00917D01*
X00925Y06188*
X01748Y0598D02*
Y0687D01*
X-00169Y0596D02*
Y06086D01*
Y05736D02*
Y0596D01*
X01748Y05929D02*
Y0598D01*
X-00023Y01307D02*
X00484D01*
X-00271Y06188D02*
X-00169Y06086D01*
X-00271Y06188D02*
Y0761D01*
Y05633D02*
X-00169Y05736D01*
X-00271Y03251D02*
Y05633D01*
Y0761D02*
X00385Y08267D01*
X-00255Y03236D02*
X0D01*
X-00271Y02429D02*
Y03251D01*
X-00255Y03236*
X-00271Y01555D02*
Y02429D01*
X-0026Y02418D02*
X00001D01*
X-00271Y02429D02*
X-0026Y02418D01*
X00728Y06122D02*
X00787Y06181D01*
X00629Y06122D02*
X00728D01*
X01688Y00942D02*
X01694Y00937D01*
X01688Y01807D02*
X01858Y01976D01*
X01688Y00942D02*
Y01807D01*
X01665Y00758D02*
X01673Y00766D01*
X01665Y00052D02*
Y00758D01*
X00484Y01307D02*
Y01892D01*
X01263Y02362D02*
X0146D01*
X01066D02*
X01263D01*
X00913Y02195D02*
Y0221D01*
X01064Y02362*
X01066*
X00716Y01945D02*
X00913D01*
X00532D02*
X00703D01*
X00484Y01892D02*
X00506Y01915D01*
X01665Y00052D02*
X01678Y00039D01*
X01377D02*
Y00043D01*
X01421Y00086*
Y01488*
X01086Y00751D02*
X01165Y00673D01*
X01137Y00649D02*
Y00673D01*
Y00649D02*
X01173Y00614D01*
X01086Y01515D02*
X01653Y02082D01*
X01086Y00751D02*
Y01515D01*
X-00271Y01555D02*
X-00023Y01307D01*
X01181Y01948D02*
X012Y01968D01*
X00968Y01948D02*
X01181D01*
X01136Y00613D02*
X01137Y00614D01*
X00385Y08267D02*
X00787D01*
X01748Y05929D02*
X01771Y05905D01*
X01696Y0598D02*
X01748Y05929D01*
X00787Y07602D02*
Y08267D01*
X0107Y07191D02*
Y07318D01*
X00787Y07602D02*
X0107Y07318D01*
X0114Y07122D02*
X01496D01*
X0107Y07191D02*
X0114Y07122D01*
X01496D02*
X01748Y0687D01*
X01484Y0598D02*
X01696D01*
X02106Y07141D02*
X02338D01*
X01377Y0787D02*
Y08267D01*
Y0787D02*
X02106Y07141D01*
X02338D02*
X02456Y07023D01*
Y06204D02*
Y07023D01*
Y06204D02*
X02755Y05905D01*
G54D86*
X00716Y02194D02*
X00911D01*
X00521D02*
X00716D01*
X01421Y015D02*
X01496D01*
X01393Y01515D02*
X01429Y01551D01*
X01903Y01548D02*
X02028D01*
X01901Y01547D02*
X01913D01*
X01858Y01492D02*
X01909D01*
X01858D02*
Y01547D01*
X01429Y01551D02*
X01493D01*
X01653Y02082D02*
Y02358D01*
X01657Y02362*
X01909Y01492D02*
X01913Y01496D01*
X01871Y01547D02*
X01901D01*
X01903Y01548*
X02051Y01811D02*
Y02362D01*
X02027Y01787D02*
X02051Y01811D01*
X01673Y00766D02*
X01694Y00787D01*
X01858Y01976D02*
Y02358D01*
X00649Y07362D02*
X00787Y07224D01*
Y06968D02*
Y07224D01*
X00196Y07421D02*
Y07598D01*
X00137Y07362D02*
X00196Y07421D01*
Y07598D02*
X00433Y07362D01*
X00196Y07598D02*
Y07755D01*
X00433Y07362D02*
X00649D01*
G54D87*
X01885Y04365D02*
Y04677D01*
X01578D02*
Y04751D01*
X01096Y03401D02*
Y03405D01*
Y03355D02*
Y03401D01*
X01143Y03098D02*
X01153D01*
X01135Y03037D02*
X01141Y03031D01*
X01135Y03037D02*
Y03091D01*
X01143Y03098*
X01153D02*
X01188Y03133D01*
X01105Y03346D02*
X01179D01*
X01188Y03337*
Y03133D02*
Y03337D01*
X01096Y03355D02*
X01105Y03346D01*
X01458Y03169D02*
Y03405D01*
X0263Y04374D02*
Y04439D01*
X02598Y04472D02*
X0263Y04439D01*
X02079Y04526D02*
Y04752D01*
Y04526D02*
X02129Y04476D01*
X0207Y04369D02*
Y04425D01*
X02027Y04468D02*
Y04795D01*
Y04468D02*
X0207Y04425D01*
X01979Y04842D02*
Y04852D01*
Y04842D02*
X02027Y04795D01*
X02401Y04163D02*
Y04685D01*
X01979Y04752D02*
X01986Y04745D01*
Y0467D02*
Y04745D01*
Y0467D02*
X01988Y04669D01*
X02267Y04369D02*
Y04531D01*
X01929Y04539D02*
Y04811D01*
X01879Y04852D02*
X01888D01*
X01929Y04811*
X01879Y04741D02*
Y04752D01*
X01846Y04707D02*
X01879Y04741D01*
X01846Y04496D02*
Y04707D01*
X007Y04167D02*
Y04444D01*
D01*
X01673Y04745D02*
X01679Y04752D01*
X01673Y045D02*
Y04745D01*
X01692Y04361D02*
Y0448D01*
X01673Y045D02*
X01692Y0448D01*
X01779Y04521D02*
Y04752D01*
X01507Y04425D02*
X01523Y0444D01*
X01507Y04361D02*
Y04425D01*
X01576Y04852D02*
X01579D01*
X01531Y04807D02*
X01576Y04852D01*
X01515Y04677D02*
X01531Y04692D01*
Y04807*
X01433Y04677D02*
X01515D01*
X01318Y04562D02*
X01433Y04677D01*
X01318Y04357D02*
Y04562D01*
X01631Y04521D02*
Y04804D01*
X01733Y04544D02*
Y04806D01*
X02116D02*
X02382D01*
X01322Y03287D02*
Y03492D01*
X01594Y03287D02*
Y03484D01*
X01503Y03287D02*
Y03511D01*
G54D88*
X00114Y03511D02*
X00163Y03561D01*
X00187*
X00574Y03468D02*
X00577Y0347D01*
X0057Y03464D02*
X00574Y03468D01*
X00484Y03688D02*
Y03797D01*
Y03549D02*
Y03688D01*
X00574Y03522D02*
Y03549D01*
Y03522D02*
X00577Y03519D01*
Y0347D02*
Y03519D01*
G54D89*
X02027Y017D02*
Y01787D01*
G54D90*
X01279Y04752D03*
G54D91*
X01379Y04752D03*
X01479D03*
X01579D03*
X01679D03*
X01779D03*
X01879D03*
X01979D03*
X02079D03*
X02179D03*
Y04852D03*
X02079D03*
X01979D03*
X01879D03*
X01779D03*
X01679D03*
X01579D03*
X01479D03*
X01379D03*
X01279D03*
X02047Y06417D03*
X01456D03*
G54D92*
X0094Y00374D03*
X00925Y06188D03*
X00433Y07165D03*
Y07362D03*
X00137D03*
Y07165D03*
Y06377D03*
X00433D03*
X00001Y02123D03*
Y02418D03*
X0Y0294D03*
Y03236D03*
X01842Y07834D03*
X02047D03*
X02669D03*
X02464D03*
X00492Y07755D03*
X00196D03*
G54D93*
X02814Y07346D03*
X02913Y05354D03*
G54D94*
X02716Y06952D03*
G54D95*
X02283Y05275D03*
X00629Y05118D03*
G54D96*
X02755Y05905D03*
X02362D03*
X02066D03*
X01771D03*
G54D97*
X00413Y05925D03*
X00629Y06122D03*
X00846Y05925D03*
X012Y01968D03*
X02283D03*
G54D98*
X01185Y05566D03*
X03149Y0624D03*
X02755Y06523D03*
X01484Y0598D03*
G54D99*
X01185Y0596D03*
X01484Y05586D03*
G54D100*
X02492Y08248D03*
X02196D03*
X01901D03*
X01377D03*
X01082D03*
X00787D03*
X01377Y00055D03*
X01082D03*
X00787D03*
X02271D03*
X01976D03*
X01681D03*
G54D101*
X01062Y02834D03*
X02236D03*
G54D102*
X02248Y02362D03*
X02051D03*
X01854D03*
X01657D03*
X0146D03*
X01263D03*
X01066D03*
G54D103*
X01051Y03287D03*
X01096Y03405D03*
X01141Y03287D03*
X01187Y03405D03*
X01232Y03287D03*
X01277Y03405D03*
X01322Y03287D03*
X01368Y03405D03*
X01413Y03287D03*
X01458Y03405D03*
X01503Y03287D03*
X01549Y03405D03*
X01594Y03287D03*
X0173Y03405D03*
X01775Y03287D03*
X01911Y03405D03*
X01956Y03287D03*
X02092Y03405D03*
X02137Y03287D03*
G54D104*
X02755Y0624D03*
X03149Y06523D03*
G54D105*
X01269Y06279D03*
X02214D03*
G54D106*
X02165Y06771D03*
X01299D03*
X02165Y0748D03*
X01299D03*
G54D107*
X03011Y05354D03*
G54D108*
X02559Y00905D03*
Y01299D03*
X00472Y00905D03*
Y01299D03*
G54D109*
X0311Y00039D03*
X01342Y05295D03*
G54D110*
X0311Y08267D03*
G54D111*
X-00275Y08267D03*
Y00039D03*
G54D112*
X00305Y03228D03*
X00442D03*
G54D113*
X00787Y06181D03*
Y06968D03*
G54D114*
X01029Y03634D03*
X00866Y03633D03*
X01885Y04677D03*
X01578D03*
X03047Y04574D03*
X01409Y0509D03*
X03094Y04692D03*
X0311Y04531D03*
X03102Y01606D03*
X03051Y01622D03*
X02976Y01566D03*
X02358Y04374D03*
X00598Y04275D03*
X02598Y04472D03*
X02129Y04476D03*
X02401Y04685D03*
X01988Y04669D03*
X02267Y04531D03*
X01929Y04539D03*
X01846Y04496D03*
X007Y04444D03*
X01779Y04521D03*
X01523Y0444D03*
X01527Y05019D03*
X0159Y0448D03*
X01173Y04484D03*
X01129Y04535D03*
X0172Y04531D03*
X03011Y04515D03*
X02964Y01606D03*
X02898Y04637D03*
X02503Y02401D03*
X0109Y05271D03*
X00384Y05715D03*
X00385Y05651D03*
X00386Y04694D03*
X00006Y04564D03*
X00187Y03561D03*
X02164Y04221D03*
X01973D03*
X01784Y0422D03*
X01597Y04219D03*
X01404Y0422D03*
X01215D03*
X01025Y04221D03*
X02453Y04225D03*
X0254Y04229D03*
X00837Y04266D03*
X00389Y04638D03*
X01195Y04639D03*
X00718Y04699D03*
X00372Y0658D03*
X00436Y06528D03*
X01115Y04745D03*
X00981Y03712D03*
X01122Y03708D03*
X01312Y03711D03*
X01494Y03708D03*
X01689D03*
X01875Y03705D03*
X02071Y03708D03*
X02263Y03707D03*
X01239Y0364D03*
X01401Y03637D03*
X01696Y03638D03*
X01564Y03639D03*
X01971Y03635D03*
X02167Y03634D03*
X02535Y03635D03*
X02543Y02862D03*
X0274Y02921D03*
X02767Y03578D03*
X02649Y03708D03*
X02787Y02968D03*
X0246D03*
X02462Y02624D03*
X0057Y03464D03*
X0083Y03074D03*
G54D115*
X-0019Y05909D03*
X-00193Y05962D03*
X-0014Y0591D03*
Y0596D03*
X00486Y03799D03*
X01421Y01488D03*
X01858Y01492D03*
X01913Y01496D03*
Y01547D03*
X01858D03*
X01492Y01488D03*
Y01555D03*
X01425D03*
X01195Y00613D03*
X01136D03*
X01195Y00672D03*
X01137Y00673D03*
M02*