%FSTAX23Y23*%
%MOIN*%
%SFA1B1*%

%IPPOS*%
%AMD50*
4,1,8,0.032500,-0.034400,0.032500,0.034400,0.014800,0.052200,-0.014800,0.052200,-0.032500,0.034400,-0.032500,-0.034400,-0.014800,-0.052200,0.014800,-0.052200,0.032500,-0.034400,0.0*
1,1,0.035433,0.014800,-0.034400*
1,1,0.035433,0.014800,0.034400*
1,1,0.035433,-0.014800,0.034400*
1,1,0.035433,-0.014800,-0.034400*
%
%AMD51*
4,1,8,0.026600,-0.027600,0.026600,0.027600,0.011800,0.042300,-0.011800,0.042300,-0.026600,0.027600,-0.026600,-0.027600,-0.011800,-0.042300,0.011800,-0.042300,0.026600,-0.027600,0.0*
1,1,0.029528,0.011800,-0.027600*
1,1,0.029528,0.011800,0.027600*
1,1,0.029528,-0.011800,0.027600*
1,1,0.029528,-0.011800,-0.027600*
%
%AMD57*
4,1,8,0.028500,-0.026600,0.028500,0.026600,0.012800,0.042300,-0.012800,0.042300,-0.028500,0.026600,-0.028500,-0.026600,-0.012800,-0.042300,0.012800,-0.042300,0.028500,-0.026600,0.0*
1,1,0.031496,0.012800,-0.026600*
1,1,0.031496,0.012800,0.026600*
1,1,0.031496,-0.012800,0.026600*
1,1,0.031496,-0.012800,-0.026600*
%
%ADD26R,0.059055X0.051181*%
%ADD28R,0.053150X0.070866*%
%ADD38R,0.064960X0.064960*%
%ADD39C,0.064960*%
%ADD40C,0.084645*%
%ADD41C,0.076771*%
%ADD42R,0.076771X0.076771*%
%ADD43C,0.253937*%
%ADD44R,0.100393X0.100393*%
%ADD45R,0.104330X0.104330*%
%ADD46C,0.057087*%
%ADD47R,0.057087X0.057087*%
%ADD48O,0.092520X0.163386*%
%ADD49C,0.281496*%
G04~CAMADD=50~8~0.0~0.0~1043.3~649.6~177.2~0.0~15~0.0~0.0~0.0~0.0~0~0.0~0.0~0.0~0.0~0~0.0~0.0~0.0~270.0~650.0~1044.0*
%ADD50D50*%
G04~CAMADD=51~8~0.0~0.0~846.5~531.5~147.6~0.0~15~0.0~0.0~0.0~0.0~0~0.0~0.0~0.0~0.0~0~0.0~0.0~0.0~270.0~532.0~846.0*
%ADD51D51*%
%ADD52R,0.057087X0.057087*%
%ADD53C,0.062008*%
%ADD54C,0.050000*%
%ADD55R,0.050000X0.050000*%
%ADD56C,0.143701*%
G04~CAMADD=57~8~0.0~0.0~846.5~570.9~157.5~0.0~15~0.0~0.0~0.0~0.0~0~0.0~0.0~0.0~0.0~0~0.0~0.0~0.0~270.0~571.0~846.0*
%ADD57D57*%
%ADD58O,0.159448X0.108268*%
%ADD59C,0.242126*%
%ADD60C,0.320866*%
%ADD61C,0.163386*%
%ADD62O,0.064960X0.084645*%
%ADD63C,0.104330*%
%ADD64C,0.029527*%
%ADD65C,0.045275*%
%ADD120R,0.070866X0.053150*%
%ADD121R,0.037401X0.041339*%
%ADD122R,0.041339X0.043307*%
%LNservo_pwr-1*%
%LPD*%
G54D26*
X00433Y06703D03*
Y06634D03*
G54D28*
X00389Y01885D03*
X00279D03*
X00133D03*
X00023D03*
G54D38*
X01279Y04752D03*
G54D39*
X01379Y04752D03*
X01479D03*
X01579D03*
X01679D03*
X01779D03*
X01879D03*
X01979D03*
X02079D03*
X02179D03*
Y04852D03*
X02079D03*
X01979D03*
X01879D03*
X01779D03*
X01679D03*
X01579D03*
X01479D03*
X01379D03*
X01279D03*
X02047Y06417D03*
X01456D03*
G54D40*
X0094Y00374D03*
X00925Y06188D03*
X00433Y07165D03*
Y07362D03*
X00137D03*
Y07165D03*
Y06377D03*
X00433D03*
X00001Y02123D03*
Y02418D03*
X0Y0294D03*
Y03236D03*
X01842Y07834D03*
X02047D03*
X02669D03*
X02464D03*
X00492Y07755D03*
X00196D03*
G54D41*
X02814Y07346D03*
X02913Y05354D03*
G54D42*
X02716Y06952D03*
G54D43*
X02283Y05275D03*
X00629Y05118D03*
G54D44*
X02755Y05905D03*
X02362D03*
X02066D03*
X01771D03*
G54D45*
X00413Y05925D03*
X00629Y06122D03*
X00846Y05925D03*
X012Y01968D03*
X02283D03*
G54D46*
X01185Y05566D03*
X03149Y0624D03*
X02755Y06523D03*
X01484Y0598D03*
G54D47*
X01185Y0596D03*
X01484Y05586D03*
G54D48*
X02492Y08248D03*
X02196D03*
X01901D03*
X01377D03*
X01082D03*
X00787D03*
X01377Y00055D03*
X01082D03*
X00787D03*
X02271D03*
X01976D03*
X01681D03*
G54D49*
X01062Y02834D03*
X02236D03*
G54D50*
X02248Y02362D03*
X02051D03*
X01854D03*
X01657D03*
X0146D03*
X01263D03*
X01066D03*
G54D51*
X01051Y03287D03*
X01096Y03405D03*
X01141Y03287D03*
X01187Y03405D03*
X01232Y03287D03*
X01277Y03405D03*
X01322Y03287D03*
X01368Y03405D03*
X01413Y03287D03*
X01458Y03405D03*
X01503Y03287D03*
X01549Y03405D03*
X01594Y03287D03*
X0173Y03405D03*
X01775Y03287D03*
X01911Y03405D03*
X01956Y03287D03*
X02092Y03405D03*
X02137Y03287D03*
G54D52*
X02755Y0624D03*
X03149Y06523D03*
G54D53*
X01269Y06279D03*
X02214D03*
G54D54*
X00226Y03764D03*
Y03964D03*
Y04164D03*
G54D55*
X00226Y04264D03*
G54D56*
X02165Y06771D03*
X01299D03*
X02165Y0748D03*
X01299D03*
G54D57*
X03011Y05354D03*
G54D58*
X02559Y00905D03*
Y01299D03*
X00472Y00905D03*
Y01299D03*
G54D59*
X0311Y00039D03*
X01342Y05295D03*
G54D60*
X0311Y08267D03*
G54D61*
X-00275Y08267D03*
Y00039D03*
G54D62*
X00305Y03228D03*
X00442D03*
G54D63*
X00787Y06181D03*
Y06968D03*
G54D64*
X01029Y03634D03*
X00866Y03633D03*
X01885Y04677D03*
X01578D03*
X03047Y04574D03*
X01409Y0509D03*
X03094Y04692D03*
X0311Y04531D03*
X03102Y01606D03*
X03051Y01622D03*
X02976Y01566D03*
X02358Y04374D03*
X00598Y04275D03*
X02598Y04472D03*
X02129Y04476D03*
X02401Y04685D03*
X01988Y04669D03*
X02267Y04531D03*
X01929Y04539D03*
X01846Y04496D03*
X007Y04444D03*
X01779Y04521D03*
X01523Y0444D03*
X01527Y05019D03*
X0159Y0448D03*
X01173Y04484D03*
X01129Y04535D03*
X0172Y04531D03*
X03011Y04515D03*
X02964Y01606D03*
X02898Y04637D03*
X02503Y02401D03*
X0109Y05271D03*
X00384Y05715D03*
X00385Y05651D03*
X00386Y04694D03*
X00006Y04564D03*
X00187Y03561D03*
X02164Y04221D03*
X01973D03*
X01784Y0422D03*
X01597Y04219D03*
X01404Y0422D03*
X01215D03*
X01025Y04221D03*
X02453Y04225D03*
X0254Y04229D03*
X00837Y04266D03*
X00389Y04638D03*
X01195Y04639D03*
X00718Y04699D03*
X00372Y0658D03*
X00436Y06528D03*
X01115Y04745D03*
X00981Y03712D03*
X01122Y03708D03*
X01312Y03711D03*
X01494Y03708D03*
X01689D03*
X01875Y03705D03*
X02071Y03708D03*
X02263Y03707D03*
X01239Y0364D03*
X01401Y03637D03*
X01696Y03638D03*
X01564Y03639D03*
X01971Y03635D03*
X02167Y03634D03*
X02535Y03635D03*
X02543Y02862D03*
X0274Y02921D03*
X02767Y03578D03*
X02649Y03708D03*
X02787Y02968D03*
X0246D03*
X02462Y02624D03*
X0057Y03464D03*
X0083Y03074D03*
G54D65*
X-0019Y05909D03*
X-00193Y05962D03*
X-0014Y0591D03*
Y0596D03*
X00486Y03799D03*
X01421Y01488D03*
X01858Y01492D03*
X01913Y01496D03*
Y01547D03*
X01858D03*
X01492Y01488D03*
Y01555D03*
X01425D03*
X01195Y00613D03*
X01136D03*
X01195Y00672D03*
X01137Y00673D03*
G54D120*
X00578Y02244D03*
Y02133D03*
X00574Y02007D03*
Y01897D03*
G54D121*
X00295Y06625D03*
X00332Y06704D03*
X00257D03*
G54D122*
X00221Y06511D03*
X00345D03*
M02*