%FSTAX23Y23*%
%MOIN*%
%SFA1B1*%

%IPPOS*%
%AMD102*
4,1,8,0.029500,-0.034400,0.029500,0.034400,0.014800,0.049200,-0.014800,0.049200,-0.029500,0.034400,-0.029500,-0.034400,-0.014800,-0.049200,0.014800,-0.049200,0.029500,-0.034400,0.0*
1,1,0.029528,0.014800,-0.034400*
1,1,0.029528,0.014800,0.034400*
1,1,0.029528,-0.014800,0.034400*
1,1,0.029528,-0.014800,-0.034400*
%
%AMD103*
4,1,8,0.023600,-0.027600,0.023600,0.027600,0.011800,0.039400,-0.011800,0.039400,-0.023600,0.027600,-0.023600,-0.027600,-0.011800,-0.039400,0.011800,-0.039400,0.023600,-0.027600,0.0*
1,1,0.023622,0.011800,-0.027600*
1,1,0.023622,0.011800,0.027600*
1,1,0.023622,-0.011800,0.027600*
1,1,0.023622,-0.011800,-0.027600*
%
%AMD107*
4,1,8,0.025600,-0.026600,0.025600,0.026600,0.012800,0.039400,-0.012800,0.039400,-0.025600,0.026600,-0.025600,-0.026600,-0.012800,-0.039400,0.012800,-0.039400,0.025600,-0.026600,0.0*
1,1,0.025591,0.012800,-0.026600*
1,1,0.025591,0.012800,0.026600*
1,1,0.025591,-0.012800,0.026600*
1,1,0.025591,-0.012800,-0.026600*
%
%ADD13C,0.023622*%
%ADD54C,0.050000*%
%ADD55R,0.050000X0.050000*%
%ADD72R,0.053150X0.045275*%
%ADD73R,0.047244X0.064960*%
%ADD84C,0.039370*%
%ADD85C,0.118110*%
%ADD86C,0.078740*%
%ADD87C,0.015748*%
%ADD88C,0.059055*%
%ADD90R,0.059055X0.059055*%
%ADD91C,0.059055*%
%ADD92C,0.078740*%
%ADD93C,0.070866*%
%ADD94R,0.070866X0.070866*%
%ADD95C,0.248031*%
%ADD96R,0.094488X0.094488*%
%ADD97R,0.098425X0.098425*%
%ADD98C,0.051181*%
%ADD99R,0.051181X0.051181*%
%ADD100O,0.086614X0.157480*%
%ADD101C,0.275590*%
G04~CAMADD=102~8~0.0~0.0~984.3~590.6~147.6~0.0~15~0.0~0.0~0.0~0.0~0~0.0~0.0~0.0~0.0~0~0.0~0.0~0.0~270.0~590.0~984.0*
%ADD102D102*%
G04~CAMADD=103~8~0.0~0.0~787.4~472.4~118.1~0.0~15~0.0~0.0~0.0~0.0~0~0.0~0.0~0.0~0.0~0~0.0~0.0~0.0~270.0~474.0~788.0*
%ADD103D103*%
%ADD104R,0.051181X0.051181*%
%ADD105C,0.056102*%
%ADD106C,0.137795*%
G04~CAMADD=107~8~0.0~0.0~787.4~511.8~128.0~0.0~15~0.0~0.0~0.0~0.0~0~0.0~0.0~0.0~0.0~0~0.0~0.0~0.0~270.0~513.0~788.0*
%ADD107D107*%
%ADD108O,0.153543X0.102362*%
%ADD109C,0.236220*%
%ADD110C,0.314960*%
%ADD111C,0.157480*%
%ADD112O,0.059055X0.078740*%
%ADD113C,0.098425*%
%ADD114C,0.023622*%
%ADD115C,0.039370*%
%ADD116R,0.064960X0.047244*%
%ADD117R,0.031496X0.035433*%
%ADD118R,0.035433X0.037401*%
%ADD119C,0.157480*%
%LNservo_pwr-1*%
%LPD*%
G54D13*
X0133Y04644D02*
X01344Y0463D01*
X01279Y04852D02*
X0133Y04801D01*
X02891Y0463D02*
X02905Y04644D01*
X01344Y0463D02*
X02891D01*
X00019Y01877D02*
Y01898D01*
X0Y01918D02*
X00019Y01898D01*
X0Y01918D02*
Y02121D01*
X03051Y01622D02*
Y0457D01*
X03047Y04574D02*
X03051Y0457D01*
X01379Y04852D02*
Y05061D01*
X01409Y0509*
X0311Y04531D02*
Y04568D01*
X03111Y04569*
Y04676*
X03094Y04692D02*
X03111Y04676D01*
X02976Y01566D02*
X03062D01*
X03102Y01606D02*
D01*
X03062Y01566D02*
X03102Y01606D01*
X03011Y04515D02*
X03019Y04507D01*
Y01661D02*
Y04507D01*
X02964Y01606D02*
X03019Y01661D01*
X02354Y0437D02*
X02358Y04374D01*
X02354Y04309D02*
Y0437D01*
X00897Y04295D02*
X0234D01*
X02354Y04309*
X00645Y04322D02*
X0087D01*
X00897Y04295*
X00598Y04275D02*
X00645Y04322D01*
X01173Y04484D02*
X01586D01*
X0159Y0448*
X01716Y04535D02*
X0172Y04531D01*
X01129Y04535D02*
X01716D01*
X03001Y046D02*
Y05344D01*
X02988Y04586D02*
X03001Y046D01*
X01293Y04586D02*
X02988D01*
X01279Y046D02*
X01293Y04586D01*
X01279Y046D02*
Y04752D01*
X00599Y02264D02*
X00875Y02541D01*
X02364*
X02503Y02401*
X00578Y02244D02*
X00587D01*
X00599Y02255*
Y02264*
X00574Y02007D02*
X00576Y02009D01*
Y02131*
X00578Y02133*
X00389Y01885D02*
X00395Y01891D01*
X00568*
X00574Y01897*
X00133Y01885D02*
X00279D01*
X0Y02121D02*
X00001Y02123D01*
X01279Y04852D02*
Y04857D01*
X01169Y04968D02*
X01279Y04857D01*
X01169Y04968D02*
Y05192D01*
X0109Y05271D02*
X01169Y05192D01*
X02905Y04644D02*
Y05346D01*
X00056Y05715D02*
X00384D01*
X00375Y05661D02*
X00385Y05651D01*
X00096Y05661D02*
X00375D01*
X00049Y04528D02*
Y05614D01*
X00096Y05661*
X00006Y05666D02*
X00056Y05715D01*
X00006Y04564D02*
Y05666D01*
X00437Y04745D02*
X01115D01*
X00386Y04694D02*
X00437Y04745D01*
X00011Y04491D02*
X00049Y04528D01*
X00011Y03967D02*
Y04491D01*
Y03967D02*
X00052D01*
X00086Y03933*
X02533Y04226D02*
X02536Y04229D01*
X0254*
X00397Y04638D02*
X00398Y04639D01*
X00389Y04638D02*
X00397D01*
X00398Y04639D02*
X01195D01*
X02905Y05346D02*
X02913Y05354D01*
X03001Y05344D02*
X03011Y05354D01*
X00345Y06465D02*
Y06511D01*
Y06465D02*
X00433Y06377D01*
X01273Y04845D02*
X01279Y04852D01*
X01225Y04845D02*
X01273D01*
X01161Y04781D02*
X01225Y04845D01*
X0072Y04697D02*
X01147D01*
X01161Y04711*
Y04781*
X00718Y04699D02*
X0072Y04697D01*
X00332Y0662D02*
Y06704D01*
Y0662D02*
X00372Y0658D01*
X00283Y06774D02*
X00416D01*
X0043Y06706D02*
X00433Y06703D01*
X0043Y06706D02*
Y0676D01*
X00416Y06774D02*
X0043Y0676D01*
X00257Y06749D02*
X00283Y06774D01*
X00257Y06704D02*
Y06749D01*
X00295Y06562D02*
Y06625D01*
Y06562D02*
X00345Y06512D01*
Y06511D02*
Y06512D01*
X00221Y0651D02*
Y06511D01*
X00148Y06437D02*
X00221Y0651D01*
X00148Y06388D02*
Y06437D01*
X00137Y06377D02*
X00148Y06388D01*
X00433Y06531D02*
Y06634D01*
Y06531D02*
X00436Y06528D01*
X02681Y02862D02*
X0274Y02921D01*
X02543Y02862D02*
X02681D01*
X0246Y02968D02*
X02787D01*
X01232Y03218D02*
Y03287D01*
X00442Y03228D02*
Y03228D01*
Y03228D02*
X00459Y03211D01*
X00459*
X00466Y03204*
X01218*
X01232Y03218*
G54D54*
X00226Y03764D03*
Y03964D03*
Y04164D03*
G54D55*
X00226Y04264D03*
G54D72*
X00433Y06703D03*
Y06634D03*
G54D73*
X00389Y01885D03*
X00279D03*
X00133D03*
X00023D03*
G54D84*
X0111Y06035D02*
Y06342D01*
X01084Y06368D02*
Y06498D01*
Y06368D02*
X0111Y06342D01*
X01082Y065D02*
Y07937D01*
Y065D02*
X01084Y06498D01*
X0111Y06035D02*
X01185Y0596D01*
X01597Y04219D02*
X02447D01*
X02453Y04226D02*
X02533D01*
X00095Y03942D02*
X00226D01*
X00086Y03933D02*
X00095Y03942D01*
X00868Y04219D02*
X01597D01*
X00837Y04266D02*
X00868Y04236D01*
Y04219D02*
Y04236D01*
X02447Y04219D02*
X02453Y04225D01*
X01409Y0274D02*
X01551Y02598D01*
X02437D02*
X02462Y02624D01*
X01551Y02598D02*
X02437D01*
X01092Y03409D02*
Y03637D01*
Y03409D02*
X01096Y03405D01*
X01409Y0274D02*
Y02877D01*
X01212Y03074D02*
X01409Y02877D01*
X0083Y03074D02*
X01212D01*
X0033Y03141D02*
X01377D01*
X00305Y03228D02*
X00307Y03226D01*
Y03164D02*
Y03226D01*
Y03164D02*
X0033Y03141D01*
X01377D02*
X01413Y03177D01*
Y03287*
X00086Y03456D02*
Y03933D01*
X00305Y03228D02*
Y03238D01*
X00086Y03456D02*
X00305Y03238D01*
G54D85*
X-00157Y02153D02*
X-00028D01*
X-00202D02*
X-00157D01*
X00472Y00901D02*
X00783D01*
X00283D02*
X00472D01*
X00771Y00059D02*
X00787Y00043D01*
X01082Y00055D02*
Y00255D01*
X0094Y00374D02*
X01082Y00255D01*
X02283Y01964D02*
X02822Y01425D01*
X02283Y01964D02*
Y01968D01*
X02822Y01169D02*
Y01425D01*
X025Y00905D02*
X02541D01*
X00795Y00913D02*
X0082D01*
X00823Y00915*
X02489*
X02559Y00905D02*
X02586D01*
X02489Y00915D02*
X025Y00905D01*
X00783Y00901D02*
X00795Y00913D01*
X01204Y05586D02*
X03078D01*
X032Y00213D02*
Y05708D01*
X03149Y0624D02*
X032Y06189D01*
Y05708D02*
Y06189D01*
X03132Y00145D02*
X032Y00213D01*
X03078Y05586D02*
X032Y05708D01*
X0311Y00039D02*
X03132Y00061D01*
Y00145*
X02268Y00039D02*
X0311D01*
X00901Y07755D02*
X01082Y07937D01*
X-00157Y0097D02*
Y02108D01*
X-00202Y02153D02*
X-00157Y02108D01*
X-00392Y05787D02*
Y06037D01*
X-00271Y06158D02*
Y07312D01*
X-00392Y06037D02*
X-00271Y06158D01*
X-00392Y05787D02*
X-00271Y05666D01*
Y0301D02*
Y05666D01*
X-00185Y05933D02*
X-00133D01*
X00405*
X00413Y05925*
X00118Y07381D02*
X00137Y07362D01*
X-00202Y07381D02*
X00118D01*
X-00271Y07312D02*
X-00202Y07381D01*
X-00271Y02222D02*
Y0301D01*
X-00028Y02153D02*
X00001Y02123D01*
X-00271Y02222D02*
X-00202Y02153D01*
Y0294D02*
X0D01*
X-00271Y0301D02*
X-00202Y0294D01*
X00136Y07422D02*
Y07695D01*
X-00088Y00901D02*
X00283D01*
X-00157Y0097D02*
X-00088Y00901D01*
X00136Y07695D02*
X00196Y07755D01*
X00275Y00472D02*
X00688Y00059D01*
X00771*
X00787Y00039D02*
Y00043D01*
X01195Y00637D02*
X01807D01*
X02559Y00905D02*
X02822Y01169D01*
X012Y01303D02*
X02513D01*
X00472Y01299D02*
X01196D01*
X00468D02*
X00472D01*
X01527Y01519D02*
X0183D01*
X01973Y00039D02*
Y00471D01*
X01807Y00637D02*
X01973Y00471D01*
X012Y01303D02*
Y01968D01*
X02283D02*
Y02336D01*
X02257Y02362D02*
X02283Y02336D01*
X01196Y01299D02*
X012Y01303D01*
X00275Y00472D02*
Y00893D01*
X00283Y00901*
X00137Y07165D02*
X00433D01*
X02047Y06417D02*
X02086D01*
X02262Y0624*
X00783Y07755D02*
X00901D01*
X00492D02*
X00783D01*
X00787Y07374D02*
Y07751D01*
X00783Y07755D02*
X00787Y07751D01*
X00578Y07165D02*
X00787Y07374D01*
X00433Y07165D02*
X00578D01*
X01082Y07937D02*
Y08267D01*
X01185Y05484D02*
Y05566D01*
Y05484D02*
X01342Y05327D01*
Y05295D02*
Y05327D01*
X01185Y05566D02*
X01204Y05586D01*
X03149Y0624D02*
Y06523D01*
X03204Y06578*
X0311Y08257D02*
Y08267D01*
Y08257D02*
X03204Y08162D01*
Y06578D02*
Y08162D01*
X025Y08267D02*
D01*
X0311*
X02262Y0624D02*
X02362Y06141D01*
Y05905D02*
Y06141D01*
X01889Y0622D02*
X02066Y06043D01*
Y05905D02*
Y06043D01*
X01653Y0622D02*
X01889D01*
X02165Y06766D02*
Y06771D01*
X02047Y06648D02*
X02165Y06766D01*
X02047Y06417D02*
Y06648D01*
X01456Y06417D02*
X01653Y0622D01*
X01299Y06766D02*
Y06771D01*
Y06766D02*
X01456Y06608D01*
Y06417D02*
Y06608D01*
X02464Y07549D02*
Y07834D01*
X02165Y0748D02*
X02169Y07484D01*
X02399*
X02464Y07549*
X02204Y07992D02*
Y08267D01*
X02047Y07834D02*
X02204Y07992D01*
X02464Y07834D02*
X02669D01*
X01909Y08263D02*
Y08267D01*
X01302Y07657D02*
X01909Y08263D01*
X01302Y07484D02*
Y07657D01*
X01299Y0748D02*
X01302Y07484D01*
X01842Y07834D02*
X02047D01*
G54D86*
X01269Y06279D02*
X01318Y06328D01*
X01328D02*
X01417Y06417D01*
X01318Y06328D02*
X01328D01*
X01417Y06417D02*
X01456D01*
X00137Y07362D02*
X00433D01*
X01858Y01547D02*
X01913D01*
Y01496D02*
Y01547D01*
X01858Y01492D02*
X01909D01*
X0183Y01519D02*
X01858Y01547D01*
X01425Y01492D02*
Y01555D01*
X01421Y01488D02*
X01424Y01485D01*
X01421Y01488D02*
X01425Y01492D01*
X01424Y01485D02*
X01489D01*
X01492Y01488*
X01425Y01555D02*
X01492D01*
X01909Y01492D02*
X01913Y01496D01*
X01178Y01945D02*
X012Y01968D01*
X02047Y06417D02*
X02059Y06405D01*
X01555Y07027D02*
X02287D01*
X02755Y06523D02*
Y06559D01*
X02287Y07027D02*
X02755Y06559D01*
X01299Y06771D02*
X01555Y07027D01*
X02262Y0624D02*
X02755D01*
X01299Y0748D02*
X01811D01*
X02037Y07253D02*
X02415D01*
X01811Y0748D02*
X02037Y07253D01*
X02415D02*
X02716Y06952D01*
X02669Y07834D02*
X02814Y07688D01*
Y07346D02*
Y07688D01*
G54D87*
X0133Y04644D02*
Y04801D01*
X01578Y04677D02*
X01885D01*
X02129Y04476D02*
X02592D01*
X02596Y04472*
X02598*
X01988Y04669D02*
X02383D01*
X02399Y04685*
X02401*
X01929Y04539D02*
X02257D01*
X02265Y04531*
X02267*
X01744Y04393D02*
X01846Y04496D01*
X01437Y04444D02*
X01488Y04393D01*
X01744*
X007Y04444D02*
X01437D01*
X01779Y04484D02*
Y04521D01*
X01736Y0444D02*
X01779Y04484D01*
X01523Y0444D02*
X01736D01*
X01479Y04755D02*
X01531Y04807D01*
Y05013*
X01527Y05017D02*
X01531Y05013D01*
X01527Y05017D02*
Y05019D01*
X01479Y04752D02*
Y04755D01*
G54D88*
X01232Y03633D02*
X01239Y0364D01*
X01092Y03633D02*
X01232D01*
X01029Y03634D02*
X01082D01*
X01028Y03633D02*
X01029Y03634D01*
X00866Y03633D02*
X01028D01*
X02535Y03641D02*
X02705D01*
X02167D02*
X02535D01*
X01564D02*
X01696D01*
X01971*
X01401D02*
X01564D01*
X01239D02*
X01401D01*
X01971D02*
X02167D01*
X00187Y03561D02*
X00226Y036D01*
Y03764*
X00695Y03709D02*
X02648D01*
X02649Y03708*
X00606Y03799D02*
X00695Y03709D01*
X00442Y03336D02*
Y0336D01*
Y03228D02*
Y03336D01*
X0057Y03464*
X02705Y03641D02*
X02767Y03578D01*
X0033Y03472D02*
X00442Y0336D01*
X00275Y03472D02*
X0033D01*
X00187Y03561D02*
X00275Y03472D01*
X00486Y03799D02*
X00606D01*
G54D90*
X01279Y04752D03*
G54D91*
X01379Y04752D03*
X01479D03*
X01579D03*
X01679D03*
X01779D03*
X01879D03*
X01979D03*
X02079D03*
X02179D03*
Y04852D03*
X02079D03*
X01979D03*
X01879D03*
X01779D03*
X01679D03*
X01579D03*
X01479D03*
X01379D03*
X01279D03*
X02047Y06417D03*
X01456D03*
G54D92*
X0094Y00374D03*
X00925Y06188D03*
X00433Y07165D03*
Y07362D03*
X00137D03*
Y07165D03*
Y06377D03*
X00433D03*
X00001Y02123D03*
Y02418D03*
X0Y0294D03*
Y03236D03*
X01842Y07834D03*
X02047D03*
X02669D03*
X02464D03*
X00492Y07755D03*
X00196D03*
G54D93*
X02814Y07346D03*
X02913Y05354D03*
G54D94*
X02716Y06952D03*
G54D95*
X02283Y05275D03*
X00629Y05118D03*
G54D96*
X02755Y05905D03*
X02362D03*
X02066D03*
X01771D03*
G54D97*
X00413Y05925D03*
X00629Y06122D03*
X00846Y05925D03*
X012Y01968D03*
X02283D03*
G54D98*
X01185Y05566D03*
X03149Y0624D03*
X02755Y06523D03*
X01484Y0598D03*
G54D99*
X01185Y0596D03*
X01484Y05586D03*
G54D100*
X02492Y08248D03*
X02196D03*
X01901D03*
X01377D03*
X01082D03*
X00787D03*
X01377Y00055D03*
X01082D03*
X00787D03*
X02271D03*
X01976D03*
X01681D03*
G54D101*
X01062Y02834D03*
X02236D03*
G54D102*
X02248Y02362D03*
X02051D03*
X01854D03*
X01657D03*
X0146D03*
X01263D03*
X01066D03*
G54D103*
X01051Y03287D03*
X01096Y03405D03*
X01141Y03287D03*
X01187Y03405D03*
X01232Y03287D03*
X01277Y03405D03*
X01322Y03287D03*
X01368Y03405D03*
X01413Y03287D03*
X01458Y03405D03*
X01503Y03287D03*
X01549Y03405D03*
X01594Y03287D03*
X0173Y03405D03*
X01775Y03287D03*
X01911Y03405D03*
X01956Y03287D03*
X02092Y03405D03*
X02137Y03287D03*
G54D104*
X02755Y0624D03*
X03149Y06523D03*
G54D105*
X01269Y06279D03*
X02214D03*
G54D106*
X02165Y06771D03*
X01299D03*
X02165Y0748D03*
X01299D03*
G54D107*
X03011Y05354D03*
G54D108*
X02559Y00905D03*
Y01299D03*
X00472Y00905D03*
Y01299D03*
G54D109*
X0311Y00039D03*
X01342Y05295D03*
G54D110*
X0311Y08267D03*
G54D111*
X-00275Y08267D03*
Y00039D03*
G54D112*
X00305Y03228D03*
X00442D03*
G54D113*
X00787Y06181D03*
Y06968D03*
G54D114*
X01029Y03634D03*
X00866Y03633D03*
X01885Y04677D03*
X01578D03*
X03047Y04574D03*
X01409Y0509D03*
X03094Y04692D03*
X0311Y04531D03*
X03102Y01606D03*
X03051Y01622D03*
X02976Y01566D03*
X02358Y04374D03*
X00598Y04275D03*
X02598Y04472D03*
X02129Y04476D03*
X02401Y04685D03*
X01988Y04669D03*
X02267Y04531D03*
X01929Y04539D03*
X01846Y04496D03*
X007Y04444D03*
X01779Y04521D03*
X01523Y0444D03*
X01527Y05019D03*
X0159Y0448D03*
X01173Y04484D03*
X01129Y04535D03*
X0172Y04531D03*
X03011Y04515D03*
X02964Y01606D03*
X02898Y04637D03*
X02503Y02401D03*
X0109Y05271D03*
X00384Y05715D03*
X00385Y05651D03*
X00386Y04694D03*
X00006Y04564D03*
X00187Y03561D03*
X02164Y04221D03*
X01973D03*
X01784Y0422D03*
X01597Y04219D03*
X01404Y0422D03*
X01215D03*
X01025Y04221D03*
X02453Y04225D03*
X0254Y04229D03*
X00837Y04266D03*
X00389Y04638D03*
X01195Y04639D03*
X00718Y04699D03*
X00372Y0658D03*
X00436Y06528D03*
X01115Y04745D03*
X00981Y03712D03*
X01122Y03708D03*
X01312Y03711D03*
X01494Y03708D03*
X01689D03*
X01875Y03705D03*
X02071Y03708D03*
X02263Y03707D03*
X01239Y0364D03*
X01401Y03637D03*
X01696Y03638D03*
X01564Y03639D03*
X01971Y03635D03*
X02167Y03634D03*
X02535Y03635D03*
X02543Y02862D03*
X0274Y02921D03*
X02767Y03578D03*
X02649Y03708D03*
X02787Y02968D03*
X0246D03*
X02462Y02624D03*
X0057Y03464D03*
X0083Y03074D03*
G54D115*
X-0019Y05909D03*
X-00193Y05962D03*
X-0014Y0591D03*
Y0596D03*
X00486Y03799D03*
X01421Y01488D03*
X01858Y01492D03*
X01913Y01496D03*
Y01547D03*
X01858D03*
X01492Y01488D03*
Y01555D03*
X01425D03*
X01195Y00613D03*
X01136D03*
X01195Y00672D03*
X01137Y00673D03*
G54D116*
X00578Y02244D03*
Y02133D03*
X00574Y02007D03*
Y01897D03*
G54D117*
X00295Y06625D03*
X00332Y06704D03*
X00257D03*
G54D118*
X00221Y06511D03*
X00345D03*
G54D119*
X01129Y00637D02*
X01195D01*
M02*