%FSTAX23Y23*%
%MOIN*%
%SFA1B1*%

%IPPOS*%
%ADD123C,0.002000*%
%ADD124C,0.002665*%
%ADD125C,0.001335*%
%LNservo_pwr-1*%
%LPD*%
G54D123*
X01271Y04744D02*
Y0476D01*
X01287*
Y04744*
X01271*
X01371D02*
Y0476D01*
X01387*
Y04744*
X01371*
X01471D02*
Y0476D01*
X01487*
Y04744*
X01471*
X01571D02*
Y0476D01*
X01587*
Y04744*
X01571*
X01671D02*
Y0476D01*
X01687*
Y04744*
X01671*
X01771D02*
Y0476D01*
X01787*
Y04744*
X01771*
X01871D02*
Y0476D01*
X01887*
Y04744*
X01871*
X01971D02*
Y0476D01*
X01987*
Y04744*
X01971*
X02071D02*
Y0476D01*
X02087*
Y04744*
X02071*
X02171D02*
Y0476D01*
X02187*
Y04744*
X02171*
Y04844D02*
Y0486D01*
X02187*
Y04844*
X02171*
X02071D02*
Y0486D01*
X02087*
Y04844*
X02071*
X01971D02*
Y0486D01*
X01987*
Y04844*
X01971*
X01871D02*
Y0486D01*
X01887*
Y04844*
X01871*
X01771D02*
Y0486D01*
X01787*
Y04844*
X01771*
X01671D02*
Y0486D01*
X01687*
Y04844*
X01671*
X01571D02*
Y0486D01*
X01587*
Y04844*
X01571*
X01471D02*
Y0486D01*
X01487*
Y04844*
X01471*
X01371D02*
Y0486D01*
X01387*
Y04844*
X01371*
X01271D02*
Y0486D01*
X01287*
Y04844*
X01271*
X00433Y07157D02*
X00425Y07173D01*
X00441*
X00433Y07157*
Y07354D02*
X00425Y0737D01*
X00441*
X00433Y07354*
X00137D02*
X00129Y0737D01*
X00145*
X00137Y07354*
Y07157D02*
X00129Y07173D01*
X00145*
X00137Y07157*
Y06369D02*
X00129Y06385D01*
X00145*
X00137Y06369*
X00433D02*
X00425Y06385D01*
X00441*
X00433Y06369*
X-00006Y02115D02*
Y02131D01*
X00009*
Y02115*
X-00006*
Y0241D02*
Y02426D01*
X00009*
Y0241*
X-00006*
X-00008Y02932D02*
Y02948D01*
X00008*
Y02932*
X-00008*
Y03228D02*
Y03244D01*
X00008*
Y03228*
X-00008*
X02283Y05267D02*
X02287Y05271D01*
X02291*
X02287Y05275*
X02291Y05279*
X02287*
X02283Y05283*
X02279Y05279*
X02275*
X02279Y05275*
X02275Y05271*
X02279*
X02283Y05267*
X02755Y05897D02*
X02747Y05913D01*
X02763*
X02755Y05897*
X02362D02*
X02354Y05913D01*
X0237*
X02362Y05897*
X02066D02*
X02058Y05913D01*
X02074*
X02066Y05897*
X01771D02*
X01763Y05913D01*
X01779*
X01771Y05897*
X00629Y0511D02*
X00633Y05114D01*
X00637*
X00633Y05118*
X00637Y05122*
X00633*
X00629Y05126*
X00625Y05122*
X00621*
X00625Y05118*
X00621Y05114*
X00625*
X00629Y0511*
X00405Y05917D02*
X00409Y05925D01*
X00405Y05933*
X00413Y05929*
X00421Y05933*
X00417Y05925*
X00421Y05917*
X00413Y05921*
X00405Y05917*
X00621Y06114D02*
X00625Y06122D01*
X00621Y0613*
X00629Y06126*
X00637Y0613*
X00633Y06122*
X00637Y06114*
X00629Y06118*
X00621Y06114*
X00838Y05917D02*
X00842Y05925D01*
X00838Y05933*
X00846Y05929*
X00854Y05933*
X0085Y05925*
X00854Y05917*
X00846Y05921*
X00838Y05917*
X01181Y05562D02*
Y05558D01*
X01189*
Y05562*
X01193*
Y0557*
X01189*
Y05574*
X01181*
Y0557*
X01177*
Y05562*
X01181*
Y05956D02*
Y05952D01*
X01189*
Y05956*
X01193*
Y05964*
X01189*
Y05968*
X01181*
Y05964*
X01177*
Y05956*
X01181*
X01842Y07826D02*
X01834Y07842D01*
X0185*
X01842Y07826*
X02047D02*
X02039Y07842D01*
X02055*
X02047Y07826*
X02669D02*
X02661Y07842D01*
X02677*
X02669Y07826*
X02464D02*
X02456Y07842D01*
X02472*
X02464Y07826*
X02484Y0824D02*
X02488Y08248D01*
X02484Y08256*
X02492Y08252*
X025Y08256*
X02496Y08248*
X025Y0824*
X02492Y08244*
X02484Y0824*
X02188D02*
X02192Y08248D01*
X02188Y08256*
X02196Y08252*
X02204Y08256*
X022Y08248*
X02204Y0824*
X02196Y08244*
X02188Y0824*
X01893D02*
X01897Y08248D01*
X01893Y08256*
X01901Y08252*
X01909Y08256*
X01905Y08248*
X01909Y0824*
X01901Y08244*
X01893Y0824*
X01369D02*
X01373Y08248D01*
X01369Y08256*
X01377Y08252*
X01385Y08256*
X01381Y08248*
X01385Y0824*
X01377Y08244*
X01369Y0824*
X01074D02*
X01078Y08248D01*
X01074Y08256*
X01082Y08252*
X0109Y08256*
X01086Y08248*
X0109Y0824*
X01082Y08244*
X01074Y0824*
X00779D02*
X00783Y08248D01*
X00779Y08256*
X00787Y08252*
X00795Y08256*
X00791Y08248*
X00795Y0824*
X00787Y08244*
X00779Y0824*
X01062Y02826D02*
X01066Y0283D01*
X0107*
X01066Y02834*
X0107Y02838*
X01066*
X01062Y02842*
X01058Y02838*
X01054*
X01058Y02834*
X01054Y0283*
X01058*
X01062Y02826*
X02236D02*
X0224Y0283D01*
X02244*
X0224Y02834*
X02244Y02838*
X0224*
X02236Y02842*
X02232Y02838*
X02228*
X02232Y02834*
X02228Y0283*
X02232*
X02236Y02826*
X0224Y02354D02*
Y0237D01*
X02256*
Y02354*
X0224*
X02043D02*
Y0237D01*
X02059*
Y02354*
X02043*
X01846D02*
Y0237D01*
X01862*
Y02354*
X01846*
X01649D02*
Y0237D01*
X01665*
Y02354*
X01649*
X01452D02*
Y0237D01*
X01468*
Y02354*
X01452*
X01255D02*
Y0237D01*
X01271*
Y02354*
X01255*
X01058D02*
Y0237D01*
X01074*
Y02354*
X01058*
X01047Y03283D02*
Y03279D01*
X01055*
Y03283*
X01059*
Y03291*
X01055*
Y03295*
X01047*
Y03291*
X01043*
Y03283*
X01047*
X01092Y03401D02*
Y03397D01*
X011*
Y03401*
X01104*
Y03409*
X011*
Y03413*
X01092*
Y03409*
X01088*
Y03401*
X01092*
X01137Y03283D02*
Y03279D01*
X01145*
Y03283*
X01149*
Y03291*
X01145*
Y03295*
X01137*
Y03291*
X01133*
Y03283*
X01137*
X01183Y03401D02*
Y03397D01*
X01191*
Y03401*
X01195*
Y03409*
X01191*
Y03413*
X01183*
Y03409*
X01179*
Y03401*
X01183*
X01228Y03283D02*
Y03279D01*
X01236*
Y03283*
X0124*
Y03291*
X01236*
Y03295*
X01228*
Y03291*
X01224*
Y03283*
X01228*
X01273Y03401D02*
Y03397D01*
X01281*
Y03401*
X01285*
Y03409*
X01281*
Y03413*
X01273*
Y03409*
X01269*
Y03401*
X01273*
X01318Y03283D02*
Y03279D01*
X01326*
Y03283*
X0133*
Y03291*
X01326*
Y03295*
X01318*
Y03291*
X01314*
Y03283*
X01318*
X01364Y03401D02*
Y03397D01*
X01372*
Y03401*
X01376*
Y03409*
X01372*
Y03413*
X01364*
Y03409*
X0136*
Y03401*
X01364*
X01409Y03283D02*
Y03279D01*
X01417*
Y03283*
X01421*
Y03291*
X01417*
Y03295*
X01409*
Y03291*
X01405*
Y03283*
X01409*
X01454Y03401D02*
Y03397D01*
X01462*
Y03401*
X01466*
Y03409*
X01462*
Y03413*
X01454*
Y03409*
X0145*
Y03401*
X01454*
X01499Y03283D02*
Y03279D01*
X01507*
Y03283*
X01511*
Y03291*
X01507*
Y03295*
X01499*
Y03291*
X01495*
Y03283*
X01499*
X01545Y03401D02*
Y03397D01*
X01553*
Y03401*
X01557*
Y03409*
X01553*
Y03413*
X01545*
Y03409*
X01541*
Y03401*
X01545*
X0159Y03283D02*
Y03279D01*
X01598*
Y03283*
X01602*
Y03291*
X01598*
Y03295*
X0159*
Y03291*
X01586*
Y03283*
X0159*
X01726Y03401D02*
Y03397D01*
X01734*
Y03401*
X01738*
Y03409*
X01734*
Y03413*
X01726*
Y03409*
X01722*
Y03401*
X01726*
X01771Y03283D02*
Y03279D01*
X01779*
Y03283*
X01783*
Y03291*
X01779*
Y03295*
X01771*
Y03291*
X01767*
Y03283*
X01771*
X01907Y03401D02*
Y03397D01*
X01915*
Y03401*
X01919*
Y03409*
X01915*
Y03413*
X01907*
Y03409*
X01903*
Y03401*
X01907*
X01952Y03283D02*
Y03279D01*
X0196*
Y03283*
X01964*
Y03291*
X0196*
Y03295*
X01952*
Y03291*
X01948*
Y03283*
X01952*
X02088Y03401D02*
Y03397D01*
X02096*
Y03401*
X021*
Y03409*
X02096*
Y03413*
X02088*
Y03409*
X02084*
Y03401*
X02088*
X02133Y03283D02*
Y03279D01*
X02141*
Y03283*
X02145*
Y03291*
X02141*
Y03295*
X02133*
Y03291*
X02129*
Y03283*
X02133*
X03145Y06236D02*
Y06232D01*
X03153*
Y06236*
X03157*
Y06244*
X03153*
Y06248*
X03145*
Y06244*
X03141*
Y06236*
X03145*
X02751D02*
Y06232D01*
X02759*
Y06236*
X02763*
Y06244*
X02759*
Y06248*
X02751*
Y06244*
X02747*
Y06236*
X02751*
X02039Y06409D02*
Y06425D01*
X02055*
Y06409*
X02039*
X01448D02*
Y06425D01*
X01464*
Y06409*
X01448*
X02751Y06519D02*
Y06515D01*
X02759*
Y06519*
X02763*
Y06527*
X02759*
Y06531*
X02751*
Y06527*
X02747*
Y06519*
X02751*
X03145D02*
Y06515D01*
X03153*
Y06519*
X03157*
Y06527*
X03153*
Y06531*
X03145*
Y06527*
X03141*
Y06519*
X03145*
X0148Y05976D02*
Y05972D01*
X01488*
Y05976*
X01492*
Y05984*
X01488*
Y05988*
X0148*
Y05984*
X01476*
Y05976*
X0148*
Y05582D02*
Y05578D01*
X01488*
Y05582*
X01492*
Y0559*
X01488*
Y05594*
X0148*
Y0559*
X01476*
Y05582*
X0148*
X01261Y06271D02*
X01265D01*
X01269Y06275*
X01273Y06271*
X01277*
Y06275*
X01273Y06279*
X01277Y06283*
Y06287*
X01273*
X01269Y06283*
X01265Y06287*
X01261*
Y06283*
X01265Y06279*
X01261Y06275*
Y06271*
X02206D02*
X0221D01*
X02214Y06275*
X02218Y06271*
X02222*
Y06275*
X02218Y06279*
X02222Y06283*
Y06287*
X02218*
X02214Y06283*
X0221Y06287*
X02206*
Y06283*
X0221Y06279*
X02206Y06275*
Y06271*
X00484Y07747D02*
Y07763D01*
X005*
Y07747*
X00484*
X00188D02*
Y07763D01*
X00204*
Y07747*
X00188*
X012Y0196D02*
X01192Y01976D01*
X01208*
X012Y0196*
X02283D02*
X02275Y01976D01*
X02291*
X02283Y0196*
X00218Y03764D02*
X00226Y03772D01*
X00234Y03764*
X00226Y03756*
X00218Y03764*
Y03964D02*
X00226Y03972D01*
X00234Y03964*
X00226Y03956*
X00218Y03964*
Y04164D02*
X00226Y04172D01*
X00234Y04164*
X00226Y04156*
X00218Y04164*
Y04264D02*
X00226Y04272D01*
X00234Y04264*
X00226Y04256*
X00218Y04264*
X02157Y06763D02*
Y06779D01*
X02173*
Y06763*
X02157*
X02161Y06767D02*
Y06775D01*
X02169*
Y06767*
X02161*
X01291Y06763D02*
Y06779D01*
X01307*
Y06763*
X01291*
X01295Y06767D02*
Y06775D01*
X01303*
Y06767*
X01295*
X02157Y07472D02*
Y07488D01*
X02173*
Y07472*
X02157*
X02161Y07476D02*
Y07484D01*
X02169*
Y07476*
X02161*
X01291Y07472D02*
Y07488D01*
X01307*
Y07472*
X01291*
X01295Y07476D02*
Y07484D01*
X01303*
Y07476*
X01295*
X01369Y00047D02*
X01373Y00055D01*
X01369Y00063*
X01377Y00059*
X01385Y00063*
X01381Y00055*
X01385Y00047*
X01377Y00051*
X01369Y00047*
X01074D02*
X01078Y00055D01*
X01074Y00063*
X01082Y00059*
X0109Y00063*
X01086Y00055*
X0109Y00047*
X01082Y00051*
X01074Y00047*
X00779D02*
X00783Y00055D01*
X00779Y00063*
X00787Y00059*
X00795Y00063*
X00791Y00055*
X00795Y00047*
X00787Y00051*
X00779Y00047*
X02263D02*
X02267Y00055D01*
X02263Y00063*
X02271Y00059*
X02279Y00063*
X02275Y00055*
X02279Y00047*
X02271Y00051*
X02263Y00047*
X01968D02*
X01972Y00055D01*
X01968Y00063*
X01976Y00059*
X01984Y00063*
X0198Y00055*
X01984Y00047*
X01976Y00051*
X01968Y00047*
X01673D02*
X01677Y00055D01*
X01673Y00063*
X01681Y00059*
X01689Y00063*
X01685Y00055*
X01689Y00047*
X01681Y00051*
X01673Y00047*
X03003Y05346D02*
Y05362D01*
X03019*
Y05346*
X03003*
X02905D02*
Y05362D01*
X02921*
Y05346*
X02905*
X0311Y00031D02*
X03102Y00047D01*
X03118*
X0311Y00031*
Y00035D02*
X03106Y00043D01*
X03114*
X0311Y00035*
Y08259D02*
X03114Y08263D01*
X03118*
X03114Y08267*
X03118Y08271*
X03114*
X0311Y08275*
X03106Y08271*
X03102*
X03106Y08267*
X03102Y08263*
X03106*
X0311Y08259*
Y08263D02*
X03112Y08265D01*
X03114*
X03112Y08267*
X03114Y08269*
X03112*
X0311Y08271*
X03108Y08269*
X03106*
X03108Y08267*
X03106Y08265*
X03108*
X0311Y08263*
X-00283Y08259D02*
X-00279Y08267D01*
X-00283Y08275*
X-00275Y08271*
X-00267Y08275*
X-00271Y08267*
X-00267Y08259*
X-00275Y08263*
X-00283Y08259*
X-00279Y08263D02*
X-00277Y08267D01*
X-00279Y08271*
X-00275Y08269*
X-00271Y08271*
X-00273Y08267*
X-00271Y08263*
X-00275Y08265*
X-00279Y08263*
X-00283Y00031D02*
X-00279Y00039D01*
X-00283Y00047*
X-00275Y00043*
X-00267Y00047*
X-00271Y00039*
X-00267Y00031*
X-00275Y00035*
X-00283Y00031*
X-00279Y00035D02*
X-00277Y00039D01*
X-00279Y00043*
X-00275Y00041*
X-00271Y00043*
X-00273Y00039*
X-00271Y00035*
X-00275Y00037*
X-00279Y00035*
X01342Y05287D02*
X01334Y05303D01*
X0135*
X01342Y05287*
Y05291D02*
X01338Y05299D01*
X01346*
X01342Y05291*
X00301Y03224D02*
Y0322D01*
X00309*
Y03224*
X00313*
Y03232*
X00309*
Y03236*
X00301*
Y03232*
X00297*
Y03224*
X00301*
X00438D02*
Y0322D01*
X00446*
Y03224*
X0045*
Y03232*
X00446*
Y03236*
X00438*
Y03232*
X00434*
Y03224*
X00438*
X00779Y06173D02*
X00783Y06181D01*
X00779Y06189*
X00787Y06185*
X00795Y06189*
X00791Y06181*
X00795Y06173*
X00787Y06177*
X00779Y06173*
Y0696D02*
X00783Y06968D01*
X00779Y06976*
X00787Y06972*
X00795Y06976*
X00791Y06968*
X00795Y0696*
X00787Y06964*
X00779Y0696*
X01025Y0363D02*
Y03626D01*
X01033*
Y0363*
X01037*
Y03638*
X01033*
Y03642*
X01025*
Y03638*
X01021*
Y0363*
X01025*
X01027Y03632D02*
Y0363D01*
X01031*
Y03632*
X01033*
Y03636*
X01031*
Y03638*
X01027*
Y03636*
X01025*
Y03632*
X01027*
X00862Y03629D02*
Y03625D01*
X0087*
Y03629*
X00874*
Y03637*
X0087*
Y03641*
X00862*
Y03637*
X00858*
Y03629*
X00862*
X00864Y03631D02*
Y03629D01*
X00868*
Y03631*
X0087*
Y03635*
X00868*
Y03637*
X00864*
Y03635*
X00862*
Y03631*
X00864*
X01881Y04673D02*
Y04669D01*
X01889*
Y04673*
X01893*
Y04681*
X01889*
Y04685*
X01881*
Y04681*
X01877*
Y04673*
X01881*
X01883Y04675D02*
Y04673D01*
X01887*
Y04675*
X01889*
Y04679*
X01887*
Y04681*
X01883*
Y04679*
X01881*
Y04675*
X01883*
X01574Y04673D02*
Y04669D01*
X01582*
Y04673*
X01586*
Y04681*
X01582*
Y04685*
X01574*
Y04681*
X0157*
Y04673*
X01574*
X01576Y04675D02*
Y04673D01*
X0158*
Y04675*
X01582*
Y04679*
X0158*
Y04681*
X01576*
Y04679*
X01574*
Y04675*
X01576*
X03043Y0457D02*
Y04566D01*
X03051*
Y0457*
X03055*
Y04578*
X03051*
Y04582*
X03043*
Y04578*
X03039*
Y0457*
X03043*
X03045Y04572D02*
Y0457D01*
X03049*
Y04572*
X03051*
Y04576*
X03049*
Y04578*
X03045*
Y04576*
X03043*
Y04572*
X03045*
X01405Y05086D02*
Y05082D01*
X01413*
Y05086*
X01417*
Y05094*
X01413*
Y05098*
X01405*
Y05094*
X01401*
Y05086*
X01405*
X01407Y05088D02*
Y05086D01*
X01411*
Y05088*
X01413*
Y05092*
X01411*
Y05094*
X01407*
Y05092*
X01405*
Y05088*
X01407*
X0309Y04688D02*
Y04684D01*
X03098*
Y04688*
X03102*
Y04696*
X03098*
Y047*
X0309*
Y04696*
X03086*
Y04688*
X0309*
X03092Y0469D02*
Y04688D01*
X03096*
Y0469*
X03098*
Y04694*
X03096*
Y04696*
X03092*
Y04694*
X0309*
Y0469*
X03092*
X03106Y04527D02*
Y04523D01*
X03114*
Y04527*
X03118*
Y04535*
X03114*
Y04539*
X03106*
Y04535*
X03102*
Y04527*
X03106*
X03108Y04529D02*
Y04527D01*
X03112*
Y04529*
X03114*
Y04533*
X03112*
Y04535*
X03108*
Y04533*
X03106*
Y04529*
X03108*
X03098Y01602D02*
Y01598D01*
X03106*
Y01602*
X0311*
Y0161*
X03106*
Y01614*
X03098*
Y0161*
X03094*
Y01602*
X03098*
X031Y01604D02*
Y01602D01*
X03104*
Y01604*
X03106*
Y01608*
X03104*
Y0161*
X031*
Y01608*
X03098*
Y01604*
X031*
X03047Y01618D02*
Y01614D01*
X03055*
Y01618*
X03059*
Y01626*
X03055*
Y0163*
X03047*
Y01626*
X03043*
Y01618*
X03047*
X03049Y0162D02*
Y01618D01*
X03053*
Y0162*
X03055*
Y01624*
X03053*
Y01626*
X03049*
Y01624*
X03047*
Y0162*
X03049*
X02972Y01562D02*
Y01558D01*
X0298*
Y01562*
X02984*
Y0157*
X0298*
Y01574*
X02972*
Y0157*
X02968*
Y01562*
X02972*
X02974Y01564D02*
Y01562D01*
X02978*
Y01564*
X0298*
Y01568*
X02978*
Y0157*
X02974*
Y01568*
X02972*
Y01564*
X02974*
X02354Y0437D02*
Y04366D01*
X02362*
Y0437*
X02366*
Y04378*
X02362*
Y04382*
X02354*
Y04378*
X0235*
Y0437*
X02354*
X02356Y04372D02*
Y0437D01*
X0236*
Y04372*
X02362*
Y04376*
X0236*
Y04378*
X02356*
Y04376*
X02354*
Y04372*
X02356*
X00594Y04271D02*
Y04267D01*
X00602*
Y04271*
X00606*
Y04279*
X00602*
Y04283*
X00594*
Y04279*
X0059*
Y04271*
X00594*
X00596Y04273D02*
Y04271D01*
X006*
Y04273*
X00602*
Y04277*
X006*
Y04279*
X00596*
Y04277*
X00594*
Y04273*
X00596*
X02594Y04468D02*
Y04464D01*
X02602*
Y04468*
X02606*
Y04476*
X02602*
Y0448*
X02594*
Y04476*
X0259*
Y04468*
X02594*
X02596Y0447D02*
Y04468D01*
X026*
Y0447*
X02602*
Y04474*
X026*
Y04476*
X02596*
Y04474*
X02594*
Y0447*
X02596*
X02125Y04472D02*
Y04468D01*
X02133*
Y04472*
X02137*
Y0448*
X02133*
Y04484*
X02125*
Y0448*
X02121*
Y04472*
X02125*
X02127Y04474D02*
Y04472D01*
X02131*
Y04474*
X02133*
Y04478*
X02131*
Y0448*
X02127*
Y04478*
X02125*
Y04474*
X02127*
X02397Y04681D02*
Y04677D01*
X02405*
Y04681*
X02409*
Y04689*
X02405*
Y04693*
X02397*
Y04689*
X02393*
Y04681*
X02397*
X02399Y04683D02*
Y04681D01*
X02403*
Y04683*
X02405*
Y04687*
X02403*
Y04689*
X02399*
Y04687*
X02397*
Y04683*
X02399*
X01984Y04665D02*
Y04661D01*
X01992*
Y04665*
X01996*
Y04673*
X01992*
Y04677*
X01984*
Y04673*
X0198*
Y04665*
X01984*
X01986Y04667D02*
Y04665D01*
X0199*
Y04667*
X01992*
Y04671*
X0199*
Y04673*
X01986*
Y04671*
X01984*
Y04667*
X01986*
X02263Y04527D02*
Y04523D01*
X02271*
Y04527*
X02275*
Y04535*
X02271*
Y04539*
X02263*
Y04535*
X02259*
Y04527*
X02263*
X02265Y04529D02*
Y04527D01*
X02269*
Y04529*
X02271*
Y04533*
X02269*
Y04535*
X02265*
Y04533*
X02263*
Y04529*
X02265*
X01925Y04535D02*
Y04531D01*
X01933*
Y04535*
X01937*
Y04543*
X01933*
Y04547*
X01925*
Y04543*
X01921*
Y04535*
X01925*
X01927Y04537D02*
Y04535D01*
X01931*
Y04537*
X01933*
Y04541*
X01931*
Y04543*
X01927*
Y04541*
X01925*
Y04537*
X01927*
X01842Y04492D02*
Y04488D01*
X0185*
Y04492*
X01854*
Y045*
X0185*
Y04504*
X01842*
Y045*
X01838*
Y04492*
X01842*
X01844Y04494D02*
Y04492D01*
X01848*
Y04494*
X0185*
Y04498*
X01848*
Y045*
X01844*
Y04498*
X01842*
Y04494*
X01844*
X00696Y0444D02*
Y04436D01*
X00704*
Y0444*
X00708*
Y04448*
X00704*
Y04452*
X00696*
Y04448*
X00692*
Y0444*
X00696*
X00698Y04442D02*
Y0444D01*
X00702*
Y04442*
X00704*
Y04446*
X00702*
Y04448*
X00698*
Y04446*
X00696*
Y04442*
X00698*
X01775Y04517D02*
Y04513D01*
X01783*
Y04517*
X01787*
Y04525*
X01783*
Y04529*
X01775*
Y04525*
X01771*
Y04517*
X01775*
X01777Y04519D02*
Y04517D01*
X01781*
Y04519*
X01783*
Y04523*
X01781*
Y04525*
X01777*
Y04523*
X01775*
Y04519*
X01777*
X01519Y04436D02*
Y04432D01*
X01527*
Y04436*
X01531*
Y04444*
X01527*
Y04448*
X01519*
Y04444*
X01515*
Y04436*
X01519*
X01521Y04438D02*
Y04436D01*
X01525*
Y04438*
X01527*
Y04442*
X01525*
Y04444*
X01521*
Y04442*
X01519*
Y04438*
X01521*
X01523Y05015D02*
Y05011D01*
X01531*
Y05015*
X01535*
Y05023*
X01531*
Y05027*
X01523*
Y05023*
X01519*
Y05015*
X01523*
X01525Y05017D02*
Y05015D01*
X01529*
Y05017*
X01531*
Y05021*
X01529*
Y05023*
X01525*
Y05021*
X01523*
Y05017*
X01525*
X01586Y04476D02*
Y04472D01*
X01594*
Y04476*
X01598*
Y04484*
X01594*
Y04488*
X01586*
Y04484*
X01582*
Y04476*
X01586*
X01588Y04478D02*
Y04476D01*
X01592*
Y04478*
X01594*
Y04482*
X01592*
Y04484*
X01588*
Y04482*
X01586*
Y04478*
X01588*
X01169Y0448D02*
Y04476D01*
X01177*
Y0448*
X01181*
Y04488*
X01177*
Y04492*
X01169*
Y04488*
X01165*
Y0448*
X01169*
X01171Y04482D02*
Y0448D01*
X01175*
Y04482*
X01177*
Y04486*
X01175*
Y04488*
X01171*
Y04486*
X01169*
Y04482*
X01171*
X01125Y04531D02*
Y04527D01*
X01133*
Y04531*
X01137*
Y04539*
X01133*
Y04543*
X01125*
Y04539*
X01121*
Y04531*
X01125*
X01127Y04533D02*
Y04531D01*
X01131*
Y04533*
X01133*
Y04537*
X01131*
Y04539*
X01127*
Y04537*
X01125*
Y04533*
X01127*
X01716Y04527D02*
Y04523D01*
X01724*
Y04527*
X01728*
Y04535*
X01724*
Y04539*
X01716*
Y04535*
X01712*
Y04527*
X01716*
X01718Y04529D02*
Y04527D01*
X01722*
Y04529*
X01724*
Y04533*
X01722*
Y04535*
X01718*
Y04533*
X01716*
Y04529*
X01718*
X03007Y04511D02*
Y04507D01*
X03015*
Y04511*
X03019*
Y04519*
X03015*
Y04523*
X03007*
Y04519*
X03003*
Y04511*
X03007*
X03009Y04513D02*
Y04511D01*
X03013*
Y04513*
X03015*
Y04517*
X03013*
Y04519*
X03009*
Y04517*
X03007*
Y04513*
X03009*
X0296Y01602D02*
Y01598D01*
X02968*
Y01602*
X02972*
Y0161*
X02968*
Y01614*
X0296*
Y0161*
X02956*
Y01602*
X0296*
X02962Y01604D02*
Y01602D01*
X02966*
Y01604*
X02968*
Y01608*
X02966*
Y0161*
X02962*
Y01608*
X0296*
Y01604*
X02962*
X02894Y04633D02*
Y04629D01*
X02902*
Y04633*
X02906*
Y04641*
X02902*
Y04645*
X02894*
Y04641*
X0289*
Y04633*
X02894*
X02896Y04635D02*
Y04633D01*
X029*
Y04635*
X02902*
Y04639*
X029*
Y04641*
X02896*
Y04639*
X02894*
Y04635*
X02896*
X02499Y02397D02*
Y02393D01*
X02507*
Y02397*
X02511*
Y02405*
X02507*
Y02409*
X02499*
Y02405*
X02495*
Y02397*
X02499*
X02501Y02399D02*
Y02397D01*
X02505*
Y02399*
X02507*
Y02403*
X02505*
Y02405*
X02501*
Y02403*
X02499*
Y02399*
X02501*
X01086Y05267D02*
Y05263D01*
X01094*
Y05267*
X01098*
Y05275*
X01094*
Y05279*
X01086*
Y05275*
X01082*
Y05267*
X01086*
X01088Y05269D02*
Y05267D01*
X01092*
Y05269*
X01094*
Y05273*
X01092*
Y05275*
X01088*
Y05273*
X01086*
Y05269*
X01088*
X-00198Y05901D02*
X-00194D01*
X-0019Y05905*
X-00186Y05901*
X-00182*
Y05905*
X-00186Y05909*
X-00182Y05913*
Y05917*
X-00186*
X-0019Y05913*
X-00194Y05917*
X-00198*
Y05913*
X-00194Y05909*
X-00198Y05905*
Y05901*
X-00194Y05905D02*
X-00192D01*
X-0019Y05907*
X-00188Y05905*
X-00186*
Y05907*
X-00188Y05909*
X-00186Y05911*
Y05913*
X-00188*
X-0019Y05911*
X-00192Y05913*
X-00194*
Y05911*
X-00192Y05909*
X-00194Y05907*
Y05905*
X-00201Y05954D02*
X-00197D01*
X-00193Y05958*
X-00189Y05954*
X-00185*
Y05958*
X-00189Y05962*
X-00185Y05966*
Y0597*
X-00189*
X-00193Y05966*
X-00197Y0597*
X-00201*
Y05966*
X-00197Y05962*
X-00201Y05958*
Y05954*
X-00197Y05958D02*
X-00195D01*
X-00193Y0596*
X-00191Y05958*
X-00189*
Y0596*
X-00191Y05962*
X-00189Y05964*
Y05966*
X-00191*
X-00193Y05964*
X-00195Y05966*
X-00197*
Y05964*
X-00195Y05962*
X-00197Y0596*
Y05958*
X-00148Y05902D02*
X-00144D01*
X-0014Y05906*
X-00136Y05902*
X-00132*
Y05906*
X-00136Y0591*
X-00132Y05914*
Y05918*
X-00136*
X-0014Y05914*
X-00144Y05918*
X-00148*
Y05914*
X-00144Y0591*
X-00148Y05906*
Y05902*
X-00144Y05906D02*
X-00142D01*
X-0014Y05908*
X-00138Y05906*
X-00136*
Y05908*
X-00138Y0591*
X-00136Y05912*
Y05914*
X-00138*
X-0014Y05912*
X-00142Y05914*
X-00144*
Y05912*
X-00142Y0591*
X-00144Y05908*
Y05906*
X-00148Y05952D02*
X-00144D01*
X-0014Y05956*
X-00136Y05952*
X-00132*
Y05956*
X-00136Y0596*
X-00132Y05964*
Y05968*
X-00136*
X-0014Y05964*
X-00144Y05968*
X-00148*
Y05964*
X-00144Y0596*
X-00148Y05956*
Y05952*
X-00144Y05956D02*
X-00142D01*
X-0014Y05958*
X-00138Y05956*
X-00136*
Y05958*
X-00138Y0596*
X-00136Y05962*
Y05964*
X-00138*
X-0014Y05962*
X-00142Y05964*
X-00144*
Y05962*
X-00142Y0596*
X-00144Y05958*
Y05956*
X0038Y05711D02*
Y05707D01*
X00388*
Y05711*
X00392*
Y05719*
X00388*
Y05723*
X0038*
Y05719*
X00376*
Y05711*
X0038*
X00382Y05713D02*
Y05711D01*
X00386*
Y05713*
X00388*
Y05717*
X00386*
Y05719*
X00382*
Y05717*
X0038*
Y05713*
X00382*
X00381Y05647D02*
Y05643D01*
X00389*
Y05647*
X00393*
Y05655*
X00389*
Y05659*
X00381*
Y05655*
X00377*
Y05647*
X00381*
X00383Y05649D02*
Y05647D01*
X00387*
Y05649*
X00389*
Y05653*
X00387*
Y05655*
X00383*
Y05653*
X00381*
Y05649*
X00383*
X00382Y0469D02*
Y04686D01*
X0039*
Y0469*
X00394*
Y04698*
X0039*
Y04702*
X00382*
Y04698*
X00378*
Y0469*
X00382*
X00384Y04692D02*
Y0469D01*
X00388*
Y04692*
X0039*
Y04696*
X00388*
Y04698*
X00384*
Y04696*
X00382*
Y04692*
X00384*
X00002Y0456D02*
Y04556D01*
X0001*
Y0456*
X00014*
Y04568*
X0001*
Y04572*
X00002*
Y04568*
X-00001*
Y0456*
X00002*
X00004Y04562D02*
Y0456D01*
X00008*
Y04562*
X0001*
Y04566*
X00008*
Y04568*
X00004*
Y04566*
X00002*
Y04562*
X00004*
X00183Y03557D02*
Y03553D01*
X00191*
Y03557*
X00195*
Y03565*
X00191*
Y03569*
X00183*
Y03565*
X00179*
Y03557*
X00183*
X00185Y03559D02*
Y03557D01*
X00189*
Y03559*
X00191*
Y03563*
X00189*
Y03565*
X00185*
Y03563*
X00183*
Y03559*
X00185*
X0216Y04217D02*
Y04213D01*
X02168*
Y04217*
X02172*
Y04225*
X02168*
Y04229*
X0216*
Y04225*
X02156*
Y04217*
X0216*
X02162Y04219D02*
Y04217D01*
X02166*
Y04219*
X02168*
Y04223*
X02166*
Y04225*
X02162*
Y04223*
X0216*
Y04219*
X02162*
X01969Y04217D02*
Y04213D01*
X01977*
Y04217*
X01981*
Y04225*
X01977*
Y04229*
X01969*
Y04225*
X01965*
Y04217*
X01969*
X01971Y04219D02*
Y04217D01*
X01975*
Y04219*
X01977*
Y04223*
X01975*
Y04225*
X01971*
Y04223*
X01969*
Y04219*
X01971*
X0178Y04216D02*
Y04212D01*
X01788*
Y04216*
X01792*
Y04224*
X01788*
Y04228*
X0178*
Y04224*
X01776*
Y04216*
X0178*
X01782Y04218D02*
Y04216D01*
X01786*
Y04218*
X01788*
Y04222*
X01786*
Y04224*
X01782*
Y04222*
X0178*
Y04218*
X01782*
X01593Y04215D02*
Y04211D01*
X01601*
Y04215*
X01605*
Y04223*
X01601*
Y04227*
X01593*
Y04223*
X01589*
Y04215*
X01593*
X01595Y04217D02*
Y04215D01*
X01599*
Y04217*
X01601*
Y04221*
X01599*
Y04223*
X01595*
Y04221*
X01593*
Y04217*
X01595*
X014Y04216D02*
Y04212D01*
X01408*
Y04216*
X01412*
Y04224*
X01408*
Y04228*
X014*
Y04224*
X01396*
Y04216*
X014*
X01402Y04218D02*
Y04216D01*
X01406*
Y04218*
X01408*
Y04222*
X01406*
Y04224*
X01402*
Y04222*
X014*
Y04218*
X01402*
X01211Y04216D02*
Y04212D01*
X01219*
Y04216*
X01223*
Y04224*
X01219*
Y04228*
X01211*
Y04224*
X01207*
Y04216*
X01211*
X01213Y04218D02*
Y04216D01*
X01217*
Y04218*
X01219*
Y04222*
X01217*
Y04224*
X01213*
Y04222*
X01211*
Y04218*
X01213*
X01021Y04217D02*
Y04213D01*
X01029*
Y04217*
X01033*
Y04225*
X01029*
Y04229*
X01021*
Y04225*
X01017*
Y04217*
X01021*
X01023Y04219D02*
Y04217D01*
X01027*
Y04219*
X01029*
Y04223*
X01027*
Y04225*
X01023*
Y04223*
X01021*
Y04219*
X01023*
X02449Y04221D02*
Y04217D01*
X02457*
Y04221*
X02461*
Y04229*
X02457*
Y04233*
X02449*
Y04229*
X02445*
Y04221*
X02449*
X02451Y04223D02*
Y04221D01*
X02455*
Y04223*
X02457*
Y04227*
X02455*
Y04229*
X02451*
Y04227*
X02449*
Y04223*
X02451*
X02536Y04225D02*
Y04221D01*
X02544*
Y04225*
X02548*
Y04233*
X02544*
Y04237*
X02536*
Y04233*
X02532*
Y04225*
X02536*
X02538Y04227D02*
Y04225D01*
X02542*
Y04227*
X02544*
Y04231*
X02542*
Y04233*
X02538*
Y04231*
X02536*
Y04227*
X02538*
X00833Y04262D02*
Y04258D01*
X00841*
Y04262*
X00845*
Y0427*
X00841*
Y04274*
X00833*
Y0427*
X00829*
Y04262*
X00833*
X00835Y04264D02*
Y04262D01*
X00839*
Y04264*
X00841*
Y04268*
X00839*
Y0427*
X00835*
Y04268*
X00833*
Y04264*
X00835*
X00385Y04634D02*
Y0463D01*
X00393*
Y04634*
X00397*
Y04642*
X00393*
Y04646*
X00385*
Y04642*
X00381*
Y04634*
X00385*
X00387Y04636D02*
Y04634D01*
X00391*
Y04636*
X00393*
Y0464*
X00391*
Y04642*
X00387*
Y0464*
X00385*
Y04636*
X00387*
X01191Y04635D02*
Y04631D01*
X01199*
Y04635*
X01203*
Y04643*
X01199*
Y04647*
X01191*
Y04643*
X01187*
Y04635*
X01191*
X01193Y04637D02*
Y04635D01*
X01197*
Y04637*
X01199*
Y04641*
X01197*
Y04643*
X01193*
Y04641*
X01191*
Y04637*
X01193*
X00714Y04695D02*
Y04691D01*
X00722*
Y04695*
X00726*
Y04703*
X00722*
Y04707*
X00714*
Y04703*
X0071*
Y04695*
X00714*
X00716Y04697D02*
Y04695D01*
X0072*
Y04697*
X00722*
Y04701*
X0072*
Y04703*
X00716*
Y04701*
X00714*
Y04697*
X00716*
X00368Y06576D02*
Y06572D01*
X00376*
Y06576*
X0038*
Y06584*
X00376*
Y06588*
X00368*
Y06584*
X00364*
Y06576*
X00368*
X0037Y06578D02*
Y06576D01*
X00374*
Y06578*
X00376*
Y06582*
X00374*
Y06584*
X0037*
Y06582*
X00368*
Y06578*
X0037*
X00432Y06524D02*
Y0652D01*
X0044*
Y06524*
X00444*
Y06532*
X0044*
Y06536*
X00432*
Y06532*
X00428*
Y06524*
X00432*
X00434Y06526D02*
Y06524D01*
X00438*
Y06526*
X0044*
Y0653*
X00438*
Y06532*
X00434*
Y0653*
X00432*
Y06526*
X00434*
X01111Y04741D02*
Y04737D01*
X01119*
Y04741*
X01123*
Y04749*
X01119*
Y04753*
X01111*
Y04749*
X01107*
Y04741*
X01111*
X01113Y04743D02*
Y04741D01*
X01117*
Y04743*
X01119*
Y04747*
X01117*
Y04749*
X01113*
Y04747*
X01111*
Y04743*
X01113*
X00977Y03708D02*
Y03704D01*
X00985*
Y03708*
X00989*
Y03716*
X00985*
Y0372*
X00977*
Y03716*
X00973*
Y03708*
X00977*
X00979Y0371D02*
Y03708D01*
X00983*
Y0371*
X00985*
Y03714*
X00983*
Y03716*
X00979*
Y03714*
X00977*
Y0371*
X00979*
X01118Y03704D02*
Y037D01*
X01126*
Y03704*
X0113*
Y03712*
X01126*
Y03716*
X01118*
Y03712*
X01114*
Y03704*
X01118*
X0112Y03706D02*
Y03704D01*
X01124*
Y03706*
X01126*
Y0371*
X01124*
Y03712*
X0112*
Y0371*
X01118*
Y03706*
X0112*
X01308Y03707D02*
Y03703D01*
X01316*
Y03707*
X0132*
Y03715*
X01316*
Y03719*
X01308*
Y03715*
X01304*
Y03707*
X01308*
X0131Y03709D02*
Y03707D01*
X01314*
Y03709*
X01316*
Y03713*
X01314*
Y03715*
X0131*
Y03713*
X01308*
Y03709*
X0131*
X0149Y03704D02*
Y037D01*
X01498*
Y03704*
X01502*
Y03712*
X01498*
Y03716*
X0149*
Y03712*
X01486*
Y03704*
X0149*
X01492Y03706D02*
Y03704D01*
X01496*
Y03706*
X01498*
Y0371*
X01496*
Y03712*
X01492*
Y0371*
X0149*
Y03706*
X01492*
X01685Y03704D02*
Y037D01*
X01693*
Y03704*
X01697*
Y03712*
X01693*
Y03716*
X01685*
Y03712*
X01681*
Y03704*
X01685*
X01687Y03706D02*
Y03704D01*
X01691*
Y03706*
X01693*
Y0371*
X01691*
Y03712*
X01687*
Y0371*
X01685*
Y03706*
X01687*
X01871Y03701D02*
Y03697D01*
X01879*
Y03701*
X01883*
Y03709*
X01879*
Y03713*
X01871*
Y03709*
X01867*
Y03701*
X01871*
X01873Y03703D02*
Y03701D01*
X01877*
Y03703*
X01879*
Y03707*
X01877*
Y03709*
X01873*
Y03707*
X01871*
Y03703*
X01873*
X02067Y03704D02*
Y037D01*
X02075*
Y03704*
X02079*
Y03712*
X02075*
Y03716*
X02067*
Y03712*
X02063*
Y03704*
X02067*
X02069Y03706D02*
Y03704D01*
X02073*
Y03706*
X02075*
Y0371*
X02073*
Y03712*
X02069*
Y0371*
X02067*
Y03706*
X02069*
X02259Y03703D02*
Y03699D01*
X02267*
Y03703*
X02271*
Y03711*
X02267*
Y03715*
X02259*
Y03711*
X02255*
Y03703*
X02259*
X02261Y03705D02*
Y03703D01*
X02265*
Y03705*
X02267*
Y03709*
X02265*
Y03711*
X02261*
Y03709*
X02259*
Y03705*
X02261*
X01235Y03636D02*
Y03632D01*
X01243*
Y03636*
X01247*
Y03644*
X01243*
Y03648*
X01235*
Y03644*
X01231*
Y03636*
X01235*
X01237Y03638D02*
Y03636D01*
X01241*
Y03638*
X01243*
Y03642*
X01241*
Y03644*
X01237*
Y03642*
X01235*
Y03638*
X01237*
X01397Y03633D02*
Y03629D01*
X01405*
Y03633*
X01409*
Y03641*
X01405*
Y03645*
X01397*
Y03641*
X01393*
Y03633*
X01397*
X01399Y03635D02*
Y03633D01*
X01403*
Y03635*
X01405*
Y03639*
X01403*
Y03641*
X01399*
Y03639*
X01397*
Y03635*
X01399*
X01692Y03634D02*
Y0363D01*
X017*
Y03634*
X01704*
Y03642*
X017*
Y03646*
X01692*
Y03642*
X01688*
Y03634*
X01692*
X01694Y03636D02*
Y03634D01*
X01698*
Y03636*
X017*
Y0364*
X01698*
Y03642*
X01694*
Y0364*
X01692*
Y03636*
X01694*
X0156Y03635D02*
Y03631D01*
X01568*
Y03635*
X01572*
Y03643*
X01568*
Y03647*
X0156*
Y03643*
X01556*
Y03635*
X0156*
X01562Y03637D02*
Y03635D01*
X01566*
Y03637*
X01568*
Y03641*
X01566*
Y03643*
X01562*
Y03641*
X0156*
Y03637*
X01562*
X01967Y03631D02*
Y03627D01*
X01975*
Y03631*
X01979*
Y03639*
X01975*
Y03643*
X01967*
Y03639*
X01963*
Y03631*
X01967*
X01969Y03633D02*
Y03631D01*
X01973*
Y03633*
X01975*
Y03637*
X01973*
Y03639*
X01969*
Y03637*
X01967*
Y03633*
X01969*
X02163Y0363D02*
Y03626D01*
X02171*
Y0363*
X02175*
Y03638*
X02171*
Y03642*
X02163*
Y03638*
X02159*
Y0363*
X02163*
X02165Y03632D02*
Y0363D01*
X02169*
Y03632*
X02171*
Y03636*
X02169*
Y03638*
X02165*
Y03636*
X02163*
Y03632*
X02165*
X02531Y03631D02*
Y03627D01*
X02539*
Y03631*
X02543*
Y03639*
X02539*
Y03643*
X02531*
Y03639*
X02527*
Y03631*
X02531*
X02533Y03633D02*
Y03631D01*
X02537*
Y03633*
X02539*
Y03637*
X02537*
Y03639*
X02533*
Y03637*
X02531*
Y03633*
X02533*
X02539Y02858D02*
Y02854D01*
X02547*
Y02858*
X02551*
Y02866*
X02547*
Y0287*
X02539*
Y02866*
X02535*
Y02858*
X02539*
X02541Y0286D02*
Y02858D01*
X02545*
Y0286*
X02547*
Y02864*
X02545*
Y02866*
X02541*
Y02864*
X02539*
Y0286*
X02541*
X02736Y02917D02*
Y02913D01*
X02744*
Y02917*
X02748*
Y02925*
X02744*
Y02929*
X02736*
Y02925*
X02732*
Y02917*
X02736*
X02738Y02919D02*
Y02917D01*
X02742*
Y02919*
X02744*
Y02923*
X02742*
Y02925*
X02738*
Y02923*
X02736*
Y02919*
X02738*
X02763Y03574D02*
Y0357D01*
X02771*
Y03574*
X02775*
Y03582*
X02771*
Y03586*
X02763*
Y03582*
X02759*
Y03574*
X02763*
X02765Y03576D02*
Y03574D01*
X02769*
Y03576*
X02771*
Y0358*
X02769*
Y03582*
X02765*
Y0358*
X02763*
Y03576*
X02765*
X02645Y03704D02*
Y037D01*
X02653*
Y03704*
X02657*
Y03712*
X02653*
Y03716*
X02645*
Y03712*
X02641*
Y03704*
X02645*
X02647Y03706D02*
Y03704D01*
X02651*
Y03706*
X02653*
Y0371*
X02651*
Y03712*
X02647*
Y0371*
X02645*
Y03706*
X02647*
X02783Y02964D02*
Y0296D01*
X02791*
Y02964*
X02795*
Y02972*
X02791*
Y02976*
X02783*
Y02972*
X02779*
Y02964*
X02783*
X02785Y02966D02*
Y02964D01*
X02789*
Y02966*
X02791*
Y0297*
X02789*
Y02972*
X02785*
Y0297*
X02783*
Y02966*
X02785*
X02456Y02964D02*
Y0296D01*
X02464*
Y02964*
X02468*
Y02972*
X02464*
Y02976*
X02456*
Y02972*
X02452*
Y02964*
X02456*
X02458Y02966D02*
Y02964D01*
X02462*
Y02966*
X02464*
Y0297*
X02462*
Y02972*
X02458*
Y0297*
X02456*
Y02966*
X02458*
X02458Y0262D02*
Y02616D01*
X02466*
Y0262*
X0247*
Y02628*
X02466*
Y02632*
X02458*
Y02628*
X02454*
Y0262*
X02458*
X0246Y02622D02*
Y0262D01*
X02464*
Y02622*
X02466*
Y02626*
X02464*
Y02628*
X0246*
Y02626*
X02458*
Y02622*
X0246*
X00566Y0346D02*
Y03456D01*
X00574*
Y0346*
X00578*
Y03468*
X00574*
Y03472*
X00566*
Y03468*
X00562*
Y0346*
X00566*
X00568Y03462D02*
Y0346D01*
X00572*
Y03462*
X00574*
Y03466*
X00572*
Y03468*
X00568*
Y03466*
X00566*
Y03462*
X00568*
X00826Y0307D02*
Y03066D01*
X00834*
Y0307*
X00838*
Y03078*
X00834*
Y03082*
X00826*
Y03078*
X00822*
Y0307*
X00826*
X00828Y03072D02*
Y0307D01*
X00832*
Y03072*
X00834*
Y03076*
X00832*
Y03078*
X00828*
Y03076*
X00826*
Y03072*
X00828*
X00478Y03791D02*
X00482D01*
X00486Y03795*
X0049Y03791*
X00494*
Y03795*
X0049Y03799*
X00494Y03803*
Y03807*
X0049*
X00486Y03803*
X00482Y03807*
X00478*
Y03803*
X00482Y03799*
X00478Y03795*
Y03791*
X00482Y03795D02*
X00484D01*
X00486Y03797*
X00488Y03795*
X0049*
Y03797*
X00488Y03799*
X0049Y03801*
Y03803*
X00488*
X00486Y03801*
X00484Y03803*
X00482*
Y03801*
X00484Y03799*
X00482Y03797*
Y03795*
X01413Y0148D02*
X01417D01*
X01421Y01484*
X01425Y0148*
X01429*
Y01484*
X01425Y01488*
X01429Y01492*
Y01496*
X01425*
X01421Y01492*
X01417Y01496*
X01413*
Y01492*
X01417Y01488*
X01413Y01484*
Y0148*
X01417Y01484D02*
X01419D01*
X01421Y01486*
X01423Y01484*
X01425*
Y01486*
X01423Y01488*
X01425Y0149*
Y01492*
X01423*
X01421Y0149*
X01419Y01492*
X01417*
Y0149*
X01419Y01488*
X01417Y01486*
Y01484*
X0185Y01484D02*
X01854D01*
X01858Y01488*
X01862Y01484*
X01866*
Y01488*
X01862Y01492*
X01866Y01496*
Y015*
X01862*
X01858Y01496*
X01854Y015*
X0185*
Y01496*
X01854Y01492*
X0185Y01488*
Y01484*
X01854Y01488D02*
X01856D01*
X01858Y0149*
X0186Y01488*
X01862*
Y0149*
X0186Y01492*
X01862Y01494*
Y01496*
X0186*
X01858Y01494*
X01856Y01496*
X01854*
Y01494*
X01856Y01492*
X01854Y0149*
Y01488*
X01905Y01488D02*
X01909D01*
X01913Y01492*
X01917Y01488*
X01921*
Y01492*
X01917Y01496*
X01921Y015*
Y01504*
X01917*
X01913Y015*
X01909Y01504*
X01905*
Y015*
X01909Y01496*
X01905Y01492*
Y01488*
X01909Y01492D02*
X01911D01*
X01913Y01494*
X01915Y01492*
X01917*
Y01494*
X01915Y01496*
X01917Y01498*
Y015*
X01915*
X01913Y01498*
X01911Y015*
X01909*
Y01498*
X01911Y01496*
X01909Y01494*
Y01492*
X01905Y01539D02*
X01909D01*
X01913Y01543*
X01917Y01539*
X01921*
Y01543*
X01917Y01547*
X01921Y01551*
Y01555*
X01917*
X01913Y01551*
X01909Y01555*
X01905*
Y01551*
X01909Y01547*
X01905Y01543*
Y01539*
X01909Y01543D02*
X01911D01*
X01913Y01545*
X01915Y01543*
X01917*
Y01545*
X01915Y01547*
X01917Y01549*
Y01551*
X01915*
X01913Y01549*
X01911Y01551*
X01909*
Y01549*
X01911Y01547*
X01909Y01545*
Y01543*
X0185Y01539D02*
X01854D01*
X01858Y01543*
X01862Y01539*
X01866*
Y01543*
X01862Y01547*
X01866Y01551*
Y01555*
X01862*
X01858Y01551*
X01854Y01555*
X0185*
Y01551*
X01854Y01547*
X0185Y01543*
Y01539*
X01854Y01543D02*
X01856D01*
X01858Y01545*
X0186Y01543*
X01862*
Y01545*
X0186Y01547*
X01862Y01549*
Y01551*
X0186*
X01858Y01549*
X01856Y01551*
X01854*
Y01549*
X01856Y01547*
X01854Y01545*
Y01543*
X01484Y0148D02*
X01488D01*
X01492Y01484*
X01496Y0148*
X015*
Y01484*
X01496Y01488*
X015Y01492*
Y01496*
X01496*
X01492Y01492*
X01488Y01496*
X01484*
Y01492*
X01488Y01488*
X01484Y01484*
Y0148*
X01488Y01484D02*
X0149D01*
X01492Y01486*
X01494Y01484*
X01496*
Y01486*
X01494Y01488*
X01496Y0149*
Y01492*
X01494*
X01492Y0149*
X0149Y01492*
X01488*
Y0149*
X0149Y01488*
X01488Y01486*
Y01484*
X01484Y01547D02*
X01488D01*
X01492Y01551*
X01496Y01547*
X015*
Y01551*
X01496Y01555*
X015Y01559*
Y01563*
X01496*
X01492Y01559*
X01488Y01563*
X01484*
Y01559*
X01488Y01555*
X01484Y01551*
Y01547*
X01488Y01551D02*
X0149D01*
X01492Y01553*
X01494Y01551*
X01496*
Y01553*
X01494Y01555*
X01496Y01557*
Y01559*
X01494*
X01492Y01557*
X0149Y01559*
X01488*
Y01557*
X0149Y01555*
X01488Y01553*
Y01551*
X01417Y01547D02*
X01421D01*
X01425Y01551*
X01429Y01547*
X01433*
Y01551*
X01429Y01555*
X01433Y01559*
Y01563*
X01429*
X01425Y01559*
X01421Y01563*
X01417*
Y01559*
X01421Y01555*
X01417Y01551*
Y01547*
X01421Y01551D02*
X01423D01*
X01425Y01553*
X01427Y01551*
X01429*
Y01553*
X01427Y01555*
X01429Y01557*
Y01559*
X01427*
X01425Y01557*
X01423Y01559*
X01421*
Y01557*
X01423Y01555*
X01421Y01553*
Y01551*
X01187Y00605D02*
X01191D01*
X01195Y00609*
X01199Y00605*
X01203*
Y00609*
X01199Y00613*
X01203Y00617*
Y00621*
X01199*
X01195Y00617*
X01191Y00621*
X01187*
Y00617*
X01191Y00613*
X01187Y00609*
Y00605*
X01191Y00609D02*
X01193D01*
X01195Y00611*
X01197Y00609*
X01199*
Y00611*
X01197Y00613*
X01199Y00615*
Y00617*
X01197*
X01195Y00615*
X01193Y00617*
X01191*
Y00615*
X01193Y00613*
X01191Y00611*
Y00609*
X01128Y00605D02*
X01132D01*
X01136Y00609*
X0114Y00605*
X01144*
Y00609*
X0114Y00613*
X01144Y00617*
Y00621*
X0114*
X01136Y00617*
X01132Y00621*
X01128*
Y00617*
X01132Y00613*
X01128Y00609*
Y00605*
X01132Y00609D02*
X01134D01*
X01136Y00611*
X01138Y00609*
X0114*
Y00611*
X01138Y00613*
X0114Y00615*
Y00617*
X01138*
X01136Y00615*
X01134Y00617*
X01132*
Y00615*
X01134Y00613*
X01132Y00611*
Y00609*
X01187Y00664D02*
X01191D01*
X01195Y00668*
X01199Y00664*
X01203*
Y00668*
X01199Y00672*
X01203Y00676*
Y0068*
X01199*
X01195Y00676*
X01191Y0068*
X01187*
Y00676*
X01191Y00672*
X01187Y00668*
Y00664*
X01191Y00668D02*
X01193D01*
X01195Y0067*
X01197Y00668*
X01199*
Y0067*
X01197Y00672*
X01199Y00674*
Y00676*
X01197*
X01195Y00674*
X01193Y00676*
X01191*
Y00674*
X01193Y00672*
X01191Y0067*
Y00668*
X01129Y00665D02*
X01133D01*
X01137Y00669*
X01141Y00665*
X01145*
Y00669*
X01141Y00673*
X01145Y00677*
Y00681*
X01141*
X01137Y00677*
X01133Y00681*
X01129*
Y00677*
X01133Y00673*
X01129Y00669*
Y00665*
X01133Y00669D02*
X01135D01*
X01137Y00671*
X01139Y00669*
X01141*
Y00671*
X01139Y00673*
X01141Y00675*
Y00677*
X01139*
X01137Y00675*
X01135Y00677*
X01133*
Y00675*
X01135Y00673*
X01133Y00671*
Y00669*
G54D124*
X00948Y00374D02*
D01*
X00948Y00374*
X00948Y00375*
X00948Y00375*
X00948Y00376*
X00948Y00376*
X00948Y00377*
X00948Y00377*
X00947Y00378*
X00947Y00378*
X00947Y00379*
X00946Y00379*
X00946Y00379*
X00945Y0038*
X00945Y0038*
X00944Y0038*
X00944Y00381*
X00943Y00381*
X00943Y00381*
X00942Y00381*
X00942Y00381*
X00941Y00381*
X00941Y00382*
X0094*
X0094Y00381*
X00939Y00381*
X00939Y00381*
X00938Y00381*
X00937Y00381*
X00937Y00381*
X00936Y0038*
X00936Y0038*
X00936Y0038*
X00935Y00379*
X00935Y00379*
X00934Y00379*
X00934Y00378*
X00934Y00378*
X00933Y00377*
X00933Y00377*
X00933Y00376*
X00933Y00376*
X00933Y00375*
X00933Y00375*
X00932Y00374*
X00932Y00374*
X00932Y00373*
X00933Y00372*
X00933Y00372*
X00933Y00371*
X00933Y00371*
X00933Y0037*
X00933Y0037*
X00934Y00369*
X00934Y00369*
X00934Y00368*
X00935Y00368*
X00935Y00368*
X00936Y00367*
X00936Y00367*
X00936Y00367*
X00937Y00366*
X00937Y00366*
X00938Y00366*
X00939Y00366*
X00939Y00366*
X0094Y00366*
X0094Y00366*
X00941*
X00941Y00366*
X00942Y00366*
X00942Y00366*
X00943Y00366*
X00943Y00366*
X00944Y00366*
X00944Y00367*
X00945Y00367*
X00945Y00367*
X00946Y00368*
X00946Y00368*
X00947Y00368*
X00947Y00369*
X00947Y00369*
X00948Y0037*
X00948Y0037*
X00948Y00371*
X00948Y00371*
X00948Y00372*
X00948Y00372*
X00948Y00373*
X00948Y00374*
X00933Y06188D02*
D01*
X00933Y06189*
X00933Y0619*
X00933Y0619*
X00932Y06191*
X00932Y06191*
X00932Y06192*
X00932Y06192*
X00931Y06193*
X00931Y06193*
X00931Y06194*
X0093Y06194*
X0093Y06194*
X0093Y06195*
X00929Y06195*
X00929Y06195*
X00928Y06196*
X00928Y06196*
X00927Y06196*
X00927Y06196*
X00926Y06196*
X00926Y06196*
X00925Y06196*
X00924*
X00924Y06196*
X00923Y06196*
X00923Y06196*
X00922Y06196*
X00922Y06196*
X00921Y06196*
X00921Y06195*
X0092Y06195*
X0092Y06195*
X00919Y06194*
X00919Y06194*
X00919Y06194*
X00918Y06193*
X00918Y06193*
X00918Y06192*
X00917Y06192*
X00917Y06191*
X00917Y06191*
X00917Y0619*
X00917Y0619*
X00917Y06189*
X00917Y06188*
X00917Y06188*
X00917Y06187*
X00917Y06187*
X00917Y06186*
X00917Y06186*
X00917Y06185*
X00918Y06185*
X00918Y06184*
X00918Y06184*
X00919Y06183*
X00919Y06183*
X00919Y06183*
X0092Y06182*
X0092Y06182*
X00921Y06182*
X00921Y06181*
X00922Y06181*
X00922Y06181*
X00923Y06181*
X00923Y06181*
X00924Y06181*
X00924Y0618*
X00925*
X00926Y06181*
X00926Y06181*
X00927Y06181*
X00927Y06181*
X00928Y06181*
X00928Y06181*
X00929Y06182*
X00929Y06182*
X0093Y06182*
X0093Y06183*
X0093Y06183*
X00931Y06183*
X00931Y06184*
X00931Y06184*
X00932Y06185*
X00932Y06185*
X00932Y06186*
X00932Y06186*
X00933Y06187*
X00933Y06187*
X00933Y06188*
X00933Y06188*
X02822Y07346D02*
D01*
X02822Y07347*
X02822Y07347*
X02822Y07348*
X02822Y07348*
X02822Y07349*
X02822Y07349*
X02822Y0735*
X02821Y0735*
X02821Y07351*
X02821Y07351*
X0282Y07352*
X0282Y07352*
X02819Y07352*
X02819Y07353*
X02818Y07353*
X02818Y07353*
X02817Y07353*
X02817Y07354*
X02816Y07354*
X02816Y07354*
X02815Y07354*
X02815Y07354*
X02814*
X02814Y07354*
X02813Y07354*
X02813Y07354*
X02812Y07354*
X02811Y07353*
X02811Y07353*
X0281Y07353*
X0281Y07353*
X0281Y07352*
X02809Y07352*
X02809Y07352*
X02808Y07351*
X02808Y07351*
X02808Y0735*
X02807Y0735*
X02807Y07349*
X02807Y07349*
X02807Y07348*
X02807Y07348*
X02807Y07347*
X02806Y07347*
X02806Y07346*
X02806Y07345*
X02807Y07345*
X02807Y07344*
X02807Y07344*
X02807Y07343*
X02807Y07343*
X02807Y07342*
X02808Y07342*
X02808Y07341*
X02808Y07341*
X02809Y0734*
X02809Y0734*
X0281Y0734*
X0281Y07339*
X0281Y07339*
X02811Y07339*
X02811Y07339*
X02812Y07338*
X02813Y07338*
X02813Y07338*
X02814Y07338*
X02814Y07338*
X02815*
X02815Y07338*
X02816Y07338*
X02816Y07338*
X02817Y07338*
X02817Y07339*
X02818Y07339*
X02818Y07339*
X02819Y07339*
X02819Y0734*
X0282Y0734*
X0282Y0734*
X02821Y07341*
X02821Y07341*
X02821Y07342*
X02822Y07342*
X02822Y07343*
X02822Y07343*
X02822Y07344*
X02822Y07344*
X02822Y07345*
X02822Y07345*
X02822Y07346*
X02724Y06952D02*
D01*
X02724Y06953*
X02724Y06953*
X02724Y06954*
X02724Y06954*
X02724Y06955*
X02723Y06956*
X02723Y06956*
X02723Y06956*
X02723Y06957*
X02722Y06957*
X02722Y06958*
X02721Y06958*
X02721Y06959*
X02721Y06959*
X0272Y06959*
X0272Y06959*
X02719Y0696*
X02719Y0696*
X02718Y0696*
X02717Y0696*
X02717Y0696*
X02716Y0696*
X02716*
X02715Y0696*
X02715Y0696*
X02714Y0696*
X02714Y0696*
X02713Y0696*
X02713Y06959*
X02712Y06959*
X02712Y06959*
X02711Y06959*
X02711Y06958*
X0271Y06958*
X0271Y06957*
X0271Y06957*
X02709Y06956*
X02709Y06956*
X02709Y06956*
X02709Y06955*
X02708Y06954*
X02708Y06954*
X02708Y06953*
X02708Y06953*
X02708Y06952*
X02708Y06952*
X02708Y06951*
X02708Y06951*
X02708Y0695*
X02709Y0695*
X02709Y06949*
X02709Y06949*
X02709Y06948*
X0271Y06948*
X0271Y06947*
X0271Y06947*
X02711Y06946*
X02711Y06946*
X02712Y06946*
X02712Y06945*
X02713Y06945*
X02713Y06945*
X02714Y06945*
X02714Y06944*
X02715Y06944*
X02715Y06944*
X02716Y06944*
X02716*
X02717Y06944*
X02717Y06944*
X02718Y06944*
X02719Y06945*
X02719Y06945*
X0272Y06945*
X0272Y06945*
X02721Y06946*
X02721Y06946*
X02721Y06946*
X02722Y06947*
X02722Y06947*
X02723Y06948*
X02723Y06948*
X02723Y06949*
X02723Y06949*
X02724Y0695*
X02724Y0695*
X02724Y06951*
X02724Y06951*
X02724Y06952*
X02724Y06952*
X02567Y00905D02*
D01*
X02567Y00906*
X02566Y00906*
X02566Y00907*
X02566Y00907*
X02566Y00908*
X02566Y00908*
X02566Y00909*
X02565Y00909*
X02565Y0091*
X02565Y0091*
X02564Y00911*
X02564Y00911*
X02563Y00911*
X02563Y00912*
X02563Y00912*
X02562Y00912*
X02562Y00912*
X02561Y00913*
X0256Y00913*
X0256Y00913*
X02559Y00913*
X02559Y00913*
X02558*
X02558Y00913*
X02557Y00913*
X02557Y00913*
X02556Y00913*
X02556Y00912*
X02555Y00912*
X02555Y00912*
X02554Y00912*
X02554Y00911*
X02553Y00911*
X02553Y00911*
X02552Y0091*
X02552Y0091*
X02552Y00909*
X02551Y00909*
X02551Y00908*
X02551Y00908*
X02551Y00907*
X02551Y00907*
X02551Y00906*
X02551Y00906*
X02551Y00905*
X02551Y00904*
X02551Y00904*
X02551Y00903*
X02551Y00903*
X02551Y00902*
X02551Y00902*
X02551Y00901*
X02552Y00901*
X02552Y009*
X02552Y009*
X02553Y00899*
X02553Y00899*
X02554Y00899*
X02554Y00898*
X02555Y00898*
X02555Y00898*
X02556Y00898*
X02556Y00897*
X02557Y00897*
X02557Y00897*
X02558Y00897*
X02558Y00897*
X02559*
X02559Y00897*
X0256Y00897*
X0256Y00897*
X02561Y00897*
X02562Y00898*
X02562Y00898*
X02563Y00898*
X02563Y00898*
X02563Y00899*
X02564Y00899*
X02564Y00899*
X02565Y009*
X02565Y009*
X02565Y00901*
X02566Y00901*
X02566Y00902*
X02566Y00902*
X02566Y00903*
X02566Y00903*
X02566Y00904*
X02567Y00904*
X02567Y00905*
Y01299D02*
D01*
X02567Y01299*
X02566Y013*
X02566Y013*
X02566Y01301*
X02566Y01301*
X02566Y01302*
X02566Y01302*
X02565Y01303*
X02565Y01303*
X02565Y01304*
X02564Y01304*
X02564Y01305*
X02563Y01305*
X02563Y01305*
X02563Y01306*
X02562Y01306*
X02562Y01306*
X02561Y01306*
X0256Y01306*
X0256Y01307*
X02559Y01307*
X02559Y01307*
X02558*
X02558Y01307*
X02557Y01307*
X02557Y01306*
X02556Y01306*
X02556Y01306*
X02555Y01306*
X02555Y01306*
X02554Y01305*
X02554Y01305*
X02553Y01305*
X02553Y01304*
X02552Y01304*
X02552Y01303*
X02552Y01303*
X02551Y01302*
X02551Y01302*
X02551Y01301*
X02551Y01301*
X02551Y013*
X02551Y013*
X02551Y01299*
X02551Y01299*
X02551Y01298*
X02551Y01298*
X02551Y01297*
X02551Y01297*
X02551Y01296*
X02551Y01295*
X02551Y01295*
X02552Y01294*
X02552Y01294*
X02552Y01294*
X02553Y01293*
X02553Y01293*
X02554Y01292*
X02554Y01292*
X02555Y01292*
X02555Y01292*
X02556Y01291*
X02556Y01291*
X02557Y01291*
X02557Y01291*
X02558Y01291*
X02558Y01291*
X02559*
X02559Y01291*
X0256Y01291*
X0256Y01291*
X02561Y01291*
X02562Y01291*
X02562Y01292*
X02563Y01292*
X02563Y01292*
X02563Y01292*
X02564Y01293*
X02564Y01293*
X02565Y01294*
X02565Y01294*
X02565Y01294*
X02566Y01295*
X02566Y01295*
X02566Y01296*
X02566Y01297*
X02566Y01297*
X02566Y01298*
X02567Y01298*
X02567Y01299*
X0048Y00905D02*
D01*
X0048Y00906*
X0048Y00906*
X0048Y00907*
X0048Y00907*
X00479Y00908*
X00479Y00908*
X00479Y00909*
X00479Y00909*
X00478Y0091*
X00478Y0091*
X00478Y00911*
X00477Y00911*
X00477Y00911*
X00476Y00912*
X00476Y00912*
X00475Y00912*
X00475Y00912*
X00474Y00913*
X00474Y00913*
X00473Y00913*
X00473Y00913*
X00472Y00913*
X00472*
X00471Y00913*
X00471Y00913*
X0047Y00913*
X00469Y00913*
X00469Y00912*
X00468Y00912*
X00468Y00912*
X00467Y00912*
X00467Y00911*
X00467Y00911*
X00466Y00911*
X00466Y0091*
X00465Y0091*
X00465Y00909*
X00465Y00909*
X00465Y00908*
X00464Y00908*
X00464Y00907*
X00464Y00907*
X00464Y00906*
X00464Y00906*
X00464Y00905*
X00464Y00904*
X00464Y00904*
X00464Y00903*
X00464Y00903*
X00464Y00902*
X00465Y00902*
X00465Y00901*
X00465Y00901*
X00465Y009*
X00466Y009*
X00466Y00899*
X00467Y00899*
X00467Y00899*
X00467Y00898*
X00468Y00898*
X00468Y00898*
X00469Y00898*
X00469Y00897*
X0047Y00897*
X00471Y00897*
X00471Y00897*
X00472Y00897*
X00472*
X00473Y00897*
X00473Y00897*
X00474Y00897*
X00474Y00897*
X00475Y00898*
X00475Y00898*
X00476Y00898*
X00476Y00898*
X00477Y00899*
X00477Y00899*
X00478Y00899*
X00478Y009*
X00478Y009*
X00479Y00901*
X00479Y00901*
X00479Y00902*
X00479Y00902*
X0048Y00903*
X0048Y00903*
X0048Y00904*
X0048Y00904*
X0048Y00905*
Y01299D02*
D01*
X0048Y01299*
X0048Y013*
X0048Y013*
X0048Y01301*
X00479Y01301*
X00479Y01302*
X00479Y01302*
X00479Y01303*
X00478Y01303*
X00478Y01304*
X00478Y01304*
X00477Y01305*
X00477Y01305*
X00476Y01305*
X00476Y01306*
X00475Y01306*
X00475Y01306*
X00474Y01306*
X00474Y01306*
X00473Y01307*
X00473Y01307*
X00472Y01307*
X00472*
X00471Y01307*
X00471Y01307*
X0047Y01306*
X00469Y01306*
X00469Y01306*
X00468Y01306*
X00468Y01306*
X00467Y01305*
X00467Y01305*
X00467Y01305*
X00466Y01304*
X00466Y01304*
X00465Y01303*
X00465Y01303*
X00465Y01302*
X00465Y01302*
X00464Y01301*
X00464Y01301*
X00464Y013*
X00464Y013*
X00464Y01299*
X00464Y01299*
X00464Y01298*
X00464Y01298*
X00464Y01297*
X00464Y01297*
X00464Y01296*
X00465Y01295*
X00465Y01295*
X00465Y01294*
X00465Y01294*
X00466Y01294*
X00466Y01293*
X00467Y01293*
X00467Y01292*
X00467Y01292*
X00468Y01292*
X00468Y01292*
X00469Y01291*
X00469Y01291*
X0047Y01291*
X00471Y01291*
X00471Y01291*
X00472Y01291*
X00472*
X00473Y01291*
X00473Y01291*
X00474Y01291*
X00474Y01291*
X00475Y01291*
X00475Y01292*
X00476Y01292*
X00476Y01292*
X00477Y01292*
X00477Y01293*
X00478Y01293*
X00478Y01294*
X00478Y01294*
X00479Y01294*
X00479Y01295*
X00479Y01295*
X00479Y01296*
X0048Y01297*
X0048Y01297*
X0048Y01298*
X0048Y01298*
X0048Y01299*
G54D125*
X02563Y00905D02*
D01*
X02563Y00905*
X02563Y00906*
X02562Y00906*
X02562Y00906*
X02562Y00906*
X02562Y00907*
X02562Y00907*
X02562Y00907*
X02562Y00907*
X02562Y00908*
X02561Y00908*
X02561Y00908*
X02561Y00908*
X02561Y00908*
X02561Y00908*
X0256Y00909*
X0256Y00909*
X0256Y00909*
X0256Y00909*
X02559Y00909*
X02559Y00909*
X02559Y00909*
X02558*
X02558Y00909*
X02558Y00909*
X02558Y00909*
X02557Y00909*
X02557Y00909*
X02557Y00909*
X02557Y00908*
X02556Y00908*
X02556Y00908*
X02556Y00908*
X02556Y00908*
X02555Y00908*
X02555Y00907*
X02555Y00907*
X02555Y00907*
X02555Y00907*
X02555Y00906*
X02555Y00906*
X02555Y00906*
X02555Y00906*
X02555Y00905*
X02555Y00905*
X02555Y00905*
X02555Y00904*
X02555Y00904*
X02555Y00904*
X02555Y00904*
X02555Y00903*
X02555Y00903*
X02555Y00903*
X02555Y00903*
X02555Y00902*
X02556Y00902*
X02556Y00902*
X02556Y00902*
X02556Y00902*
X02557Y00902*
X02557Y00901*
X02557Y00901*
X02557Y00901*
X02558Y00901*
X02558Y00901*
X02558Y00901*
X02558Y00901*
X02559*
X02559Y00901*
X02559Y00901*
X0256Y00901*
X0256Y00901*
X0256Y00901*
X0256Y00901*
X02561Y00902*
X02561Y00902*
X02561Y00902*
X02561Y00902*
X02561Y00902*
X02562Y00902*
X02562Y00903*
X02562Y00903*
X02562Y00903*
X02562Y00903*
X02562Y00904*
X02562Y00904*
X02562Y00904*
X02563Y00904*
X02563Y00905*
X02563Y00905*
Y01299D02*
D01*
X02563Y01299*
X02563Y01299*
X02562Y013*
X02562Y013*
X02562Y013*
X02562Y013*
X02562Y01301*
X02562Y01301*
X02562Y01301*
X02562Y01301*
X02561Y01301*
X02561Y01302*
X02561Y01302*
X02561Y01302*
X02561Y01302*
X0256Y01302*
X0256Y01302*
X0256Y01303*
X0256Y01303*
X02559Y01303*
X02559Y01303*
X02559Y01303*
X02558*
X02558Y01303*
X02558Y01303*
X02558Y01303*
X02557Y01303*
X02557Y01302*
X02557Y01302*
X02557Y01302*
X02556Y01302*
X02556Y01302*
X02556Y01302*
X02556Y01301*
X02555Y01301*
X02555Y01301*
X02555Y01301*
X02555Y01301*
X02555Y013*
X02555Y013*
X02555Y013*
X02555Y013*
X02555Y01299*
X02555Y01299*
X02555Y01299*
X02555Y01298*
X02555Y01298*
X02555Y01298*
X02555Y01298*
X02555Y01297*
X02555Y01297*
X02555Y01297*
X02555Y01297*
X02555Y01296*
X02555Y01296*
X02556Y01296*
X02556Y01296*
X02556Y01296*
X02556Y01295*
X02557Y01295*
X02557Y01295*
X02557Y01295*
X02557Y01295*
X02558Y01295*
X02558Y01295*
X02558Y01295*
X02558Y01295*
X02559*
X02559Y01295*
X02559Y01295*
X0256Y01295*
X0256Y01295*
X0256Y01295*
X0256Y01295*
X02561Y01295*
X02561Y01295*
X02561Y01296*
X02561Y01296*
X02561Y01296*
X02562Y01296*
X02562Y01296*
X02562Y01297*
X02562Y01297*
X02562Y01297*
X02562Y01297*
X02562Y01298*
X02562Y01298*
X02563Y01298*
X02563Y01298*
X02563Y01299*
X00476Y00905D02*
D01*
X00476Y00905*
X00476Y00906*
X00476Y00906*
X00476Y00906*
X00476Y00906*
X00476Y00907*
X00475Y00907*
X00475Y00907*
X00475Y00907*
X00475Y00908*
X00475Y00908*
X00475Y00908*
X00474Y00908*
X00474Y00908*
X00474Y00908*
X00474Y00909*
X00473Y00909*
X00473Y00909*
X00473Y00909*
X00473Y00909*
X00472Y00909*
X00472Y00909*
X00472*
X00472Y00909*
X00471Y00909*
X00471Y00909*
X00471Y00909*
X0047Y00909*
X0047Y00909*
X0047Y00908*
X0047Y00908*
X00469Y00908*
X00469Y00908*
X00469Y00908*
X00469Y00908*
X00469Y00907*
X00469Y00907*
X00468Y00907*
X00468Y00907*
X00468Y00906*
X00468Y00906*
X00468Y00906*
X00468Y00906*
X00468Y00905*
X00468Y00905*
X00468Y00905*
X00468Y00904*
X00468Y00904*
X00468Y00904*
X00468Y00904*
X00468Y00903*
X00468Y00903*
X00469Y00903*
X00469Y00903*
X00469Y00902*
X00469Y00902*
X00469Y00902*
X00469Y00902*
X0047Y00902*
X0047Y00902*
X0047Y00901*
X0047Y00901*
X00471Y00901*
X00471Y00901*
X00471Y00901*
X00472Y00901*
X00472Y00901*
X00472*
X00472Y00901*
X00473Y00901*
X00473Y00901*
X00473Y00901*
X00473Y00901*
X00474Y00901*
X00474Y00902*
X00474Y00902*
X00474Y00902*
X00475Y00902*
X00475Y00902*
X00475Y00902*
X00475Y00903*
X00475Y00903*
X00475Y00903*
X00476Y00903*
X00476Y00904*
X00476Y00904*
X00476Y00904*
X00476Y00904*
X00476Y00905*
X00476Y00905*
Y01299D02*
D01*
X00476Y01299*
X00476Y01299*
X00476Y013*
X00476Y013*
X00476Y013*
X00476Y013*
X00475Y01301*
X00475Y01301*
X00475Y01301*
X00475Y01301*
X00475Y01301*
X00475Y01302*
X00474Y01302*
X00474Y01302*
X00474Y01302*
X00474Y01302*
X00473Y01302*
X00473Y01303*
X00473Y01303*
X00473Y01303*
X00472Y01303*
X00472Y01303*
X00472*
X00472Y01303*
X00471Y01303*
X00471Y01303*
X00471Y01303*
X0047Y01302*
X0047Y01302*
X0047Y01302*
X0047Y01302*
X00469Y01302*
X00469Y01302*
X00469Y01301*
X00469Y01301*
X00469Y01301*
X00469Y01301*
X00468Y01301*
X00468Y013*
X00468Y013*
X00468Y013*
X00468Y013*
X00468Y01299*
X00468Y01299*
X00468Y01299*
X00468Y01298*
X00468Y01298*
X00468Y01298*
X00468Y01298*
X00468Y01297*
X00468Y01297*
X00468Y01297*
X00469Y01297*
X00469Y01296*
X00469Y01296*
X00469Y01296*
X00469Y01296*
X00469Y01296*
X0047Y01295*
X0047Y01295*
X0047Y01295*
X0047Y01295*
X00471Y01295*
X00471Y01295*
X00471Y01295*
X00472Y01295*
X00472Y01295*
X00472*
X00472Y01295*
X00473Y01295*
X00473Y01295*
X00473Y01295*
X00473Y01295*
X00474Y01295*
X00474Y01295*
X00474Y01295*
X00474Y01296*
X00475Y01296*
X00475Y01296*
X00475Y01296*
X00475Y01296*
X00475Y01297*
X00475Y01297*
X00476Y01297*
X00476Y01297*
X00476Y01298*
X00476Y01298*
X00476Y01298*
X00476Y01298*
X00476Y01299*
M02*