G04*
G04 #@! TF.GenerationSoftware,Altium Limited,Altium Designer,20.0.13 (296)*
G04*
G04 Layer_Color=8388736*
%FSLAX44Y44*%
%MOMM*%
G71*
G01*
G75*
%ADD19C,0.3000*%
%ADD20R,1.1500X1.5500*%
%ADD21R,7.1500X0.6500*%
%ADD22R,1.5500X1.1500*%
%ADD23C,1.3500*%
%ADD24R,1.4500X1.5500*%
%ADD25R,1.5500X1.4500*%
%ADD26R,1.5000X1.3000*%
%ADD27R,0.5580X1.9700*%
%ADD28R,1.3500X1.8000*%
%ADD29R,3.8000X1.7500*%
%ADD30R,1.3000X1.5000*%
%ADD31R,0.9500X1.6500*%
%ADD32R,0.9500X2.0500*%
%ADD33R,1.7500X1.0000*%
%ADD34R,1.7500X1.4000*%
%ADD35R,1.7500X1.3500*%
%ADD36R,3.9500X2.1500*%
%ADD37R,1.6500X2.1500*%
%ADD38R,1.6500X1.6500*%
%ADD39C,1.6500*%
%ADD40C,2.1500*%
%ADD41C,1.9500*%
%ADD42R,1.9500X1.9500*%
%ADD43C,6.4500*%
%ADD44R,2.5500X2.5500*%
%ADD45R,2.6500X2.6500*%
%ADD46C,1.4500*%
%ADD47R,1.4500X1.4500*%
%ADD48O,2.3500X4.1500*%
%ADD49C,7.1500*%
G04:AMPARAMS|DCode=50|XSize=2.65mm|YSize=1.65mm|CornerRadius=0.45mm|HoleSize=0mm|Usage=FLASHONLY|Rotation=270.000|XOffset=0mm|YOffset=0mm|HoleType=Round|Shape=RoundedRectangle|*
%AMROUNDEDRECTD50*
21,1,2.6500,0.7500,0,0,270.0*
21,1,1.7500,1.6500,0,0,270.0*
1,1,0.9000,-0.3750,-0.8750*
1,1,0.9000,-0.3750,0.8750*
1,1,0.9000,0.3750,0.8750*
1,1,0.9000,0.3750,-0.8750*
%
%ADD50ROUNDEDRECTD50*%
G04:AMPARAMS|DCode=51|XSize=2.15mm|YSize=1.35mm|CornerRadius=0.375mm|HoleSize=0mm|Usage=FLASHONLY|Rotation=270.000|XOffset=0mm|YOffset=0mm|HoleType=Round|Shape=RoundedRectangle|*
%AMROUNDEDRECTD51*
21,1,2.1500,0.6000,0,0,270.0*
21,1,1.4000,1.3500,0,0,270.0*
1,1,0.7500,-0.3000,-0.7000*
1,1,0.7500,-0.3000,0.7000*
1,1,0.7500,0.3000,0.7000*
1,1,0.7500,0.3000,-0.7000*
%
%ADD51ROUNDEDRECTD51*%
%ADD52R,1.4500X1.4500*%
%ADD53C,1.5750*%
%ADD54C,1.2700*%
%ADD55R,1.2700X1.2700*%
%ADD56C,3.6500*%
G04:AMPARAMS|DCode=57|XSize=2.15mm|YSize=1.45mm|CornerRadius=0.4mm|HoleSize=0mm|Usage=FLASHONLY|Rotation=270.000|XOffset=0mm|YOffset=0mm|HoleType=Round|Shape=RoundedRectangle|*
%AMROUNDEDRECTD57*
21,1,2.1500,0.6500,0,0,270.0*
21,1,1.3500,1.4500,0,0,270.0*
1,1,0.8000,-0.3250,-0.6750*
1,1,0.8000,-0.3250,0.6750*
1,1,0.8000,0.3250,0.6750*
1,1,0.8000,0.3250,-0.6750*
%
%ADD57ROUNDEDRECTD57*%
%ADD58O,4.0500X2.7500*%
%ADD59C,6.1500*%
%ADD60C,8.1500*%
%ADD61C,4.1500*%
%ADD62O,1.6500X2.1500*%
%ADD63C,2.6500*%
%ADD64C,0.7500*%
%ADD65C,1.1500*%
G36*
X806118Y515743D02*
X806233Y515715D01*
X806341Y515670D01*
X806442Y515609D01*
X806532Y515532D01*
X806609Y515442D01*
X806670Y515342D01*
X806715Y515233D01*
X806743Y515118D01*
X806752Y515000D01*
Y490000D01*
X806743Y489882D01*
X806715Y489767D01*
X806670Y489659D01*
X806609Y489558D01*
X806532Y489468D01*
X806442Y489391D01*
X806341Y489330D01*
X806233Y489285D01*
X806118Y489257D01*
X806000Y489248D01*
X795000D01*
X794945Y489252D01*
X794888Y489256D01*
X794885Y489257D01*
X794882Y489257D01*
X794829Y489270D01*
X794773Y489283D01*
X794770Y489284D01*
X794768Y489285D01*
X794716Y489306D01*
X794663Y489327D01*
X794661Y489329D01*
X794658Y489330D01*
X794610Y489359D01*
X794562Y489388D01*
X794560Y489390D01*
X794558Y489391D01*
X794515Y489428D01*
X794472Y489464D01*
X794470Y489466D01*
X794468Y489468D01*
X794431Y489511D01*
X794395Y489553D01*
X794393Y489556D01*
X794391Y489558D01*
X794361Y489607D01*
X794332Y489653D01*
X794331Y489656D01*
X794330Y489659D01*
X794308Y489711D01*
X794286Y489762D01*
X793343Y492594D01*
X790468Y495468D01*
X790466Y495470D01*
X790464Y495472D01*
X790428Y495514D01*
X790391Y495558D01*
X790390Y495560D01*
X790388Y495562D01*
X790359Y495611D01*
X790330Y495658D01*
X790329Y495661D01*
X790327Y495664D01*
X789417Y497485D01*
X786583Y499374D01*
X786583Y499374D01*
X783622Y501348D01*
X779711Y503303D01*
X776790Y504277D01*
X772907Y505248D01*
X767093D01*
X763210Y504277D01*
X760289Y503303D01*
X756378Y501348D01*
X753417Y499374D01*
X753417Y499374D01*
X750583Y497485D01*
X749673Y495664D01*
X749671Y495661D01*
X749670Y495658D01*
X749641Y495611D01*
X749612Y495562D01*
X749610Y495560D01*
X749609Y495558D01*
X749572Y495514D01*
X749536Y495472D01*
X749534Y495470D01*
X749532Y495468D01*
X746657Y492594D01*
X745714Y489762D01*
X745692Y489711D01*
X745670Y489659D01*
X745669Y489656D01*
X745668Y489653D01*
X745639Y489607D01*
X745609Y489558D01*
X745607Y489556D01*
X745605Y489553D01*
X745569Y489511D01*
X745532Y489468D01*
X745530Y489466D01*
X745528Y489464D01*
X745485Y489428D01*
X745442Y489391D01*
X745440Y489390D01*
X745437Y489388D01*
X745390Y489359D01*
X745341Y489330D01*
X745339Y489329D01*
X745336Y489327D01*
X745284Y489306D01*
X745232Y489285D01*
X745230Y489284D01*
X745227Y489283D01*
X745171Y489270D01*
X745118Y489257D01*
X745115Y489257D01*
X745112Y489256D01*
X745055Y489252D01*
X745000Y489248D01*
X734000D01*
X733882Y489257D01*
X733767Y489285D01*
X733658Y489330D01*
X733558Y489391D01*
X733468Y489468D01*
X733391Y489558D01*
X733330Y489659D01*
X733285Y489767D01*
X733257Y489882D01*
X733248Y490000D01*
Y515000D01*
X733257Y515118D01*
X733285Y515233D01*
X733330Y515342D01*
X733391Y515442D01*
X733468Y515532D01*
X733558Y515609D01*
X733658Y515670D01*
X733767Y515715D01*
X733882Y515743D01*
X734000Y515752D01*
X806000D01*
X806118Y515743D01*
D02*
G37*
G36*
Y468743D02*
X806233Y468716D01*
X806341Y468670D01*
X806442Y468609D01*
X806532Y468532D01*
X806609Y468442D01*
X806670Y468342D01*
X806715Y468232D01*
X806743Y468118D01*
X806752Y468000D01*
Y443000D01*
X806743Y442882D01*
X806715Y442767D01*
X806670Y442658D01*
X806609Y442558D01*
X806532Y442468D01*
X806442Y442391D01*
X806341Y442330D01*
X806233Y442285D01*
X806118Y442257D01*
X806000Y442248D01*
X734000D01*
X733882Y442257D01*
X733767Y442285D01*
X733658Y442330D01*
X733558Y442391D01*
X733468Y442468D01*
X733391Y442558D01*
X733330Y442658D01*
X733285Y442767D01*
X733257Y442882D01*
X733248Y443000D01*
Y468000D01*
X733257Y468118D01*
X733285Y468232D01*
X733330Y468342D01*
X733391Y468442D01*
X733468Y468532D01*
X733558Y468609D01*
X733658Y468670D01*
X733767Y468716D01*
X733882Y468743D01*
X734000Y468752D01*
X745000D01*
X745055Y468748D01*
X745112Y468744D01*
X745115Y468743D01*
X745118Y468743D01*
X745171Y468730D01*
X745227Y468717D01*
X745230Y468716D01*
X745232Y468716D01*
X745284Y468694D01*
X745336Y468673D01*
X745339Y468671D01*
X745341Y468670D01*
X745390Y468641D01*
X745437Y468612D01*
X745440Y468610D01*
X745442Y468609D01*
X745485Y468572D01*
X745528Y468536D01*
X745530Y468534D01*
X745532Y468532D01*
X745569Y468489D01*
X745605Y468447D01*
X745607Y468444D01*
X745609Y468442D01*
X745639Y468393D01*
X745668Y468347D01*
X745669Y468344D01*
X745670Y468342D01*
X745692Y468289D01*
X745714Y468238D01*
X746657Y465406D01*
X749532Y462532D01*
X749534Y462530D01*
X749536Y462528D01*
X749572Y462486D01*
X749609Y462442D01*
X749610Y462440D01*
X749612Y462438D01*
X749641Y462389D01*
X749670Y462341D01*
X749671Y462339D01*
X749673Y462337D01*
X750583Y460515D01*
X753417Y458626D01*
X753417Y458626D01*
X756378Y456652D01*
X760289Y454697D01*
X763210Y453723D01*
X767093Y452752D01*
X772907D01*
X776790Y453723D01*
X779711Y454697D01*
X783622Y456652D01*
X786583Y458626D01*
X786583Y458626D01*
X789417Y460515D01*
X790327Y462337D01*
X790329Y462339D01*
X790330Y462341D01*
X790359Y462389D01*
X790388Y462438D01*
X790390Y462440D01*
X790391Y462442D01*
X790428Y462486D01*
X790464Y462528D01*
X790466Y462530D01*
X790468Y462532D01*
X793343Y465406D01*
X794286Y468238D01*
X794308Y468289D01*
X794330Y468342D01*
X794331Y468344D01*
X794332Y468347D01*
X794361Y468393D01*
X794391Y468442D01*
X794393Y468444D01*
X794395Y468447D01*
X794431Y468489D01*
X794468Y468532D01*
X794470Y468534D01*
X794472Y468536D01*
X794515Y468572D01*
X794558Y468609D01*
X794560Y468610D01*
X794562Y468612D01*
X794610Y468641D01*
X794658Y468670D01*
X794661Y468671D01*
X794663Y468673D01*
X794716Y468694D01*
X794768Y468716D01*
X794770Y468716D01*
X794773Y468717D01*
X794829Y468730D01*
X794882Y468743D01*
X794885Y468743D01*
X794888Y468744D01*
X794945Y468748D01*
X795000Y468752D01*
X806000D01*
X806118Y468743D01*
D02*
G37*
G36*
X763118Y1004743D02*
X763232Y1004715D01*
X763342Y1004670D01*
X763442Y1004609D01*
X763532Y1004532D01*
X763609Y1004442D01*
X763670Y1004342D01*
X763716Y1004232D01*
X763743Y1004118D01*
X763752Y1004000D01*
Y979000D01*
X763743Y978882D01*
X763716Y978767D01*
X763670Y978658D01*
X763609Y978558D01*
X763532Y978468D01*
X763442Y978391D01*
X763342Y978330D01*
X763232Y978285D01*
X763118Y978257D01*
X763000Y978248D01*
X752000D01*
X751945Y978252D01*
X751888Y978256D01*
X751885Y978257D01*
X751882Y978257D01*
X751829Y978270D01*
X751773Y978283D01*
X751770Y978284D01*
X751768Y978285D01*
X751716Y978306D01*
X751664Y978327D01*
X751661Y978328D01*
X751658Y978330D01*
X751610Y978359D01*
X751562Y978388D01*
X751560Y978390D01*
X751558Y978391D01*
X751515Y978428D01*
X751472Y978464D01*
X751470Y978466D01*
X751468Y978468D01*
X751431Y978511D01*
X751395Y978553D01*
X751393Y978556D01*
X751391Y978558D01*
X751361Y978607D01*
X751332Y978653D01*
X751331Y978656D01*
X751330Y978658D01*
X751308Y978711D01*
X751286Y978762D01*
X750342Y981594D01*
X747468Y984468D01*
X747466Y984470D01*
X747464Y984472D01*
X747429Y984514D01*
X747391Y984558D01*
X747390Y984560D01*
X747388Y984562D01*
X747359Y984611D01*
X747330Y984659D01*
X747329Y984661D01*
X747327Y984663D01*
X746416Y986485D01*
X743583Y988374D01*
X743583Y988374D01*
X740622Y990348D01*
X736711Y992303D01*
X733790Y993277D01*
X729907Y994248D01*
X724093D01*
X720210Y993277D01*
X717289Y992303D01*
X713378Y990348D01*
X710417Y988374D01*
X710417Y988374D01*
X707583Y986485D01*
X706673Y984663D01*
X706671Y984661D01*
X706670Y984659D01*
X706641Y984611D01*
X706612Y984562D01*
X706610Y984560D01*
X706609Y984558D01*
X706572Y984514D01*
X706536Y984472D01*
X706534Y984470D01*
X706532Y984468D01*
X703658Y981594D01*
X702714Y978762D01*
X702692Y978711D01*
X702670Y978658D01*
X702669Y978656D01*
X702668Y978653D01*
X702639Y978607D01*
X702609Y978558D01*
X702607Y978556D01*
X702605Y978553D01*
X702569Y978511D01*
X702532Y978468D01*
X702530Y978466D01*
X702528Y978464D01*
X702485Y978428D01*
X702442Y978391D01*
X702440Y978390D01*
X702438Y978388D01*
X702390Y978359D01*
X702342Y978330D01*
X702339Y978328D01*
X702336Y978327D01*
X702284Y978306D01*
X702233Y978285D01*
X702230Y978284D01*
X702227Y978283D01*
X702171Y978270D01*
X702118Y978257D01*
X702115Y978257D01*
X702112Y978256D01*
X702055Y978252D01*
X702000Y978248D01*
X691000D01*
X690882Y978257D01*
X690768Y978285D01*
X690658Y978330D01*
X690558Y978391D01*
X690468Y978468D01*
X690391Y978558D01*
X690330Y978658D01*
X690285Y978767D01*
X690257Y978882D01*
X690248Y979000D01*
Y1004000D01*
X690257Y1004118D01*
X690285Y1004232D01*
X690330Y1004342D01*
X690391Y1004442D01*
X690468Y1004532D01*
X690558Y1004609D01*
X690658Y1004670D01*
X690768Y1004715D01*
X690882Y1004743D01*
X691000Y1004752D01*
X763000D01*
X763118Y1004743D01*
D02*
G37*
G36*
Y957743D02*
X763232Y957716D01*
X763342Y957670D01*
X763442Y957609D01*
X763532Y957532D01*
X763609Y957442D01*
X763670Y957342D01*
X763716Y957233D01*
X763743Y957118D01*
X763752Y957000D01*
Y932000D01*
X763743Y931882D01*
X763716Y931768D01*
X763670Y931658D01*
X763609Y931558D01*
X763532Y931468D01*
X763442Y931391D01*
X763342Y931330D01*
X763232Y931284D01*
X763118Y931257D01*
X763000Y931248D01*
X691000D01*
X690882Y931257D01*
X690768Y931284D01*
X690658Y931330D01*
X690558Y931391D01*
X690468Y931468D01*
X690391Y931558D01*
X690330Y931658D01*
X690285Y931768D01*
X690257Y931882D01*
X690248Y932000D01*
Y957000D01*
X690257Y957118D01*
X690285Y957233D01*
X690330Y957342D01*
X690391Y957442D01*
X690468Y957532D01*
X690558Y957609D01*
X690658Y957670D01*
X690768Y957716D01*
X690882Y957743D01*
X691000Y957752D01*
X702000D01*
X702055Y957748D01*
X702112Y957744D01*
X702115Y957743D01*
X702118Y957743D01*
X702171Y957730D01*
X702227Y957717D01*
X702230Y957716D01*
X702233Y957716D01*
X702284Y957694D01*
X702336Y957673D01*
X702339Y957671D01*
X702342Y957670D01*
X702390Y957641D01*
X702438Y957612D01*
X702440Y957610D01*
X702442Y957609D01*
X702485Y957572D01*
X702528Y957536D01*
X702530Y957534D01*
X702532Y957532D01*
X702569Y957489D01*
X702605Y957447D01*
X702607Y957444D01*
X702609Y957442D01*
X702639Y957393D01*
X702668Y957347D01*
X702669Y957344D01*
X702670Y957342D01*
X702692Y957289D01*
X702714Y957238D01*
X703658Y954406D01*
X706532Y951532D01*
X706534Y951530D01*
X706536Y951528D01*
X706572Y951486D01*
X706609Y951442D01*
X706610Y951440D01*
X706612Y951438D01*
X706641Y951389D01*
X706670Y951341D01*
X706671Y951339D01*
X706673Y951337D01*
X707583Y949515D01*
X710417Y947626D01*
X710417Y947626D01*
X713378Y945652D01*
X717289Y943697D01*
X720210Y942723D01*
X724093Y941752D01*
X729907D01*
X733790Y942723D01*
X736711Y943697D01*
X740622Y945652D01*
X743583Y947626D01*
X743583Y947626D01*
X746416Y949515D01*
X747327Y951337D01*
X747329Y951339D01*
X747330Y951341D01*
X747359Y951389D01*
X747388Y951438D01*
X747390Y951440D01*
X747391Y951442D01*
X747429Y951486D01*
X747464Y951528D01*
X747466Y951530D01*
X747468Y951532D01*
X750342Y954406D01*
X751286Y957238D01*
X751308Y957289D01*
X751330Y957342D01*
X751331Y957344D01*
X751332Y957347D01*
X751361Y957393D01*
X751391Y957442D01*
X751393Y957444D01*
X751395Y957447D01*
X751431Y957489D01*
X751468Y957532D01*
X751470Y957534D01*
X751472Y957536D01*
X751515Y957572D01*
X751558Y957609D01*
X751560Y957610D01*
X751562Y957612D01*
X751610Y957641D01*
X751658Y957670D01*
X751661Y957671D01*
X751664Y957673D01*
X751716Y957694D01*
X751768Y957716D01*
X751770Y957716D01*
X751773Y957717D01*
X751829Y957730D01*
X751882Y957743D01*
X751885Y957743D01*
X751888Y957744D01*
X751945Y957748D01*
X752000Y957752D01*
X763000D01*
X763118Y957743D01*
D02*
G37*
D19*
X770000Y451687D02*
G03*
X795000Y468000I0J27313D01*
G01*
X745000D02*
G03*
X770000Y451687I25000J11000D01*
G01*
X795000Y490000D02*
G03*
X770000Y506313I-25000J-11000D01*
G01*
D02*
G03*
X745000Y490000I0J-27313D01*
G01*
X727000Y995313D02*
G03*
X702000Y979000I0J-27313D01*
G01*
X752000D02*
G03*
X727000Y995313I-25000J-11000D01*
G01*
X702000Y957000D02*
G03*
X727000Y940687I25000J11000D01*
G01*
D02*
G03*
X752000Y957000I0J27313D01*
G01*
X734500Y468000D02*
X745000D01*
X795000D02*
X805500D01*
X734500Y490000D02*
X745000D01*
X795000D02*
X805500D01*
X752000Y957000D02*
X762500D01*
X691500D02*
X702000D01*
X691500Y979000D02*
X702000D01*
X752000D02*
X762500D01*
D20*
X738000Y1286000D02*
D03*
X762000D02*
D03*
X25000Y1571000D02*
D03*
X49000D02*
D03*
X622000Y1093000D02*
D03*
X598000D02*
D03*
X787000Y423000D02*
D03*
X763000D02*
D03*
X645000Y961000D02*
D03*
X669000D02*
D03*
X531000Y812500D02*
D03*
X555000D02*
D03*
X531000Y792500D02*
D03*
X555000D02*
D03*
X531000Y772500D02*
D03*
X555000D02*
D03*
X466000Y769500D02*
D03*
X490000D02*
D03*
X466000Y745500D02*
D03*
X490000D02*
D03*
X466000Y722500D02*
D03*
X490000D02*
D03*
X397500Y769500D02*
D03*
X421500D02*
D03*
X397500Y746500D02*
D03*
X421500D02*
D03*
X397500Y723500D02*
D03*
X421500D02*
D03*
X526000Y960000D02*
D03*
X502000D02*
D03*
X242500D02*
D03*
X218500D02*
D03*
X285000Y959000D02*
D03*
X261000D02*
D03*
X310000Y960000D02*
D03*
X334000D02*
D03*
X551000Y960000D02*
D03*
X575000D02*
D03*
X380000Y960000D02*
D03*
X356000D02*
D03*
X429000D02*
D03*
X405000D02*
D03*
X191000Y1085000D02*
D03*
X167000D02*
D03*
X452500Y960000D02*
D03*
X476500D02*
D03*
D21*
X770000Y510500D02*
D03*
Y447500D02*
D03*
X727000Y999500D02*
D03*
Y936500D02*
D03*
D22*
X532000Y177000D02*
D03*
Y201000D02*
D03*
X506000Y178000D02*
D03*
Y202000D02*
D03*
X592000Y383000D02*
D03*
Y407000D02*
D03*
X617000Y384000D02*
D03*
Y408000D02*
D03*
D23*
X586000Y1204000D02*
D03*
X528000Y1269000D02*
D03*
X540000Y237000D02*
D03*
X92250Y1156500D02*
D03*
X29000Y892000D02*
D03*
X134250Y997750D02*
D03*
X618000Y1237000D02*
D03*
X429000Y908000D02*
D03*
X397000D02*
D03*
X371000Y903000D02*
D03*
X601000Y659000D02*
D03*
X135000Y745000D02*
D03*
X262000Y794000D02*
D03*
X225000Y892500D02*
D03*
X617000Y854000D02*
D03*
X586000Y900000D02*
D03*
X640375Y877000D02*
D03*
X668000Y906000D02*
D03*
D24*
X116000Y765000D02*
D03*
X100000D02*
D03*
X354000Y788000D02*
D03*
X338000D02*
D03*
X306000Y770000D02*
D03*
X290000D02*
D03*
X661000Y580000D02*
D03*
X677000D02*
D03*
X797000Y540000D02*
D03*
X781000D02*
D03*
D25*
X91000Y1081000D02*
D03*
Y1065000D02*
D03*
X625000Y724000D02*
D03*
Y740000D02*
D03*
X167000Y881000D02*
D03*
Y865000D02*
D03*
X198000Y881000D02*
D03*
Y865000D02*
D03*
X178000Y755500D02*
D03*
Y739500D02*
D03*
X122250Y1451750D02*
D03*
Y1435750D02*
D03*
D26*
X668250Y1093500D02*
D03*
Y1111000D02*
D03*
X239000Y1087250D02*
D03*
Y1104750D02*
D03*
X286000Y1087250D02*
D03*
Y1104750D02*
D03*
X335000Y1089250D02*
D03*
Y1106750D02*
D03*
X383000Y1090250D02*
D03*
Y1107750D02*
D03*
X430000Y1090250D02*
D03*
Y1107750D02*
D03*
X479000Y1091250D02*
D03*
Y1108750D02*
D03*
X576000Y1092250D02*
D03*
Y1109750D02*
D03*
X526000Y1092250D02*
D03*
Y1109750D02*
D03*
X625000Y699750D02*
D03*
Y682250D02*
D03*
X200500Y739250D02*
D03*
Y756750D02*
D03*
X195000Y941250D02*
D03*
Y958750D02*
D03*
X220000Y1465750D02*
D03*
Y1448250D02*
D03*
D27*
X647950Y652378D02*
D03*
X660650D02*
D03*
X673350D02*
D03*
X686050D02*
D03*
Y699622D02*
D03*
X673350D02*
D03*
X660650D02*
D03*
X647950D02*
D03*
D28*
X656000Y607000D02*
D03*
X684000D02*
D03*
D29*
X232000Y557750D02*
D03*
Y494250D02*
D03*
X181998Y557751D02*
D03*
Y494251D02*
D03*
X132000Y557000D02*
D03*
Y493500D02*
D03*
D30*
X618750Y960000D02*
D03*
X601250D02*
D03*
X179750Y1497000D02*
D03*
X162250D02*
D03*
X205250Y1337000D02*
D03*
X222750D02*
D03*
D31*
X575000Y1057500D02*
D03*
X550000D02*
D03*
X549000Y991500D02*
D03*
X562000D02*
D03*
X575000D02*
D03*
X526717Y1057500D02*
D03*
X501717D02*
D03*
X500717Y991500D02*
D03*
X513717D02*
D03*
X526717D02*
D03*
X597000D02*
D03*
X622000D02*
D03*
X623000Y1057500D02*
D03*
X610000D02*
D03*
X597000D02*
D03*
X430171D02*
D03*
X405171D02*
D03*
X404171Y991500D02*
D03*
X417171D02*
D03*
X430171D02*
D03*
X238000Y1058500D02*
D03*
X213000D02*
D03*
X212000Y992500D02*
D03*
X225000D02*
D03*
X238000D02*
D03*
X285353Y1057500D02*
D03*
X260353D02*
D03*
X259353Y991500D02*
D03*
X272353D02*
D03*
X285353D02*
D03*
X333625Y1057500D02*
D03*
X308626D02*
D03*
X307626Y991500D02*
D03*
X320625D02*
D03*
X333625D02*
D03*
X381898Y1057500D02*
D03*
X356898D02*
D03*
X355898Y991500D02*
D03*
X368898D02*
D03*
X381898D02*
D03*
X478444Y1057500D02*
D03*
X453444D02*
D03*
X452444Y991500D02*
D03*
X465444D02*
D03*
X478444D02*
D03*
X165000Y992500D02*
D03*
X190000D02*
D03*
X191000Y1058500D02*
D03*
X178000D02*
D03*
X165000D02*
D03*
X670000Y1055000D02*
D03*
X645000D02*
D03*
X644000Y989000D02*
D03*
X657000D02*
D03*
X670000D02*
D03*
D32*
X152000Y1460000D02*
D03*
X165000D02*
D03*
X178000D02*
D03*
Y1368000D02*
D03*
X152000D02*
D03*
D33*
X484000Y199950D02*
D03*
Y212650D02*
D03*
Y225350D02*
D03*
Y238050D02*
D03*
X430330Y199950D02*
D03*
Y238050D02*
D03*
X569000Y393377D02*
D03*
Y406077D02*
D03*
Y418778D02*
D03*
Y431478D02*
D03*
X515330Y393377D02*
D03*
Y431478D02*
D03*
D34*
X430330Y210110D02*
D03*
X515330Y403537D02*
D03*
D35*
X430330Y227890D02*
D03*
X515330Y421317D02*
D03*
D36*
X123000Y964500D02*
D03*
D37*
X146000Y901500D02*
D03*
X123000D02*
D03*
X100000D02*
D03*
D38*
X325100Y1207100D02*
D03*
D39*
X350500D02*
D03*
X375900D02*
D03*
X401300D02*
D03*
X426700D02*
D03*
X452100D02*
D03*
X477500D02*
D03*
X502900D02*
D03*
X528300D02*
D03*
X553700D02*
D03*
Y1232500D02*
D03*
X528300D02*
D03*
X502900D02*
D03*
X477500D02*
D03*
X452100D02*
D03*
X426700D02*
D03*
X401300D02*
D03*
X375900D02*
D03*
X350500D02*
D03*
X325100D02*
D03*
X520000Y1630000D02*
D03*
X370000D02*
D03*
D40*
X239000Y95000D02*
D03*
X235000Y1572000D02*
D03*
X110000Y1820000D02*
D03*
Y1870000D02*
D03*
X35000D02*
D03*
Y1820000D02*
D03*
Y1620000D02*
D03*
X110000D02*
D03*
X500Y539250D02*
D03*
Y614250D02*
D03*
X0Y747000D02*
D03*
Y822000D02*
D03*
X468000Y1990000D02*
D03*
X520000D02*
D03*
X678000D02*
D03*
X626000D02*
D03*
X125000Y1970000D02*
D03*
X50000D02*
D03*
D41*
X715000Y1866000D02*
D03*
X740000Y1360000D02*
D03*
D42*
X690000Y1766000D02*
D03*
D43*
X580000Y1340000D02*
D03*
X160000Y1300000D02*
D03*
D44*
X700000Y1500000D02*
D03*
X600000D02*
D03*
X525000D02*
D03*
X450000D02*
D03*
D45*
X105000Y1505000D02*
D03*
X160000Y1555000D02*
D03*
X215000Y1505000D02*
D03*
X305000Y500000D02*
D03*
X580000D02*
D03*
D46*
X301000Y1414000D02*
D03*
X800000Y1585205D02*
D03*
X700000Y1656978D02*
D03*
X377000Y1519000D02*
D03*
D47*
X301000Y1514000D02*
D03*
X377000Y1419000D02*
D03*
D48*
X633000Y2095000D02*
D03*
X558000D02*
D03*
X483000D02*
D03*
X350000D02*
D03*
X275000D02*
D03*
X200000D02*
D03*
X350000Y14000D02*
D03*
X275000D02*
D03*
X200000D02*
D03*
X577000D02*
D03*
X502000D02*
D03*
X427000D02*
D03*
D49*
X270000Y720000D02*
D03*
X568000D02*
D03*
D50*
X571000Y600000D02*
D03*
X521000D02*
D03*
X471000D02*
D03*
X421000D02*
D03*
X371000D02*
D03*
X321000D02*
D03*
X271000D02*
D03*
D51*
X267000Y835000D02*
D03*
X278500Y865000D02*
D03*
X290000Y835000D02*
D03*
X301500Y865000D02*
D03*
X313000Y835000D02*
D03*
X324500Y865000D02*
D03*
X336000Y835000D02*
D03*
X347500Y865000D02*
D03*
X359000Y835000D02*
D03*
X370500Y865000D02*
D03*
X382000Y835000D02*
D03*
X393500Y865000D02*
D03*
X405000Y835000D02*
D03*
X439500Y865000D02*
D03*
X451000Y835000D02*
D03*
X485500Y865000D02*
D03*
X497000Y835000D02*
D03*
X531500Y865000D02*
D03*
X543000Y835000D02*
D03*
D52*
X700000Y1585205D02*
D03*
X800000Y1656978D02*
D03*
D53*
X322500Y1595000D02*
D03*
X562500D02*
D03*
D54*
X57500Y956150D02*
D03*
Y1006950D02*
D03*
Y1057750D02*
D03*
D55*
Y1083150D02*
D03*
D56*
X550000Y1720000D02*
D03*
X330000D02*
D03*
X550000Y1900000D02*
D03*
X330000D02*
D03*
D57*
X765000Y1360000D02*
D03*
D58*
X650000Y230000D02*
D03*
Y330000D02*
D03*
X120000Y230000D02*
D03*
Y330000D02*
D03*
D59*
X790000Y10000D02*
D03*
X341000Y1345000D02*
D03*
D60*
X790000Y2100000D02*
D03*
D61*
X-70000D02*
D03*
Y10000D02*
D03*
D62*
X77500Y820000D02*
D03*
X112500D02*
D03*
D63*
X200000Y1570000D02*
D03*
Y1770000D02*
D03*
D64*
X261422Y923172D02*
D03*
X220000Y923000D02*
D03*
X479000Y1188000D02*
D03*
X401000D02*
D03*
X774000Y1162000D02*
D03*
X358000Y1293000D02*
D03*
X786000Y1192000D02*
D03*
X790000Y1151000D02*
D03*
X788000Y408000D02*
D03*
X775000Y412000D02*
D03*
X756000Y398000D02*
D03*
X599000Y1111000D02*
D03*
X152000Y1086000D02*
D03*
X660000Y1136000D02*
D03*
X541000Y1137000D02*
D03*
X610000Y1190000D02*
D03*
X505000Y1186000D02*
D03*
X576000Y1151000D02*
D03*
X490000Y1153000D02*
D03*
X469000Y1142000D02*
D03*
X178000Y1129000D02*
D03*
X452100Y1148443D02*
D03*
X387000Y1128000D02*
D03*
X388000Y1275000D02*
D03*
X404000Y1138000D02*
D03*
X298000Y1139000D02*
D03*
X287000Y1152000D02*
D03*
X437000Y1151000D02*
D03*
X765000Y1147000D02*
D03*
X753000Y408000D02*
D03*
X736243Y1178007D02*
D03*
X636000Y610000D02*
D03*
X277000Y1339000D02*
D03*
X97750Y1451750D02*
D03*
X98000Y1435500D02*
D03*
X98250Y1192500D02*
D03*
X1750Y1159500D02*
D03*
X47500Y904500D02*
D03*
X549750Y1072250D02*
D03*
X501250D02*
D03*
X453250Y1072000D02*
D03*
X405750Y1071750D02*
D03*
X356750Y1072000D02*
D03*
X308750D02*
D03*
X260500Y1072250D02*
D03*
X623250Y1073250D02*
D03*
X645250Y1074250D02*
D03*
X212750Y1083750D02*
D03*
X99000Y1178250D02*
D03*
X303750Y1178500D02*
D03*
X182500Y1193750D02*
D03*
X94500Y1671500D02*
D03*
X110750Y1658250D02*
D03*
X283250Y1205250D02*
D03*
X249250Y943000D02*
D03*
X285000Y942000D02*
D03*
X333500Y942750D02*
D03*
X379500Y942000D02*
D03*
X429250D02*
D03*
X476250Y941250D02*
D03*
X526250Y942000D02*
D03*
X575000Y941750D02*
D03*
X314750Y924750D02*
D03*
X356000Y924000D02*
D03*
X431000Y924250D02*
D03*
X397500Y924500D02*
D03*
X500750Y923500D02*
D03*
X550500Y923250D02*
D03*
X644000Y923500D02*
D03*
X646000Y727000D02*
D03*
X696000Y742000D02*
D03*
X703000Y909000D02*
D03*
X673000Y942000D02*
D03*
X708000Y754000D02*
D03*
X625000D02*
D03*
X625498Y666498D02*
D03*
X145000Y880000D02*
D03*
X211000Y781000D02*
D03*
D65*
X-48500Y1501000D02*
D03*
X-49250Y1514500D02*
D03*
X-35750Y1501250D02*
D03*
Y1514000D02*
D03*
X123635Y965135D02*
D03*
X361000Y378000D02*
D03*
X472000Y379000D02*
D03*
X486000Y380000D02*
D03*
Y393000D02*
D03*
X472000D02*
D03*
X379000Y378000D02*
D03*
Y395000D02*
D03*
X362000D02*
D03*
X303707Y155730D02*
D03*
X288707D02*
D03*
X303707Y170730D02*
D03*
X289000Y171000D02*
D03*
M02*
