G04*
G04 #@! TF.GenerationSoftware,Altium Limited,Altium Designer,20.0.13 (296)*
G04*
G04 Layer_Color=16711935*
%FSLAX44Y44*%
%MOMM*%
G71*
G01*
G75*
%ADD26R,1.5000X1.3000*%
%ADD28R,1.3500X1.8000*%
%ADD38R,1.6500X1.6500*%
%ADD39C,1.6500*%
%ADD40C,2.1500*%
%ADD41C,1.9500*%
%ADD42R,1.9500X1.9500*%
%ADD43C,6.4500*%
%ADD44R,2.5500X2.5500*%
%ADD45R,2.6500X2.6500*%
%ADD46C,1.4500*%
%ADD47R,1.4500X1.4500*%
%ADD48O,2.3500X4.1500*%
%ADD49C,7.1500*%
G04:AMPARAMS|DCode=50|XSize=2.65mm|YSize=1.65mm|CornerRadius=0.45mm|HoleSize=0mm|Usage=FLASHONLY|Rotation=270.000|XOffset=0mm|YOffset=0mm|HoleType=Round|Shape=RoundedRectangle|*
%AMROUNDEDRECTD50*
21,1,2.6500,0.7500,0,0,270.0*
21,1,1.7500,1.6500,0,0,270.0*
1,1,0.9000,-0.3750,-0.8750*
1,1,0.9000,-0.3750,0.8750*
1,1,0.9000,0.3750,0.8750*
1,1,0.9000,0.3750,-0.8750*
%
%ADD50ROUNDEDRECTD50*%
G04:AMPARAMS|DCode=51|XSize=2.15mm|YSize=1.35mm|CornerRadius=0.375mm|HoleSize=0mm|Usage=FLASHONLY|Rotation=270.000|XOffset=0mm|YOffset=0mm|HoleType=Round|Shape=RoundedRectangle|*
%AMROUNDEDRECTD51*
21,1,2.1500,0.6000,0,0,270.0*
21,1,1.4000,1.3500,0,0,270.0*
1,1,0.7500,-0.3000,-0.7000*
1,1,0.7500,-0.3000,0.7000*
1,1,0.7500,0.3000,0.7000*
1,1,0.7500,0.3000,-0.7000*
%
%ADD51ROUNDEDRECTD51*%
%ADD52R,1.4500X1.4500*%
%ADD53C,1.5750*%
%ADD54C,1.2700*%
%ADD55R,1.2700X1.2700*%
%ADD56C,3.6500*%
G04:AMPARAMS|DCode=57|XSize=2.15mm|YSize=1.45mm|CornerRadius=0.4mm|HoleSize=0mm|Usage=FLASHONLY|Rotation=270.000|XOffset=0mm|YOffset=0mm|HoleType=Round|Shape=RoundedRectangle|*
%AMROUNDEDRECTD57*
21,1,2.1500,0.6500,0,0,270.0*
21,1,1.3500,1.4500,0,0,270.0*
1,1,0.8000,-0.3250,-0.6750*
1,1,0.8000,-0.3250,0.6750*
1,1,0.8000,0.3250,0.6750*
1,1,0.8000,0.3250,-0.6750*
%
%ADD57ROUNDEDRECTD57*%
%ADD58O,4.0500X2.7500*%
%ADD59C,6.1500*%
%ADD60C,8.1500*%
%ADD61C,4.1500*%
%ADD62O,1.6500X2.1500*%
%ADD63C,2.6500*%
%ADD64C,0.7500*%
%ADD65C,1.1500*%
%ADD120R,1.8000X1.3500*%
%ADD121R,0.9500X1.0500*%
%ADD122R,1.0500X1.1000*%
D26*
X110000Y1702750D02*
D03*
Y1685250D02*
D03*
D28*
X99000Y479000D02*
D03*
X71000D02*
D03*
X34000D02*
D03*
X6000D02*
D03*
D38*
X325100Y1207100D02*
D03*
D39*
X350500D02*
D03*
X375900D02*
D03*
X401300D02*
D03*
X426700D02*
D03*
X452100D02*
D03*
X477500D02*
D03*
X502900D02*
D03*
X528300D02*
D03*
X553700D02*
D03*
Y1232500D02*
D03*
X528300D02*
D03*
X502900D02*
D03*
X477500D02*
D03*
X452100D02*
D03*
X426700D02*
D03*
X401300D02*
D03*
X375900D02*
D03*
X350500D02*
D03*
X325100D02*
D03*
X520000Y1630000D02*
D03*
X370000D02*
D03*
D40*
X239000Y95000D02*
D03*
X235000Y1572000D02*
D03*
X110000Y1820000D02*
D03*
Y1870000D02*
D03*
X35000D02*
D03*
Y1820000D02*
D03*
Y1620000D02*
D03*
X110000D02*
D03*
X500Y539250D02*
D03*
Y614250D02*
D03*
X0Y747000D02*
D03*
Y822000D02*
D03*
X468000Y1990000D02*
D03*
X520000D02*
D03*
X678000D02*
D03*
X626000D02*
D03*
X125000Y1970000D02*
D03*
X50000D02*
D03*
D41*
X715000Y1866000D02*
D03*
X740000Y1360000D02*
D03*
D42*
X690000Y1766000D02*
D03*
D43*
X580000Y1340000D02*
D03*
X160000Y1300000D02*
D03*
D44*
X700000Y1500000D02*
D03*
X600000D02*
D03*
X525000D02*
D03*
X450000D02*
D03*
D45*
X105000Y1505000D02*
D03*
X160000Y1555000D02*
D03*
X215000Y1505000D02*
D03*
X305000Y500000D02*
D03*
X580000D02*
D03*
D46*
X301000Y1414000D02*
D03*
X800000Y1585205D02*
D03*
X700000Y1656978D02*
D03*
X377000Y1519000D02*
D03*
D47*
X301000Y1514000D02*
D03*
X377000Y1419000D02*
D03*
D48*
X633000Y2095000D02*
D03*
X558000D02*
D03*
X483000D02*
D03*
X350000D02*
D03*
X275000D02*
D03*
X200000D02*
D03*
X350000Y14000D02*
D03*
X275000D02*
D03*
X200000D02*
D03*
X577000D02*
D03*
X502000D02*
D03*
X427000D02*
D03*
D49*
X270000Y720000D02*
D03*
X568000D02*
D03*
D50*
X571000Y600000D02*
D03*
X521000D02*
D03*
X471000D02*
D03*
X421000D02*
D03*
X371000D02*
D03*
X321000D02*
D03*
X271000D02*
D03*
D51*
X267000Y835000D02*
D03*
X278500Y865000D02*
D03*
X290000Y835000D02*
D03*
X301500Y865000D02*
D03*
X313000Y835000D02*
D03*
X324500Y865000D02*
D03*
X336000Y835000D02*
D03*
X347500Y865000D02*
D03*
X359000Y835000D02*
D03*
X370500Y865000D02*
D03*
X382000Y835000D02*
D03*
X393500Y865000D02*
D03*
X405000Y835000D02*
D03*
X439500Y865000D02*
D03*
X451000Y835000D02*
D03*
X485500Y865000D02*
D03*
X497000Y835000D02*
D03*
X531500Y865000D02*
D03*
X543000Y835000D02*
D03*
D52*
X700000Y1585205D02*
D03*
X800000Y1656978D02*
D03*
D53*
X322500Y1595000D02*
D03*
X562500D02*
D03*
D54*
X57500Y956150D02*
D03*
Y1006950D02*
D03*
Y1057750D02*
D03*
D55*
Y1083150D02*
D03*
D56*
X550000Y1720000D02*
D03*
X330000D02*
D03*
X550000Y1900000D02*
D03*
X330000D02*
D03*
D57*
X765000Y1360000D02*
D03*
D58*
X650000Y230000D02*
D03*
Y330000D02*
D03*
X120000Y230000D02*
D03*
Y330000D02*
D03*
D59*
X790000Y10000D02*
D03*
X341000Y1345000D02*
D03*
D60*
X790000Y2100000D02*
D03*
D61*
X-70000D02*
D03*
Y10000D02*
D03*
D62*
X77500Y820000D02*
D03*
X112500D02*
D03*
D63*
X200000Y1570000D02*
D03*
Y1770000D02*
D03*
D64*
X261422Y923172D02*
D03*
X220000Y923000D02*
D03*
X479000Y1188000D02*
D03*
X401000D02*
D03*
X774000Y1162000D02*
D03*
X358000Y1293000D02*
D03*
X786000Y1192000D02*
D03*
X790000Y1151000D02*
D03*
X788000Y408000D02*
D03*
X775000Y412000D02*
D03*
X756000Y398000D02*
D03*
X599000Y1111000D02*
D03*
X152000Y1086000D02*
D03*
X660000Y1136000D02*
D03*
X541000Y1137000D02*
D03*
X610000Y1190000D02*
D03*
X505000Y1186000D02*
D03*
X576000Y1151000D02*
D03*
X490000Y1153000D02*
D03*
X469000Y1142000D02*
D03*
X178000Y1129000D02*
D03*
X452100Y1148443D02*
D03*
X387000Y1128000D02*
D03*
X388000Y1275000D02*
D03*
X404000Y1138000D02*
D03*
X298000Y1139000D02*
D03*
X287000Y1152000D02*
D03*
X437000Y1151000D02*
D03*
X765000Y1147000D02*
D03*
X753000Y408000D02*
D03*
X736243Y1178007D02*
D03*
X636000Y610000D02*
D03*
X277000Y1339000D02*
D03*
X97750Y1451750D02*
D03*
X98000Y1435500D02*
D03*
X98250Y1192500D02*
D03*
X1750Y1159500D02*
D03*
X47500Y904500D02*
D03*
X549750Y1072250D02*
D03*
X501250D02*
D03*
X453250Y1072000D02*
D03*
X405750Y1071750D02*
D03*
X356750Y1072000D02*
D03*
X308750D02*
D03*
X260500Y1072250D02*
D03*
X623250Y1073250D02*
D03*
X645250Y1074250D02*
D03*
X212750Y1083750D02*
D03*
X99000Y1178250D02*
D03*
X303750Y1178500D02*
D03*
X182500Y1193750D02*
D03*
X94500Y1671500D02*
D03*
X110750Y1658250D02*
D03*
X283250Y1205250D02*
D03*
X249250Y943000D02*
D03*
X285000Y942000D02*
D03*
X333500Y942750D02*
D03*
X379500Y942000D02*
D03*
X429250D02*
D03*
X476250Y941250D02*
D03*
X526250Y942000D02*
D03*
X575000Y941750D02*
D03*
X314750Y924750D02*
D03*
X356000Y924000D02*
D03*
X431000Y924250D02*
D03*
X397500Y924500D02*
D03*
X500750Y923500D02*
D03*
X550500Y923250D02*
D03*
X644000Y923500D02*
D03*
X646000Y727000D02*
D03*
X696000Y742000D02*
D03*
X703000Y909000D02*
D03*
X673000Y942000D02*
D03*
X708000Y754000D02*
D03*
X625000D02*
D03*
X625498Y666498D02*
D03*
X145000Y880000D02*
D03*
X211000Y781000D02*
D03*
D65*
X-48500Y1501000D02*
D03*
X-49250Y1514500D02*
D03*
X-35750Y1501250D02*
D03*
Y1514000D02*
D03*
X123635Y965135D02*
D03*
X361000Y378000D02*
D03*
X472000Y379000D02*
D03*
X486000Y380000D02*
D03*
Y393000D02*
D03*
X472000D02*
D03*
X379000Y378000D02*
D03*
Y395000D02*
D03*
X362000D02*
D03*
X303707Y155730D02*
D03*
X288707D02*
D03*
X303707Y170730D02*
D03*
X289000Y171000D02*
D03*
D120*
X147000Y570000D02*
D03*
Y542000D02*
D03*
X146000Y510000D02*
D03*
Y482000D02*
D03*
D121*
X75000Y1683000D02*
D03*
X84500Y1703000D02*
D03*
X65500D02*
D03*
D122*
X56250Y1654000D02*
D03*
X87750D02*
D03*
M02*
