M48
;Layer_Color=9474304
;FILE_FORMAT=2:5
INCH,LZ
;TYPE=PLATED
T1F00S00C0.01181
T2F00S00C0.02362
T3F00S00C0.03000
T4F00S00C0.03150
T5F00S00C0.03740
T6F00S00C0.03937
T7F00S00C0.04724
T8F00S00C0.05118
T9F00S00C0.06299
T10F00S00C0.07874
T11F00S00C0.11811
T12F00S00C0.15748
%
T01
X0310236Y016063
X0305118Y0162205
X0296457Y016063
X0297638Y0156693
X0149409Y0370866
X0140157Y0363779
X0131299Y0371161
X0123917Y0364075
X0112205Y0370866
X009813Y037126
X0102922Y0363454
X0086614Y0363386
X0057087Y0346457
X0018701Y0356102
X0083071Y030748
X0156496Y0363976
X0169685Y0363878
X0168996Y0370866
X01875Y0370571
X0197146Y0363583
X0207185Y0370866
X0216732Y0363484
X0226378Y0370768
X0253543Y0363583
X0264961Y0370866
X0276772Y0357874
X027874Y029685
X0274016Y0292126
X0254331Y0286221
X0246063Y029685
X0246259Y0262401
X0250394Y0240158
X0311024Y045315
X0304724Y045748
X0301181Y0451575
X0289859Y0463782
X0309449Y0469291
X0240158Y0468504
X0226772Y045315
X0212992Y0447638
X0192913Y0453937
X0184646Y0449606
X0177992Y0452143
X0172047Y045315
X0159055Y0448032
X0157874Y0467717
X0188583
X0198819Y0466929
X0197343Y0422146
X0178445Y0422047
X0159744Y0421949
X0216437Y0422146
X0245374Y0422539
X0254035Y0422933
X0259842Y0447244
X0235827Y0437402
X0152362Y0444095
X0140453Y0422047
X0121555
X0102559Y0422146
X008376Y0426673
X0059842Y0427559
X0070079Y0444488
X007185Y046998
X0038681Y0469488
X0038976Y0463878
X0000689Y0456496
X0112992Y0453543
X0117323Y0448425
X0119587Y0463976
X0111516Y0474508
X0109055Y0527165
X0140945Y0509055
X0152756Y0501968
X0038583Y0565158
X0038484Y0571555
X0043602Y0652854
X0037205Y0658071
T02
X0113664Y0061311
X011957
Y0067217
X0113779Y0067323
X0185827Y0149213
Y0154724
X0191339
Y0149606
X0149213Y0148819
Y0155512
X014252
X0142126Y0148819
X0048675Y0379974
X-0014075Y0591043
Y0596063
X-001939Y059626
X-0019094Y0590945
T03
X0022638Y0376437
Y0396437
Y0416437
Y0426437
T04
X0030512Y0322835
X0044291
X0105118Y032874
X0114173
X0123228
X0132283
X0141339
X0150394
X0145866Y0340551
X0136811
X0127756
X0118701
X0109646
X0154921
X0159449Y032874
X0177559
X0173031Y0340551
X0191142
X0195669Y032874
X0213779
X0209252Y0340551
X0148425Y0558661
X0118504Y0556693
Y0596063
X0148425Y0598032
X027559Y0624096
Y0652353
X0314961
Y0624096
T05
X0126969Y0627953
X0221457
T06
X0000197Y0212303
Y0241831
X0Y0294094
Y0323622
X0106693Y0236221
X0126378
X0146063
X0165748
X0185433
X0205118
X0224803
X0217992Y0475236
X0207992
X0197992
X0187992
X0177992
X0167992
X0157992
Y0485236
X0167992
X0177992
X0187992
X0197992
X0207992
X0217992
X0291339Y0535433
X0301181
X0147992Y0485236
Y0475236
X0137992
X0127992
Y0485236
X0137992
X0145669Y0641732
X0204724
X0049213Y0775591
X0019685
T07
X0094095Y0037402
X009252Y0618898
X0271654Y0695276
X0281496Y0734646
T08
X0228346Y019685
X0120079
X0043307Y0637795
X001378
X0177165Y0590551
X0206693
X0236221
X027559
X0266929Y0783465
X0246457
X0204724
X0184252
X0043307Y0736221
Y0716535
X001378
Y0736221
T09
X007874Y0005512
X0108268
X0137795
X016811
X0197638
X0227165
X0084646Y059252
X007874Y061811
X0062992Y0612205
X0041339Y059252
X007874Y069685
X0190157Y0824803
X0219685
X0249213
X0137795
X0108268
X007874
T10
X0255906Y0090551
Y0129921
X0047244Y0129921
Y0090551
X0129921Y0677165
X0216535
Y0748032
X0129921
T11
X0311024Y0003937
X0134252Y0529528
T12
X0311024Y0826772
M30
