G04*
G04 #@! TF.GenerationSoftware,Altium Limited,Altium Designer,20.0.13 (296)*
G04*
G04 Layer_Color=2752767*
%FSLAX44Y44*%
%MOMM*%
G71*
G01*
G75*
%ADD123C,0.0508*%
%ADD124C,0.0677*%
%ADD125C,0.0339*%
D123*
X323068Y1205068D02*
Y1209132D01*
X327132D01*
Y1205068D01*
X323068D01*
X348468D02*
Y1209132D01*
X352532D01*
Y1205068D01*
X348468D01*
X373868D02*
Y1209132D01*
X377932D01*
Y1205068D01*
X373868D01*
X399268D02*
Y1209132D01*
X403332D01*
Y1205068D01*
X399268D01*
X424668D02*
Y1209132D01*
X428732D01*
Y1205068D01*
X424668D01*
X450068D02*
Y1209132D01*
X454132D01*
Y1205068D01*
X450068D01*
X475468D02*
Y1209132D01*
X479532D01*
Y1205068D01*
X475468D01*
X500868D02*
Y1209132D01*
X504932D01*
Y1205068D01*
X500868D01*
X526268D02*
Y1209132D01*
X530332D01*
Y1205068D01*
X526268D01*
X551668D02*
Y1209132D01*
X555732D01*
Y1205068D01*
X551668D01*
Y1230468D02*
Y1234532D01*
X555732D01*
Y1230468D01*
X551668D01*
X526268D02*
Y1234532D01*
X530332D01*
Y1230468D01*
X526268D01*
X500868D02*
Y1234532D01*
X504932D01*
Y1230468D01*
X500868D01*
X475468D02*
Y1234532D01*
X479532D01*
Y1230468D01*
X475468D01*
X450068D02*
Y1234532D01*
X454132D01*
Y1230468D01*
X450068D01*
X424668D02*
Y1234532D01*
X428732D01*
Y1230468D01*
X424668D01*
X399268D02*
Y1234532D01*
X403332D01*
Y1230468D01*
X399268D01*
X373868D02*
Y1234532D01*
X377932D01*
Y1230468D01*
X373868D01*
X348468D02*
Y1234532D01*
X352532D01*
Y1230468D01*
X348468D01*
X323068D02*
Y1234532D01*
X327132D01*
Y1230468D01*
X323068D01*
X110000Y1817968D02*
X107968Y1822032D01*
X112032D01*
X110000Y1817968D01*
Y1867968D02*
X107968Y1872032D01*
X112032D01*
X110000Y1867968D01*
X35000D02*
X32968Y1872032D01*
X37032D01*
X35000Y1867968D01*
Y1817968D02*
X32968Y1822032D01*
X37032D01*
X35000Y1817968D01*
Y1617968D02*
X32968Y1622032D01*
X37032D01*
X35000Y1617968D01*
X110000D02*
X107968Y1622032D01*
X112032D01*
X110000Y1617968D01*
X-1532Y537218D02*
Y541282D01*
X2532D01*
Y537218D01*
X-1532D01*
Y612218D02*
Y616282D01*
X2532D01*
Y612218D01*
X-1532D01*
X-2032Y744968D02*
Y749032D01*
X2032D01*
Y744968D01*
X-2032D01*
Y819968D02*
Y824032D01*
X2032D01*
Y819968D01*
X-2032D01*
X580000Y1337968D02*
X581016Y1338984D01*
X582032D01*
X581016Y1340000D01*
X582032Y1341016D01*
X581016D01*
X580000Y1342032D01*
X578984Y1341016D01*
X577968D01*
X578984Y1340000D01*
X577968Y1338984D01*
X578984D01*
X580000Y1337968D01*
X700000Y1497968D02*
X697968Y1502032D01*
X702032D01*
X700000Y1497968D01*
X600000D02*
X597968Y1502032D01*
X602032D01*
X600000Y1497968D01*
X525000D02*
X522968Y1502032D01*
X527032D01*
X525000Y1497968D01*
X450000D02*
X447968Y1502032D01*
X452032D01*
X450000Y1497968D01*
X160000Y1297968D02*
X161016Y1298984D01*
X162032D01*
X161016Y1300000D01*
X162032Y1301016D01*
X161016D01*
X160000Y1302032D01*
X158984Y1301016D01*
X157968D01*
X158984Y1300000D01*
X157968Y1298984D01*
X158984D01*
X160000Y1297968D01*
X102968Y1502968D02*
X103984Y1505000D01*
X102968Y1507032D01*
X105000Y1506016D01*
X107032Y1507032D01*
X106016Y1505000D01*
X107032Y1502968D01*
X105000Y1503984D01*
X102968Y1502968D01*
X157968Y1552968D02*
X158984Y1555000D01*
X157968Y1557032D01*
X160000Y1556016D01*
X162032Y1557032D01*
X161016Y1555000D01*
X162032Y1552968D01*
X160000Y1553984D01*
X157968Y1552968D01*
X212968Y1502968D02*
X213984Y1505000D01*
X212968Y1507032D01*
X215000Y1506016D01*
X217032Y1507032D01*
X216016Y1505000D01*
X217032Y1502968D01*
X215000Y1503984D01*
X212968Y1502968D01*
X299984Y1412984D02*
Y1411968D01*
X302016D01*
Y1412984D01*
X303032D01*
Y1415016D01*
X302016D01*
Y1416032D01*
X299984D01*
Y1415016D01*
X298968D01*
Y1412984D01*
X299984D01*
Y1512984D02*
Y1511968D01*
X302016D01*
Y1512984D01*
X303032D01*
Y1515016D01*
X302016D01*
Y1516032D01*
X299984D01*
Y1515016D01*
X298968D01*
Y1512984D01*
X299984D01*
X468000Y1987968D02*
X465968Y1992032D01*
X470032D01*
X468000Y1987968D01*
X520000D02*
X517968Y1992032D01*
X522032D01*
X520000Y1987968D01*
X678000D02*
X675968Y1992032D01*
X680032D01*
X678000Y1987968D01*
X626000D02*
X623968Y1992032D01*
X628032D01*
X626000Y1987968D01*
X630968Y2092968D02*
X631984Y2095000D01*
X630968Y2097032D01*
X633000Y2096016D01*
X635032Y2097032D01*
X634016Y2095000D01*
X635032Y2092968D01*
X633000Y2093984D01*
X630968Y2092968D01*
X555968D02*
X556984Y2095000D01*
X555968Y2097032D01*
X558000Y2096016D01*
X560032Y2097032D01*
X559016Y2095000D01*
X560032Y2092968D01*
X558000Y2093984D01*
X555968Y2092968D01*
X480968D02*
X481984Y2095000D01*
X480968Y2097032D01*
X483000Y2096016D01*
X485032Y2097032D01*
X484016Y2095000D01*
X485032Y2092968D01*
X483000Y2093984D01*
X480968Y2092968D01*
X347968D02*
X348984Y2095000D01*
X347968Y2097032D01*
X350000Y2096016D01*
X352032Y2097032D01*
X351016Y2095000D01*
X352032Y2092968D01*
X350000Y2093984D01*
X347968Y2092968D01*
X272968D02*
X273984Y2095000D01*
X272968Y2097032D01*
X275000Y2096016D01*
X277032Y2097032D01*
X276016Y2095000D01*
X277032Y2092968D01*
X275000Y2093984D01*
X272968Y2092968D01*
X197968D02*
X198984Y2095000D01*
X197968Y2097032D01*
X200000Y2096016D01*
X202032Y2097032D01*
X201016Y2095000D01*
X202032Y2092968D01*
X200000Y2093984D01*
X197968Y2092968D01*
X270000Y717968D02*
X271016Y718984D01*
X272032D01*
X271016Y720000D01*
X272032Y721016D01*
X271016D01*
X270000Y722032D01*
X268984Y721016D01*
X267968D01*
X268984Y720000D01*
X267968Y718984D01*
X268984D01*
X270000Y717968D01*
X568000D02*
X569016Y718984D01*
X570032D01*
X569016Y720000D01*
X570032Y721016D01*
X569016D01*
X568000Y722032D01*
X566984Y721016D01*
X565968D01*
X566984Y720000D01*
X565968Y718984D01*
X566984D01*
X568000Y717968D01*
X568968Y597968D02*
Y602032D01*
X573032D01*
Y597968D01*
X568968D01*
X518968D02*
Y602032D01*
X523032D01*
Y597968D01*
X518968D01*
X468968D02*
Y602032D01*
X473032D01*
Y597968D01*
X468968D01*
X418968D02*
Y602032D01*
X423032D01*
Y597968D01*
X418968D01*
X368968D02*
Y602032D01*
X373032D01*
Y597968D01*
X368968D01*
X318968D02*
Y602032D01*
X323032D01*
Y597968D01*
X318968D01*
X268968D02*
Y602032D01*
X273032D01*
Y597968D01*
X268968D01*
X265984Y833984D02*
Y832968D01*
X268016D01*
Y833984D01*
X269032D01*
Y836016D01*
X268016D01*
Y837032D01*
X265984D01*
Y836016D01*
X264968D01*
Y833984D01*
X265984D01*
X277484Y863984D02*
Y862968D01*
X279516D01*
Y863984D01*
X280532D01*
Y866016D01*
X279516D01*
Y867032D01*
X277484D01*
Y866016D01*
X276468D01*
Y863984D01*
X277484D01*
X288984Y833984D02*
Y832968D01*
X291016D01*
Y833984D01*
X292032D01*
Y836016D01*
X291016D01*
Y837032D01*
X288984D01*
Y836016D01*
X287968D01*
Y833984D01*
X288984D01*
X300484Y863984D02*
Y862968D01*
X302516D01*
Y863984D01*
X303532D01*
Y866016D01*
X302516D01*
Y867032D01*
X300484D01*
Y866016D01*
X299468D01*
Y863984D01*
X300484D01*
X311984Y833984D02*
Y832968D01*
X314016D01*
Y833984D01*
X315032D01*
Y836016D01*
X314016D01*
Y837032D01*
X311984D01*
Y836016D01*
X310968D01*
Y833984D01*
X311984D01*
X323484Y863984D02*
Y862968D01*
X325516D01*
Y863984D01*
X326532D01*
Y866016D01*
X325516D01*
Y867032D01*
X323484D01*
Y866016D01*
X322468D01*
Y863984D01*
X323484D01*
X334984Y833984D02*
Y832968D01*
X337016D01*
Y833984D01*
X338032D01*
Y836016D01*
X337016D01*
Y837032D01*
X334984D01*
Y836016D01*
X333968D01*
Y833984D01*
X334984D01*
X346484Y863984D02*
Y862968D01*
X348516D01*
Y863984D01*
X349532D01*
Y866016D01*
X348516D01*
Y867032D01*
X346484D01*
Y866016D01*
X345468D01*
Y863984D01*
X346484D01*
X357984Y833984D02*
Y832968D01*
X360016D01*
Y833984D01*
X361032D01*
Y836016D01*
X360016D01*
Y837032D01*
X357984D01*
Y836016D01*
X356968D01*
Y833984D01*
X357984D01*
X369484Y863984D02*
Y862968D01*
X371516D01*
Y863984D01*
X372532D01*
Y866016D01*
X371516D01*
Y867032D01*
X369484D01*
Y866016D01*
X368468D01*
Y863984D01*
X369484D01*
X380984Y833984D02*
Y832968D01*
X383016D01*
Y833984D01*
X384032D01*
Y836016D01*
X383016D01*
Y837032D01*
X380984D01*
Y836016D01*
X379968D01*
Y833984D01*
X380984D01*
X392484Y863984D02*
Y862968D01*
X394516D01*
Y863984D01*
X395532D01*
Y866016D01*
X394516D01*
Y867032D01*
X392484D01*
Y866016D01*
X391468D01*
Y863984D01*
X392484D01*
X403984Y833984D02*
Y832968D01*
X406016D01*
Y833984D01*
X407032D01*
Y836016D01*
X406016D01*
Y837032D01*
X403984D01*
Y836016D01*
X402968D01*
Y833984D01*
X403984D01*
X438484Y863984D02*
Y862968D01*
X440516D01*
Y863984D01*
X441532D01*
Y866016D01*
X440516D01*
Y867032D01*
X438484D01*
Y866016D01*
X437468D01*
Y863984D01*
X438484D01*
X449984Y833984D02*
Y832968D01*
X452016D01*
Y833984D01*
X453032D01*
Y836016D01*
X452016D01*
Y837032D01*
X449984D01*
Y836016D01*
X448968D01*
Y833984D01*
X449984D01*
X484484Y863984D02*
Y862968D01*
X486516D01*
Y863984D01*
X487532D01*
Y866016D01*
X486516D01*
Y867032D01*
X484484D01*
Y866016D01*
X483468D01*
Y863984D01*
X484484D01*
X495984Y833984D02*
Y832968D01*
X498016D01*
Y833984D01*
X499032D01*
Y836016D01*
X498016D01*
Y837032D01*
X495984D01*
Y836016D01*
X494968D01*
Y833984D01*
X495984D01*
X530484Y863984D02*
Y862968D01*
X532516D01*
Y863984D01*
X533532D01*
Y866016D01*
X532516D01*
Y867032D01*
X530484D01*
Y866016D01*
X529468D01*
Y863984D01*
X530484D01*
X541984Y833984D02*
Y832968D01*
X544016D01*
Y833984D01*
X545032D01*
Y836016D01*
X544016D01*
Y837032D01*
X541984D01*
Y836016D01*
X540968D01*
Y833984D01*
X541984D01*
X798984Y1584189D02*
Y1583173D01*
X801016D01*
Y1584189D01*
X802032D01*
Y1586221D01*
X801016D01*
Y1587237D01*
X798984D01*
Y1586221D01*
X797968D01*
Y1584189D01*
X798984D01*
X698984D02*
Y1583173D01*
X701016D01*
Y1584189D01*
X702032D01*
Y1586221D01*
X701016D01*
Y1587237D01*
X698984D01*
Y1586221D01*
X697968D01*
Y1584189D01*
X698984D01*
X517968Y1627968D02*
Y1632032D01*
X522032D01*
Y1627968D01*
X517968D01*
X367968D02*
Y1632032D01*
X372032D01*
Y1627968D01*
X367968D01*
X698984Y1655961D02*
Y1654946D01*
X701016D01*
Y1655961D01*
X702032D01*
Y1657993D01*
X701016D01*
Y1659010D01*
X698984D01*
Y1657993D01*
X697968D01*
Y1655961D01*
X698984D01*
X798984D02*
Y1654946D01*
X801016D01*
Y1655961D01*
X802032D01*
Y1657993D01*
X801016D01*
Y1659010D01*
X798984D01*
Y1657993D01*
X797968D01*
Y1655961D01*
X798984D01*
X375984Y1517984D02*
Y1516968D01*
X378016D01*
Y1517984D01*
X379032D01*
Y1520016D01*
X378016D01*
Y1521032D01*
X375984D01*
Y1520016D01*
X374968D01*
Y1517984D01*
X375984D01*
Y1417984D02*
Y1416968D01*
X378016D01*
Y1417984D01*
X379032D01*
Y1420016D01*
X378016D01*
Y1421032D01*
X375984D01*
Y1420016D01*
X374968D01*
Y1417984D01*
X375984D01*
X320468Y1592968D02*
X321484D01*
X322500Y1593984D01*
X323516Y1592968D01*
X324532D01*
Y1593984D01*
X323516Y1595000D01*
X324532Y1596016D01*
Y1597032D01*
X323516D01*
X322500Y1596016D01*
X321484Y1597032D01*
X320468D01*
Y1596016D01*
X321484Y1595000D01*
X320468Y1593984D01*
Y1592968D01*
X560468D02*
X561484D01*
X562500Y1593984D01*
X563516Y1592968D01*
X564532D01*
Y1593984D01*
X563516Y1595000D01*
X564532Y1596016D01*
Y1597032D01*
X563516D01*
X562500Y1596016D01*
X561484Y1597032D01*
X560468D01*
Y1596016D01*
X561484Y1595000D01*
X560468Y1593984D01*
Y1592968D01*
X122968Y1967968D02*
Y1972032D01*
X127032D01*
Y1967968D01*
X122968D01*
X47968D02*
Y1972032D01*
X52032D01*
Y1967968D01*
X47968D01*
X305000Y497968D02*
X302968Y502032D01*
X307032D01*
X305000Y497968D01*
X580000D02*
X577968Y502032D01*
X582032D01*
X580000Y497968D01*
X55468Y956150D02*
X57500Y958182D01*
X59532Y956150D01*
X57500Y954118D01*
X55468Y956150D01*
Y1006950D02*
X57500Y1008982D01*
X59532Y1006950D01*
X57500Y1004918D01*
X55468Y1006950D01*
Y1057750D02*
X57500Y1059782D01*
X59532Y1057750D01*
X57500Y1055718D01*
X55468Y1057750D01*
Y1083150D02*
X57500Y1085182D01*
X59532Y1083150D01*
X57500Y1081118D01*
X55468Y1083150D01*
X547968Y1717968D02*
Y1722032D01*
X552032D01*
Y1717968D01*
X547968D01*
X548984Y1718984D02*
Y1721016D01*
X551016D01*
Y1718984D01*
X548984D01*
X327968Y1717968D02*
Y1722032D01*
X332032D01*
Y1717968D01*
X327968D01*
X328984Y1718984D02*
Y1721016D01*
X331016D01*
Y1718984D01*
X328984D01*
X547968Y1897968D02*
Y1902032D01*
X552032D01*
Y1897968D01*
X547968D01*
X548984Y1898984D02*
Y1901016D01*
X551016D01*
Y1898984D01*
X548984D01*
X327968Y1897968D02*
Y1902032D01*
X332032D01*
Y1897968D01*
X327968D01*
X328984Y1898984D02*
Y1901016D01*
X331016D01*
Y1898984D01*
X328984D01*
X347968Y11968D02*
X348984Y14000D01*
X347968Y16032D01*
X350000Y15016D01*
X352032Y16032D01*
X351016Y14000D01*
X352032Y11968D01*
X350000Y12984D01*
X347968Y11968D01*
X272968D02*
X273984Y14000D01*
X272968Y16032D01*
X275000Y15016D01*
X277032Y16032D01*
X276016Y14000D01*
X277032Y11968D01*
X275000Y12984D01*
X272968Y11968D01*
X197968D02*
X198984Y14000D01*
X197968Y16032D01*
X200000Y15016D01*
X202032Y16032D01*
X201016Y14000D01*
X202032Y11968D01*
X200000Y12984D01*
X197968Y11968D01*
X574968D02*
X575984Y14000D01*
X574968Y16032D01*
X577000Y15016D01*
X579032Y16032D01*
X578016Y14000D01*
X579032Y11968D01*
X577000Y12984D01*
X574968Y11968D01*
X499968D02*
X500984Y14000D01*
X499968Y16032D01*
X502000Y15016D01*
X504032Y16032D01*
X503016Y14000D01*
X504032Y11968D01*
X502000Y12984D01*
X499968Y11968D01*
X424968D02*
X425984Y14000D01*
X424968Y16032D01*
X427000Y15016D01*
X429032Y16032D01*
X428016Y14000D01*
X429032Y11968D01*
X427000Y12984D01*
X424968Y11968D01*
X762968Y1357968D02*
Y1362032D01*
X767032D01*
Y1357968D01*
X762968D01*
X737968D02*
Y1362032D01*
X742032D01*
Y1357968D01*
X737968D01*
X790000Y7968D02*
X787968Y12032D01*
X792032D01*
X790000Y7968D01*
Y8984D02*
X788984Y11016D01*
X791016D01*
X790000Y8984D01*
Y2097968D02*
X791016Y2098984D01*
X792032D01*
X791016Y2100000D01*
X792032Y2101016D01*
X791016D01*
X790000Y2102032D01*
X788984Y2101016D01*
X787968D01*
X788984Y2100000D01*
X787968Y2098984D01*
X788984D01*
X790000Y2097968D01*
Y2098984D02*
X790508Y2099492D01*
X791016D01*
X790508Y2100000D01*
X791016Y2100508D01*
X790508D01*
X790000Y2101016D01*
X789492Y2100508D01*
X788984D01*
X789492Y2100000D01*
X788984Y2099492D01*
X789492D01*
X790000Y2098984D01*
X-72032Y2097968D02*
X-71016Y2100000D01*
X-72032Y2102032D01*
X-70000Y2101016D01*
X-67968Y2102032D01*
X-68984Y2100000D01*
X-67968Y2097968D01*
X-70000Y2098984D01*
X-72032Y2097968D01*
X-71016Y2098984D02*
X-70508Y2100000D01*
X-71016Y2101016D01*
X-70000Y2100508D01*
X-68984Y2101016D01*
X-69492Y2100000D01*
X-68984Y2098984D01*
X-70000Y2099492D01*
X-71016Y2098984D01*
X-72032Y7968D02*
X-71016Y10000D01*
X-72032Y12032D01*
X-70000Y11016D01*
X-67968Y12032D01*
X-68984Y10000D01*
X-67968Y7968D01*
X-70000Y8984D01*
X-72032Y7968D01*
X-71016Y8984D02*
X-70508Y10000D01*
X-71016Y11016D01*
X-70000Y10508D01*
X-68984Y11016D01*
X-69492Y10000D01*
X-68984Y8984D01*
X-70000Y9492D01*
X-71016Y8984D01*
X341000Y1342968D02*
X338968Y1347032D01*
X343032D01*
X341000Y1342968D01*
Y1343984D02*
X339984Y1346016D01*
X342016D01*
X341000Y1343984D01*
X76484Y818984D02*
Y817968D01*
X78516D01*
Y818984D01*
X79532D01*
Y821016D01*
X78516D01*
Y822032D01*
X76484D01*
Y821016D01*
X75468D01*
Y818984D01*
X76484D01*
X111484D02*
Y817968D01*
X113516D01*
Y818984D01*
X114532D01*
Y821016D01*
X113516D01*
Y822032D01*
X111484D01*
Y821016D01*
X110468D01*
Y818984D01*
X111484D01*
X197968Y1567968D02*
X198984Y1570000D01*
X197968Y1572032D01*
X200000Y1571016D01*
X202032Y1572032D01*
X201016Y1570000D01*
X202032Y1567968D01*
X200000Y1568984D01*
X197968Y1567968D01*
Y1767968D02*
X198984Y1770000D01*
X197968Y1772032D01*
X200000Y1771016D01*
X202032Y1772032D01*
X201016Y1770000D01*
X202032Y1767968D01*
X200000Y1768984D01*
X197968Y1767968D01*
X260406Y922156D02*
Y921140D01*
X262438D01*
Y922156D01*
X263454D01*
Y924188D01*
X262438D01*
Y925204D01*
X260406D01*
Y924188D01*
X259390D01*
Y922156D01*
X260406D01*
X260914Y922664D02*
Y922156D01*
X261930D01*
Y922664D01*
X262438D01*
Y923680D01*
X261930D01*
Y924188D01*
X260914D01*
Y923680D01*
X260406D01*
Y922664D01*
X260914D01*
X218984Y921984D02*
Y920968D01*
X221016D01*
Y921984D01*
X222032D01*
Y924016D01*
X221016D01*
Y925032D01*
X218984D01*
Y924016D01*
X217968D01*
Y921984D01*
X218984D01*
X219492Y922492D02*
Y921984D01*
X220508D01*
Y922492D01*
X221016D01*
Y923508D01*
X220508D01*
Y924016D01*
X219492D01*
Y923508D01*
X218984D01*
Y922492D01*
X219492D01*
X477984Y1186984D02*
Y1185968D01*
X480016D01*
Y1186984D01*
X481032D01*
Y1189016D01*
X480016D01*
Y1190032D01*
X477984D01*
Y1189016D01*
X476968D01*
Y1186984D01*
X477984D01*
X478492Y1187492D02*
Y1186984D01*
X479508D01*
Y1187492D01*
X480016D01*
Y1188508D01*
X479508D01*
Y1189016D01*
X478492D01*
Y1188508D01*
X477984D01*
Y1187492D01*
X478492D01*
X399984Y1186984D02*
Y1185968D01*
X402016D01*
Y1186984D01*
X403032D01*
Y1189016D01*
X402016D01*
Y1190032D01*
X399984D01*
Y1189016D01*
X398968D01*
Y1186984D01*
X399984D01*
X400492Y1187492D02*
Y1186984D01*
X401508D01*
Y1187492D01*
X402016D01*
Y1188508D01*
X401508D01*
Y1189016D01*
X400492D01*
Y1188508D01*
X399984D01*
Y1187492D01*
X400492D01*
X772984Y1160984D02*
Y1159968D01*
X775016D01*
Y1160984D01*
X776032D01*
Y1163016D01*
X775016D01*
Y1164032D01*
X772984D01*
Y1163016D01*
X771968D01*
Y1160984D01*
X772984D01*
X773492Y1161492D02*
Y1160984D01*
X774508D01*
Y1161492D01*
X775016D01*
Y1162508D01*
X774508D01*
Y1163016D01*
X773492D01*
Y1162508D01*
X772984D01*
Y1161492D01*
X773492D01*
X356984Y1291984D02*
Y1290968D01*
X359016D01*
Y1291984D01*
X360032D01*
Y1294016D01*
X359016D01*
Y1295032D01*
X356984D01*
Y1294016D01*
X355968D01*
Y1291984D01*
X356984D01*
X357492Y1292492D02*
Y1291984D01*
X358508D01*
Y1292492D01*
X359016D01*
Y1293508D01*
X358508D01*
Y1294016D01*
X357492D01*
Y1293508D01*
X356984D01*
Y1292492D01*
X357492D01*
X784984Y1190984D02*
Y1189968D01*
X787016D01*
Y1190984D01*
X788032D01*
Y1193016D01*
X787016D01*
Y1194032D01*
X784984D01*
Y1193016D01*
X783968D01*
Y1190984D01*
X784984D01*
X785492Y1191492D02*
Y1190984D01*
X786508D01*
Y1191492D01*
X787016D01*
Y1192508D01*
X786508D01*
Y1193016D01*
X785492D01*
Y1192508D01*
X784984D01*
Y1191492D01*
X785492D01*
X788984Y1149984D02*
Y1148968D01*
X791016D01*
Y1149984D01*
X792032D01*
Y1152016D01*
X791016D01*
Y1153032D01*
X788984D01*
Y1152016D01*
X787968D01*
Y1149984D01*
X788984D01*
X789492Y1150492D02*
Y1149984D01*
X790508D01*
Y1150492D01*
X791016D01*
Y1151508D01*
X790508D01*
Y1152016D01*
X789492D01*
Y1151508D01*
X788984D01*
Y1150492D01*
X789492D01*
X786984Y406984D02*
Y405968D01*
X789016D01*
Y406984D01*
X790032D01*
Y409016D01*
X789016D01*
Y410032D01*
X786984D01*
Y409016D01*
X785968D01*
Y406984D01*
X786984D01*
X787492Y407492D02*
Y406984D01*
X788508D01*
Y407492D01*
X789016D01*
Y408508D01*
X788508D01*
Y409016D01*
X787492D01*
Y408508D01*
X786984D01*
Y407492D01*
X787492D01*
X773984Y410984D02*
Y409968D01*
X776016D01*
Y410984D01*
X777032D01*
Y413016D01*
X776016D01*
Y414032D01*
X773984D01*
Y413016D01*
X772968D01*
Y410984D01*
X773984D01*
X774492Y411492D02*
Y410984D01*
X775508D01*
Y411492D01*
X776016D01*
Y412508D01*
X775508D01*
Y413016D01*
X774492D01*
Y412508D01*
X773984D01*
Y411492D01*
X774492D01*
X754984Y396984D02*
Y395968D01*
X757016D01*
Y396984D01*
X758032D01*
Y399016D01*
X757016D01*
Y400032D01*
X754984D01*
Y399016D01*
X753968D01*
Y396984D01*
X754984D01*
X755492Y397492D02*
Y396984D01*
X756508D01*
Y397492D01*
X757016D01*
Y398508D01*
X756508D01*
Y399016D01*
X755492D01*
Y398508D01*
X754984D01*
Y397492D01*
X755492D01*
X597984Y1109984D02*
Y1108968D01*
X600016D01*
Y1109984D01*
X601032D01*
Y1112016D01*
X600016D01*
Y1113032D01*
X597984D01*
Y1112016D01*
X596968D01*
Y1109984D01*
X597984D01*
X598492Y1110492D02*
Y1109984D01*
X599508D01*
Y1110492D01*
X600016D01*
Y1111508D01*
X599508D01*
Y1112016D01*
X598492D01*
Y1111508D01*
X597984D01*
Y1110492D01*
X598492D01*
X150984Y1084984D02*
Y1083968D01*
X153016D01*
Y1084984D01*
X154032D01*
Y1087016D01*
X153016D01*
Y1088032D01*
X150984D01*
Y1087016D01*
X149968D01*
Y1084984D01*
X150984D01*
X151492Y1085492D02*
Y1084984D01*
X152508D01*
Y1085492D01*
X153016D01*
Y1086508D01*
X152508D01*
Y1087016D01*
X151492D01*
Y1086508D01*
X150984D01*
Y1085492D01*
X151492D01*
X658984Y1134984D02*
Y1133968D01*
X661016D01*
Y1134984D01*
X662032D01*
Y1137016D01*
X661016D01*
Y1138032D01*
X658984D01*
Y1137016D01*
X657968D01*
Y1134984D01*
X658984D01*
X659492Y1135492D02*
Y1134984D01*
X660508D01*
Y1135492D01*
X661016D01*
Y1136508D01*
X660508D01*
Y1137016D01*
X659492D01*
Y1136508D01*
X658984D01*
Y1135492D01*
X659492D01*
X539984Y1135984D02*
Y1134968D01*
X542016D01*
Y1135984D01*
X543032D01*
Y1138016D01*
X542016D01*
Y1139032D01*
X539984D01*
Y1138016D01*
X538968D01*
Y1135984D01*
X539984D01*
X540492Y1136492D02*
Y1135984D01*
X541508D01*
Y1136492D01*
X542016D01*
Y1137508D01*
X541508D01*
Y1138016D01*
X540492D01*
Y1137508D01*
X539984D01*
Y1136492D01*
X540492D01*
X608984Y1188984D02*
Y1187968D01*
X611016D01*
Y1188984D01*
X612032D01*
Y1191016D01*
X611016D01*
Y1192032D01*
X608984D01*
Y1191016D01*
X607968D01*
Y1188984D01*
X608984D01*
X609492Y1189492D02*
Y1188984D01*
X610508D01*
Y1189492D01*
X611016D01*
Y1190508D01*
X610508D01*
Y1191016D01*
X609492D01*
Y1190508D01*
X608984D01*
Y1189492D01*
X609492D01*
X503984Y1184984D02*
Y1183968D01*
X506016D01*
Y1184984D01*
X507032D01*
Y1187016D01*
X506016D01*
Y1188032D01*
X503984D01*
Y1187016D01*
X502968D01*
Y1184984D01*
X503984D01*
X504492Y1185492D02*
Y1184984D01*
X505508D01*
Y1185492D01*
X506016D01*
Y1186508D01*
X505508D01*
Y1187016D01*
X504492D01*
Y1186508D01*
X503984D01*
Y1185492D01*
X504492D01*
X574984Y1149984D02*
Y1148968D01*
X577016D01*
Y1149984D01*
X578032D01*
Y1152016D01*
X577016D01*
Y1153032D01*
X574984D01*
Y1152016D01*
X573968D01*
Y1149984D01*
X574984D01*
X575492Y1150492D02*
Y1149984D01*
X576508D01*
Y1150492D01*
X577016D01*
Y1151508D01*
X576508D01*
Y1152016D01*
X575492D01*
Y1151508D01*
X574984D01*
Y1150492D01*
X575492D01*
X488984Y1151984D02*
Y1150968D01*
X491016D01*
Y1151984D01*
X492032D01*
Y1154016D01*
X491016D01*
Y1155032D01*
X488984D01*
Y1154016D01*
X487968D01*
Y1151984D01*
X488984D01*
X489492Y1152492D02*
Y1151984D01*
X490508D01*
Y1152492D01*
X491016D01*
Y1153508D01*
X490508D01*
Y1154016D01*
X489492D01*
Y1153508D01*
X488984D01*
Y1152492D01*
X489492D01*
X467984Y1140984D02*
Y1139968D01*
X470016D01*
Y1140984D01*
X471032D01*
Y1143016D01*
X470016D01*
Y1144032D01*
X467984D01*
Y1143016D01*
X466968D01*
Y1140984D01*
X467984D01*
X468492Y1141492D02*
Y1140984D01*
X469508D01*
Y1141492D01*
X470016D01*
Y1142508D01*
X469508D01*
Y1143016D01*
X468492D01*
Y1142508D01*
X467984D01*
Y1141492D01*
X468492D01*
X176984Y1127984D02*
Y1126968D01*
X179016D01*
Y1127984D01*
X180032D01*
Y1130016D01*
X179016D01*
Y1131032D01*
X176984D01*
Y1130016D01*
X175968D01*
Y1127984D01*
X176984D01*
X177492Y1128492D02*
Y1127984D01*
X178508D01*
Y1128492D01*
X179016D01*
Y1129508D01*
X178508D01*
Y1130016D01*
X177492D01*
Y1129508D01*
X176984D01*
Y1128492D01*
X177492D01*
X451084Y1147427D02*
Y1146411D01*
X453116D01*
Y1147427D01*
X454132D01*
Y1149459D01*
X453116D01*
Y1150475D01*
X451084D01*
Y1149459D01*
X450068D01*
Y1147427D01*
X451084D01*
X451592Y1147935D02*
Y1147427D01*
X452608D01*
Y1147935D01*
X453116D01*
Y1148951D01*
X452608D01*
Y1149459D01*
X451592D01*
Y1148951D01*
X451084D01*
Y1147935D01*
X451592D01*
X385984Y1126984D02*
Y1125968D01*
X388016D01*
Y1126984D01*
X389032D01*
Y1129016D01*
X388016D01*
Y1130032D01*
X385984D01*
Y1129016D01*
X384968D01*
Y1126984D01*
X385984D01*
X386492Y1127492D02*
Y1126984D01*
X387508D01*
Y1127492D01*
X388016D01*
Y1128508D01*
X387508D01*
Y1129016D01*
X386492D01*
Y1128508D01*
X385984D01*
Y1127492D01*
X386492D01*
X386984Y1273984D02*
Y1272968D01*
X389016D01*
Y1273984D01*
X390032D01*
Y1276016D01*
X389016D01*
Y1277032D01*
X386984D01*
Y1276016D01*
X385968D01*
Y1273984D01*
X386984D01*
X387492Y1274492D02*
Y1273984D01*
X388508D01*
Y1274492D01*
X389016D01*
Y1275508D01*
X388508D01*
Y1276016D01*
X387492D01*
Y1275508D01*
X386984D01*
Y1274492D01*
X387492D01*
X402984Y1136984D02*
Y1135968D01*
X405016D01*
Y1136984D01*
X406032D01*
Y1139016D01*
X405016D01*
Y1140032D01*
X402984D01*
Y1139016D01*
X401968D01*
Y1136984D01*
X402984D01*
X403492Y1137492D02*
Y1136984D01*
X404508D01*
Y1137492D01*
X405016D01*
Y1138508D01*
X404508D01*
Y1139016D01*
X403492D01*
Y1138508D01*
X402984D01*
Y1137492D01*
X403492D01*
X296984Y1137984D02*
Y1136968D01*
X299016D01*
Y1137984D01*
X300032D01*
Y1140016D01*
X299016D01*
Y1141032D01*
X296984D01*
Y1140016D01*
X295968D01*
Y1137984D01*
X296984D01*
X297492Y1138492D02*
Y1137984D01*
X298508D01*
Y1138492D01*
X299016D01*
Y1139508D01*
X298508D01*
Y1140016D01*
X297492D01*
Y1139508D01*
X296984D01*
Y1138492D01*
X297492D01*
X285984Y1150984D02*
Y1149968D01*
X288016D01*
Y1150984D01*
X289032D01*
Y1153016D01*
X288016D01*
Y1154032D01*
X285984D01*
Y1153016D01*
X284968D01*
Y1150984D01*
X285984D01*
X286492Y1151492D02*
Y1150984D01*
X287508D01*
Y1151492D01*
X288016D01*
Y1152508D01*
X287508D01*
Y1153016D01*
X286492D01*
Y1152508D01*
X285984D01*
Y1151492D01*
X286492D01*
X435984Y1149984D02*
Y1148968D01*
X438016D01*
Y1149984D01*
X439032D01*
Y1152016D01*
X438016D01*
Y1153032D01*
X435984D01*
Y1152016D01*
X434968D01*
Y1149984D01*
X435984D01*
X436492Y1150492D02*
Y1149984D01*
X437508D01*
Y1150492D01*
X438016D01*
Y1151508D01*
X437508D01*
Y1152016D01*
X436492D01*
Y1151508D01*
X435984D01*
Y1150492D01*
X436492D01*
X763984Y1145984D02*
Y1144968D01*
X766016D01*
Y1145984D01*
X767032D01*
Y1148016D01*
X766016D01*
Y1149032D01*
X763984D01*
Y1148016D01*
X762968D01*
Y1145984D01*
X763984D01*
X764492Y1146492D02*
Y1145984D01*
X765508D01*
Y1146492D01*
X766016D01*
Y1147508D01*
X765508D01*
Y1148016D01*
X764492D01*
Y1147508D01*
X763984D01*
Y1146492D01*
X764492D01*
X751984Y406984D02*
Y405968D01*
X754016D01*
Y406984D01*
X755032D01*
Y409016D01*
X754016D01*
Y410032D01*
X751984D01*
Y409016D01*
X750968D01*
Y406984D01*
X751984D01*
X752492Y407492D02*
Y406984D01*
X753508D01*
Y407492D01*
X754016D01*
Y408508D01*
X753508D01*
Y409016D01*
X752492D01*
Y408508D01*
X751984D01*
Y407492D01*
X752492D01*
X735227Y1176991D02*
Y1175975D01*
X737259D01*
Y1176991D01*
X738275D01*
Y1179023D01*
X737259D01*
Y1180039D01*
X735227D01*
Y1179023D01*
X734211D01*
Y1176991D01*
X735227D01*
X735735Y1177499D02*
Y1176991D01*
X736751D01*
Y1177499D01*
X737259D01*
Y1178515D01*
X736751D01*
Y1179023D01*
X735735D01*
Y1178515D01*
X735227D01*
Y1177499D01*
X735735D01*
X634984Y608984D02*
Y607968D01*
X637016D01*
Y608984D01*
X638032D01*
Y611016D01*
X637016D01*
Y612032D01*
X634984D01*
Y611016D01*
X633968D01*
Y608984D01*
X634984D01*
X635492Y609492D02*
Y608984D01*
X636508D01*
Y609492D01*
X637016D01*
Y610508D01*
X636508D01*
Y611016D01*
X635492D01*
Y610508D01*
X634984D01*
Y609492D01*
X635492D01*
X275984Y1337984D02*
Y1336968D01*
X278016D01*
Y1337984D01*
X279032D01*
Y1340016D01*
X278016D01*
Y1341032D01*
X275984D01*
Y1340016D01*
X274968D01*
Y1337984D01*
X275984D01*
X276492Y1338492D02*
Y1337984D01*
X277508D01*
Y1338492D01*
X278016D01*
Y1339508D01*
X277508D01*
Y1340016D01*
X276492D01*
Y1339508D01*
X275984D01*
Y1338492D01*
X276492D01*
X-50532Y1498968D02*
X-49516D01*
X-48500Y1499984D01*
X-47484Y1498968D01*
X-46468D01*
Y1499984D01*
X-47484Y1501000D01*
X-46468Y1502016D01*
Y1503032D01*
X-47484D01*
X-48500Y1502016D01*
X-49516Y1503032D01*
X-50532D01*
Y1502016D01*
X-49516Y1501000D01*
X-50532Y1499984D01*
Y1498968D01*
X-49516Y1499984D02*
X-49008D01*
X-48500Y1500492D01*
X-47992Y1499984D01*
X-47484D01*
Y1500492D01*
X-47992Y1501000D01*
X-47484Y1501508D01*
Y1502016D01*
X-47992D01*
X-48500Y1501508D01*
X-49008Y1502016D01*
X-49516D01*
Y1501508D01*
X-49008Y1501000D01*
X-49516Y1500492D01*
Y1499984D01*
X-51282Y1512468D02*
X-50266D01*
X-49250Y1513484D01*
X-48234Y1512468D01*
X-47218D01*
Y1513484D01*
X-48234Y1514500D01*
X-47218Y1515516D01*
Y1516532D01*
X-48234D01*
X-49250Y1515516D01*
X-50266Y1516532D01*
X-51282D01*
Y1515516D01*
X-50266Y1514500D01*
X-51282Y1513484D01*
Y1512468D01*
X-50266Y1513484D02*
X-49758D01*
X-49250Y1513992D01*
X-48742Y1513484D01*
X-48234D01*
Y1513992D01*
X-48742Y1514500D01*
X-48234Y1515008D01*
Y1515516D01*
X-48742D01*
X-49250Y1515008D01*
X-49758Y1515516D01*
X-50266D01*
Y1515008D01*
X-49758Y1514500D01*
X-50266Y1513992D01*
Y1513484D01*
X-37782Y1499218D02*
X-36766D01*
X-35750Y1500234D01*
X-34734Y1499218D01*
X-33718D01*
Y1500234D01*
X-34734Y1501250D01*
X-33718Y1502266D01*
Y1503282D01*
X-34734D01*
X-35750Y1502266D01*
X-36766Y1503282D01*
X-37782D01*
Y1502266D01*
X-36766Y1501250D01*
X-37782Y1500234D01*
Y1499218D01*
X-36766Y1500234D02*
X-36258D01*
X-35750Y1500742D01*
X-35242Y1500234D01*
X-34734D01*
Y1500742D01*
X-35242Y1501250D01*
X-34734Y1501758D01*
Y1502266D01*
X-35242D01*
X-35750Y1501758D01*
X-36258Y1502266D01*
X-36766D01*
Y1501758D01*
X-36258Y1501250D01*
X-36766Y1500742D01*
Y1500234D01*
X-37782Y1511968D02*
X-36766D01*
X-35750Y1512984D01*
X-34734Y1511968D01*
X-33718D01*
Y1512984D01*
X-34734Y1514000D01*
X-33718Y1515016D01*
Y1516032D01*
X-34734D01*
X-35750Y1515016D01*
X-36766Y1516032D01*
X-37782D01*
Y1515016D01*
X-36766Y1514000D01*
X-37782Y1512984D01*
Y1511968D01*
X-36766Y1512984D02*
X-36258D01*
X-35750Y1513492D01*
X-35242Y1512984D01*
X-34734D01*
Y1513492D01*
X-35242Y1514000D01*
X-34734Y1514508D01*
Y1515016D01*
X-35242D01*
X-35750Y1514508D01*
X-36258Y1515016D01*
X-36766D01*
Y1514508D01*
X-36258Y1514000D01*
X-36766Y1513492D01*
Y1512984D01*
X96734Y1450734D02*
Y1449718D01*
X98766D01*
Y1450734D01*
X99782D01*
Y1452766D01*
X98766D01*
Y1453782D01*
X96734D01*
Y1452766D01*
X95718D01*
Y1450734D01*
X96734D01*
X97242Y1451242D02*
Y1450734D01*
X98258D01*
Y1451242D01*
X98766D01*
Y1452258D01*
X98258D01*
Y1452766D01*
X97242D01*
Y1452258D01*
X96734D01*
Y1451242D01*
X97242D01*
X96984Y1434484D02*
Y1433468D01*
X99016D01*
Y1434484D01*
X100032D01*
Y1436516D01*
X99016D01*
Y1437532D01*
X96984D01*
Y1436516D01*
X95968D01*
Y1434484D01*
X96984D01*
X97492Y1434992D02*
Y1434484D01*
X98508D01*
Y1434992D01*
X99016D01*
Y1436008D01*
X98508D01*
Y1436516D01*
X97492D01*
Y1436008D01*
X96984D01*
Y1434992D01*
X97492D01*
X97234Y1191484D02*
Y1190468D01*
X99266D01*
Y1191484D01*
X100282D01*
Y1193516D01*
X99266D01*
Y1194532D01*
X97234D01*
Y1193516D01*
X96218D01*
Y1191484D01*
X97234D01*
X97742Y1191992D02*
Y1191484D01*
X98758D01*
Y1191992D01*
X99266D01*
Y1193008D01*
X98758D01*
Y1193516D01*
X97742D01*
Y1193008D01*
X97234D01*
Y1191992D01*
X97742D01*
X734Y1158484D02*
Y1157468D01*
X2766D01*
Y1158484D01*
X3782D01*
Y1160516D01*
X2766D01*
Y1161532D01*
X734D01*
Y1160516D01*
X-282D01*
Y1158484D01*
X734D01*
X1242Y1158992D02*
Y1158484D01*
X2258D01*
Y1158992D01*
X2766D01*
Y1160008D01*
X2258D01*
Y1160516D01*
X1242D01*
Y1160008D01*
X734D01*
Y1158992D01*
X1242D01*
X46484Y903484D02*
Y902468D01*
X48516D01*
Y903484D01*
X49532D01*
Y905516D01*
X48516D01*
Y906532D01*
X46484D01*
Y905516D01*
X45468D01*
Y903484D01*
X46484D01*
X46992Y903992D02*
Y903484D01*
X48008D01*
Y903992D01*
X48516D01*
Y905008D01*
X48008D01*
Y905516D01*
X46992D01*
Y905008D01*
X46484D01*
Y903992D01*
X46992D01*
X548734Y1071234D02*
Y1070218D01*
X550766D01*
Y1071234D01*
X551782D01*
Y1073266D01*
X550766D01*
Y1074282D01*
X548734D01*
Y1073266D01*
X547718D01*
Y1071234D01*
X548734D01*
X549242Y1071742D02*
Y1071234D01*
X550258D01*
Y1071742D01*
X550766D01*
Y1072758D01*
X550258D01*
Y1073266D01*
X549242D01*
Y1072758D01*
X548734D01*
Y1071742D01*
X549242D01*
X500234Y1071234D02*
Y1070218D01*
X502266D01*
Y1071234D01*
X503282D01*
Y1073266D01*
X502266D01*
Y1074282D01*
X500234D01*
Y1073266D01*
X499218D01*
Y1071234D01*
X500234D01*
X500742Y1071742D02*
Y1071234D01*
X501758D01*
Y1071742D01*
X502266D01*
Y1072758D01*
X501758D01*
Y1073266D01*
X500742D01*
Y1072758D01*
X500234D01*
Y1071742D01*
X500742D01*
X452234Y1070984D02*
Y1069968D01*
X454266D01*
Y1070984D01*
X455282D01*
Y1073016D01*
X454266D01*
Y1074032D01*
X452234D01*
Y1073016D01*
X451218D01*
Y1070984D01*
X452234D01*
X452742Y1071492D02*
Y1070984D01*
X453758D01*
Y1071492D01*
X454266D01*
Y1072508D01*
X453758D01*
Y1073016D01*
X452742D01*
Y1072508D01*
X452234D01*
Y1071492D01*
X452742D01*
X404734Y1070734D02*
Y1069718D01*
X406766D01*
Y1070734D01*
X407782D01*
Y1072766D01*
X406766D01*
Y1073782D01*
X404734D01*
Y1072766D01*
X403718D01*
Y1070734D01*
X404734D01*
X405242Y1071242D02*
Y1070734D01*
X406258D01*
Y1071242D01*
X406766D01*
Y1072258D01*
X406258D01*
Y1072766D01*
X405242D01*
Y1072258D01*
X404734D01*
Y1071242D01*
X405242D01*
X355734Y1070984D02*
Y1069968D01*
X357766D01*
Y1070984D01*
X358782D01*
Y1073016D01*
X357766D01*
Y1074032D01*
X355734D01*
Y1073016D01*
X354718D01*
Y1070984D01*
X355734D01*
X356242Y1071492D02*
Y1070984D01*
X357258D01*
Y1071492D01*
X357766D01*
Y1072508D01*
X357258D01*
Y1073016D01*
X356242D01*
Y1072508D01*
X355734D01*
Y1071492D01*
X356242D01*
X307734Y1070984D02*
Y1069968D01*
X309766D01*
Y1070984D01*
X310782D01*
Y1073016D01*
X309766D01*
Y1074032D01*
X307734D01*
Y1073016D01*
X306718D01*
Y1070984D01*
X307734D01*
X308242Y1071492D02*
Y1070984D01*
X309258D01*
Y1071492D01*
X309766D01*
Y1072508D01*
X309258D01*
Y1073016D01*
X308242D01*
Y1072508D01*
X307734D01*
Y1071492D01*
X308242D01*
X259484Y1071234D02*
Y1070218D01*
X261516D01*
Y1071234D01*
X262532D01*
Y1073266D01*
X261516D01*
Y1074282D01*
X259484D01*
Y1073266D01*
X258468D01*
Y1071234D01*
X259484D01*
X259992Y1071742D02*
Y1071234D01*
X261008D01*
Y1071742D01*
X261516D01*
Y1072758D01*
X261008D01*
Y1073266D01*
X259992D01*
Y1072758D01*
X259484D01*
Y1071742D01*
X259992D01*
X622234Y1072234D02*
Y1071218D01*
X624266D01*
Y1072234D01*
X625282D01*
Y1074266D01*
X624266D01*
Y1075282D01*
X622234D01*
Y1074266D01*
X621218D01*
Y1072234D01*
X622234D01*
X622742Y1072742D02*
Y1072234D01*
X623758D01*
Y1072742D01*
X624266D01*
Y1073758D01*
X623758D01*
Y1074266D01*
X622742D01*
Y1073758D01*
X622234D01*
Y1072742D01*
X622742D01*
X644234Y1073234D02*
Y1072218D01*
X646266D01*
Y1073234D01*
X647282D01*
Y1075266D01*
X646266D01*
Y1076282D01*
X644234D01*
Y1075266D01*
X643218D01*
Y1073234D01*
X644234D01*
X644742Y1073742D02*
Y1073234D01*
X645758D01*
Y1073742D01*
X646266D01*
Y1074758D01*
X645758D01*
Y1075266D01*
X644742D01*
Y1074758D01*
X644234D01*
Y1073742D01*
X644742D01*
X211734Y1082734D02*
Y1081718D01*
X213766D01*
Y1082734D01*
X214782D01*
Y1084766D01*
X213766D01*
Y1085782D01*
X211734D01*
Y1084766D01*
X210718D01*
Y1082734D01*
X211734D01*
X212242Y1083242D02*
Y1082734D01*
X213258D01*
Y1083242D01*
X213766D01*
Y1084258D01*
X213258D01*
Y1084766D01*
X212242D01*
Y1084258D01*
X211734D01*
Y1083242D01*
X212242D01*
X97984Y1177234D02*
Y1176218D01*
X100016D01*
Y1177234D01*
X101032D01*
Y1179266D01*
X100016D01*
Y1180282D01*
X97984D01*
Y1179266D01*
X96968D01*
Y1177234D01*
X97984D01*
X98492Y1177742D02*
Y1177234D01*
X99508D01*
Y1177742D01*
X100016D01*
Y1178758D01*
X99508D01*
Y1179266D01*
X98492D01*
Y1178758D01*
X97984D01*
Y1177742D01*
X98492D01*
X302734Y1177484D02*
Y1176468D01*
X304766D01*
Y1177484D01*
X305782D01*
Y1179516D01*
X304766D01*
Y1180532D01*
X302734D01*
Y1179516D01*
X301718D01*
Y1177484D01*
X302734D01*
X303242Y1177992D02*
Y1177484D01*
X304258D01*
Y1177992D01*
X304766D01*
Y1179008D01*
X304258D01*
Y1179516D01*
X303242D01*
Y1179008D01*
X302734D01*
Y1177992D01*
X303242D01*
X181484Y1192734D02*
Y1191718D01*
X183516D01*
Y1192734D01*
X184532D01*
Y1194766D01*
X183516D01*
Y1195782D01*
X181484D01*
Y1194766D01*
X180468D01*
Y1192734D01*
X181484D01*
X181992Y1193242D02*
Y1192734D01*
X183008D01*
Y1193242D01*
X183516D01*
Y1194258D01*
X183008D01*
Y1194766D01*
X181992D01*
Y1194258D01*
X181484D01*
Y1193242D01*
X181992D01*
X93484Y1670484D02*
Y1669468D01*
X95516D01*
Y1670484D01*
X96532D01*
Y1672516D01*
X95516D01*
Y1673532D01*
X93484D01*
Y1672516D01*
X92468D01*
Y1670484D01*
X93484D01*
X93992Y1670992D02*
Y1670484D01*
X95008D01*
Y1670992D01*
X95516D01*
Y1672008D01*
X95008D01*
Y1672516D01*
X93992D01*
Y1672008D01*
X93484D01*
Y1670992D01*
X93992D01*
X109734Y1657234D02*
Y1656218D01*
X111766D01*
Y1657234D01*
X112782D01*
Y1659266D01*
X111766D01*
Y1660282D01*
X109734D01*
Y1659266D01*
X108718D01*
Y1657234D01*
X109734D01*
X110242Y1657742D02*
Y1657234D01*
X111258D01*
Y1657742D01*
X111766D01*
Y1658758D01*
X111258D01*
Y1659266D01*
X110242D01*
Y1658758D01*
X109734D01*
Y1657742D01*
X110242D01*
X282234Y1204234D02*
Y1203218D01*
X284266D01*
Y1204234D01*
X285282D01*
Y1206266D01*
X284266D01*
Y1207282D01*
X282234D01*
Y1206266D01*
X281218D01*
Y1204234D01*
X282234D01*
X282742Y1204742D02*
Y1204234D01*
X283758D01*
Y1204742D01*
X284266D01*
Y1205758D01*
X283758D01*
Y1206266D01*
X282742D01*
Y1205758D01*
X282234D01*
Y1204742D01*
X282742D01*
X248234Y941984D02*
Y940968D01*
X250266D01*
Y941984D01*
X251282D01*
Y944016D01*
X250266D01*
Y945032D01*
X248234D01*
Y944016D01*
X247218D01*
Y941984D01*
X248234D01*
X248742Y942492D02*
Y941984D01*
X249758D01*
Y942492D01*
X250266D01*
Y943508D01*
X249758D01*
Y944016D01*
X248742D01*
Y943508D01*
X248234D01*
Y942492D01*
X248742D01*
X283984Y940984D02*
Y939968D01*
X286016D01*
Y940984D01*
X287032D01*
Y943016D01*
X286016D01*
Y944032D01*
X283984D01*
Y943016D01*
X282968D01*
Y940984D01*
X283984D01*
X284492Y941492D02*
Y940984D01*
X285508D01*
Y941492D01*
X286016D01*
Y942508D01*
X285508D01*
Y943016D01*
X284492D01*
Y942508D01*
X283984D01*
Y941492D01*
X284492D01*
X332484Y941734D02*
Y940718D01*
X334516D01*
Y941734D01*
X335532D01*
Y943766D01*
X334516D01*
Y944782D01*
X332484D01*
Y943766D01*
X331468D01*
Y941734D01*
X332484D01*
X332992Y942242D02*
Y941734D01*
X334008D01*
Y942242D01*
X334516D01*
Y943258D01*
X334008D01*
Y943766D01*
X332992D01*
Y943258D01*
X332484D01*
Y942242D01*
X332992D01*
X378484Y940984D02*
Y939968D01*
X380516D01*
Y940984D01*
X381532D01*
Y943016D01*
X380516D01*
Y944032D01*
X378484D01*
Y943016D01*
X377468D01*
Y940984D01*
X378484D01*
X378992Y941492D02*
Y940984D01*
X380008D01*
Y941492D01*
X380516D01*
Y942508D01*
X380008D01*
Y943016D01*
X378992D01*
Y942508D01*
X378484D01*
Y941492D01*
X378992D01*
X428234Y940984D02*
Y939968D01*
X430266D01*
Y940984D01*
X431282D01*
Y943016D01*
X430266D01*
Y944032D01*
X428234D01*
Y943016D01*
X427218D01*
Y940984D01*
X428234D01*
X428742Y941492D02*
Y940984D01*
X429758D01*
Y941492D01*
X430266D01*
Y942508D01*
X429758D01*
Y943016D01*
X428742D01*
Y942508D01*
X428234D01*
Y941492D01*
X428742D01*
X475234Y940234D02*
Y939218D01*
X477266D01*
Y940234D01*
X478282D01*
Y942266D01*
X477266D01*
Y943282D01*
X475234D01*
Y942266D01*
X474218D01*
Y940234D01*
X475234D01*
X475742Y940742D02*
Y940234D01*
X476758D01*
Y940742D01*
X477266D01*
Y941758D01*
X476758D01*
Y942266D01*
X475742D01*
Y941758D01*
X475234D01*
Y940742D01*
X475742D01*
X525234Y940984D02*
Y939968D01*
X527266D01*
Y940984D01*
X528282D01*
Y943016D01*
X527266D01*
Y944032D01*
X525234D01*
Y943016D01*
X524218D01*
Y940984D01*
X525234D01*
X525742Y941492D02*
Y940984D01*
X526758D01*
Y941492D01*
X527266D01*
Y942508D01*
X526758D01*
Y943016D01*
X525742D01*
Y942508D01*
X525234D01*
Y941492D01*
X525742D01*
X573984Y940734D02*
Y939718D01*
X576016D01*
Y940734D01*
X577032D01*
Y942766D01*
X576016D01*
Y943782D01*
X573984D01*
Y942766D01*
X572968D01*
Y940734D01*
X573984D01*
X574492Y941242D02*
Y940734D01*
X575508D01*
Y941242D01*
X576016D01*
Y942258D01*
X575508D01*
Y942766D01*
X574492D01*
Y942258D01*
X573984D01*
Y941242D01*
X574492D01*
X313734Y923734D02*
Y922718D01*
X315766D01*
Y923734D01*
X316782D01*
Y925766D01*
X315766D01*
Y926782D01*
X313734D01*
Y925766D01*
X312718D01*
Y923734D01*
X313734D01*
X314242Y924242D02*
Y923734D01*
X315258D01*
Y924242D01*
X315766D01*
Y925258D01*
X315258D01*
Y925766D01*
X314242D01*
Y925258D01*
X313734D01*
Y924242D01*
X314242D01*
X354984Y922984D02*
Y921968D01*
X357016D01*
Y922984D01*
X358032D01*
Y925016D01*
X357016D01*
Y926032D01*
X354984D01*
Y925016D01*
X353968D01*
Y922984D01*
X354984D01*
X355492Y923492D02*
Y922984D01*
X356508D01*
Y923492D01*
X357016D01*
Y924508D01*
X356508D01*
Y925016D01*
X355492D01*
Y924508D01*
X354984D01*
Y923492D01*
X355492D01*
X429984Y923234D02*
Y922218D01*
X432016D01*
Y923234D01*
X433032D01*
Y925266D01*
X432016D01*
Y926282D01*
X429984D01*
Y925266D01*
X428968D01*
Y923234D01*
X429984D01*
X430492Y923742D02*
Y923234D01*
X431508D01*
Y923742D01*
X432016D01*
Y924758D01*
X431508D01*
Y925266D01*
X430492D01*
Y924758D01*
X429984D01*
Y923742D01*
X430492D01*
X396484Y923484D02*
Y922468D01*
X398516D01*
Y923484D01*
X399532D01*
Y925516D01*
X398516D01*
Y926532D01*
X396484D01*
Y925516D01*
X395468D01*
Y923484D01*
X396484D01*
X396992Y923992D02*
Y923484D01*
X398008D01*
Y923992D01*
X398516D01*
Y925008D01*
X398008D01*
Y925516D01*
X396992D01*
Y925008D01*
X396484D01*
Y923992D01*
X396992D01*
X499734Y922484D02*
Y921468D01*
X501766D01*
Y922484D01*
X502782D01*
Y924516D01*
X501766D01*
Y925532D01*
X499734D01*
Y924516D01*
X498718D01*
Y922484D01*
X499734D01*
X500242Y922992D02*
Y922484D01*
X501258D01*
Y922992D01*
X501766D01*
Y924008D01*
X501258D01*
Y924516D01*
X500242D01*
Y924008D01*
X499734D01*
Y922992D01*
X500242D01*
X549484Y922234D02*
Y921218D01*
X551516D01*
Y922234D01*
X552532D01*
Y924266D01*
X551516D01*
Y925282D01*
X549484D01*
Y924266D01*
X548468D01*
Y922234D01*
X549484D01*
X549992Y922742D02*
Y922234D01*
X551008D01*
Y922742D01*
X551516D01*
Y923758D01*
X551008D01*
Y924266D01*
X549992D01*
Y923758D01*
X549484D01*
Y922742D01*
X549992D01*
X642984Y922484D02*
Y921468D01*
X645016D01*
Y922484D01*
X646032D01*
Y924516D01*
X645016D01*
Y925532D01*
X642984D01*
Y924516D01*
X641968D01*
Y922484D01*
X642984D01*
X643492Y922992D02*
Y922484D01*
X644508D01*
Y922992D01*
X645016D01*
Y924008D01*
X644508D01*
Y924516D01*
X643492D01*
Y924008D01*
X642984D01*
Y922992D01*
X643492D01*
X644984Y725984D02*
Y724968D01*
X647016D01*
Y725984D01*
X648032D01*
Y728016D01*
X647016D01*
Y729032D01*
X644984D01*
Y728016D01*
X643968D01*
Y725984D01*
X644984D01*
X645492Y726492D02*
Y725984D01*
X646508D01*
Y726492D01*
X647016D01*
Y727508D01*
X646508D01*
Y728016D01*
X645492D01*
Y727508D01*
X644984D01*
Y726492D01*
X645492D01*
X694984Y740984D02*
Y739968D01*
X697016D01*
Y740984D01*
X698032D01*
Y743016D01*
X697016D01*
Y744032D01*
X694984D01*
Y743016D01*
X693968D01*
Y740984D01*
X694984D01*
X695492Y741492D02*
Y740984D01*
X696508D01*
Y741492D01*
X697016D01*
Y742508D01*
X696508D01*
Y743016D01*
X695492D01*
Y742508D01*
X694984D01*
Y741492D01*
X695492D01*
X701984Y907984D02*
Y906968D01*
X704016D01*
Y907984D01*
X705032D01*
Y910016D01*
X704016D01*
Y911032D01*
X701984D01*
Y910016D01*
X700968D01*
Y907984D01*
X701984D01*
X702492Y908492D02*
Y907984D01*
X703508D01*
Y908492D01*
X704016D01*
Y909508D01*
X703508D01*
Y910016D01*
X702492D01*
Y909508D01*
X701984D01*
Y908492D01*
X702492D01*
X671984Y940984D02*
Y939968D01*
X674016D01*
Y940984D01*
X675032D01*
Y943016D01*
X674016D01*
Y944032D01*
X671984D01*
Y943016D01*
X670968D01*
Y940984D01*
X671984D01*
X672492Y941492D02*
Y940984D01*
X673508D01*
Y941492D01*
X674016D01*
Y942508D01*
X673508D01*
Y943016D01*
X672492D01*
Y942508D01*
X671984D01*
Y941492D01*
X672492D01*
X706984Y752984D02*
Y751968D01*
X709016D01*
Y752984D01*
X710032D01*
Y755016D01*
X709016D01*
Y756032D01*
X706984D01*
Y755016D01*
X705968D01*
Y752984D01*
X706984D01*
X707492Y753492D02*
Y752984D01*
X708508D01*
Y753492D01*
X709016D01*
Y754508D01*
X708508D01*
Y755016D01*
X707492D01*
Y754508D01*
X706984D01*
Y753492D01*
X707492D01*
X623984Y752984D02*
Y751968D01*
X626016D01*
Y752984D01*
X627032D01*
Y755016D01*
X626016D01*
Y756032D01*
X623984D01*
Y755016D01*
X622968D01*
Y752984D01*
X623984D01*
X624492Y753492D02*
Y752984D01*
X625508D01*
Y753492D01*
X626016D01*
Y754508D01*
X625508D01*
Y755016D01*
X624492D01*
Y754508D01*
X623984D01*
Y753492D01*
X624492D01*
X624482Y665482D02*
Y664466D01*
X626514D01*
Y665482D01*
X627530D01*
Y667514D01*
X626514D01*
Y668530D01*
X624482D01*
Y667514D01*
X623466D01*
Y665482D01*
X624482D01*
X624990Y665990D02*
Y665482D01*
X626006D01*
Y665990D01*
X626514D01*
Y667006D01*
X626006D01*
Y667514D01*
X624990D01*
Y667006D01*
X624482D01*
Y665990D01*
X624990D01*
X143984Y878984D02*
Y877968D01*
X146016D01*
Y878984D01*
X147032D01*
Y881016D01*
X146016D01*
Y882032D01*
X143984D01*
Y881016D01*
X142968D01*
Y878984D01*
X143984D01*
X144492Y879492D02*
Y878984D01*
X145508D01*
Y879492D01*
X146016D01*
Y880508D01*
X145508D01*
Y881016D01*
X144492D01*
Y880508D01*
X143984D01*
Y879492D01*
X144492D01*
X209984Y779984D02*
Y778968D01*
X212016D01*
Y779984D01*
X213032D01*
Y782016D01*
X212016D01*
Y783032D01*
X209984D01*
Y782016D01*
X208968D01*
Y779984D01*
X209984D01*
X210492Y780492D02*
Y779984D01*
X211508D01*
Y780492D01*
X212016D01*
Y781508D01*
X211508D01*
Y782016D01*
X210492D01*
Y781508D01*
X209984D01*
Y780492D01*
X210492D01*
X121603Y963103D02*
X122619D01*
X123635Y964119D01*
X124651Y963103D01*
X125667D01*
Y964119D01*
X124651Y965135D01*
X125667Y966151D01*
Y967167D01*
X124651D01*
X123635Y966151D01*
X122619Y967167D01*
X121603D01*
Y966151D01*
X122619Y965135D01*
X121603Y964119D01*
Y963103D01*
X122619Y964119D02*
X123127D01*
X123635Y964627D01*
X124143Y964119D01*
X124651D01*
Y964627D01*
X124143Y965135D01*
X124651Y965643D01*
Y966151D01*
X124143D01*
X123635Y965643D01*
X123127Y966151D01*
X122619D01*
Y965643D01*
X123127Y965135D01*
X122619Y964627D01*
Y964119D01*
X358968Y375968D02*
X359984D01*
X361000Y376984D01*
X362016Y375968D01*
X363032D01*
Y376984D01*
X362016Y378000D01*
X363032Y379016D01*
Y380032D01*
X362016D01*
X361000Y379016D01*
X359984Y380032D01*
X358968D01*
Y379016D01*
X359984Y378000D01*
X358968Y376984D01*
Y375968D01*
X359984Y376984D02*
X360492D01*
X361000Y377492D01*
X361508Y376984D01*
X362016D01*
Y377492D01*
X361508Y378000D01*
X362016Y378508D01*
Y379016D01*
X361508D01*
X361000Y378508D01*
X360492Y379016D01*
X359984D01*
Y378508D01*
X360492Y378000D01*
X359984Y377492D01*
Y376984D01*
X469968Y376968D02*
X470984D01*
X472000Y377984D01*
X473016Y376968D01*
X474032D01*
Y377984D01*
X473016Y379000D01*
X474032Y380016D01*
Y381032D01*
X473016D01*
X472000Y380016D01*
X470984Y381032D01*
X469968D01*
Y380016D01*
X470984Y379000D01*
X469968Y377984D01*
Y376968D01*
X470984Y377984D02*
X471492D01*
X472000Y378492D01*
X472508Y377984D01*
X473016D01*
Y378492D01*
X472508Y379000D01*
X473016Y379508D01*
Y380016D01*
X472508D01*
X472000Y379508D01*
X471492Y380016D01*
X470984D01*
Y379508D01*
X471492Y379000D01*
X470984Y378492D01*
Y377984D01*
X483968Y377968D02*
X484984D01*
X486000Y378984D01*
X487016Y377968D01*
X488032D01*
Y378984D01*
X487016Y380000D01*
X488032Y381016D01*
Y382032D01*
X487016D01*
X486000Y381016D01*
X484984Y382032D01*
X483968D01*
Y381016D01*
X484984Y380000D01*
X483968Y378984D01*
Y377968D01*
X484984Y378984D02*
X485492D01*
X486000Y379492D01*
X486508Y378984D01*
X487016D01*
Y379492D01*
X486508Y380000D01*
X487016Y380508D01*
Y381016D01*
X486508D01*
X486000Y380508D01*
X485492Y381016D01*
X484984D01*
Y380508D01*
X485492Y380000D01*
X484984Y379492D01*
Y378984D01*
X483968Y390968D02*
X484984D01*
X486000Y391984D01*
X487016Y390968D01*
X488032D01*
Y391984D01*
X487016Y393000D01*
X488032Y394016D01*
Y395032D01*
X487016D01*
X486000Y394016D01*
X484984Y395032D01*
X483968D01*
Y394016D01*
X484984Y393000D01*
X483968Y391984D01*
Y390968D01*
X484984Y391984D02*
X485492D01*
X486000Y392492D01*
X486508Y391984D01*
X487016D01*
Y392492D01*
X486508Y393000D01*
X487016Y393508D01*
Y394016D01*
X486508D01*
X486000Y393508D01*
X485492Y394016D01*
X484984D01*
Y393508D01*
X485492Y393000D01*
X484984Y392492D01*
Y391984D01*
X469968Y390968D02*
X470984D01*
X472000Y391984D01*
X473016Y390968D01*
X474032D01*
Y391984D01*
X473016Y393000D01*
X474032Y394016D01*
Y395032D01*
X473016D01*
X472000Y394016D01*
X470984Y395032D01*
X469968D01*
Y394016D01*
X470984Y393000D01*
X469968Y391984D01*
Y390968D01*
X470984Y391984D02*
X471492D01*
X472000Y392492D01*
X472508Y391984D01*
X473016D01*
Y392492D01*
X472508Y393000D01*
X473016Y393508D01*
Y394016D01*
X472508D01*
X472000Y393508D01*
X471492Y394016D01*
X470984D01*
Y393508D01*
X471492Y393000D01*
X470984Y392492D01*
Y391984D01*
X376968Y375968D02*
X377984D01*
X379000Y376984D01*
X380016Y375968D01*
X381032D01*
Y376984D01*
X380016Y378000D01*
X381032Y379016D01*
Y380032D01*
X380016D01*
X379000Y379016D01*
X377984Y380032D01*
X376968D01*
Y379016D01*
X377984Y378000D01*
X376968Y376984D01*
Y375968D01*
X377984Y376984D02*
X378492D01*
X379000Y377492D01*
X379508Y376984D01*
X380016D01*
Y377492D01*
X379508Y378000D01*
X380016Y378508D01*
Y379016D01*
X379508D01*
X379000Y378508D01*
X378492Y379016D01*
X377984D01*
Y378508D01*
X378492Y378000D01*
X377984Y377492D01*
Y376984D01*
X376968Y392968D02*
X377984D01*
X379000Y393984D01*
X380016Y392968D01*
X381032D01*
Y393984D01*
X380016Y395000D01*
X381032Y396016D01*
Y397032D01*
X380016D01*
X379000Y396016D01*
X377984Y397032D01*
X376968D01*
Y396016D01*
X377984Y395000D01*
X376968Y393984D01*
Y392968D01*
X377984Y393984D02*
X378492D01*
X379000Y394492D01*
X379508Y393984D01*
X380016D01*
Y394492D01*
X379508Y395000D01*
X380016Y395508D01*
Y396016D01*
X379508D01*
X379000Y395508D01*
X378492Y396016D01*
X377984D01*
Y395508D01*
X378492Y395000D01*
X377984Y394492D01*
Y393984D01*
X359968Y392968D02*
X360984D01*
X362000Y393984D01*
X363016Y392968D01*
X364032D01*
Y393984D01*
X363016Y395000D01*
X364032Y396016D01*
Y397032D01*
X363016D01*
X362000Y396016D01*
X360984Y397032D01*
X359968D01*
Y396016D01*
X360984Y395000D01*
X359968Y393984D01*
Y392968D01*
X360984Y393984D02*
X361492D01*
X362000Y394492D01*
X362508Y393984D01*
X363016D01*
Y394492D01*
X362508Y395000D01*
X363016Y395508D01*
Y396016D01*
X362508D01*
X362000Y395508D01*
X361492Y396016D01*
X360984D01*
Y395508D01*
X361492Y395000D01*
X360984Y394492D01*
Y393984D01*
X301675Y153699D02*
X302691D01*
X303707Y154714D01*
X304723Y153699D01*
X305739D01*
Y154714D01*
X304723Y155730D01*
X305739Y156747D01*
Y157762D01*
X304723D01*
X303707Y156747D01*
X302691Y157762D01*
X301675D01*
Y156747D01*
X302691Y155730D01*
X301675Y154714D01*
Y153699D01*
X302691Y154714D02*
X303199D01*
X303707Y155223D01*
X304215Y154714D01*
X304723D01*
Y155223D01*
X304215Y155730D01*
X304723Y156238D01*
Y156747D01*
X304215D01*
X303707Y156238D01*
X303199Y156747D01*
X302691D01*
Y156238D01*
X303199Y155730D01*
X302691Y155223D01*
Y154714D01*
X286675Y153699D02*
X287691D01*
X288707Y154714D01*
X289723Y153699D01*
X290739D01*
Y154714D01*
X289723Y155730D01*
X290739Y156747D01*
Y157762D01*
X289723D01*
X288707Y156747D01*
X287691Y157762D01*
X286675D01*
Y156747D01*
X287691Y155730D01*
X286675Y154714D01*
Y153699D01*
X287691Y154714D02*
X288199D01*
X288707Y155223D01*
X289215Y154714D01*
X289723D01*
Y155223D01*
X289215Y155730D01*
X289723Y156238D01*
Y156747D01*
X289215D01*
X288707Y156238D01*
X288199Y156747D01*
X287691D01*
Y156238D01*
X288199Y155730D01*
X287691Y155223D01*
Y154714D01*
X301675Y168699D02*
X302691D01*
X303707Y169715D01*
X304723Y168699D01*
X305739D01*
Y169715D01*
X304723Y170730D01*
X305739Y171747D01*
Y172763D01*
X304723D01*
X303707Y171747D01*
X302691Y172763D01*
X301675D01*
Y171747D01*
X302691Y170730D01*
X301675Y169715D01*
Y168699D01*
X302691Y169715D02*
X303199D01*
X303707Y170222D01*
X304215Y169715D01*
X304723D01*
Y170222D01*
X304215Y170730D01*
X304723Y171238D01*
Y171747D01*
X304215D01*
X303707Y171238D01*
X303199Y171747D01*
X302691D01*
Y171238D01*
X303199Y170730D01*
X302691Y170222D01*
Y169715D01*
X286968Y168968D02*
X287984D01*
X289000Y169984D01*
X290016Y168968D01*
X291032D01*
Y169984D01*
X290016Y171000D01*
X291032Y172016D01*
Y173032D01*
X290016D01*
X289000Y172016D01*
X287984Y173032D01*
X286968D01*
Y172016D01*
X287984Y171000D01*
X286968Y169984D01*
Y168968D01*
X287984Y169984D02*
X288492D01*
X289000Y170492D01*
X289508Y169984D01*
X290016D01*
Y170492D01*
X289508Y171000D01*
X290016Y171508D01*
Y172016D01*
X289508D01*
X289000Y171508D01*
X288492Y172016D01*
X287984D01*
Y171508D01*
X288492Y171000D01*
X287984Y170492D01*
Y169984D01*
D124*
X241032Y95000D02*
G03*
X241032Y95000I-2032J0D01*
G01*
X237032Y1572000D02*
G03*
X237032Y1572000I-2032J0D01*
G01*
X717032Y1866000D02*
G03*
X717032Y1866000I-2032J0D01*
G01*
X692032Y1766000D02*
G03*
X692032Y1766000I-2032J0D01*
G01*
X652032Y230000D02*
G03*
X652032Y230000I-2032J0D01*
G01*
Y330000D02*
G03*
X652032Y330000I-2032J0D01*
G01*
X122032Y230000D02*
G03*
X122032Y230000I-2032J0D01*
G01*
Y330000D02*
G03*
X122032Y330000I-2032J0D01*
G01*
D125*
X651016Y230000D02*
G03*
X651016Y230000I-1016J0D01*
G01*
Y330000D02*
G03*
X651016Y330000I-1016J0D01*
G01*
X121016Y230000D02*
G03*
X121016Y230000I-1016J0D01*
G01*
Y330000D02*
G03*
X121016Y330000I-1016J0D01*
G01*
M02*
